%TF.GenerationSoftware,Altium Limited,Altium Designer,24.1.2 (44)*%
G04 Layer_Color=8388736*
%FSLAX45Y45*%
%MOMM*%
%TF.SameCoordinates,081E4AA9-6FF8-4DA1-966E-1EA6E075E410*%
%TF.FilePolarity,Negative*%
%TF.FileFunction,Soldermask,Top*%
%TF.Part,Single*%
G01*
G75*
%TA.AperFunction,SMDPad,CuDef*%
%ADD11R,1.40000X0.95000*%
%ADD15R,0.95000X1.40000*%
%ADD26R,1.75320X1.45320*%
%ADD27R,1.10320X1.75320*%
%ADD28R,2.80320X1.80320*%
%ADD29R,0.90320X1.72820*%
%ADD30R,1.15320X1.90320*%
%TA.AperFunction,WasherPad*%
%ADD31C,0.20320*%
%TA.AperFunction,ComponentPad*%
%ADD32C,3.05320*%
%ADD33C,0.80320*%
%ADD34R,3.20320X1.98320*%
%ADD35O,3.20320X1.98320*%
%TA.AperFunction,ViaPad*%
%ADD36C,1.47320*%
D11*
X6756400Y3117000D02*
D03*
Y3302000D02*
D03*
X6121400Y3120600D02*
D03*
Y3305600D02*
D03*
X6769100Y1984800D02*
D03*
Y1799800D02*
D03*
X6146800Y1984800D02*
D03*
Y1799800D02*
D03*
D15*
X1870500Y2819400D02*
D03*
X1685500D02*
D03*
D26*
X3327400Y3136000D02*
D03*
Y3341000D02*
D03*
X4800600Y3341000D02*
D03*
Y3136000D02*
D03*
X3340100Y2007500D02*
D03*
Y1802500D02*
D03*
X4813300Y1994800D02*
D03*
Y1789800D02*
D03*
D27*
X5606200Y3124200D02*
D03*
X5341200D02*
D03*
X5657000Y1993900D02*
D03*
X5392000D02*
D03*
D28*
X3934800Y2006600D02*
D03*
X4294800D02*
D03*
X3909400Y3136900D02*
D03*
X4269400D02*
D03*
D29*
X1816100Y3992300D02*
D03*
X1689100D02*
D03*
X1562100D02*
D03*
X1435100D02*
D03*
Y3449900D02*
D03*
X1562100D02*
D03*
X1689100D02*
D03*
X1816100D02*
D03*
D30*
X1587200Y3136900D02*
D03*
X1867200D02*
D03*
D31*
X8509000Y381000D02*
D03*
Y4699000D02*
D03*
D32*
X8255000Y2540000D02*
D03*
X7755000Y3040000D02*
D03*
Y2040000D02*
D03*
D33*
X8505000D02*
D03*
X8255000D02*
D03*
X8505000Y3040000D02*
D03*
X8255000D02*
D03*
X7755000Y2540000D02*
D03*
D34*
X292100Y4826000D02*
D03*
D35*
Y4572000D02*
D03*
Y4318000D02*
D03*
Y4064000D02*
D03*
Y3810000D02*
D03*
Y3556000D02*
D03*
Y3302000D02*
D03*
Y3048000D02*
D03*
Y2794000D02*
D03*
Y2540000D02*
D03*
Y2286000D02*
D03*
Y2032000D02*
D03*
Y1778000D02*
D03*
Y1524000D02*
D03*
Y1270000D02*
D03*
Y1016000D02*
D03*
Y762000D02*
D03*
Y508000D02*
D03*
Y254000D02*
D03*
D36*
X1892300Y4203700D02*
D03*
X1422400D02*
D03*
X1689100D02*
D03*
X2038500Y2628900D02*
D03*
%TF.MD5,d8619e39e9de73abc16f7e98b0e5960d*%
M02*
