%TF.GenerationSoftware,Altium Limited,Altium Designer,24.1.2 (44)*%
G04 Layer_Physical_Order=2*
G04 Layer_Color=16711680*
%FSLAX45Y45*%
%MOMM*%
%TF.SameCoordinates,081E4AA9-6FF8-4DA1-966E-1EA6E075E410*%
%TF.FilePolarity,Positive*%
%TF.FileFunction,Copper,L2,Bot,Signal*%
%TF.Part,Single*%
G01*
G75*
%TA.AperFunction,Conductor*%
%ADD17C,0.25400*%
%TA.AperFunction,ComponentPad*%
%ADD18C,2.85000*%
%ADD19C,0.60000*%
%ADD20R,3.00000X1.78000*%
%ADD21O,3.00000X1.78000*%
%TA.AperFunction,ViaPad*%
%ADD22C,1.27000*%
G36*
X8826500Y63500D02*
X63500D01*
Y5016500D01*
X8826500D01*
Y63500D01*
D02*
G37*
%LPC*%
G36*
X467500Y4940400D02*
X304800D01*
Y4838700D01*
X467500D01*
Y4940400D01*
D02*
G37*
G36*
X279400D02*
X116700D01*
Y4838700D01*
X279400D01*
Y4940400D01*
D02*
G37*
G36*
X467500Y4813300D02*
X304800D01*
Y4711600D01*
X467500D01*
Y4813300D01*
D02*
G37*
G36*
X279400D02*
X116700D01*
Y4711600D01*
X279400D01*
Y4813300D01*
D02*
G37*
G36*
X353100Y4687387D02*
X304800D01*
Y4584700D01*
X466815D01*
X464555Y4601864D01*
X453028Y4629694D01*
X434691Y4653591D01*
X410794Y4671928D01*
X382964Y4683455D01*
X353100Y4687387D01*
D02*
G37*
G36*
X279400D02*
X231100D01*
X201236Y4683455D01*
X173407Y4671928D01*
X149509Y4653591D01*
X131172Y4629694D01*
X119645Y4601864D01*
X117385Y4584700D01*
X279400D01*
Y4687387D01*
D02*
G37*
G36*
X8524759Y4859000D02*
X8493241D01*
X8462330Y4852851D01*
X8433211Y4840790D01*
X8407006Y4823280D01*
X8384720Y4800994D01*
X8367210Y4774789D01*
X8355149Y4745670D01*
X8349000Y4714759D01*
Y4683241D01*
X8355149Y4652330D01*
X8367210Y4623211D01*
X8384720Y4597006D01*
X8407006Y4574720D01*
X8433211Y4557210D01*
X8462330Y4545149D01*
X8493241Y4539000D01*
X8524759D01*
X8555670Y4545149D01*
X8584789Y4557210D01*
X8610994Y4574720D01*
X8633280Y4597006D01*
X8650790Y4623211D01*
X8662851Y4652330D01*
X8669000Y4683241D01*
Y4714759D01*
X8662851Y4745670D01*
X8650790Y4774789D01*
X8633280Y4800994D01*
X8610994Y4823280D01*
X8584789Y4840790D01*
X8555670Y4852851D01*
X8524759Y4859000D01*
D02*
G37*
G36*
X466815Y4559300D02*
X304800D01*
Y4456613D01*
X353100D01*
X382964Y4460545D01*
X410794Y4472072D01*
X434691Y4490409D01*
X453028Y4514306D01*
X464555Y4542136D01*
X466815Y4559300D01*
D02*
G37*
G36*
X279400D02*
X117385D01*
X119645Y4542136D01*
X131172Y4514306D01*
X149509Y4490409D01*
X173406Y4472072D01*
X201236Y4460545D01*
X231100Y4456613D01*
X279400D01*
Y4559300D01*
D02*
G37*
G36*
X353100Y4433387D02*
X231100D01*
X201236Y4429455D01*
X173407Y4417928D01*
X149509Y4399591D01*
X131172Y4375694D01*
X119645Y4347864D01*
X115713Y4318000D01*
X119645Y4288136D01*
X131172Y4260306D01*
X149509Y4236409D01*
X173406Y4218072D01*
X201236Y4206545D01*
X231100Y4202613D01*
X353100D01*
X382964Y4206545D01*
X410794Y4218072D01*
X434691Y4236409D01*
X453028Y4260306D01*
X464555Y4288136D01*
X468487Y4318000D01*
X464555Y4347864D01*
X453028Y4375694D01*
X434691Y4399591D01*
X410794Y4417928D01*
X382964Y4429455D01*
X353100Y4433387D01*
D02*
G37*
G36*
X1587500Y4521947D02*
X901700D01*
X886834Y4518989D01*
X874231Y4510569D01*
X671031Y4307369D01*
X662611Y4294766D01*
X659653Y4279900D01*
Y3724491D01*
X530009Y3594847D01*
X460835D01*
X453028Y3613694D01*
X434691Y3637591D01*
X410794Y3655928D01*
X382964Y3667455D01*
X353100Y3671387D01*
X231100D01*
X201236Y3667455D01*
X173407Y3655928D01*
X149509Y3637591D01*
X131172Y3613694D01*
X119645Y3585864D01*
X115713Y3556000D01*
X119645Y3526136D01*
X131172Y3498306D01*
X149509Y3474409D01*
X173406Y3456072D01*
X201236Y3444545D01*
X231100Y3440613D01*
X353100D01*
X382964Y3444545D01*
X410794Y3456072D01*
X434691Y3474409D01*
X453028Y3498306D01*
X460835Y3517153D01*
X546100D01*
X560966Y3520111D01*
X573569Y3528531D01*
X725969Y3680931D01*
X734389Y3693534D01*
X737347Y3708400D01*
Y4263809D01*
X917791Y4444253D01*
X1571409D01*
X1650253Y4365409D01*
Y4283925D01*
X1634514Y4274838D01*
X1617962Y4258286D01*
X1606258Y4238014D01*
X1600200Y4215404D01*
Y4191996D01*
X1606258Y4169386D01*
X1617962Y4149114D01*
X1634514Y4132562D01*
X1654786Y4120858D01*
X1677396Y4114800D01*
X1700804D01*
X1723414Y4120858D01*
X1743686Y4132562D01*
X1760238Y4149114D01*
X1771942Y4169386D01*
X1778000Y4191996D01*
Y4215404D01*
X1771942Y4238014D01*
X1760238Y4258286D01*
X1743686Y4274838D01*
X1727947Y4283925D01*
Y4381500D01*
X1725480Y4393900D01*
X1724989Y4396366D01*
X1716569Y4408969D01*
X1614969Y4510569D01*
X1602366Y4518989D01*
X1587500Y4521947D01*
D02*
G37*
G36*
X1434104Y4292600D02*
X1410696D01*
X1388086Y4286542D01*
X1367814Y4274838D01*
X1351262Y4258286D01*
X1342175Y4242547D01*
X1219200D01*
X1204334Y4239589D01*
X1191731Y4231169D01*
X975831Y4015269D01*
X967411Y4002666D01*
X964453Y3987800D01*
Y3635591D01*
X669709Y3340847D01*
X460835D01*
X453028Y3359694D01*
X434691Y3383591D01*
X410794Y3401928D01*
X382964Y3413455D01*
X353100Y3417387D01*
X231100D01*
X201236Y3413455D01*
X173407Y3401928D01*
X149509Y3383591D01*
X131172Y3359694D01*
X119645Y3331864D01*
X115713Y3302000D01*
X119645Y3272136D01*
X131172Y3244306D01*
X149509Y3220409D01*
X173406Y3202072D01*
X201236Y3190545D01*
X231100Y3186613D01*
X353100D01*
X382964Y3190545D01*
X410794Y3202072D01*
X434691Y3220409D01*
X453028Y3244306D01*
X460835Y3263153D01*
X685800D01*
X700666Y3266111D01*
X713269Y3274531D01*
X1030769Y3592031D01*
X1039189Y3604634D01*
X1042147Y3619500D01*
Y3971709D01*
X1235291Y4164853D01*
X1342175D01*
X1351262Y4149114D01*
X1367814Y4132562D01*
X1388086Y4120858D01*
X1410696Y4114800D01*
X1434104D01*
X1456714Y4120858D01*
X1476986Y4132562D01*
X1493538Y4149114D01*
X1505242Y4169386D01*
X1511300Y4191996D01*
Y4215404D01*
X1505242Y4238014D01*
X1493538Y4258286D01*
X1476986Y4274838D01*
X1456714Y4286542D01*
X1434104Y4292600D01*
D02*
G37*
G36*
X353100Y4179387D02*
X231100D01*
X201236Y4175455D01*
X173407Y4163928D01*
X149509Y4145591D01*
X131172Y4121694D01*
X119645Y4093864D01*
X115713Y4064000D01*
X119645Y4034136D01*
X131172Y4006306D01*
X149509Y3982409D01*
X173406Y3964072D01*
X201236Y3952545D01*
X231100Y3948613D01*
X353100D01*
X382964Y3952545D01*
X410794Y3964072D01*
X434691Y3982409D01*
X453028Y4006306D01*
X464555Y4034136D01*
X468487Y4064000D01*
X464555Y4093864D01*
X453028Y4121694D01*
X434691Y4145591D01*
X410794Y4163928D01*
X382964Y4175455D01*
X353100Y4179387D01*
D02*
G37*
G36*
Y3925387D02*
X231100D01*
X201236Y3921455D01*
X173407Y3909928D01*
X149509Y3891591D01*
X131172Y3867694D01*
X119645Y3839864D01*
X115713Y3810000D01*
X119645Y3780136D01*
X131172Y3752306D01*
X149509Y3728409D01*
X173406Y3710072D01*
X201236Y3698545D01*
X231100Y3694613D01*
X353100D01*
X382964Y3698545D01*
X410794Y3710072D01*
X434691Y3728409D01*
X453028Y3752306D01*
X464555Y3780136D01*
X468487Y3810000D01*
X464555Y3839864D01*
X453028Y3867694D01*
X434691Y3891591D01*
X410794Y3909928D01*
X382964Y3921455D01*
X353100Y3925387D01*
D02*
G37*
G36*
X1904004Y4292600D02*
X1880596D01*
X1857986Y4286542D01*
X1837714Y4274838D01*
X1821162Y4258286D01*
X1809458Y4238014D01*
X1803400Y4215404D01*
Y4191996D01*
X1809458Y4169386D01*
X1821162Y4149114D01*
X1837714Y4132562D01*
X1857986Y4120858D01*
X1880596Y4114800D01*
X1904004D01*
X1926614Y4120858D01*
X1946886Y4132562D01*
X1963438Y4149114D01*
X1972525Y4164853D01*
X2079409D01*
X2170953Y4073309D01*
Y3953091D01*
X2003209Y3785347D01*
X1397000D01*
X1382134Y3782389D01*
X1369531Y3773969D01*
X682409Y3086847D01*
X460835D01*
X453028Y3105694D01*
X434691Y3129591D01*
X410794Y3147928D01*
X382964Y3159455D01*
X353100Y3163387D01*
X231100D01*
X201236Y3159455D01*
X173407Y3147928D01*
X149509Y3129591D01*
X131172Y3105694D01*
X119645Y3077864D01*
X115713Y3048000D01*
X119645Y3018136D01*
X131172Y2990306D01*
X149509Y2966409D01*
X173406Y2948072D01*
X201236Y2936545D01*
X231100Y2932613D01*
X353100D01*
X382964Y2936545D01*
X410794Y2948072D01*
X434691Y2966409D01*
X453028Y2990306D01*
X460835Y3009153D01*
X698500D01*
X713366Y3012111D01*
X725969Y3020531D01*
X1413091Y3707653D01*
X2019300D01*
X2034166Y3710611D01*
X2046769Y3719031D01*
X2237269Y3909531D01*
X2245689Y3922134D01*
X2248647Y3937000D01*
Y4089400D01*
X2245689Y4104266D01*
X2237269Y4116869D01*
X2122969Y4231169D01*
X2110366Y4239589D01*
X2095500Y4242547D01*
X1972525D01*
X1963438Y4258286D01*
X1946886Y4274838D01*
X1926614Y4286542D01*
X1904004Y4292600D01*
D02*
G37*
G36*
X8516243Y3125400D02*
X8493757D01*
X8472037Y3119580D01*
X8452563Y3108337D01*
X8436663Y3092437D01*
X8425420Y3072963D01*
X8419600Y3051243D01*
Y3028757D01*
X8425420Y3007037D01*
X8436663Y2987563D01*
X8452563Y2971663D01*
X8472037Y2960420D01*
X8493757Y2954600D01*
X8516243D01*
X8537963Y2960420D01*
X8557437Y2971663D01*
X8573337Y2987563D01*
X8584580Y3007037D01*
X8590400Y3028757D01*
Y3051243D01*
X8584580Y3072963D01*
X8573337Y3092437D01*
X8557437Y3108337D01*
X8537963Y3119580D01*
X8516243Y3125400D01*
D02*
G37*
G36*
X8266243D02*
X8243757D01*
X8222037Y3119580D01*
X8202563Y3108337D01*
X8186663Y3092437D01*
X8175420Y3072963D01*
X8169600Y3051243D01*
Y3028757D01*
X8175420Y3007037D01*
X8186663Y2987563D01*
X8202563Y2971663D01*
X8222037Y2960420D01*
X8243757Y2954600D01*
X8266243D01*
X8287963Y2960420D01*
X8307437Y2971663D01*
X8323337Y2987563D01*
X8334580Y3007037D01*
X8340400Y3028757D01*
Y3051243D01*
X8334580Y3072963D01*
X8323337Y3092437D01*
X8307437Y3108337D01*
X8287963Y3119580D01*
X8266243Y3125400D01*
D02*
G37*
G36*
X7771537Y3207900D02*
X7738463D01*
X7706025Y3201447D01*
X7675470Y3188791D01*
X7647970Y3170416D01*
X7624584Y3147030D01*
X7606209Y3119530D01*
X7593553Y3088975D01*
X7587100Y3056537D01*
Y3023463D01*
X7593553Y2991026D01*
X7606209Y2960470D01*
X7624584Y2932970D01*
X7647970Y2909584D01*
X7675470Y2891209D01*
X7706025Y2878553D01*
X7738463Y2872100D01*
X7771537D01*
X7803974Y2878553D01*
X7834530Y2891209D01*
X7862030Y2909584D01*
X7885416Y2932970D01*
X7903791Y2960470D01*
X7916447Y2991026D01*
X7922900Y3023463D01*
Y3056537D01*
X7916447Y3088975D01*
X7903791Y3119530D01*
X7885416Y3147030D01*
X7862030Y3170416D01*
X7834530Y3188791D01*
X7803974Y3201447D01*
X7771537Y3207900D01*
D02*
G37*
G36*
X353100Y2909387D02*
X231100D01*
X201236Y2905455D01*
X173407Y2893928D01*
X149509Y2875591D01*
X131172Y2851694D01*
X119645Y2823864D01*
X115713Y2794000D01*
X119645Y2764136D01*
X131172Y2736306D01*
X149509Y2712409D01*
X173406Y2694072D01*
X201236Y2682545D01*
X231100Y2678613D01*
X353100D01*
X382964Y2682545D01*
X410794Y2694072D01*
X434691Y2712409D01*
X453028Y2736306D01*
X464555Y2764136D01*
X468487Y2794000D01*
X464555Y2823864D01*
X453028Y2851694D01*
X434691Y2875591D01*
X410794Y2893928D01*
X382964Y2905455D01*
X353100Y2909387D01*
D02*
G37*
G36*
X8271537Y2707900D02*
X8267700D01*
Y2552700D01*
X8422900D01*
Y2556537D01*
X8416447Y2588975D01*
X8403791Y2619530D01*
X8385416Y2647030D01*
X8362030Y2670416D01*
X8334530Y2688791D01*
X8303975Y2701447D01*
X8271537Y2707900D01*
D02*
G37*
G36*
X8242300D02*
X8238463D01*
X8206025Y2701447D01*
X8175470Y2688791D01*
X8147970Y2670416D01*
X8124584Y2647030D01*
X8106209Y2619530D01*
X8093553Y2588975D01*
X8087100Y2556537D01*
Y2552700D01*
X8242300D01*
Y2707900D01*
D02*
G37*
G36*
X7766243Y2625400D02*
X7743757D01*
X7722037Y2619580D01*
X7702563Y2608337D01*
X7686663Y2592437D01*
X7675420Y2572963D01*
X7669600Y2551243D01*
Y2528757D01*
X7675420Y2507037D01*
X7686663Y2487563D01*
X7702563Y2471663D01*
X7722037Y2460420D01*
X7743757Y2454600D01*
X7766243D01*
X7787963Y2460420D01*
X7807437Y2471663D01*
X7823337Y2487563D01*
X7834580Y2507037D01*
X7840400Y2528757D01*
Y2551243D01*
X7834580Y2572963D01*
X7823337Y2592437D01*
X7807437Y2608337D01*
X7787963Y2619580D01*
X7766243Y2625400D01*
D02*
G37*
G36*
X353100Y2655387D02*
X231100D01*
X201236Y2651455D01*
X173407Y2639928D01*
X149509Y2621591D01*
X131172Y2597694D01*
X119645Y2569864D01*
X115713Y2540000D01*
X119645Y2510136D01*
X131172Y2482306D01*
X149509Y2458409D01*
X173406Y2440072D01*
X201236Y2428545D01*
X231100Y2424613D01*
X353100D01*
X382964Y2428545D01*
X410794Y2440072D01*
X434691Y2458409D01*
X453028Y2482306D01*
X464555Y2510136D01*
X468487Y2540000D01*
X464555Y2569864D01*
X453028Y2597694D01*
X434691Y2621591D01*
X410794Y2639928D01*
X382964Y2651455D01*
X353100Y2655387D01*
D02*
G37*
G36*
X8422900Y2527300D02*
X8267700D01*
Y2372100D01*
X8271537D01*
X8303975Y2378553D01*
X8334530Y2391209D01*
X8362030Y2409584D01*
X8385416Y2432970D01*
X8403791Y2460470D01*
X8416447Y2491025D01*
X8422900Y2523463D01*
Y2527300D01*
D02*
G37*
G36*
X8242300D02*
X8087100D01*
Y2523463D01*
X8093553Y2491025D01*
X8106209Y2460470D01*
X8124584Y2432970D01*
X8147970Y2409584D01*
X8175470Y2391209D01*
X8206025Y2378553D01*
X8238463Y2372100D01*
X8242300D01*
Y2527300D01*
D02*
G37*
G36*
X353100Y2401387D02*
X231100D01*
X201236Y2397455D01*
X173407Y2385928D01*
X149509Y2367591D01*
X131172Y2343694D01*
X119645Y2315864D01*
X115713Y2286000D01*
X119645Y2256136D01*
X131172Y2228306D01*
X149509Y2204409D01*
X173406Y2186072D01*
X201236Y2174545D01*
X231100Y2170613D01*
X353100D01*
X382964Y2174545D01*
X410794Y2186072D01*
X434691Y2204409D01*
X453028Y2228306D01*
X464555Y2256136D01*
X468487Y2286000D01*
X464555Y2315864D01*
X453028Y2343694D01*
X434691Y2367591D01*
X410794Y2385928D01*
X382964Y2397455D01*
X353100Y2401387D01*
D02*
G37*
G36*
X8516243Y2125400D02*
X8493757D01*
X8472037Y2119580D01*
X8452563Y2108337D01*
X8436663Y2092437D01*
X8425420Y2072963D01*
X8419600Y2051243D01*
Y2028757D01*
X8425420Y2007037D01*
X8436663Y1987563D01*
X8452563Y1971663D01*
X8472037Y1960420D01*
X8493757Y1954600D01*
X8516243D01*
X8537963Y1960420D01*
X8557437Y1971663D01*
X8573337Y1987563D01*
X8584580Y2007037D01*
X8590400Y2028757D01*
Y2051243D01*
X8584580Y2072963D01*
X8573337Y2092437D01*
X8557437Y2108337D01*
X8537963Y2119580D01*
X8516243Y2125400D01*
D02*
G37*
G36*
X8266243D02*
X8243757D01*
X8222037Y2119580D01*
X8202563Y2108337D01*
X8186663Y2092437D01*
X8175420Y2072963D01*
X8169600Y2051243D01*
Y2028757D01*
X8175420Y2007037D01*
X8186663Y1987563D01*
X8202563Y1971663D01*
X8222037Y1960420D01*
X8243757Y1954600D01*
X8266243D01*
X8287963Y1960420D01*
X8307437Y1971663D01*
X8323337Y1987563D01*
X8334580Y2007037D01*
X8340400Y2028757D01*
Y2051243D01*
X8334580Y2072963D01*
X8323337Y2092437D01*
X8307437Y2108337D01*
X8287963Y2119580D01*
X8266243Y2125400D01*
D02*
G37*
G36*
X353100Y2147387D02*
X231100D01*
X201236Y2143455D01*
X173407Y2131928D01*
X149509Y2113591D01*
X131172Y2089694D01*
X119645Y2061864D01*
X115713Y2032000D01*
X119645Y2002136D01*
X131172Y1974306D01*
X149509Y1950409D01*
X173406Y1932072D01*
X201236Y1920545D01*
X231100Y1916613D01*
X353100D01*
X382964Y1920545D01*
X410794Y1932072D01*
X434691Y1950409D01*
X453028Y1974306D01*
X464555Y2002136D01*
X468487Y2032000D01*
X464555Y2061864D01*
X453028Y2089694D01*
X434691Y2113591D01*
X410794Y2131928D01*
X382964Y2143455D01*
X353100Y2147387D01*
D02*
G37*
G36*
X7771537Y2207900D02*
X7738463D01*
X7706025Y2201447D01*
X7675470Y2188791D01*
X7647970Y2170416D01*
X7624584Y2147030D01*
X7606209Y2119530D01*
X7593553Y2088974D01*
X7587100Y2056537D01*
Y2023463D01*
X7593553Y1991025D01*
X7606209Y1960470D01*
X7624584Y1932970D01*
X7647970Y1909584D01*
X7675470Y1891209D01*
X7706025Y1878553D01*
X7738463Y1872100D01*
X7771537D01*
X7803974Y1878553D01*
X7834530Y1891209D01*
X7862030Y1909584D01*
X7885416Y1932970D01*
X7903791Y1960470D01*
X7916447Y1991025D01*
X7922900Y2023463D01*
Y2056537D01*
X7916447Y2088974D01*
X7903791Y2119530D01*
X7885416Y2147030D01*
X7862030Y2170416D01*
X7834530Y2188791D01*
X7803974Y2201447D01*
X7771537Y2207900D01*
D02*
G37*
G36*
X353100Y1893387D02*
X231100D01*
X201236Y1889455D01*
X173407Y1877928D01*
X149509Y1859591D01*
X131172Y1835694D01*
X119645Y1807864D01*
X115713Y1778000D01*
X119645Y1748136D01*
X131172Y1720306D01*
X149509Y1696409D01*
X173406Y1678072D01*
X201236Y1666545D01*
X231100Y1662613D01*
X353100D01*
X382964Y1666545D01*
X410794Y1678072D01*
X434691Y1696409D01*
X453028Y1720306D01*
X464555Y1748136D01*
X468487Y1778000D01*
X464555Y1807864D01*
X453028Y1835694D01*
X434691Y1859591D01*
X410794Y1877928D01*
X382964Y1889455D01*
X353100Y1893387D01*
D02*
G37*
G36*
Y1639387D02*
X231100D01*
X201236Y1635455D01*
X173407Y1623928D01*
X149509Y1605591D01*
X131172Y1581694D01*
X119645Y1553864D01*
X115713Y1524000D01*
X119645Y1494136D01*
X131172Y1466306D01*
X149509Y1442409D01*
X173406Y1424072D01*
X201236Y1412545D01*
X231100Y1408613D01*
X353100D01*
X382964Y1412545D01*
X410794Y1424072D01*
X434691Y1442409D01*
X453028Y1466306D01*
X464555Y1494136D01*
X468487Y1524000D01*
X464555Y1553864D01*
X453028Y1581694D01*
X434691Y1605591D01*
X410794Y1623928D01*
X382964Y1635455D01*
X353100Y1639387D01*
D02*
G37*
G36*
Y1385387D02*
X231100D01*
X201236Y1381455D01*
X173407Y1369928D01*
X149509Y1351591D01*
X131172Y1327694D01*
X119645Y1299864D01*
X115713Y1270000D01*
X119645Y1240136D01*
X131172Y1212306D01*
X149509Y1188409D01*
X173406Y1170072D01*
X201236Y1158545D01*
X231100Y1154613D01*
X353100D01*
X382964Y1158545D01*
X410794Y1170072D01*
X434691Y1188409D01*
X453028Y1212306D01*
X464555Y1240136D01*
X468487Y1270000D01*
X464555Y1299864D01*
X453028Y1327694D01*
X434691Y1351591D01*
X410794Y1369928D01*
X382964Y1381455D01*
X353100Y1385387D01*
D02*
G37*
G36*
X2050204Y2717800D02*
X2026796D01*
X2004186Y2711742D01*
X1983914Y2700038D01*
X1967362Y2683486D01*
X1955658Y2663214D01*
X1949600Y2640604D01*
Y2617196D01*
X1955658Y2594586D01*
X1967362Y2574314D01*
X1983914Y2557762D01*
X1999653Y2548675D01*
Y2346691D01*
X695109Y1042147D01*
X465045D01*
X464555Y1045864D01*
X453028Y1073694D01*
X434691Y1097591D01*
X410794Y1115928D01*
X382964Y1127455D01*
X353100Y1131387D01*
X231100D01*
X201236Y1127455D01*
X173407Y1115928D01*
X149509Y1097591D01*
X131172Y1073694D01*
X119645Y1045864D01*
X115713Y1016000D01*
X119645Y986136D01*
X131172Y958306D01*
X149509Y934409D01*
X173406Y916072D01*
X201236Y904545D01*
X231100Y900613D01*
X353100D01*
X382964Y904545D01*
X410794Y916072D01*
X434691Y934409D01*
X453028Y958306D01*
X455574Y964453D01*
X711200D01*
X726066Y967411D01*
X738669Y975831D01*
X2065968Y2303131D01*
X2074389Y2315734D01*
X2077346Y2330600D01*
Y2548675D01*
X2093086Y2557762D01*
X2109638Y2574314D01*
X2121341Y2594586D01*
X2127400Y2617196D01*
Y2640604D01*
X2121341Y2663214D01*
X2109638Y2683486D01*
X2093086Y2700038D01*
X2072814Y2711742D01*
X2050204Y2717800D01*
D02*
G37*
G36*
X353100Y877387D02*
X231100D01*
X201236Y873455D01*
X173407Y861928D01*
X149509Y843591D01*
X131172Y819694D01*
X119645Y791864D01*
X115713Y762000D01*
X119645Y732136D01*
X131172Y704306D01*
X149509Y680409D01*
X173406Y662072D01*
X201236Y650545D01*
X231100Y646613D01*
X353100D01*
X382964Y650545D01*
X410794Y662072D01*
X434691Y680409D01*
X453028Y704306D01*
X464555Y732136D01*
X468487Y762000D01*
X464555Y791864D01*
X453028Y819694D01*
X434691Y843591D01*
X410794Y861928D01*
X382964Y873455D01*
X353100Y877387D01*
D02*
G37*
G36*
Y623387D02*
X304800D01*
Y520700D01*
X466815D01*
X464555Y537864D01*
X453028Y565694D01*
X434691Y589591D01*
X410794Y607928D01*
X382964Y619455D01*
X353100Y623387D01*
D02*
G37*
G36*
X279400D02*
X231100D01*
X201236Y619455D01*
X173407Y607928D01*
X149509Y589591D01*
X131172Y565694D01*
X119645Y537864D01*
X117385Y520700D01*
X279400D01*
Y623387D01*
D02*
G37*
G36*
X466815Y495300D02*
X304800D01*
Y392613D01*
X353100D01*
X382964Y396545D01*
X410794Y408072D01*
X434691Y426409D01*
X453028Y450306D01*
X464555Y478136D01*
X466815Y495300D01*
D02*
G37*
G36*
X279400D02*
X117385D01*
X119645Y478136D01*
X131172Y450306D01*
X149509Y426409D01*
X173406Y408072D01*
X201236Y396545D01*
X231100Y392613D01*
X279400D01*
Y495300D01*
D02*
G37*
G36*
X353100Y369387D02*
X304800D01*
Y266700D01*
X466815D01*
X464555Y283864D01*
X453028Y311694D01*
X434691Y335591D01*
X410794Y353928D01*
X382964Y365455D01*
X353100Y369387D01*
D02*
G37*
G36*
X279400D02*
X231100D01*
X201236Y365455D01*
X173407Y353928D01*
X149509Y335591D01*
X131172Y311694D01*
X119645Y283864D01*
X117385Y266700D01*
X279400D01*
Y369387D01*
D02*
G37*
G36*
X8524759Y541000D02*
X8493241D01*
X8462330Y534851D01*
X8433211Y522790D01*
X8407006Y505280D01*
X8384720Y482994D01*
X8367210Y456789D01*
X8355149Y427670D01*
X8349000Y396759D01*
Y365241D01*
X8355149Y334330D01*
X8367210Y305211D01*
X8384720Y279006D01*
X8407006Y256720D01*
X8433211Y239210D01*
X8462330Y227149D01*
X8493241Y221000D01*
X8524759D01*
X8555670Y227149D01*
X8584789Y239210D01*
X8610994Y256720D01*
X8633280Y279006D01*
X8650790Y305211D01*
X8662851Y334330D01*
X8669000Y365241D01*
Y396759D01*
X8662851Y427670D01*
X8650790Y456789D01*
X8633280Y482994D01*
X8610994Y505280D01*
X8584789Y522790D01*
X8555670Y534851D01*
X8524759Y541000D01*
D02*
G37*
G36*
X466815Y241300D02*
X304800D01*
Y138613D01*
X353100D01*
X382964Y142545D01*
X410794Y154072D01*
X434691Y172409D01*
X453028Y196306D01*
X464555Y224136D01*
X466815Y241300D01*
D02*
G37*
G36*
X279400D02*
X117385D01*
X119645Y224136D01*
X131172Y196306D01*
X149509Y172409D01*
X173406Y154072D01*
X201236Y142545D01*
X231100Y138613D01*
X279400D01*
Y241300D01*
D02*
G37*
%LPD*%
G36*
X8521700Y4711700D02*
X8668999D01*
Y4699000D01*
Y4686300D01*
X8521700D01*
Y4539001D01*
X8496300D01*
Y4686300D01*
X8349001D01*
Y4699000D01*
Y4711700D01*
X8496300D01*
Y4858999D01*
X8521700D01*
Y4711700D01*
D02*
G37*
G36*
Y393700D02*
X8668999D01*
Y381000D01*
Y368300D01*
X8521700D01*
Y221001D01*
X8496300D01*
Y368300D01*
X8349001D01*
Y381000D01*
Y393700D01*
X8496300D01*
Y540999D01*
X8521700D01*
Y393700D01*
D02*
G37*
D17*
X1587500Y4483100D02*
X1689100Y4381500D01*
Y4203700D02*
Y4381500D01*
X901700Y4483100D02*
X1587500D01*
X698500Y3708400D02*
Y4279900D01*
X901700Y4483100D01*
X546100Y3556000D02*
X698500Y3708400D01*
X292100Y3556000D02*
X546100D01*
X1219200Y4203700D02*
X1422400D01*
X1003300Y3987800D02*
X1219200Y4203700D01*
X1003300Y3619500D02*
Y3987800D01*
X685800Y3302000D02*
X1003300Y3619500D01*
X292100Y3302000D02*
X685800D01*
X2095500Y4203700D02*
X2209800Y4089400D01*
X1892300Y4203700D02*
X2095500D01*
X2209800Y3937000D02*
Y4089400D01*
X2019300Y3746500D02*
X2209800Y3937000D01*
X698500Y3048000D02*
X1397000Y3746500D01*
X2019300D01*
X292100Y3048000D02*
X698500D01*
X292100Y1016000D02*
X304800Y1003300D01*
X711200D01*
X2038500Y2330600D02*
Y2628900D01*
X711200Y1003300D02*
X2038500Y2330600D01*
D18*
X8255000Y2540000D02*
D03*
X7755000Y3040000D02*
D03*
Y2040000D02*
D03*
D19*
X8505000D02*
D03*
X8255000D02*
D03*
X8505000Y3040000D02*
D03*
X8255000D02*
D03*
X7755000Y2540000D02*
D03*
D20*
X292100Y4826000D02*
D03*
D21*
Y4572000D02*
D03*
Y4318000D02*
D03*
Y4064000D02*
D03*
Y3810000D02*
D03*
Y3556000D02*
D03*
Y3302000D02*
D03*
Y3048000D02*
D03*
Y2794000D02*
D03*
Y2540000D02*
D03*
Y2286000D02*
D03*
Y2032000D02*
D03*
Y1778000D02*
D03*
Y1524000D02*
D03*
Y1270000D02*
D03*
Y1016000D02*
D03*
Y762000D02*
D03*
Y508000D02*
D03*
Y254000D02*
D03*
D22*
X1892300Y4203700D02*
D03*
X1422400D02*
D03*
X1689100D02*
D03*
X2038500Y2628900D02*
D03*
%TF.MD5,d5ba55ae2dcd757f783e35d1bf865c80*%
M02*
