%TF.GenerationSoftware,Altium Limited,Altium Designer,24.1.2 (44)*%
G04 Layer_Color=8421504*
%FSLAX45Y45*%
%MOMM*%
%TF.SameCoordinates,081E4AA9-6FF8-4DA1-966E-1EA6E075E410*%
%TF.FilePolarity,Positive*%
%TF.FileFunction,Paste,Top*%
%TF.Part,Single*%
G01*
G75*
%TA.AperFunction,SMDPad,CuDef*%
%ADD10R,1.55000X1.25000*%
%ADD11R,1.40000X0.95000*%
%ADD12R,0.90000X1.55000*%
%ADD13R,2.60000X1.60000*%
%ADD14R,0.70000X1.52500*%
%ADD15R,0.95000X1.40000*%
%ADD16R,0.95000X1.70000*%
D10*
X3327400Y3136000D02*
D03*
Y3341000D02*
D03*
X4800600Y3341000D02*
D03*
Y3136000D02*
D03*
X3340100Y2007500D02*
D03*
Y1802500D02*
D03*
X4813300Y1994800D02*
D03*
Y1789800D02*
D03*
D11*
X6756400Y3117000D02*
D03*
Y3302000D02*
D03*
X6121400Y3120600D02*
D03*
Y3305600D02*
D03*
X6769100Y1984800D02*
D03*
Y1799800D02*
D03*
X6146800Y1984800D02*
D03*
Y1799800D02*
D03*
D12*
X5606200Y3124200D02*
D03*
X5341200D02*
D03*
X5657000Y1993900D02*
D03*
X5392000D02*
D03*
D13*
X3934800Y2006600D02*
D03*
X4294800D02*
D03*
X3909400Y3136900D02*
D03*
X4269400D02*
D03*
D14*
X1816100Y3992300D02*
D03*
X1689100D02*
D03*
X1562100D02*
D03*
X1435100D02*
D03*
Y3449900D02*
D03*
X1562100D02*
D03*
X1689100D02*
D03*
X1816100D02*
D03*
D15*
X1870500Y2819400D02*
D03*
X1685500D02*
D03*
D16*
X1587200Y3136900D02*
D03*
X1867200D02*
D03*
%TF.MD5,9c83c12d7e439204ea0d4efe09157649*%
M02*
