%TF.GenerationSoftware,Altium Limited,Altium Designer,24.1.2 (44)*%
G04 Layer_Color=16711935*
%FSLAX45Y45*%
%MOMM*%
%TF.SameCoordinates,081E4AA9-6FF8-4DA1-966E-1EA6E075E410*%
%TF.FilePolarity,Negative*%
%TF.FileFunction,Soldermask,Bot*%
%TF.Part,Single*%
G01*
G75*
%TA.AperFunction,WasherPad*%
%ADD31C,0.20320*%
%TA.AperFunction,ComponentPad*%
%ADD32C,3.05320*%
%ADD33C,0.80320*%
%ADD34R,3.20320X1.98320*%
%ADD35O,3.20320X1.98320*%
%TA.AperFunction,ViaPad*%
%ADD36C,1.47320*%
D31*
X8509000Y381000D02*
D03*
Y4699000D02*
D03*
D32*
X8255000Y2540000D02*
D03*
X7755000Y3040000D02*
D03*
Y2040000D02*
D03*
D33*
X8505000D02*
D03*
X8255000D02*
D03*
X8505000Y3040000D02*
D03*
X8255000D02*
D03*
X7755000Y2540000D02*
D03*
D34*
X292100Y4826000D02*
D03*
D35*
Y4572000D02*
D03*
Y4318000D02*
D03*
Y4064000D02*
D03*
Y3810000D02*
D03*
Y3556000D02*
D03*
Y3302000D02*
D03*
Y3048000D02*
D03*
Y2794000D02*
D03*
Y2540000D02*
D03*
Y2286000D02*
D03*
Y2032000D02*
D03*
Y1778000D02*
D03*
Y1524000D02*
D03*
Y1270000D02*
D03*
Y1016000D02*
D03*
Y762000D02*
D03*
Y508000D02*
D03*
Y254000D02*
D03*
D36*
X1892300Y4203700D02*
D03*
X1422400D02*
D03*
X1689100D02*
D03*
X2038500Y2628900D02*
D03*
%TF.MD5,979f15343ee40588b464fa83015daf84*%
M02*
