%TF.GenerationSoftware,KiCad,Pcbnew,7.0.9*%
%TF.CreationDate,2024-03-05T18:50:15-08:00*%
%TF.ProjectId,SSM3582_v02,53534d33-3538-4325-9f76-30322e6b6963,rev?*%
%TF.SameCoordinates,Original*%
%TF.FileFunction,Drillmap*%
%TF.FilePolarity,Positive*%
%FSLAX45Y45*%
G04 Gerber Fmt 4.5, Leading zero omitted, Abs format (unit mm)*
G04 Created by KiCad (PCBNEW 7.0.9) date 2024-03-05 18:50:15*
%MOMM*%
%LPD*%
G01*
G04 APERTURE LIST*
%ADD10C,0.050000*%
%ADD11C,0.200000*%
%ADD12C,0.100000*%
%ADD13C,0.130000*%
G04 APERTURE END LIST*
D10*
X10477500Y-6731000D02*
X19367500Y-6731000D01*
X19367500Y-11811000D01*
X10477500Y-11811000D01*
X10477500Y-6731000D01*
D11*
D12*
X10907000Y-8811500D02*
X10937000Y-8841500D01*
X10937000Y-8811500D02*
X10907000Y-8841500D01*
X11034000Y-9764000D02*
X11064000Y-9794000D01*
X11064000Y-9764000D02*
X11034000Y-9794000D01*
X11059400Y-8648940D02*
X11089400Y-8678940D01*
X11089400Y-8648940D02*
X11059400Y-8678940D01*
X11224500Y-8359380D02*
X11254500Y-8389380D01*
X11254500Y-8359380D02*
X11224500Y-8389380D01*
X11288000Y-9192500D02*
X11318000Y-9222500D01*
X11318000Y-9192500D02*
X11288000Y-9222500D01*
X11364200Y-9459200D02*
X11394200Y-9489200D01*
X11394200Y-9459200D02*
X11364200Y-9489200D01*
X11453100Y-9032480D02*
X11483100Y-9062480D01*
X11483100Y-9032480D02*
X11453100Y-9062480D01*
X11618200Y-8481300D02*
X11648200Y-8511300D01*
X11648200Y-8481300D02*
X11618200Y-8511300D01*
X11623280Y-9482060D02*
X11653280Y-9512060D01*
X11653280Y-9482060D02*
X11623280Y-9512060D01*
X11661380Y-8836900D02*
X11691380Y-8866900D01*
X11691380Y-8836900D02*
X11661380Y-8866900D01*
X11788380Y-9177260D02*
X11818380Y-9207260D01*
X11818380Y-9177260D02*
X11788380Y-9207260D01*
X12156680Y-7556740D02*
X12186680Y-7586740D01*
X12186680Y-7556740D02*
X12156680Y-7586740D01*
X12314160Y-7724380D02*
X12344160Y-7754380D01*
X12344160Y-7724380D02*
X12314160Y-7754380D01*
X12431000Y-10526000D02*
X12461000Y-10556000D01*
X12461000Y-10526000D02*
X12431000Y-10556000D01*
X12431000Y-10970500D02*
X12461000Y-11000500D01*
X12461000Y-10970500D02*
X12431000Y-11000500D01*
X12578320Y-9964660D02*
X12608320Y-9994660D01*
X12608320Y-9964660D02*
X12578320Y-9994660D01*
X12603720Y-9045180D02*
X12633720Y-9075180D01*
X12633720Y-9045180D02*
X12603720Y-9075180D01*
X12939000Y-11161000D02*
X12969000Y-11191000D01*
X12969000Y-11161000D02*
X12939000Y-11191000D01*
X12989800Y-7325600D02*
X13019800Y-7355600D01*
X13019800Y-7325600D02*
X12989800Y-7355600D01*
X13002500Y-7795500D02*
X13032500Y-7825500D01*
X13032500Y-7795500D02*
X13002500Y-7825500D01*
X13040600Y-10932400D02*
X13070600Y-10962400D01*
X13070600Y-10932400D02*
X13040600Y-10962400D01*
X13091400Y-11173700D02*
X13121400Y-11203700D01*
X13121400Y-11173700D02*
X13091400Y-11203700D01*
X13129500Y-9891000D02*
X13159500Y-9921000D01*
X13159500Y-9891000D02*
X13129500Y-9921000D01*
X13129500Y-10653000D02*
X13159500Y-10683000D01*
X13159500Y-10653000D02*
X13129500Y-10683000D01*
X13256500Y-7366240D02*
X13286500Y-7396240D01*
X13286500Y-7366240D02*
X13256500Y-7396240D01*
X13298000Y-10835000D02*
X13328000Y-10865000D01*
X13328000Y-10835000D02*
X13298000Y-10865000D01*
X13345400Y-7988540D02*
X13375400Y-8018540D01*
X13375400Y-7988540D02*
X13345400Y-8018540D01*
X13396200Y-11186400D02*
X13426200Y-11216400D01*
X13426200Y-11186400D02*
X13396200Y-11216400D01*
X13510500Y-10399000D02*
X13540500Y-10429000D01*
X13540500Y-10399000D02*
X13510500Y-10429000D01*
X13579080Y-8295880D02*
X13609080Y-8325880D01*
X13609080Y-8295880D02*
X13579080Y-8325880D01*
X13637500Y-9891000D02*
X13667500Y-9921000D01*
X13667500Y-9891000D02*
X13637500Y-9921000D01*
X13637500Y-10589500D02*
X13667500Y-10619500D01*
X13667500Y-10589500D02*
X13637500Y-10619500D01*
X13637500Y-10970500D02*
X13667500Y-11000500D01*
X13667500Y-10970500D02*
X13637500Y-11000500D01*
X13701000Y-11034000D02*
X13731000Y-11064000D01*
X13731000Y-11034000D02*
X13701000Y-11064000D01*
X13764500Y-11161000D02*
X13794500Y-11191000D01*
X13794500Y-11161000D02*
X13764500Y-11191000D01*
X13828000Y-10780000D02*
X13858000Y-10810000D01*
X13858000Y-10780000D02*
X13828000Y-10810000D01*
X13843240Y-7836140D02*
X13873240Y-7866140D01*
X13873240Y-7836140D02*
X13843240Y-7866140D01*
X13891500Y-9383000D02*
X13921500Y-9413000D01*
X13921500Y-9383000D02*
X13891500Y-9413000D01*
X13955000Y-10653000D02*
X13985000Y-10683000D01*
X13985000Y-10653000D02*
X13955000Y-10683000D01*
X13955000Y-11288000D02*
X13985000Y-11318000D01*
X13985000Y-11288000D02*
X13955000Y-11318000D01*
X14005800Y-10983200D02*
X14035800Y-11013200D01*
X14035800Y-10983200D02*
X14005800Y-11013200D01*
X14082000Y-11224500D02*
X14112000Y-11254500D01*
X14112000Y-11224500D02*
X14082000Y-11254500D01*
X14229125Y-11244625D02*
X14259125Y-11274625D01*
X14259125Y-11244625D02*
X14229125Y-11274625D01*
X14259800Y-11084800D02*
X14289800Y-11114800D01*
X14289800Y-11084800D02*
X14259800Y-11114800D01*
X14297900Y-10983200D02*
X14327900Y-11013200D01*
X14327900Y-10983200D02*
X14297900Y-11013200D01*
X14529040Y-8430500D02*
X14559040Y-8460500D01*
X14559040Y-8430500D02*
X14529040Y-8460500D01*
X14564600Y-10983200D02*
X14594600Y-11013200D01*
X14594600Y-10983200D02*
X14564600Y-11013200D01*
X14577300Y-7411960D02*
X14607300Y-7441960D01*
X14607300Y-7411960D02*
X14577300Y-7441960D01*
X14592540Y-8092680D02*
X14622540Y-8122680D01*
X14622540Y-8092680D02*
X14592540Y-8122680D01*
X14717000Y-10653000D02*
X14747000Y-10683000D01*
X14747000Y-10653000D02*
X14717000Y-10683000D01*
X14717000Y-11224500D02*
X14747000Y-11254500D01*
X14747000Y-11224500D02*
X14717000Y-11254500D01*
X14836380Y-10315180D02*
X14866380Y-10345180D01*
X14866380Y-10315180D02*
X14836380Y-10345180D01*
X14844000Y-10716500D02*
X14874000Y-10746500D01*
X14874000Y-10716500D02*
X14844000Y-10746500D01*
X14844000Y-11034000D02*
X14874000Y-11064000D01*
X14874000Y-11034000D02*
X14844000Y-11064000D01*
X14907500Y-11161000D02*
X14937500Y-11191000D01*
X14937500Y-11161000D02*
X14907500Y-11191000D01*
X15034500Y-7351000D02*
X15064500Y-7381000D01*
X15064500Y-7351000D02*
X15034500Y-7381000D01*
X15034500Y-9827500D02*
X15064500Y-9857500D01*
X15064500Y-9827500D02*
X15034500Y-9857500D01*
X15098000Y-8811500D02*
X15128000Y-8841500D01*
X15128000Y-8811500D02*
X15098000Y-8841500D01*
X15194520Y-11176240D02*
X15224520Y-11206240D01*
X15224520Y-11176240D02*
X15194520Y-11206240D01*
X15225000Y-8367000D02*
X15255000Y-8397000D01*
X15255000Y-8367000D02*
X15225000Y-8397000D01*
X15225000Y-10843500D02*
X15255000Y-10873500D01*
X15255000Y-10843500D02*
X15225000Y-10873500D01*
X15227540Y-8046960D02*
X15257540Y-8076960D01*
X15257540Y-8046960D02*
X15227540Y-8076960D01*
X15479000Y-8621000D02*
X15509000Y-8651000D01*
X15509000Y-8621000D02*
X15479000Y-8651000D01*
X15479000Y-10081500D02*
X15509000Y-10111500D01*
X15509000Y-10081500D02*
X15479000Y-10111500D01*
X15796500Y-7349500D02*
X15826500Y-7379500D01*
X15826500Y-7349500D02*
X15796500Y-7379500D01*
X15826980Y-11249900D02*
X15856980Y-11279900D01*
X15856980Y-11249900D02*
X15826980Y-11279900D01*
X15987000Y-8113000D02*
X16017000Y-8143000D01*
X16017000Y-8113000D02*
X15987000Y-8143000D01*
X15987000Y-9332200D02*
X16017000Y-9362200D01*
X16017000Y-9332200D02*
X15987000Y-9362200D01*
X16177500Y-10335500D02*
X16207500Y-10365500D01*
X16207500Y-10335500D02*
X16177500Y-10365500D01*
X16286720Y-7259560D02*
X16316720Y-7289560D01*
X16316720Y-7259560D02*
X16286720Y-7289560D01*
X16342600Y-9154400D02*
X16372600Y-9184400D01*
X16372600Y-9154400D02*
X16342600Y-9184400D01*
X16428960Y-11155920D02*
X16458960Y-11185920D01*
X16458960Y-11155920D02*
X16428960Y-11185920D01*
X16497540Y-8148560D02*
X16527540Y-8178560D01*
X16527540Y-8148560D02*
X16497540Y-8178560D01*
X16561040Y-7348460D02*
X16591040Y-7378460D01*
X16591040Y-7348460D02*
X16561040Y-7378460D01*
X16622000Y-10716500D02*
X16652000Y-10746500D01*
X16652000Y-10716500D02*
X16622000Y-10746500D01*
X16698200Y-8976600D02*
X16728200Y-9006600D01*
X16728200Y-8976600D02*
X16698200Y-9006600D01*
X16698200Y-9662400D02*
X16728200Y-9692400D01*
X16728200Y-9662400D02*
X16698200Y-9692400D01*
X17030940Y-9134080D02*
X17060940Y-9164080D01*
X17060940Y-9134080D02*
X17030940Y-9164080D01*
X17036020Y-9281400D02*
X17066020Y-9311400D01*
X17066020Y-9281400D02*
X17036020Y-9311400D01*
X17038560Y-9423640D02*
X17068560Y-9453640D01*
X17068560Y-9423640D02*
X17038560Y-9453640D01*
X17053800Y-8430500D02*
X17083800Y-8460500D01*
X17083800Y-8430500D02*
X17053800Y-8460500D01*
X17091900Y-10208500D02*
X17121900Y-10238500D01*
X17121900Y-10208500D02*
X17091900Y-10238500D01*
X17152000Y-8432000D02*
X17182000Y-8462000D01*
X17182000Y-8432000D02*
X17152000Y-8462000D01*
X17180800Y-10208500D02*
X17210800Y-10238500D01*
X17210800Y-10208500D02*
X17180800Y-10238500D01*
X17185880Y-9281400D02*
X17215880Y-9311400D01*
X17215880Y-9281400D02*
X17185880Y-9311400D01*
X17188420Y-9426180D02*
X17218420Y-9456180D01*
X17218420Y-9426180D02*
X17188420Y-9456180D01*
X17193500Y-9136620D02*
X17223500Y-9166620D01*
X17223500Y-9136620D02*
X17193500Y-9166620D01*
X17257000Y-11161000D02*
X17287000Y-11191000D01*
X17287000Y-11161000D02*
X17257000Y-11191000D01*
X17343360Y-9281400D02*
X17373360Y-9311400D01*
X17373360Y-9281400D02*
X17343360Y-9311400D01*
X17348440Y-9426180D02*
X17378440Y-9456180D01*
X17378440Y-9426180D02*
X17348440Y-9456180D01*
X17350980Y-9139160D02*
X17380980Y-9169160D01*
X17380980Y-9139160D02*
X17350980Y-9169160D01*
X17358600Y-8697200D02*
X17388600Y-8727200D01*
X17388600Y-8697200D02*
X17358600Y-8727200D01*
X17396700Y-9941800D02*
X17426700Y-9971800D01*
X17426700Y-9941800D02*
X17396700Y-9971800D01*
X17574500Y-8976600D02*
X17604500Y-9006600D01*
X17604500Y-8976600D02*
X17574500Y-9006600D01*
X17752300Y-9675100D02*
X17782300Y-9705100D01*
X17782300Y-9675100D02*
X17752300Y-9705100D01*
X18054560Y-9423640D02*
X18084560Y-9453640D01*
X18084560Y-9423640D02*
X18054560Y-9453640D01*
X18069800Y-8938500D02*
X18099800Y-8968500D01*
X18099800Y-8938500D02*
X18069800Y-8968500D01*
X18222200Y-7424660D02*
X18252200Y-7454660D01*
X18252200Y-7424660D02*
X18222200Y-7454660D01*
X18222200Y-9408400D02*
X18252200Y-9438400D01*
X18252200Y-9408400D02*
X18222200Y-9438400D01*
X18260300Y-8481300D02*
X18290300Y-8511300D01*
X18290300Y-8481300D02*
X18260300Y-8511300D01*
X18463500Y-6843000D02*
X18493500Y-6873000D01*
X18493500Y-6843000D02*
X18463500Y-6873000D01*
X18590500Y-10653000D02*
X18620500Y-10683000D01*
X18620500Y-10653000D02*
X18590500Y-10683000D01*
X18844500Y-10081500D02*
X18874500Y-10111500D01*
X18874500Y-10081500D02*
X18844500Y-10111500D01*
X18908000Y-9319500D02*
X18938000Y-9349500D01*
X18938000Y-9319500D02*
X18908000Y-9349500D01*
X18971500Y-8494000D02*
X19001500Y-8524000D01*
X19001500Y-8494000D02*
X18971500Y-8524000D01*
X19035000Y-10907000D02*
X19065000Y-10937000D01*
X19065000Y-10907000D02*
X19035000Y-10937000D01*
X19162000Y-9129000D02*
X19192000Y-9159000D01*
X19192000Y-9129000D02*
X19162000Y-9159000D01*
X10781500Y-6985000D02*
G75*
G03*
X10781500Y-6985000I-50000J0D01*
G01*
X10781500Y-7239000D02*
G75*
G03*
X10781500Y-7239000I-50000J0D01*
G01*
X10781500Y-7493000D02*
G75*
G03*
X10781500Y-7493000I-50000J0D01*
G01*
X10781500Y-7747000D02*
G75*
G03*
X10781500Y-7747000I-50000J0D01*
G01*
X10781500Y-8001000D02*
G75*
G03*
X10781500Y-8001000I-50000J0D01*
G01*
X10781500Y-8255000D02*
G75*
G03*
X10781500Y-8255000I-50000J0D01*
G01*
X10781500Y-8509000D02*
G75*
G03*
X10781500Y-8509000I-50000J0D01*
G01*
X10781500Y-8763000D02*
G75*
G03*
X10781500Y-8763000I-50000J0D01*
G01*
X10781500Y-9017000D02*
G75*
G03*
X10781500Y-9017000I-50000J0D01*
G01*
X10781500Y-9271000D02*
G75*
G03*
X10781500Y-9271000I-50000J0D01*
G01*
X10781500Y-9525000D02*
G75*
G03*
X10781500Y-9525000I-50000J0D01*
G01*
X10781500Y-9779000D02*
G75*
G03*
X10781500Y-9779000I-50000J0D01*
G01*
X10781500Y-10033000D02*
G75*
G03*
X10781500Y-10033000I-50000J0D01*
G01*
X10781500Y-10287000D02*
G75*
G03*
X10781500Y-10287000I-50000J0D01*
G01*
X10781500Y-10541000D02*
G75*
G03*
X10781500Y-10541000I-50000J0D01*
G01*
X10781500Y-10795000D02*
G75*
G03*
X10781500Y-10795000I-50000J0D01*
G01*
X10781500Y-11049000D02*
G75*
G03*
X10781500Y-11049000I-50000J0D01*
G01*
X10781500Y-11303000D02*
G75*
G03*
X10781500Y-11303000I-50000J0D01*
G01*
X10781500Y-11557000D02*
G75*
G03*
X10781500Y-11557000I-50000J0D01*
G01*
X14591500Y-9144000D02*
G75*
G03*
X14591500Y-9144000I-50000J0D01*
G01*
X14591500Y-9398000D02*
G75*
G03*
X14591500Y-9398000I-50000J0D01*
G01*
X14591500Y-9652000D02*
G75*
G03*
X14591500Y-9652000I-50000J0D01*
G01*
D13*
X18732500Y-8190000D02*
X18732500Y-8320000D01*
X18667500Y-8255000D02*
X18797500Y-8255000D01*
X18732500Y-8698000D02*
X18732500Y-8828000D01*
X18667500Y-8763000D02*
X18797500Y-8763000D01*
X18732500Y-9777500D02*
X18732500Y-9907500D01*
X18667500Y-9842500D02*
X18797500Y-9842500D01*
X18732500Y-10285500D02*
X18732500Y-10415500D01*
X18667500Y-10350500D02*
X18797500Y-10350500D01*
D11*
X10735777Y-12124984D02*
X10735777Y-11924984D01*
X10735777Y-11924984D02*
X10783396Y-11924984D01*
X10783396Y-11924984D02*
X10811967Y-11934508D01*
X10811967Y-11934508D02*
X10831015Y-11953555D01*
X10831015Y-11953555D02*
X10840539Y-11972603D01*
X10840539Y-11972603D02*
X10850063Y-12010698D01*
X10850063Y-12010698D02*
X10850063Y-12039269D01*
X10850063Y-12039269D02*
X10840539Y-12077365D01*
X10840539Y-12077365D02*
X10831015Y-12096412D01*
X10831015Y-12096412D02*
X10811967Y-12115460D01*
X10811967Y-12115460D02*
X10783396Y-12124984D01*
X10783396Y-12124984D02*
X10735777Y-12124984D01*
X10935777Y-12124984D02*
X10935777Y-11991650D01*
X10935777Y-12029746D02*
X10945301Y-12010698D01*
X10945301Y-12010698D02*
X10954824Y-12001174D01*
X10954824Y-12001174D02*
X10973872Y-11991650D01*
X10973872Y-11991650D02*
X10992920Y-11991650D01*
X11059586Y-12124984D02*
X11059586Y-11991650D01*
X11059586Y-11924984D02*
X11050063Y-11934508D01*
X11050063Y-11934508D02*
X11059586Y-11944031D01*
X11059586Y-11944031D02*
X11069110Y-11934508D01*
X11069110Y-11934508D02*
X11059586Y-11924984D01*
X11059586Y-11924984D02*
X11059586Y-11944031D01*
X11183396Y-12124984D02*
X11164348Y-12115460D01*
X11164348Y-12115460D02*
X11154824Y-12096412D01*
X11154824Y-12096412D02*
X11154824Y-11924984D01*
X11288158Y-12124984D02*
X11269110Y-12115460D01*
X11269110Y-12115460D02*
X11259586Y-12096412D01*
X11259586Y-12096412D02*
X11259586Y-11924984D01*
X11516729Y-12124984D02*
X11516729Y-11924984D01*
X11516729Y-11924984D02*
X11583396Y-12067841D01*
X11583396Y-12067841D02*
X11650062Y-11924984D01*
X11650062Y-11924984D02*
X11650062Y-12124984D01*
X11831015Y-12124984D02*
X11831015Y-12020222D01*
X11831015Y-12020222D02*
X11821491Y-12001174D01*
X11821491Y-12001174D02*
X11802443Y-11991650D01*
X11802443Y-11991650D02*
X11764348Y-11991650D01*
X11764348Y-11991650D02*
X11745301Y-12001174D01*
X11831015Y-12115460D02*
X11811967Y-12124984D01*
X11811967Y-12124984D02*
X11764348Y-12124984D01*
X11764348Y-12124984D02*
X11745301Y-12115460D01*
X11745301Y-12115460D02*
X11735777Y-12096412D01*
X11735777Y-12096412D02*
X11735777Y-12077365D01*
X11735777Y-12077365D02*
X11745301Y-12058317D01*
X11745301Y-12058317D02*
X11764348Y-12048793D01*
X11764348Y-12048793D02*
X11811967Y-12048793D01*
X11811967Y-12048793D02*
X11831015Y-12039269D01*
X11926253Y-11991650D02*
X11926253Y-12191650D01*
X11926253Y-12001174D02*
X11945301Y-11991650D01*
X11945301Y-11991650D02*
X11983396Y-11991650D01*
X11983396Y-11991650D02*
X12002443Y-12001174D01*
X12002443Y-12001174D02*
X12011967Y-12010698D01*
X12011967Y-12010698D02*
X12021491Y-12029746D01*
X12021491Y-12029746D02*
X12021491Y-12086888D01*
X12021491Y-12086888D02*
X12011967Y-12105936D01*
X12011967Y-12105936D02*
X12002443Y-12115460D01*
X12002443Y-12115460D02*
X11983396Y-12124984D01*
X11983396Y-12124984D02*
X11945301Y-12124984D01*
X11945301Y-12124984D02*
X11926253Y-12115460D01*
X12107205Y-12105936D02*
X12116729Y-12115460D01*
X12116729Y-12115460D02*
X12107205Y-12124984D01*
X12107205Y-12124984D02*
X12097682Y-12115460D01*
X12097682Y-12115460D02*
X12107205Y-12105936D01*
X12107205Y-12105936D02*
X12107205Y-12124984D01*
X12107205Y-12001174D02*
X12116729Y-12010698D01*
X12116729Y-12010698D02*
X12107205Y-12020222D01*
X12107205Y-12020222D02*
X12097682Y-12010698D01*
X12097682Y-12010698D02*
X12107205Y-12001174D01*
X12107205Y-12001174D02*
X12107205Y-12020222D01*
D12*
X10445000Y-12438500D02*
X10475000Y-12468500D01*
X10475000Y-12438500D02*
X10445000Y-12468500D01*
D11*
X10773872Y-12344984D02*
X10792920Y-12344984D01*
X10792920Y-12344984D02*
X10811967Y-12354508D01*
X10811967Y-12354508D02*
X10821491Y-12364031D01*
X10821491Y-12364031D02*
X10831015Y-12383079D01*
X10831015Y-12383079D02*
X10840539Y-12421174D01*
X10840539Y-12421174D02*
X10840539Y-12468793D01*
X10840539Y-12468793D02*
X10831015Y-12506888D01*
X10831015Y-12506888D02*
X10821491Y-12525936D01*
X10821491Y-12525936D02*
X10811967Y-12535460D01*
X10811967Y-12535460D02*
X10792920Y-12544984D01*
X10792920Y-12544984D02*
X10773872Y-12544984D01*
X10773872Y-12544984D02*
X10754824Y-12535460D01*
X10754824Y-12535460D02*
X10745301Y-12525936D01*
X10745301Y-12525936D02*
X10735777Y-12506888D01*
X10735777Y-12506888D02*
X10726253Y-12468793D01*
X10726253Y-12468793D02*
X10726253Y-12421174D01*
X10726253Y-12421174D02*
X10735777Y-12383079D01*
X10735777Y-12383079D02*
X10745301Y-12364031D01*
X10745301Y-12364031D02*
X10754824Y-12354508D01*
X10754824Y-12354508D02*
X10773872Y-12344984D01*
X10926253Y-12525936D02*
X10935777Y-12535460D01*
X10935777Y-12535460D02*
X10926253Y-12544984D01*
X10926253Y-12544984D02*
X10916729Y-12535460D01*
X10916729Y-12535460D02*
X10926253Y-12525936D01*
X10926253Y-12525936D02*
X10926253Y-12544984D01*
X11002444Y-12344984D02*
X11126253Y-12344984D01*
X11126253Y-12344984D02*
X11059586Y-12421174D01*
X11059586Y-12421174D02*
X11088158Y-12421174D01*
X11088158Y-12421174D02*
X11107205Y-12430698D01*
X11107205Y-12430698D02*
X11116729Y-12440222D01*
X11116729Y-12440222D02*
X11126253Y-12459269D01*
X11126253Y-12459269D02*
X11126253Y-12506888D01*
X11126253Y-12506888D02*
X11116729Y-12525936D01*
X11116729Y-12525936D02*
X11107205Y-12535460D01*
X11107205Y-12535460D02*
X11088158Y-12544984D01*
X11088158Y-12544984D02*
X11031015Y-12544984D01*
X11031015Y-12544984D02*
X11011967Y-12535460D01*
X11011967Y-12535460D02*
X11002444Y-12525936D01*
X11250062Y-12344984D02*
X11269110Y-12344984D01*
X11269110Y-12344984D02*
X11288158Y-12354508D01*
X11288158Y-12354508D02*
X11297682Y-12364031D01*
X11297682Y-12364031D02*
X11307205Y-12383079D01*
X11307205Y-12383079D02*
X11316729Y-12421174D01*
X11316729Y-12421174D02*
X11316729Y-12468793D01*
X11316729Y-12468793D02*
X11307205Y-12506888D01*
X11307205Y-12506888D02*
X11297682Y-12525936D01*
X11297682Y-12525936D02*
X11288158Y-12535460D01*
X11288158Y-12535460D02*
X11269110Y-12544984D01*
X11269110Y-12544984D02*
X11250062Y-12544984D01*
X11250062Y-12544984D02*
X11231015Y-12535460D01*
X11231015Y-12535460D02*
X11221491Y-12525936D01*
X11221491Y-12525936D02*
X11211967Y-12506888D01*
X11211967Y-12506888D02*
X11202443Y-12468793D01*
X11202443Y-12468793D02*
X11202443Y-12421174D01*
X11202443Y-12421174D02*
X11211967Y-12383079D01*
X11211967Y-12383079D02*
X11221491Y-12364031D01*
X11221491Y-12364031D02*
X11231015Y-12354508D01*
X11231015Y-12354508D02*
X11250062Y-12344984D01*
X11440539Y-12344984D02*
X11459586Y-12344984D01*
X11459586Y-12344984D02*
X11478634Y-12354508D01*
X11478634Y-12354508D02*
X11488158Y-12364031D01*
X11488158Y-12364031D02*
X11497682Y-12383079D01*
X11497682Y-12383079D02*
X11507205Y-12421174D01*
X11507205Y-12421174D02*
X11507205Y-12468793D01*
X11507205Y-12468793D02*
X11497682Y-12506888D01*
X11497682Y-12506888D02*
X11488158Y-12525936D01*
X11488158Y-12525936D02*
X11478634Y-12535460D01*
X11478634Y-12535460D02*
X11459586Y-12544984D01*
X11459586Y-12544984D02*
X11440539Y-12544984D01*
X11440539Y-12544984D02*
X11421491Y-12535460D01*
X11421491Y-12535460D02*
X11411967Y-12525936D01*
X11411967Y-12525936D02*
X11402443Y-12506888D01*
X11402443Y-12506888D02*
X11392920Y-12468793D01*
X11392920Y-12468793D02*
X11392920Y-12421174D01*
X11392920Y-12421174D02*
X11402443Y-12383079D01*
X11402443Y-12383079D02*
X11411967Y-12364031D01*
X11411967Y-12364031D02*
X11421491Y-12354508D01*
X11421491Y-12354508D02*
X11440539Y-12344984D01*
X11592920Y-12544984D02*
X11592920Y-12411650D01*
X11592920Y-12430698D02*
X11602443Y-12421174D01*
X11602443Y-12421174D02*
X11621491Y-12411650D01*
X11621491Y-12411650D02*
X11650063Y-12411650D01*
X11650063Y-12411650D02*
X11669110Y-12421174D01*
X11669110Y-12421174D02*
X11678634Y-12440222D01*
X11678634Y-12440222D02*
X11678634Y-12544984D01*
X11678634Y-12440222D02*
X11688158Y-12421174D01*
X11688158Y-12421174D02*
X11707205Y-12411650D01*
X11707205Y-12411650D02*
X11735777Y-12411650D01*
X11735777Y-12411650D02*
X11754824Y-12421174D01*
X11754824Y-12421174D02*
X11764348Y-12440222D01*
X11764348Y-12440222D02*
X11764348Y-12544984D01*
X11859586Y-12544984D02*
X11859586Y-12411650D01*
X11859586Y-12430698D02*
X11869110Y-12421174D01*
X11869110Y-12421174D02*
X11888158Y-12411650D01*
X11888158Y-12411650D02*
X11916729Y-12411650D01*
X11916729Y-12411650D02*
X11935777Y-12421174D01*
X11935777Y-12421174D02*
X11945301Y-12440222D01*
X11945301Y-12440222D02*
X11945301Y-12544984D01*
X11945301Y-12440222D02*
X11954824Y-12421174D01*
X11954824Y-12421174D02*
X11973872Y-12411650D01*
X11973872Y-12411650D02*
X12002443Y-12411650D01*
X12002443Y-12411650D02*
X12021491Y-12421174D01*
X12021491Y-12421174D02*
X12031015Y-12440222D01*
X12031015Y-12440222D02*
X12031015Y-12544984D01*
X12421491Y-12335460D02*
X12250063Y-12592603D01*
X12678634Y-12344984D02*
X12697682Y-12344984D01*
X12697682Y-12344984D02*
X12716729Y-12354508D01*
X12716729Y-12354508D02*
X12726253Y-12364031D01*
X12726253Y-12364031D02*
X12735777Y-12383079D01*
X12735777Y-12383079D02*
X12745301Y-12421174D01*
X12745301Y-12421174D02*
X12745301Y-12468793D01*
X12745301Y-12468793D02*
X12735777Y-12506888D01*
X12735777Y-12506888D02*
X12726253Y-12525936D01*
X12726253Y-12525936D02*
X12716729Y-12535460D01*
X12716729Y-12535460D02*
X12697682Y-12544984D01*
X12697682Y-12544984D02*
X12678634Y-12544984D01*
X12678634Y-12544984D02*
X12659586Y-12535460D01*
X12659586Y-12535460D02*
X12650063Y-12525936D01*
X12650063Y-12525936D02*
X12640539Y-12506888D01*
X12640539Y-12506888D02*
X12631015Y-12468793D01*
X12631015Y-12468793D02*
X12631015Y-12421174D01*
X12631015Y-12421174D02*
X12640539Y-12383079D01*
X12640539Y-12383079D02*
X12650063Y-12364031D01*
X12650063Y-12364031D02*
X12659586Y-12354508D01*
X12659586Y-12354508D02*
X12678634Y-12344984D01*
X12831015Y-12525936D02*
X12840539Y-12535460D01*
X12840539Y-12535460D02*
X12831015Y-12544984D01*
X12831015Y-12544984D02*
X12821491Y-12535460D01*
X12821491Y-12535460D02*
X12831015Y-12525936D01*
X12831015Y-12525936D02*
X12831015Y-12544984D01*
X12964348Y-12344984D02*
X12983396Y-12344984D01*
X12983396Y-12344984D02*
X13002444Y-12354508D01*
X13002444Y-12354508D02*
X13011967Y-12364031D01*
X13011967Y-12364031D02*
X13021491Y-12383079D01*
X13021491Y-12383079D02*
X13031015Y-12421174D01*
X13031015Y-12421174D02*
X13031015Y-12468793D01*
X13031015Y-12468793D02*
X13021491Y-12506888D01*
X13021491Y-12506888D02*
X13011967Y-12525936D01*
X13011967Y-12525936D02*
X13002444Y-12535460D01*
X13002444Y-12535460D02*
X12983396Y-12544984D01*
X12983396Y-12544984D02*
X12964348Y-12544984D01*
X12964348Y-12544984D02*
X12945301Y-12535460D01*
X12945301Y-12535460D02*
X12935777Y-12525936D01*
X12935777Y-12525936D02*
X12926253Y-12506888D01*
X12926253Y-12506888D02*
X12916729Y-12468793D01*
X12916729Y-12468793D02*
X12916729Y-12421174D01*
X12916729Y-12421174D02*
X12926253Y-12383079D01*
X12926253Y-12383079D02*
X12935777Y-12364031D01*
X12935777Y-12364031D02*
X12945301Y-12354508D01*
X12945301Y-12354508D02*
X12964348Y-12344984D01*
X13221491Y-12544984D02*
X13107206Y-12544984D01*
X13164348Y-12544984D02*
X13164348Y-12344984D01*
X13164348Y-12344984D02*
X13145301Y-12373555D01*
X13145301Y-12373555D02*
X13126253Y-12392603D01*
X13126253Y-12392603D02*
X13107206Y-12402127D01*
X13411967Y-12544984D02*
X13297682Y-12544984D01*
X13354825Y-12544984D02*
X13354825Y-12344984D01*
X13354825Y-12344984D02*
X13335777Y-12373555D01*
X13335777Y-12373555D02*
X13316729Y-12392603D01*
X13316729Y-12392603D02*
X13297682Y-12402127D01*
X13526253Y-12430698D02*
X13507206Y-12421174D01*
X13507206Y-12421174D02*
X13497682Y-12411650D01*
X13497682Y-12411650D02*
X13488158Y-12392603D01*
X13488158Y-12392603D02*
X13488158Y-12383079D01*
X13488158Y-12383079D02*
X13497682Y-12364031D01*
X13497682Y-12364031D02*
X13507206Y-12354508D01*
X13507206Y-12354508D02*
X13526253Y-12344984D01*
X13526253Y-12344984D02*
X13564348Y-12344984D01*
X13564348Y-12344984D02*
X13583396Y-12354508D01*
X13583396Y-12354508D02*
X13592920Y-12364031D01*
X13592920Y-12364031D02*
X13602444Y-12383079D01*
X13602444Y-12383079D02*
X13602444Y-12392603D01*
X13602444Y-12392603D02*
X13592920Y-12411650D01*
X13592920Y-12411650D02*
X13583396Y-12421174D01*
X13583396Y-12421174D02*
X13564348Y-12430698D01*
X13564348Y-12430698D02*
X13526253Y-12430698D01*
X13526253Y-12430698D02*
X13507206Y-12440222D01*
X13507206Y-12440222D02*
X13497682Y-12449746D01*
X13497682Y-12449746D02*
X13488158Y-12468793D01*
X13488158Y-12468793D02*
X13488158Y-12506888D01*
X13488158Y-12506888D02*
X13497682Y-12525936D01*
X13497682Y-12525936D02*
X13507206Y-12535460D01*
X13507206Y-12535460D02*
X13526253Y-12544984D01*
X13526253Y-12544984D02*
X13564348Y-12544984D01*
X13564348Y-12544984D02*
X13583396Y-12535460D01*
X13583396Y-12535460D02*
X13592920Y-12525936D01*
X13592920Y-12525936D02*
X13602444Y-12506888D01*
X13602444Y-12506888D02*
X13602444Y-12468793D01*
X13602444Y-12468793D02*
X13592920Y-12449746D01*
X13592920Y-12449746D02*
X13583396Y-12440222D01*
X13583396Y-12440222D02*
X13564348Y-12430698D01*
X13678634Y-12344984D02*
X13678634Y-12383079D01*
X13754825Y-12344984D02*
X13754825Y-12383079D01*
X14050063Y-12621174D02*
X14040539Y-12611650D01*
X14040539Y-12611650D02*
X14021491Y-12583079D01*
X14021491Y-12583079D02*
X14011968Y-12564031D01*
X14011968Y-12564031D02*
X14002444Y-12535460D01*
X14002444Y-12535460D02*
X13992920Y-12487841D01*
X13992920Y-12487841D02*
X13992920Y-12449746D01*
X13992920Y-12449746D02*
X14002444Y-12402127D01*
X14002444Y-12402127D02*
X14011968Y-12373555D01*
X14011968Y-12373555D02*
X14021491Y-12354508D01*
X14021491Y-12354508D02*
X14040539Y-12325936D01*
X14040539Y-12325936D02*
X14050063Y-12316412D01*
X14231015Y-12544984D02*
X14116729Y-12544984D01*
X14173872Y-12544984D02*
X14173872Y-12344984D01*
X14173872Y-12344984D02*
X14154825Y-12373555D01*
X14154825Y-12373555D02*
X14135777Y-12392603D01*
X14135777Y-12392603D02*
X14116729Y-12402127D01*
X14354825Y-12344984D02*
X14373872Y-12344984D01*
X14373872Y-12344984D02*
X14392920Y-12354508D01*
X14392920Y-12354508D02*
X14402444Y-12364031D01*
X14402444Y-12364031D02*
X14411968Y-12383079D01*
X14411968Y-12383079D02*
X14421491Y-12421174D01*
X14421491Y-12421174D02*
X14421491Y-12468793D01*
X14421491Y-12468793D02*
X14411968Y-12506888D01*
X14411968Y-12506888D02*
X14402444Y-12525936D01*
X14402444Y-12525936D02*
X14392920Y-12535460D01*
X14392920Y-12535460D02*
X14373872Y-12544984D01*
X14373872Y-12544984D02*
X14354825Y-12544984D01*
X14354825Y-12544984D02*
X14335777Y-12535460D01*
X14335777Y-12535460D02*
X14326253Y-12525936D01*
X14326253Y-12525936D02*
X14316729Y-12506888D01*
X14316729Y-12506888D02*
X14307206Y-12468793D01*
X14307206Y-12468793D02*
X14307206Y-12421174D01*
X14307206Y-12421174D02*
X14316729Y-12383079D01*
X14316729Y-12383079D02*
X14326253Y-12364031D01*
X14326253Y-12364031D02*
X14335777Y-12354508D01*
X14335777Y-12354508D02*
X14354825Y-12344984D01*
X14488158Y-12344984D02*
X14621491Y-12344984D01*
X14621491Y-12344984D02*
X14535777Y-12544984D01*
X14850063Y-12544984D02*
X14850063Y-12344984D01*
X14935777Y-12544984D02*
X14935777Y-12440222D01*
X14935777Y-12440222D02*
X14926253Y-12421174D01*
X14926253Y-12421174D02*
X14907206Y-12411650D01*
X14907206Y-12411650D02*
X14878634Y-12411650D01*
X14878634Y-12411650D02*
X14859587Y-12421174D01*
X14859587Y-12421174D02*
X14850063Y-12430698D01*
X15059587Y-12544984D02*
X15040539Y-12535460D01*
X15040539Y-12535460D02*
X15031015Y-12525936D01*
X15031015Y-12525936D02*
X15021491Y-12506888D01*
X15021491Y-12506888D02*
X15021491Y-12449746D01*
X15021491Y-12449746D02*
X15031015Y-12430698D01*
X15031015Y-12430698D02*
X15040539Y-12421174D01*
X15040539Y-12421174D02*
X15059587Y-12411650D01*
X15059587Y-12411650D02*
X15088158Y-12411650D01*
X15088158Y-12411650D02*
X15107206Y-12421174D01*
X15107206Y-12421174D02*
X15116730Y-12430698D01*
X15116730Y-12430698D02*
X15126253Y-12449746D01*
X15126253Y-12449746D02*
X15126253Y-12506888D01*
X15126253Y-12506888D02*
X15116730Y-12525936D01*
X15116730Y-12525936D02*
X15107206Y-12535460D01*
X15107206Y-12535460D02*
X15088158Y-12544984D01*
X15088158Y-12544984D02*
X15059587Y-12544984D01*
X15240539Y-12544984D02*
X15221491Y-12535460D01*
X15221491Y-12535460D02*
X15211968Y-12516412D01*
X15211968Y-12516412D02*
X15211968Y-12344984D01*
X15392920Y-12535460D02*
X15373872Y-12544984D01*
X15373872Y-12544984D02*
X15335777Y-12544984D01*
X15335777Y-12544984D02*
X15316730Y-12535460D01*
X15316730Y-12535460D02*
X15307206Y-12516412D01*
X15307206Y-12516412D02*
X15307206Y-12440222D01*
X15307206Y-12440222D02*
X15316730Y-12421174D01*
X15316730Y-12421174D02*
X15335777Y-12411650D01*
X15335777Y-12411650D02*
X15373872Y-12411650D01*
X15373872Y-12411650D02*
X15392920Y-12421174D01*
X15392920Y-12421174D02*
X15402444Y-12440222D01*
X15402444Y-12440222D02*
X15402444Y-12459269D01*
X15402444Y-12459269D02*
X15307206Y-12478317D01*
X15478634Y-12535460D02*
X15497682Y-12544984D01*
X15497682Y-12544984D02*
X15535777Y-12544984D01*
X15535777Y-12544984D02*
X15554825Y-12535460D01*
X15554825Y-12535460D02*
X15564349Y-12516412D01*
X15564349Y-12516412D02*
X15564349Y-12506888D01*
X15564349Y-12506888D02*
X15554825Y-12487841D01*
X15554825Y-12487841D02*
X15535777Y-12478317D01*
X15535777Y-12478317D02*
X15507206Y-12478317D01*
X15507206Y-12478317D02*
X15488158Y-12468793D01*
X15488158Y-12468793D02*
X15478634Y-12449746D01*
X15478634Y-12449746D02*
X15478634Y-12440222D01*
X15478634Y-12440222D02*
X15488158Y-12421174D01*
X15488158Y-12421174D02*
X15507206Y-12411650D01*
X15507206Y-12411650D02*
X15535777Y-12411650D01*
X15535777Y-12411650D02*
X15554825Y-12421174D01*
X15631015Y-12621174D02*
X15640539Y-12611650D01*
X15640539Y-12611650D02*
X15659587Y-12583079D01*
X15659587Y-12583079D02*
X15669111Y-12564031D01*
X15669111Y-12564031D02*
X15678634Y-12535460D01*
X15678634Y-12535460D02*
X15688158Y-12487841D01*
X15688158Y-12487841D02*
X15688158Y-12449746D01*
X15688158Y-12449746D02*
X15678634Y-12402127D01*
X15678634Y-12402127D02*
X15669111Y-12373555D01*
X15669111Y-12373555D02*
X15659587Y-12354508D01*
X15659587Y-12354508D02*
X15640539Y-12325936D01*
X15640539Y-12325936D02*
X15631015Y-12316412D01*
D12*
X10475000Y-12717500D02*
G75*
G03*
X10475000Y-12717500I-50000J0D01*
G01*
D11*
X10840539Y-12808984D02*
X10726253Y-12808984D01*
X10783396Y-12808984D02*
X10783396Y-12608984D01*
X10783396Y-12608984D02*
X10764348Y-12637555D01*
X10764348Y-12637555D02*
X10745301Y-12656603D01*
X10745301Y-12656603D02*
X10726253Y-12666127D01*
X10926253Y-12789936D02*
X10935777Y-12799460D01*
X10935777Y-12799460D02*
X10926253Y-12808984D01*
X10926253Y-12808984D02*
X10916729Y-12799460D01*
X10916729Y-12799460D02*
X10926253Y-12789936D01*
X10926253Y-12789936D02*
X10926253Y-12808984D01*
X11059586Y-12608984D02*
X11078634Y-12608984D01*
X11078634Y-12608984D02*
X11097682Y-12618508D01*
X11097682Y-12618508D02*
X11107205Y-12628031D01*
X11107205Y-12628031D02*
X11116729Y-12647079D01*
X11116729Y-12647079D02*
X11126253Y-12685174D01*
X11126253Y-12685174D02*
X11126253Y-12732793D01*
X11126253Y-12732793D02*
X11116729Y-12770888D01*
X11116729Y-12770888D02*
X11107205Y-12789936D01*
X11107205Y-12789936D02*
X11097682Y-12799460D01*
X11097682Y-12799460D02*
X11078634Y-12808984D01*
X11078634Y-12808984D02*
X11059586Y-12808984D01*
X11059586Y-12808984D02*
X11040539Y-12799460D01*
X11040539Y-12799460D02*
X11031015Y-12789936D01*
X11031015Y-12789936D02*
X11021491Y-12770888D01*
X11021491Y-12770888D02*
X11011967Y-12732793D01*
X11011967Y-12732793D02*
X11011967Y-12685174D01*
X11011967Y-12685174D02*
X11021491Y-12647079D01*
X11021491Y-12647079D02*
X11031015Y-12628031D01*
X11031015Y-12628031D02*
X11040539Y-12618508D01*
X11040539Y-12618508D02*
X11059586Y-12608984D01*
X11250062Y-12608984D02*
X11269110Y-12608984D01*
X11269110Y-12608984D02*
X11288158Y-12618508D01*
X11288158Y-12618508D02*
X11297682Y-12628031D01*
X11297682Y-12628031D02*
X11307205Y-12647079D01*
X11307205Y-12647079D02*
X11316729Y-12685174D01*
X11316729Y-12685174D02*
X11316729Y-12732793D01*
X11316729Y-12732793D02*
X11307205Y-12770888D01*
X11307205Y-12770888D02*
X11297682Y-12789936D01*
X11297682Y-12789936D02*
X11288158Y-12799460D01*
X11288158Y-12799460D02*
X11269110Y-12808984D01*
X11269110Y-12808984D02*
X11250062Y-12808984D01*
X11250062Y-12808984D02*
X11231015Y-12799460D01*
X11231015Y-12799460D02*
X11221491Y-12789936D01*
X11221491Y-12789936D02*
X11211967Y-12770888D01*
X11211967Y-12770888D02*
X11202443Y-12732793D01*
X11202443Y-12732793D02*
X11202443Y-12685174D01*
X11202443Y-12685174D02*
X11211967Y-12647079D01*
X11211967Y-12647079D02*
X11221491Y-12628031D01*
X11221491Y-12628031D02*
X11231015Y-12618508D01*
X11231015Y-12618508D02*
X11250062Y-12608984D01*
X11440539Y-12608984D02*
X11459586Y-12608984D01*
X11459586Y-12608984D02*
X11478634Y-12618508D01*
X11478634Y-12618508D02*
X11488158Y-12628031D01*
X11488158Y-12628031D02*
X11497682Y-12647079D01*
X11497682Y-12647079D02*
X11507205Y-12685174D01*
X11507205Y-12685174D02*
X11507205Y-12732793D01*
X11507205Y-12732793D02*
X11497682Y-12770888D01*
X11497682Y-12770888D02*
X11488158Y-12789936D01*
X11488158Y-12789936D02*
X11478634Y-12799460D01*
X11478634Y-12799460D02*
X11459586Y-12808984D01*
X11459586Y-12808984D02*
X11440539Y-12808984D01*
X11440539Y-12808984D02*
X11421491Y-12799460D01*
X11421491Y-12799460D02*
X11411967Y-12789936D01*
X11411967Y-12789936D02*
X11402443Y-12770888D01*
X11402443Y-12770888D02*
X11392920Y-12732793D01*
X11392920Y-12732793D02*
X11392920Y-12685174D01*
X11392920Y-12685174D02*
X11402443Y-12647079D01*
X11402443Y-12647079D02*
X11411967Y-12628031D01*
X11411967Y-12628031D02*
X11421491Y-12618508D01*
X11421491Y-12618508D02*
X11440539Y-12608984D01*
X11592920Y-12808984D02*
X11592920Y-12675650D01*
X11592920Y-12694698D02*
X11602443Y-12685174D01*
X11602443Y-12685174D02*
X11621491Y-12675650D01*
X11621491Y-12675650D02*
X11650063Y-12675650D01*
X11650063Y-12675650D02*
X11669110Y-12685174D01*
X11669110Y-12685174D02*
X11678634Y-12704222D01*
X11678634Y-12704222D02*
X11678634Y-12808984D01*
X11678634Y-12704222D02*
X11688158Y-12685174D01*
X11688158Y-12685174D02*
X11707205Y-12675650D01*
X11707205Y-12675650D02*
X11735777Y-12675650D01*
X11735777Y-12675650D02*
X11754824Y-12685174D01*
X11754824Y-12685174D02*
X11764348Y-12704222D01*
X11764348Y-12704222D02*
X11764348Y-12808984D01*
X11859586Y-12808984D02*
X11859586Y-12675650D01*
X11859586Y-12694698D02*
X11869110Y-12685174D01*
X11869110Y-12685174D02*
X11888158Y-12675650D01*
X11888158Y-12675650D02*
X11916729Y-12675650D01*
X11916729Y-12675650D02*
X11935777Y-12685174D01*
X11935777Y-12685174D02*
X11945301Y-12704222D01*
X11945301Y-12704222D02*
X11945301Y-12808984D01*
X11945301Y-12704222D02*
X11954824Y-12685174D01*
X11954824Y-12685174D02*
X11973872Y-12675650D01*
X11973872Y-12675650D02*
X12002443Y-12675650D01*
X12002443Y-12675650D02*
X12021491Y-12685174D01*
X12021491Y-12685174D02*
X12031015Y-12704222D01*
X12031015Y-12704222D02*
X12031015Y-12808984D01*
X12421491Y-12599460D02*
X12250063Y-12856603D01*
X12678634Y-12608984D02*
X12697682Y-12608984D01*
X12697682Y-12608984D02*
X12716729Y-12618508D01*
X12716729Y-12618508D02*
X12726253Y-12628031D01*
X12726253Y-12628031D02*
X12735777Y-12647079D01*
X12735777Y-12647079D02*
X12745301Y-12685174D01*
X12745301Y-12685174D02*
X12745301Y-12732793D01*
X12745301Y-12732793D02*
X12735777Y-12770888D01*
X12735777Y-12770888D02*
X12726253Y-12789936D01*
X12726253Y-12789936D02*
X12716729Y-12799460D01*
X12716729Y-12799460D02*
X12697682Y-12808984D01*
X12697682Y-12808984D02*
X12678634Y-12808984D01*
X12678634Y-12808984D02*
X12659586Y-12799460D01*
X12659586Y-12799460D02*
X12650063Y-12789936D01*
X12650063Y-12789936D02*
X12640539Y-12770888D01*
X12640539Y-12770888D02*
X12631015Y-12732793D01*
X12631015Y-12732793D02*
X12631015Y-12685174D01*
X12631015Y-12685174D02*
X12640539Y-12647079D01*
X12640539Y-12647079D02*
X12650063Y-12628031D01*
X12650063Y-12628031D02*
X12659586Y-12618508D01*
X12659586Y-12618508D02*
X12678634Y-12608984D01*
X12831015Y-12789936D02*
X12840539Y-12799460D01*
X12840539Y-12799460D02*
X12831015Y-12808984D01*
X12831015Y-12808984D02*
X12821491Y-12799460D01*
X12821491Y-12799460D02*
X12831015Y-12789936D01*
X12831015Y-12789936D02*
X12831015Y-12808984D01*
X12964348Y-12608984D02*
X12983396Y-12608984D01*
X12983396Y-12608984D02*
X13002444Y-12618508D01*
X13002444Y-12618508D02*
X13011967Y-12628031D01*
X13011967Y-12628031D02*
X13021491Y-12647079D01*
X13021491Y-12647079D02*
X13031015Y-12685174D01*
X13031015Y-12685174D02*
X13031015Y-12732793D01*
X13031015Y-12732793D02*
X13021491Y-12770888D01*
X13021491Y-12770888D02*
X13011967Y-12789936D01*
X13011967Y-12789936D02*
X13002444Y-12799460D01*
X13002444Y-12799460D02*
X12983396Y-12808984D01*
X12983396Y-12808984D02*
X12964348Y-12808984D01*
X12964348Y-12808984D02*
X12945301Y-12799460D01*
X12945301Y-12799460D02*
X12935777Y-12789936D01*
X12935777Y-12789936D02*
X12926253Y-12770888D01*
X12926253Y-12770888D02*
X12916729Y-12732793D01*
X12916729Y-12732793D02*
X12916729Y-12685174D01*
X12916729Y-12685174D02*
X12926253Y-12647079D01*
X12926253Y-12647079D02*
X12935777Y-12628031D01*
X12935777Y-12628031D02*
X12945301Y-12618508D01*
X12945301Y-12618508D02*
X12964348Y-12608984D01*
X13097682Y-12608984D02*
X13221491Y-12608984D01*
X13221491Y-12608984D02*
X13154825Y-12685174D01*
X13154825Y-12685174D02*
X13183396Y-12685174D01*
X13183396Y-12685174D02*
X13202444Y-12694698D01*
X13202444Y-12694698D02*
X13211967Y-12704222D01*
X13211967Y-12704222D02*
X13221491Y-12723269D01*
X13221491Y-12723269D02*
X13221491Y-12770888D01*
X13221491Y-12770888D02*
X13211967Y-12789936D01*
X13211967Y-12789936D02*
X13202444Y-12799460D01*
X13202444Y-12799460D02*
X13183396Y-12808984D01*
X13183396Y-12808984D02*
X13126253Y-12808984D01*
X13126253Y-12808984D02*
X13107206Y-12799460D01*
X13107206Y-12799460D02*
X13097682Y-12789936D01*
X13316729Y-12808984D02*
X13354825Y-12808984D01*
X13354825Y-12808984D02*
X13373872Y-12799460D01*
X13373872Y-12799460D02*
X13383396Y-12789936D01*
X13383396Y-12789936D02*
X13402444Y-12761365D01*
X13402444Y-12761365D02*
X13411967Y-12723269D01*
X13411967Y-12723269D02*
X13411967Y-12647079D01*
X13411967Y-12647079D02*
X13402444Y-12628031D01*
X13402444Y-12628031D02*
X13392920Y-12618508D01*
X13392920Y-12618508D02*
X13373872Y-12608984D01*
X13373872Y-12608984D02*
X13335777Y-12608984D01*
X13335777Y-12608984D02*
X13316729Y-12618508D01*
X13316729Y-12618508D02*
X13307206Y-12628031D01*
X13307206Y-12628031D02*
X13297682Y-12647079D01*
X13297682Y-12647079D02*
X13297682Y-12694698D01*
X13297682Y-12694698D02*
X13307206Y-12713746D01*
X13307206Y-12713746D02*
X13316729Y-12723269D01*
X13316729Y-12723269D02*
X13335777Y-12732793D01*
X13335777Y-12732793D02*
X13373872Y-12732793D01*
X13373872Y-12732793D02*
X13392920Y-12723269D01*
X13392920Y-12723269D02*
X13402444Y-12713746D01*
X13402444Y-12713746D02*
X13411967Y-12694698D01*
X13583396Y-12675650D02*
X13583396Y-12808984D01*
X13535777Y-12599460D02*
X13488158Y-12742317D01*
X13488158Y-12742317D02*
X13611967Y-12742317D01*
X13678634Y-12608984D02*
X13678634Y-12647079D01*
X13754825Y-12608984D02*
X13754825Y-12647079D01*
X14050063Y-12885174D02*
X14040539Y-12875650D01*
X14040539Y-12875650D02*
X14021491Y-12847079D01*
X14021491Y-12847079D02*
X14011968Y-12828031D01*
X14011968Y-12828031D02*
X14002444Y-12799460D01*
X14002444Y-12799460D02*
X13992920Y-12751841D01*
X13992920Y-12751841D02*
X13992920Y-12713746D01*
X13992920Y-12713746D02*
X14002444Y-12666127D01*
X14002444Y-12666127D02*
X14011968Y-12637555D01*
X14011968Y-12637555D02*
X14021491Y-12618508D01*
X14021491Y-12618508D02*
X14040539Y-12589936D01*
X14040539Y-12589936D02*
X14050063Y-12580412D01*
X14116729Y-12628031D02*
X14126253Y-12618508D01*
X14126253Y-12618508D02*
X14145301Y-12608984D01*
X14145301Y-12608984D02*
X14192920Y-12608984D01*
X14192920Y-12608984D02*
X14211968Y-12618508D01*
X14211968Y-12618508D02*
X14221491Y-12628031D01*
X14221491Y-12628031D02*
X14231015Y-12647079D01*
X14231015Y-12647079D02*
X14231015Y-12666127D01*
X14231015Y-12666127D02*
X14221491Y-12694698D01*
X14221491Y-12694698D02*
X14107206Y-12808984D01*
X14107206Y-12808984D02*
X14231015Y-12808984D01*
X14307206Y-12628031D02*
X14316729Y-12618508D01*
X14316729Y-12618508D02*
X14335777Y-12608984D01*
X14335777Y-12608984D02*
X14383396Y-12608984D01*
X14383396Y-12608984D02*
X14402444Y-12618508D01*
X14402444Y-12618508D02*
X14411968Y-12628031D01*
X14411968Y-12628031D02*
X14421491Y-12647079D01*
X14421491Y-12647079D02*
X14421491Y-12666127D01*
X14421491Y-12666127D02*
X14411968Y-12694698D01*
X14411968Y-12694698D02*
X14297682Y-12808984D01*
X14297682Y-12808984D02*
X14421491Y-12808984D01*
X14659587Y-12808984D02*
X14659587Y-12608984D01*
X14745301Y-12808984D02*
X14745301Y-12704222D01*
X14745301Y-12704222D02*
X14735777Y-12685174D01*
X14735777Y-12685174D02*
X14716730Y-12675650D01*
X14716730Y-12675650D02*
X14688158Y-12675650D01*
X14688158Y-12675650D02*
X14669110Y-12685174D01*
X14669110Y-12685174D02*
X14659587Y-12694698D01*
X14869110Y-12808984D02*
X14850063Y-12799460D01*
X14850063Y-12799460D02*
X14840539Y-12789936D01*
X14840539Y-12789936D02*
X14831015Y-12770888D01*
X14831015Y-12770888D02*
X14831015Y-12713746D01*
X14831015Y-12713746D02*
X14840539Y-12694698D01*
X14840539Y-12694698D02*
X14850063Y-12685174D01*
X14850063Y-12685174D02*
X14869110Y-12675650D01*
X14869110Y-12675650D02*
X14897682Y-12675650D01*
X14897682Y-12675650D02*
X14916730Y-12685174D01*
X14916730Y-12685174D02*
X14926253Y-12694698D01*
X14926253Y-12694698D02*
X14935777Y-12713746D01*
X14935777Y-12713746D02*
X14935777Y-12770888D01*
X14935777Y-12770888D02*
X14926253Y-12789936D01*
X14926253Y-12789936D02*
X14916730Y-12799460D01*
X14916730Y-12799460D02*
X14897682Y-12808984D01*
X14897682Y-12808984D02*
X14869110Y-12808984D01*
X15050063Y-12808984D02*
X15031015Y-12799460D01*
X15031015Y-12799460D02*
X15021491Y-12780412D01*
X15021491Y-12780412D02*
X15021491Y-12608984D01*
X15202444Y-12799460D02*
X15183396Y-12808984D01*
X15183396Y-12808984D02*
X15145301Y-12808984D01*
X15145301Y-12808984D02*
X15126253Y-12799460D01*
X15126253Y-12799460D02*
X15116730Y-12780412D01*
X15116730Y-12780412D02*
X15116730Y-12704222D01*
X15116730Y-12704222D02*
X15126253Y-12685174D01*
X15126253Y-12685174D02*
X15145301Y-12675650D01*
X15145301Y-12675650D02*
X15183396Y-12675650D01*
X15183396Y-12675650D02*
X15202444Y-12685174D01*
X15202444Y-12685174D02*
X15211968Y-12704222D01*
X15211968Y-12704222D02*
X15211968Y-12723269D01*
X15211968Y-12723269D02*
X15116730Y-12742317D01*
X15288158Y-12799460D02*
X15307206Y-12808984D01*
X15307206Y-12808984D02*
X15345301Y-12808984D01*
X15345301Y-12808984D02*
X15364349Y-12799460D01*
X15364349Y-12799460D02*
X15373872Y-12780412D01*
X15373872Y-12780412D02*
X15373872Y-12770888D01*
X15373872Y-12770888D02*
X15364349Y-12751841D01*
X15364349Y-12751841D02*
X15345301Y-12742317D01*
X15345301Y-12742317D02*
X15316730Y-12742317D01*
X15316730Y-12742317D02*
X15297682Y-12732793D01*
X15297682Y-12732793D02*
X15288158Y-12713746D01*
X15288158Y-12713746D02*
X15288158Y-12704222D01*
X15288158Y-12704222D02*
X15297682Y-12685174D01*
X15297682Y-12685174D02*
X15316730Y-12675650D01*
X15316730Y-12675650D02*
X15345301Y-12675650D01*
X15345301Y-12675650D02*
X15364349Y-12685174D01*
X15440539Y-12885174D02*
X15450063Y-12875650D01*
X15450063Y-12875650D02*
X15469111Y-12847079D01*
X15469111Y-12847079D02*
X15478634Y-12828031D01*
X15478634Y-12828031D02*
X15488158Y-12799460D01*
X15488158Y-12799460D02*
X15497682Y-12751841D01*
X15497682Y-12751841D02*
X15497682Y-12713746D01*
X15497682Y-12713746D02*
X15488158Y-12666127D01*
X15488158Y-12666127D02*
X15478634Y-12637555D01*
X15478634Y-12637555D02*
X15469111Y-12618508D01*
X15469111Y-12618508D02*
X15450063Y-12589936D01*
X15450063Y-12589936D02*
X15440539Y-12580412D01*
D13*
X10410000Y-12916500D02*
X10410000Y-13046500D01*
X10345000Y-12981500D02*
X10475000Y-12981500D01*
D11*
X10840539Y-13072984D02*
X10726253Y-13072984D01*
X10783396Y-13072984D02*
X10783396Y-12872984D01*
X10783396Y-12872984D02*
X10764348Y-12901555D01*
X10764348Y-12901555D02*
X10745301Y-12920603D01*
X10745301Y-12920603D02*
X10726253Y-12930127D01*
X10926253Y-13053936D02*
X10935777Y-13063460D01*
X10935777Y-13063460D02*
X10926253Y-13072984D01*
X10926253Y-13072984D02*
X10916729Y-13063460D01*
X10916729Y-13063460D02*
X10926253Y-13053936D01*
X10926253Y-13053936D02*
X10926253Y-13072984D01*
X11002444Y-12872984D02*
X11126253Y-12872984D01*
X11126253Y-12872984D02*
X11059586Y-12949174D01*
X11059586Y-12949174D02*
X11088158Y-12949174D01*
X11088158Y-12949174D02*
X11107205Y-12958698D01*
X11107205Y-12958698D02*
X11116729Y-12968222D01*
X11116729Y-12968222D02*
X11126253Y-12987269D01*
X11126253Y-12987269D02*
X11126253Y-13034888D01*
X11126253Y-13034888D02*
X11116729Y-13053936D01*
X11116729Y-13053936D02*
X11107205Y-13063460D01*
X11107205Y-13063460D02*
X11088158Y-13072984D01*
X11088158Y-13072984D02*
X11031015Y-13072984D01*
X11031015Y-13072984D02*
X11011967Y-13063460D01*
X11011967Y-13063460D02*
X11002444Y-13053936D01*
X11250062Y-12872984D02*
X11269110Y-12872984D01*
X11269110Y-12872984D02*
X11288158Y-12882508D01*
X11288158Y-12882508D02*
X11297682Y-12892031D01*
X11297682Y-12892031D02*
X11307205Y-12911079D01*
X11307205Y-12911079D02*
X11316729Y-12949174D01*
X11316729Y-12949174D02*
X11316729Y-12996793D01*
X11316729Y-12996793D02*
X11307205Y-13034888D01*
X11307205Y-13034888D02*
X11297682Y-13053936D01*
X11297682Y-13053936D02*
X11288158Y-13063460D01*
X11288158Y-13063460D02*
X11269110Y-13072984D01*
X11269110Y-13072984D02*
X11250062Y-13072984D01*
X11250062Y-13072984D02*
X11231015Y-13063460D01*
X11231015Y-13063460D02*
X11221491Y-13053936D01*
X11221491Y-13053936D02*
X11211967Y-13034888D01*
X11211967Y-13034888D02*
X11202443Y-12996793D01*
X11202443Y-12996793D02*
X11202443Y-12949174D01*
X11202443Y-12949174D02*
X11211967Y-12911079D01*
X11211967Y-12911079D02*
X11221491Y-12892031D01*
X11221491Y-12892031D02*
X11231015Y-12882508D01*
X11231015Y-12882508D02*
X11250062Y-12872984D01*
X11440539Y-12872984D02*
X11459586Y-12872984D01*
X11459586Y-12872984D02*
X11478634Y-12882508D01*
X11478634Y-12882508D02*
X11488158Y-12892031D01*
X11488158Y-12892031D02*
X11497682Y-12911079D01*
X11497682Y-12911079D02*
X11507205Y-12949174D01*
X11507205Y-12949174D02*
X11507205Y-12996793D01*
X11507205Y-12996793D02*
X11497682Y-13034888D01*
X11497682Y-13034888D02*
X11488158Y-13053936D01*
X11488158Y-13053936D02*
X11478634Y-13063460D01*
X11478634Y-13063460D02*
X11459586Y-13072984D01*
X11459586Y-13072984D02*
X11440539Y-13072984D01*
X11440539Y-13072984D02*
X11421491Y-13063460D01*
X11421491Y-13063460D02*
X11411967Y-13053936D01*
X11411967Y-13053936D02*
X11402443Y-13034888D01*
X11402443Y-13034888D02*
X11392920Y-12996793D01*
X11392920Y-12996793D02*
X11392920Y-12949174D01*
X11392920Y-12949174D02*
X11402443Y-12911079D01*
X11402443Y-12911079D02*
X11411967Y-12892031D01*
X11411967Y-12892031D02*
X11421491Y-12882508D01*
X11421491Y-12882508D02*
X11440539Y-12872984D01*
X11592920Y-13072984D02*
X11592920Y-12939650D01*
X11592920Y-12958698D02*
X11602443Y-12949174D01*
X11602443Y-12949174D02*
X11621491Y-12939650D01*
X11621491Y-12939650D02*
X11650063Y-12939650D01*
X11650063Y-12939650D02*
X11669110Y-12949174D01*
X11669110Y-12949174D02*
X11678634Y-12968222D01*
X11678634Y-12968222D02*
X11678634Y-13072984D01*
X11678634Y-12968222D02*
X11688158Y-12949174D01*
X11688158Y-12949174D02*
X11707205Y-12939650D01*
X11707205Y-12939650D02*
X11735777Y-12939650D01*
X11735777Y-12939650D02*
X11754824Y-12949174D01*
X11754824Y-12949174D02*
X11764348Y-12968222D01*
X11764348Y-12968222D02*
X11764348Y-13072984D01*
X11859586Y-13072984D02*
X11859586Y-12939650D01*
X11859586Y-12958698D02*
X11869110Y-12949174D01*
X11869110Y-12949174D02*
X11888158Y-12939650D01*
X11888158Y-12939650D02*
X11916729Y-12939650D01*
X11916729Y-12939650D02*
X11935777Y-12949174D01*
X11935777Y-12949174D02*
X11945301Y-12968222D01*
X11945301Y-12968222D02*
X11945301Y-13072984D01*
X11945301Y-12968222D02*
X11954824Y-12949174D01*
X11954824Y-12949174D02*
X11973872Y-12939650D01*
X11973872Y-12939650D02*
X12002443Y-12939650D01*
X12002443Y-12939650D02*
X12021491Y-12949174D01*
X12021491Y-12949174D02*
X12031015Y-12968222D01*
X12031015Y-12968222D02*
X12031015Y-13072984D01*
X12421491Y-12863460D02*
X12250063Y-13120603D01*
X12678634Y-12872984D02*
X12697682Y-12872984D01*
X12697682Y-12872984D02*
X12716729Y-12882508D01*
X12716729Y-12882508D02*
X12726253Y-12892031D01*
X12726253Y-12892031D02*
X12735777Y-12911079D01*
X12735777Y-12911079D02*
X12745301Y-12949174D01*
X12745301Y-12949174D02*
X12745301Y-12996793D01*
X12745301Y-12996793D02*
X12735777Y-13034888D01*
X12735777Y-13034888D02*
X12726253Y-13053936D01*
X12726253Y-13053936D02*
X12716729Y-13063460D01*
X12716729Y-13063460D02*
X12697682Y-13072984D01*
X12697682Y-13072984D02*
X12678634Y-13072984D01*
X12678634Y-13072984D02*
X12659586Y-13063460D01*
X12659586Y-13063460D02*
X12650063Y-13053936D01*
X12650063Y-13053936D02*
X12640539Y-13034888D01*
X12640539Y-13034888D02*
X12631015Y-12996793D01*
X12631015Y-12996793D02*
X12631015Y-12949174D01*
X12631015Y-12949174D02*
X12640539Y-12911079D01*
X12640539Y-12911079D02*
X12650063Y-12892031D01*
X12650063Y-12892031D02*
X12659586Y-12882508D01*
X12659586Y-12882508D02*
X12678634Y-12872984D01*
X12831015Y-13053936D02*
X12840539Y-13063460D01*
X12840539Y-13063460D02*
X12831015Y-13072984D01*
X12831015Y-13072984D02*
X12821491Y-13063460D01*
X12821491Y-13063460D02*
X12831015Y-13053936D01*
X12831015Y-13053936D02*
X12831015Y-13072984D01*
X12964348Y-12872984D02*
X12983396Y-12872984D01*
X12983396Y-12872984D02*
X13002444Y-12882508D01*
X13002444Y-12882508D02*
X13011967Y-12892031D01*
X13011967Y-12892031D02*
X13021491Y-12911079D01*
X13021491Y-12911079D02*
X13031015Y-12949174D01*
X13031015Y-12949174D02*
X13031015Y-12996793D01*
X13031015Y-12996793D02*
X13021491Y-13034888D01*
X13021491Y-13034888D02*
X13011967Y-13053936D01*
X13011967Y-13053936D02*
X13002444Y-13063460D01*
X13002444Y-13063460D02*
X12983396Y-13072984D01*
X12983396Y-13072984D02*
X12964348Y-13072984D01*
X12964348Y-13072984D02*
X12945301Y-13063460D01*
X12945301Y-13063460D02*
X12935777Y-13053936D01*
X12935777Y-13053936D02*
X12926253Y-13034888D01*
X12926253Y-13034888D02*
X12916729Y-12996793D01*
X12916729Y-12996793D02*
X12916729Y-12949174D01*
X12916729Y-12949174D02*
X12926253Y-12911079D01*
X12926253Y-12911079D02*
X12935777Y-12892031D01*
X12935777Y-12892031D02*
X12945301Y-12882508D01*
X12945301Y-12882508D02*
X12964348Y-12872984D01*
X13211967Y-12872984D02*
X13116729Y-12872984D01*
X13116729Y-12872984D02*
X13107206Y-12968222D01*
X13107206Y-12968222D02*
X13116729Y-12958698D01*
X13116729Y-12958698D02*
X13135777Y-12949174D01*
X13135777Y-12949174D02*
X13183396Y-12949174D01*
X13183396Y-12949174D02*
X13202444Y-12958698D01*
X13202444Y-12958698D02*
X13211967Y-12968222D01*
X13211967Y-12968222D02*
X13221491Y-12987269D01*
X13221491Y-12987269D02*
X13221491Y-13034888D01*
X13221491Y-13034888D02*
X13211967Y-13053936D01*
X13211967Y-13053936D02*
X13202444Y-13063460D01*
X13202444Y-13063460D02*
X13183396Y-13072984D01*
X13183396Y-13072984D02*
X13135777Y-13072984D01*
X13135777Y-13072984D02*
X13116729Y-13063460D01*
X13116729Y-13063460D02*
X13107206Y-13053936D01*
X13411967Y-13072984D02*
X13297682Y-13072984D01*
X13354825Y-13072984D02*
X13354825Y-12872984D01*
X13354825Y-12872984D02*
X13335777Y-12901555D01*
X13335777Y-12901555D02*
X13316729Y-12920603D01*
X13316729Y-12920603D02*
X13297682Y-12930127D01*
X13488158Y-12892031D02*
X13497682Y-12882508D01*
X13497682Y-12882508D02*
X13516729Y-12872984D01*
X13516729Y-12872984D02*
X13564348Y-12872984D01*
X13564348Y-12872984D02*
X13583396Y-12882508D01*
X13583396Y-12882508D02*
X13592920Y-12892031D01*
X13592920Y-12892031D02*
X13602444Y-12911079D01*
X13602444Y-12911079D02*
X13602444Y-12930127D01*
X13602444Y-12930127D02*
X13592920Y-12958698D01*
X13592920Y-12958698D02*
X13478634Y-13072984D01*
X13478634Y-13072984D02*
X13602444Y-13072984D01*
X13678634Y-12872984D02*
X13678634Y-12911079D01*
X13754825Y-12872984D02*
X13754825Y-12911079D01*
X14050063Y-13149174D02*
X14040539Y-13139650D01*
X14040539Y-13139650D02*
X14021491Y-13111079D01*
X14021491Y-13111079D02*
X14011968Y-13092031D01*
X14011968Y-13092031D02*
X14002444Y-13063460D01*
X14002444Y-13063460D02*
X13992920Y-13015841D01*
X13992920Y-13015841D02*
X13992920Y-12977746D01*
X13992920Y-12977746D02*
X14002444Y-12930127D01*
X14002444Y-12930127D02*
X14011968Y-12901555D01*
X14011968Y-12901555D02*
X14021491Y-12882508D01*
X14021491Y-12882508D02*
X14040539Y-12853936D01*
X14040539Y-12853936D02*
X14050063Y-12844412D01*
X14211968Y-12939650D02*
X14211968Y-13072984D01*
X14164348Y-12863460D02*
X14116729Y-13006317D01*
X14116729Y-13006317D02*
X14240539Y-13006317D01*
X14469110Y-13072984D02*
X14469110Y-12872984D01*
X14554825Y-13072984D02*
X14554825Y-12968222D01*
X14554825Y-12968222D02*
X14545301Y-12949174D01*
X14545301Y-12949174D02*
X14526253Y-12939650D01*
X14526253Y-12939650D02*
X14497682Y-12939650D01*
X14497682Y-12939650D02*
X14478634Y-12949174D01*
X14478634Y-12949174D02*
X14469110Y-12958698D01*
X14678634Y-13072984D02*
X14659587Y-13063460D01*
X14659587Y-13063460D02*
X14650063Y-13053936D01*
X14650063Y-13053936D02*
X14640539Y-13034888D01*
X14640539Y-13034888D02*
X14640539Y-12977746D01*
X14640539Y-12977746D02*
X14650063Y-12958698D01*
X14650063Y-12958698D02*
X14659587Y-12949174D01*
X14659587Y-12949174D02*
X14678634Y-12939650D01*
X14678634Y-12939650D02*
X14707206Y-12939650D01*
X14707206Y-12939650D02*
X14726253Y-12949174D01*
X14726253Y-12949174D02*
X14735777Y-12958698D01*
X14735777Y-12958698D02*
X14745301Y-12977746D01*
X14745301Y-12977746D02*
X14745301Y-13034888D01*
X14745301Y-13034888D02*
X14735777Y-13053936D01*
X14735777Y-13053936D02*
X14726253Y-13063460D01*
X14726253Y-13063460D02*
X14707206Y-13072984D01*
X14707206Y-13072984D02*
X14678634Y-13072984D01*
X14859587Y-13072984D02*
X14840539Y-13063460D01*
X14840539Y-13063460D02*
X14831015Y-13044412D01*
X14831015Y-13044412D02*
X14831015Y-12872984D01*
X15011968Y-13063460D02*
X14992920Y-13072984D01*
X14992920Y-13072984D02*
X14954825Y-13072984D01*
X14954825Y-13072984D02*
X14935777Y-13063460D01*
X14935777Y-13063460D02*
X14926253Y-13044412D01*
X14926253Y-13044412D02*
X14926253Y-12968222D01*
X14926253Y-12968222D02*
X14935777Y-12949174D01*
X14935777Y-12949174D02*
X14954825Y-12939650D01*
X14954825Y-12939650D02*
X14992920Y-12939650D01*
X14992920Y-12939650D02*
X15011968Y-12949174D01*
X15011968Y-12949174D02*
X15021491Y-12968222D01*
X15021491Y-12968222D02*
X15021491Y-12987269D01*
X15021491Y-12987269D02*
X14926253Y-13006317D01*
X15097682Y-13063460D02*
X15116730Y-13072984D01*
X15116730Y-13072984D02*
X15154825Y-13072984D01*
X15154825Y-13072984D02*
X15173872Y-13063460D01*
X15173872Y-13063460D02*
X15183396Y-13044412D01*
X15183396Y-13044412D02*
X15183396Y-13034888D01*
X15183396Y-13034888D02*
X15173872Y-13015841D01*
X15173872Y-13015841D02*
X15154825Y-13006317D01*
X15154825Y-13006317D02*
X15126253Y-13006317D01*
X15126253Y-13006317D02*
X15107206Y-12996793D01*
X15107206Y-12996793D02*
X15097682Y-12977746D01*
X15097682Y-12977746D02*
X15097682Y-12968222D01*
X15097682Y-12968222D02*
X15107206Y-12949174D01*
X15107206Y-12949174D02*
X15126253Y-12939650D01*
X15126253Y-12939650D02*
X15154825Y-12939650D01*
X15154825Y-12939650D02*
X15173872Y-12949174D01*
X15250063Y-13149174D02*
X15259587Y-13139650D01*
X15259587Y-13139650D02*
X15278634Y-13111079D01*
X15278634Y-13111079D02*
X15288158Y-13092031D01*
X15288158Y-13092031D02*
X15297682Y-13063460D01*
X15297682Y-13063460D02*
X15307206Y-13015841D01*
X15307206Y-13015841D02*
X15307206Y-12977746D01*
X15307206Y-12977746D02*
X15297682Y-12930127D01*
X15297682Y-12930127D02*
X15288158Y-12901555D01*
X15288158Y-12901555D02*
X15278634Y-12882508D01*
X15278634Y-12882508D02*
X15259587Y-12853936D01*
X15259587Y-12853936D02*
X15250063Y-12844412D01*
M02*
