G04 #@! TF.GenerationSoftware,KiCad,Pcbnew,7.0.9*
G04 #@! TF.CreationDate,2024-03-05T18:49:30-08:00*
G04 #@! TF.ProjectId,SSM3582_v02,53534d33-3538-4325-9f76-30322e6b6963,rev?*
G04 #@! TF.SameCoordinates,Original*
G04 #@! TF.FileFunction,Paste,Top*
G04 #@! TF.FilePolarity,Positive*
%FSLAX46Y46*%
G04 Gerber Fmt 4.6, Leading zero omitted, Abs format (unit mm)*
G04 Created by KiCad (PCBNEW 7.0.9) date 2024-03-05 18:49:30*
%MOMM*%
%LPD*%
G01*
G04 APERTURE LIST*
G04 Aperture macros list*
%AMRoundRect*
0 Rectangle with rounded corners*
0 $1 Rounding radius*
0 $2 $3 $4 $5 $6 $7 $8 $9 X,Y pos of 4 corners*
0 Add a 4 corners polygon primitive as box body*
4,1,4,$2,$3,$4,$5,$6,$7,$8,$9,$2,$3,0*
0 Add four circle primitives for the rounded corners*
1,1,$1+$1,$2,$3*
1,1,$1+$1,$4,$5*
1,1,$1+$1,$6,$7*
1,1,$1+$1,$8,$9*
0 Add four rect primitives between the rounded corners*
20,1,$1+$1,$2,$3,$4,$5,0*
20,1,$1+$1,$4,$5,$6,$7,0*
20,1,$1+$1,$6,$7,$8,$9,0*
20,1,$1+$1,$8,$9,$2,$3,0*%
G04 Aperture macros list end*
%ADD10RoundRect,0.225000X0.225000X0.250000X-0.225000X0.250000X-0.225000X-0.250000X0.225000X-0.250000X0*%
%ADD11RoundRect,0.250000X-1.450000X0.312500X-1.450000X-0.312500X1.450000X-0.312500X1.450000X0.312500X0*%
%ADD12RoundRect,0.250000X-0.250000X-0.475000X0.250000X-0.475000X0.250000X0.475000X-0.250000X0.475000X0*%
%ADD13RoundRect,0.225000X-0.250000X0.225000X-0.250000X-0.225000X0.250000X-0.225000X0.250000X0.225000X0*%
%ADD14RoundRect,0.225000X0.250000X-0.225000X0.250000X0.225000X-0.250000X0.225000X-0.250000X-0.225000X0*%
%ADD15R,1.422400X0.508000*%
%ADD16RoundRect,0.250000X0.475000X-0.250000X0.475000X0.250000X-0.475000X0.250000X-0.475000X-0.250000X0*%
%ADD17RoundRect,0.250000X1.450000X-0.312500X1.450000X0.312500X-1.450000X0.312500X-1.450000X-0.312500X0*%
%ADD18R,0.762000X0.254000*%
%ADD19R,0.254000X0.762000*%
%ADD20RoundRect,0.225000X-0.225000X-0.250000X0.225000X-0.250000X0.225000X0.250000X-0.225000X0.250000X0*%
%ADD21RoundRect,0.250000X-0.475000X0.250000X-0.475000X-0.250000X0.475000X-0.250000X0.475000X0.250000X0*%
%ADD22R,1.000000X0.550000*%
G04 APERTURE END LIST*
G36*
X171306834Y-92258634D02*
G01*
X169940500Y-92258634D01*
X169940500Y-90892300D01*
X171306834Y-90892300D01*
X171306834Y-92258634D01*
G37*
G36*
X171306834Y-93824967D02*
G01*
X169940500Y-93824967D01*
X169940500Y-92458633D01*
X171306834Y-92458633D01*
X171306834Y-93824967D01*
G37*
G36*
X171306834Y-95391300D02*
G01*
X169940500Y-95391300D01*
X169940500Y-94024966D01*
X171306834Y-94024966D01*
X171306834Y-95391300D01*
G37*
G36*
X172873167Y-92258634D02*
G01*
X171506833Y-92258634D01*
X171506833Y-90892300D01*
X172873167Y-90892300D01*
X172873167Y-92258634D01*
G37*
G36*
X172873167Y-93824967D02*
G01*
X171506833Y-93824967D01*
X171506833Y-92458633D01*
X172873167Y-92458633D01*
X172873167Y-93824967D01*
G37*
G36*
X172873167Y-95391300D02*
G01*
X171506833Y-95391300D01*
X171506833Y-94024966D01*
X172873167Y-94024966D01*
X172873167Y-95391300D01*
G37*
G36*
X174439500Y-92258634D02*
G01*
X173073166Y-92258634D01*
X173073166Y-90892300D01*
X174439500Y-90892300D01*
X174439500Y-92258634D01*
G37*
G36*
X174439500Y-93824967D02*
G01*
X173073166Y-93824967D01*
X173073166Y-92458633D01*
X174439500Y-92458633D01*
X174439500Y-93824967D01*
G37*
G36*
X174439500Y-95391300D02*
G01*
X173073166Y-95391300D01*
X173073166Y-94024966D01*
X174439500Y-94024966D01*
X174439500Y-95391300D01*
G37*
D10*
X169620000Y-88265000D03*
X168070000Y-88265000D03*
X169900000Y-97790000D03*
X168350000Y-97790000D03*
D11*
X153035000Y-71507500D03*
X153035000Y-75782500D03*
D12*
X171490600Y-100914200D03*
X173390600Y-100914200D03*
D13*
X147320000Y-113432500D03*
X147320000Y-114982500D03*
D11*
X160655000Y-110025000D03*
X160655000Y-114300000D03*
D14*
X177165000Y-91440000D03*
X177165000Y-89890000D03*
D15*
X147612100Y-81604999D03*
X147612100Y-80955001D03*
X147612100Y-80304999D03*
X147612100Y-79655001D03*
X143217900Y-79655001D03*
X143217900Y-80304999D03*
X143217900Y-80955001D03*
X143217900Y-81604999D03*
D16*
X179070000Y-91440000D03*
X179070000Y-89540000D03*
D13*
X138430000Y-113432500D03*
X138430000Y-114982500D03*
D14*
X144145000Y-114982500D03*
X144145000Y-113432500D03*
D17*
X142875000Y-75782500D03*
X142875000Y-71507500D03*
D11*
X147955000Y-71507500D03*
X147955000Y-75782500D03*
D18*
X169218200Y-90891799D03*
X169218200Y-91391801D03*
X169218200Y-91891800D03*
X169218200Y-92391799D03*
X169218200Y-92891800D03*
X169218200Y-93391800D03*
X169218200Y-93891801D03*
X169218200Y-94391800D03*
X169218200Y-94891799D03*
X169218200Y-95391801D03*
D19*
X169939999Y-96113600D03*
X170440001Y-96113600D03*
X170940000Y-96113600D03*
X171439999Y-96113600D03*
X171940000Y-96113600D03*
X172440000Y-96113600D03*
X172940001Y-96113600D03*
X173440000Y-96113600D03*
X173939999Y-96113600D03*
X174440001Y-96113600D03*
D18*
X175161800Y-95391801D03*
X175161800Y-94891799D03*
X175161800Y-94391800D03*
X175161800Y-93891801D03*
X175161800Y-93391800D03*
X175161800Y-92891800D03*
X175161800Y-92391799D03*
X175161800Y-91891800D03*
X175161800Y-91391801D03*
X175161800Y-90891799D03*
D19*
X174440001Y-90170000D03*
X173939999Y-90170000D03*
X173440000Y-90170000D03*
X172940001Y-90170000D03*
X172440000Y-90170000D03*
X171940000Y-90170000D03*
X171439999Y-90170000D03*
X170940000Y-90170000D03*
X170440001Y-90170000D03*
X169939999Y-90170000D03*
D12*
X171175000Y-85725000D03*
X173075000Y-85725000D03*
D13*
X141605000Y-113432500D03*
X141605000Y-114982500D03*
D11*
X158115000Y-71507500D03*
X158115000Y-75782500D03*
D20*
X175234000Y-97790000D03*
X176784000Y-97790000D03*
D11*
X165100000Y-110025000D03*
X165100000Y-114300000D03*
D21*
X179070000Y-94361000D03*
X179070000Y-96261000D03*
D11*
X163195000Y-71507500D03*
X163195000Y-75782500D03*
D20*
X171665000Y-98374200D03*
X173215000Y-98374200D03*
D22*
X144452350Y-108997497D03*
X144452350Y-109947497D03*
X144452350Y-110897497D03*
X147152350Y-110897497D03*
X147152350Y-109947497D03*
X147152350Y-108997497D03*
D13*
X144145000Y-83805000D03*
X144145000Y-85355000D03*
X134620000Y-113432500D03*
X134620000Y-114982500D03*
D20*
X171385000Y-88265000D03*
X172935000Y-88265000D03*
D11*
X151765000Y-110025000D03*
X151765000Y-114300000D03*
D13*
X177165000Y-94335000D03*
X177165000Y-95885000D03*
D20*
X174700000Y-88265000D03*
X176250000Y-88265000D03*
D22*
X138902450Y-108992499D03*
X138902450Y-109942499D03*
X138902450Y-110892499D03*
X141602450Y-110892499D03*
X141602450Y-109942499D03*
X141602450Y-108992499D03*
D11*
X156210000Y-110025000D03*
X156210000Y-114300000D03*
D17*
X132715000Y-75782500D03*
X132715000Y-71507500D03*
X137795000Y-75782500D03*
X137795000Y-71507500D03*
D13*
X131445000Y-113432500D03*
X131445000Y-114982500D03*
D17*
X127765000Y-75782500D03*
X127765000Y-71507500D03*
D13*
X146685000Y-83805000D03*
X146685000Y-85355000D03*
D22*
X131752350Y-108992499D03*
X131752350Y-109942499D03*
X131752350Y-110892499D03*
X134452350Y-110892499D03*
X134452350Y-109942499D03*
X134452350Y-108992499D03*
M02*
