G04 #@! TF.GenerationSoftware,KiCad,Pcbnew,7.0.9*
G04 #@! TF.CreationDate,2024-03-05T18:49:30-08:00*
G04 #@! TF.ProjectId,SSM3582_v02,53534d33-3538-4325-9f76-30322e6b6963,rev?*
G04 #@! TF.SameCoordinates,Original*
G04 #@! TF.FileFunction,Legend,Top*
G04 #@! TF.FilePolarity,Positive*
%FSLAX46Y46*%
G04 Gerber Fmt 4.6, Leading zero omitted, Abs format (unit mm)*
G04 Created by KiCad (PCBNEW 7.0.9) date 2024-03-05 18:49:30*
%MOMM*%
%LPD*%
G01*
G04 APERTURE LIST*
G04 Aperture macros list*
%AMRoundRect*
0 Rectangle with rounded corners*
0 $1 Rounding radius*
0 $2 $3 $4 $5 $6 $7 $8 $9 X,Y pos of 4 corners*
0 Add a 4 corners polygon primitive as box body*
4,1,4,$2,$3,$4,$5,$6,$7,$8,$9,$2,$3,0*
0 Add four circle primitives for the rounded corners*
1,1,$1+$1,$2,$3*
1,1,$1+$1,$4,$5*
1,1,$1+$1,$6,$7*
1,1,$1+$1,$8,$9*
0 Add four rect primitives between the rounded corners*
20,1,$1+$1,$2,$3,$4,$5,0*
20,1,$1+$1,$4,$5,$6,$7,0*
20,1,$1+$1,$6,$7,$8,$9,0*
20,1,$1+$1,$8,$9,$2,$3,0*%
G04 Aperture macros list end*
%ADD10C,0.031750*%
%ADD11C,0.100000*%
%ADD12C,0.150000*%
%ADD13C,0.120000*%
%ADD14C,0.152400*%
%ADD15RoundRect,0.263000X0.225000X0.250000X-0.225000X0.250000X-0.225000X-0.250000X0.225000X-0.250000X0*%
%ADD16RoundRect,0.288000X-1.450000X0.312500X-1.450000X-0.312500X1.450000X-0.312500X1.450000X0.312500X0*%
%ADD17RoundRect,0.288000X-0.250000X-0.475000X0.250000X-0.475000X0.250000X0.475000X-0.250000X0.475000X0*%
%ADD18RoundRect,0.263000X-0.250000X0.225000X-0.250000X-0.225000X0.250000X-0.225000X0.250000X0.225000X0*%
%ADD19RoundRect,0.263000X0.250000X-0.225000X0.250000X0.225000X-0.250000X0.225000X-0.250000X-0.225000X0*%
%ADD20RoundRect,0.038000X0.711200X0.254000X-0.711200X0.254000X-0.711200X-0.254000X0.711200X-0.254000X0*%
%ADD21RoundRect,0.288000X0.475000X-0.250000X0.475000X0.250000X-0.475000X0.250000X-0.475000X-0.250000X0*%
%ADD22RoundRect,0.288000X1.450000X-0.312500X1.450000X0.312500X-1.450000X0.312500X-1.450000X-0.312500X0*%
%ADD23RoundRect,0.038000X0.381000X-0.127000X0.381000X0.127000X-0.381000X0.127000X-0.381000X-0.127000X0*%
%ADD24RoundRect,0.038000X-0.127000X-0.381000X0.127000X-0.381000X0.127000X0.381000X-0.127000X0.381000X0*%
%ADD25RoundRect,0.038000X-2.349500X-2.349500X2.349500X-2.349500X2.349500X2.349500X-2.349500X2.349500X0*%
%ADD26C,3.276000*%
%ADD27RoundRect,0.038000X1.300000X-1.300000X1.300000X1.300000X-1.300000X1.300000X-1.300000X-1.300000X0*%
%ADD28C,2.676000*%
%ADD29RoundRect,0.263000X-0.225000X-0.250000X0.225000X-0.250000X0.225000X0.250000X-0.225000X0.250000X0*%
%ADD30RoundRect,0.288000X-0.475000X0.250000X-0.475000X-0.250000X0.475000X-0.250000X0.475000X0.250000X0*%
%ADD31RoundRect,0.038000X0.850000X0.850000X-0.850000X0.850000X-0.850000X-0.850000X0.850000X-0.850000X0*%
%ADD32O,1.776000X1.776000*%
%ADD33RoundRect,0.038000X-0.500000X0.275000X-0.500000X-0.275000X0.500000X-0.275000X0.500000X0.275000X0*%
G04 APERTURE END LIST*
D10*
X172276388Y-71144183D02*
X172283775Y-71181097D01*
X172290914Y-71217498D01*
X172297770Y-71253176D01*
X172304306Y-71287919D01*
X172310489Y-71321517D01*
X172316282Y-71353759D01*
X172324165Y-71399118D01*
X172330974Y-71440241D01*
X172336590Y-71476416D01*
X172342018Y-71515724D01*
X172345094Y-71548143D01*
X172345059Y-71555234D01*
X170209521Y-75546398D02*
X170212738Y-75507310D01*
X170216222Y-75468071D01*
X170219979Y-75428647D01*
X170224015Y-75389005D01*
X170228335Y-75349113D01*
X170232946Y-75308936D01*
X170237854Y-75268442D01*
X170243064Y-75227599D01*
X170248581Y-75186372D01*
X170254413Y-75144730D01*
X170260565Y-75102638D01*
X170267042Y-75060065D01*
X170273851Y-75016976D01*
X170280998Y-74973340D01*
X170288487Y-74929122D01*
X170296326Y-74884290D01*
X170304520Y-74838811D01*
X170313074Y-74792652D01*
X170321996Y-74745780D01*
X170331290Y-74698162D01*
X170340962Y-74649764D01*
X170351019Y-74600554D01*
X170361466Y-74550499D01*
X170372308Y-74499566D01*
X170383553Y-74447722D01*
X170395206Y-74394933D01*
X170407272Y-74341167D01*
X170419758Y-74286390D01*
X170432669Y-74230571D01*
X170446011Y-74173675D01*
X170459790Y-74115669D01*
X170474013Y-74056522D01*
X175053030Y-73951996D02*
X175027856Y-73975349D01*
X175000570Y-73996572D01*
X174970198Y-74017412D01*
X174938807Y-74036450D01*
X174908466Y-74052266D01*
X174903657Y-74054490D01*
X178006958Y-76429062D02*
X178038994Y-76437902D01*
X178070368Y-76451905D01*
X178100720Y-76470443D01*
X178129695Y-76492888D01*
X178156935Y-76518613D01*
X178182083Y-76546991D01*
X178204782Y-76577392D01*
X178224675Y-76609191D01*
X178241404Y-76641759D01*
X178254614Y-76674469D01*
X178263946Y-76706694D01*
X178269893Y-76752747D01*
X178265108Y-76794176D01*
X178248385Y-76828865D01*
X178239950Y-76838564D01*
X176161678Y-72878215D02*
X176134883Y-72856348D01*
X176127029Y-72822211D01*
X176126177Y-72782027D01*
X176127367Y-72749877D01*
X176129723Y-72710752D01*
X176133154Y-72663878D01*
X176134521Y-72646398D01*
X169111618Y-77469022D02*
X169266812Y-77469022D01*
X175261279Y-71153747D02*
X175301009Y-71169241D01*
X175336645Y-71185002D01*
X175368396Y-71201437D01*
X175396473Y-71218954D01*
X175432159Y-71248150D01*
X175460759Y-71282073D01*
X175482985Y-71322101D01*
X175494611Y-71352857D01*
X175503929Y-71387345D01*
X175511149Y-71425974D01*
X175516482Y-71469150D01*
X175520138Y-71517282D01*
X175522327Y-71570777D01*
X175523260Y-71630044D01*
X175523321Y-71661969D01*
X169592029Y-72698126D02*
X169578228Y-72727128D01*
X169563340Y-72755262D01*
X169543918Y-72788153D01*
X169524450Y-72817250D01*
X169502318Y-72845256D01*
X169477501Y-72867030D01*
X173023936Y-77031522D02*
X173080108Y-76965843D01*
X173196788Y-75790832D02*
X173162839Y-75789757D01*
X173124072Y-75787328D01*
X173091513Y-75783388D01*
X173057517Y-75775725D01*
X173023124Y-75761472D01*
X172991474Y-75740416D01*
X172969683Y-75721928D01*
X178885203Y-78095745D02*
X178884536Y-78133843D01*
X178882006Y-78170192D01*
X178877588Y-78204832D01*
X178871257Y-78237806D01*
X178862989Y-78269154D01*
X178846904Y-78313218D01*
X178826325Y-78353858D01*
X178801171Y-78391212D01*
X178771360Y-78425421D01*
X178736810Y-78456624D01*
X178711104Y-78475824D01*
X178683231Y-78493792D01*
X178653168Y-78510569D01*
X178637308Y-78518524D01*
X174820258Y-76808271D02*
X174679237Y-76851432D01*
X178023779Y-77195445D02*
X178053196Y-77208253D01*
X178085472Y-77223501D01*
X178124057Y-77242455D01*
X178156328Y-77258691D01*
X178190823Y-77276338D01*
X178226973Y-77295108D01*
X178264212Y-77314713D01*
X178301970Y-77334864D01*
X178339679Y-77355273D01*
X178352140Y-77362084D01*
X177762709Y-78026214D02*
X177936279Y-78132432D01*
X171656992Y-76572069D02*
X171679982Y-76594039D01*
X171705375Y-76616993D01*
X171732333Y-76640251D01*
X171760019Y-76663136D01*
X171787595Y-76684970D01*
X171814222Y-76705075D01*
X171844895Y-76726740D01*
X171861279Y-76737384D01*
D11*
X173990000Y-99060000D02*
X174625000Y-99695000D01*
D10*
X173753405Y-72894022D02*
X173714551Y-72894146D01*
X173675017Y-72894509D01*
X173635422Y-72895090D01*
X173596383Y-72895871D01*
X173558520Y-72896833D01*
X173522451Y-72897959D01*
X173488795Y-72899228D01*
X173448740Y-72901112D01*
X173415539Y-72903175D01*
X173396018Y-72904813D01*
X175860460Y-75243342D02*
X175900345Y-75267245D01*
X175935829Y-75281187D01*
X175977202Y-75293466D01*
X176023416Y-75304024D01*
X176073418Y-75312801D01*
X176126160Y-75319739D01*
X176180591Y-75324779D01*
X176235660Y-75327862D01*
X176290318Y-75328929D01*
X176343514Y-75327921D01*
X176394198Y-75324781D01*
X176441320Y-75319448D01*
X176483830Y-75311864D01*
X176520676Y-75301971D01*
X176550810Y-75289709D01*
X176563032Y-75282672D01*
X177986279Y-78591926D02*
X177942331Y-78586736D01*
X177901000Y-78579933D01*
X177862184Y-78571444D01*
X177825780Y-78561198D01*
X177791688Y-78549120D01*
X177759804Y-78535140D01*
X177730028Y-78519184D01*
X177702258Y-78501182D01*
X177676391Y-78481059D01*
X177652326Y-78458744D01*
X177629962Y-78434164D01*
X177609196Y-78407247D01*
X177589927Y-78377922D01*
X177572053Y-78346114D01*
X177555472Y-78311753D01*
X177540083Y-78274766D01*
X173591971Y-70931304D02*
X173644343Y-70913069D01*
X173692094Y-70897226D01*
X173735485Y-70883769D01*
X173774779Y-70872693D01*
X173810239Y-70863995D01*
X173842128Y-70857670D01*
X173883838Y-70852621D01*
X173918991Y-70852885D01*
X173957190Y-70861476D01*
X173987408Y-70879450D01*
X174011744Y-70906770D01*
X174022364Y-70923925D01*
X171372708Y-78537772D02*
X171342204Y-78514478D01*
X171313619Y-78486707D01*
X171286640Y-78453796D01*
X171260956Y-78415087D01*
X171244398Y-78385733D01*
X171228184Y-78353312D01*
X171212222Y-78317629D01*
X171196420Y-78278488D01*
X171180684Y-78235694D01*
X171164923Y-78189050D01*
X171149044Y-78138362D01*
X171132954Y-78083433D01*
X171116562Y-78024068D01*
X171108223Y-77992661D01*
X171099775Y-77960072D01*
X175910223Y-77137771D02*
X175916273Y-77173347D01*
X175920581Y-77204984D01*
X175924271Y-77240310D01*
X175926295Y-77274558D01*
X175926274Y-77287771D01*
X172167190Y-72269694D02*
X172134420Y-72274416D01*
X172103466Y-72284700D01*
X172075470Y-72298768D01*
X171911612Y-72507579D02*
X171948609Y-72481642D01*
X171983169Y-72456840D01*
X172015212Y-72433248D01*
X172044661Y-72410937D01*
X172071438Y-72389981D01*
X172106420Y-72361245D01*
X172134948Y-72335967D01*
X172162489Y-72308066D01*
X172180037Y-72279834D01*
X172167190Y-72269694D01*
X169836678Y-78578215D02*
X169809884Y-78556348D01*
X169802029Y-78522211D01*
X169801177Y-78482027D01*
X169802367Y-78449877D01*
X169804723Y-78410752D01*
X169808154Y-78363878D01*
X169809521Y-78346398D01*
X174062415Y-72832658D02*
X174037343Y-72855669D01*
X174006122Y-72874692D01*
X173972675Y-72884674D01*
X173937075Y-72889606D01*
X173903360Y-72891894D01*
X173862305Y-72893234D01*
X173830269Y-72893718D01*
X173794087Y-72893957D01*
X173753405Y-72894022D01*
X172244881Y-78022058D02*
X172236564Y-78058152D01*
X172211933Y-78101752D01*
X172188375Y-78136796D01*
X172160116Y-78175445D01*
X172128021Y-78216688D01*
X172092954Y-78259517D01*
X172055781Y-78302921D01*
X172017366Y-78345890D01*
X171978573Y-78387415D01*
X171940269Y-78426486D01*
X171903316Y-78462094D01*
X171868581Y-78493229D01*
X171836927Y-78518880D01*
X171809221Y-78538039D01*
X171797118Y-78544869D01*
X169348779Y-71106964D02*
X169261279Y-71075828D01*
X170741046Y-77973269D02*
X170746901Y-78010060D01*
X170752643Y-78046487D01*
X170758265Y-78082501D01*
X170763761Y-78118054D01*
X170769124Y-78153098D01*
X170774348Y-78187583D01*
X170779427Y-78221462D01*
X170784354Y-78254686D01*
X170789123Y-78287206D01*
X170793727Y-78318974D01*
X170802417Y-78380060D01*
X170810372Y-78437556D01*
X170817542Y-78491076D01*
X170823876Y-78540230D01*
X170829322Y-78584631D01*
X170833830Y-78623892D01*
X170837348Y-78657625D01*
X170840658Y-78697010D01*
X170840507Y-78729519D01*
X171117503Y-75925272D02*
X171094524Y-75894022D01*
X171074775Y-75862709D01*
X171052236Y-75824514D01*
X171027554Y-75780723D01*
X171001376Y-75732623D01*
X170974348Y-75681499D01*
X170947116Y-75628639D01*
X170920327Y-75575329D01*
X170894627Y-75522856D01*
X170870663Y-75472505D01*
X170849081Y-75425564D01*
X170830529Y-75383318D01*
X170815651Y-75347055D01*
X170801640Y-75306691D01*
X170798779Y-75291013D01*
X175791986Y-74199464D02*
X175821982Y-74176571D01*
X175854055Y-74153660D01*
X175887851Y-74130908D01*
X175923019Y-74108494D01*
X175959206Y-74086594D01*
X175996060Y-74065388D01*
X176033228Y-74045053D01*
X176070359Y-74025768D01*
X176107100Y-74007710D01*
X176143099Y-73991059D01*
X176178004Y-73975990D01*
X176211461Y-73962684D01*
X176243120Y-73951318D01*
X176286464Y-73938295D01*
X176323779Y-73930640D01*
X173184719Y-74571001D02*
X173184633Y-74631584D01*
X173184693Y-74690380D01*
X173184892Y-74747088D01*
X173185225Y-74801408D01*
X173185684Y-74853038D01*
X173186263Y-74901677D01*
X173186956Y-74947026D01*
X173187757Y-74988783D01*
X173188658Y-75026648D01*
X173189654Y-75060320D01*
X173191310Y-75102309D01*
X173193790Y-75140812D01*
X173197252Y-75157464D01*
X175125422Y-75494901D02*
X175152612Y-75518285D01*
X175168732Y-75551292D01*
X175173950Y-75590837D01*
X175170388Y-75625107D01*
X175160043Y-75660008D01*
X175143001Y-75693959D01*
X175119350Y-75725382D01*
X175112415Y-75732658D01*
X171453336Y-74328779D02*
X171455165Y-74269245D01*
X171457012Y-74215880D01*
X171458953Y-74168175D01*
X171461061Y-74125621D01*
X171463412Y-74087710D01*
X171466083Y-74053932D01*
X171470850Y-74009902D01*
X171476758Y-73972309D01*
X171484060Y-73939436D01*
X171496404Y-73899978D01*
X171512281Y-73861785D01*
X171526869Y-73831522D01*
X175214512Y-72894022D02*
X175178552Y-72890706D01*
X175144066Y-72881535D01*
X175114296Y-72867670D01*
X175092479Y-72850272D01*
X170681805Y-74882054D02*
X170665381Y-74782587D01*
X169776112Y-72356522D02*
X169757079Y-72388513D01*
X169737494Y-72422220D01*
X169717674Y-72457050D01*
X169697938Y-72492412D01*
X169678605Y-72527715D01*
X169659992Y-72562369D01*
X169642420Y-72595781D01*
X169626205Y-72627362D01*
X169611667Y-72656520D01*
X169595442Y-72690606D01*
X169592029Y-72698126D01*
X178099918Y-76822666D02*
X178068501Y-76806422D01*
X178030751Y-76791789D01*
X177997110Y-76785371D01*
X177959803Y-76789212D01*
X177926530Y-76806607D01*
X177901928Y-76830548D01*
X177878381Y-76863624D01*
X177861007Y-76894547D01*
X169298560Y-77016184D02*
X169298980Y-76976885D01*
X169300134Y-76937816D01*
X169301997Y-76899124D01*
X169304546Y-76860958D01*
X169307758Y-76823464D01*
X169311610Y-76786792D01*
X169316078Y-76751089D01*
X169321139Y-76716503D01*
X169326769Y-76683182D01*
X169332947Y-76651274D01*
X169343187Y-76606387D01*
X169354525Y-76565511D01*
X169366884Y-76529148D01*
X169380186Y-76497796D01*
X171471415Y-76947444D02*
X171450985Y-76988561D01*
X171434297Y-77039783D01*
X171421278Y-77100010D01*
X171416122Y-77133156D01*
X171411857Y-77168142D01*
X171408472Y-77204829D01*
X171405961Y-77243080D01*
X171404312Y-77282757D01*
X171403519Y-77323723D01*
X171403571Y-77365841D01*
X171404459Y-77408973D01*
X171406175Y-77452982D01*
X171408710Y-77497729D01*
X171412054Y-77543079D01*
X171416199Y-77588892D01*
X171421136Y-77635032D01*
X171426855Y-77681361D01*
X171433348Y-77727743D01*
X171440606Y-77774038D01*
X171448620Y-77820110D01*
X171457381Y-77865822D01*
X171466880Y-77911036D01*
X171477107Y-77955614D01*
X171488055Y-77999419D01*
X171499714Y-78042313D01*
X171512074Y-78084160D01*
X171525128Y-78124821D01*
X171538866Y-78164159D01*
X171553279Y-78202037D01*
X174003030Y-71051996D02*
X173977856Y-71075349D01*
X173950570Y-71096573D01*
X173920198Y-71117413D01*
X173888807Y-71136450D01*
X173858466Y-71152266D01*
X173853657Y-71154490D01*
X177692529Y-70958372D02*
X177729662Y-70989287D01*
X177751466Y-71017544D01*
X177770933Y-71052127D01*
X177788084Y-71093213D01*
X177802939Y-71140980D01*
X177815521Y-71195605D01*
X177825849Y-71257268D01*
X177830174Y-71290794D01*
X177833944Y-71326145D01*
X177837161Y-71363345D01*
X177839828Y-71402415D01*
X177841948Y-71443378D01*
X177843522Y-71486255D01*
X177844554Y-71531070D01*
X177845046Y-71577844D01*
X177845000Y-71626599D01*
X177844420Y-71677358D01*
X177843309Y-71730144D01*
X177841667Y-71784977D01*
X177839500Y-71841881D01*
X177836807Y-71900878D01*
X177833594Y-71961989D01*
X177829861Y-72025238D01*
X177825613Y-72090647D01*
X175544855Y-77331522D02*
X175544457Y-77295662D01*
X175543864Y-77260404D01*
X175543087Y-77225947D01*
X175542138Y-77192492D01*
X175541030Y-77160238D01*
X175539093Y-77114545D01*
X175536864Y-77072678D01*
X175534381Y-77035311D01*
X175531686Y-77003119D01*
X175527831Y-76969411D01*
X175521681Y-76941842D01*
X172224862Y-71739530D02*
X172197278Y-71721706D01*
X172176100Y-71696190D01*
X172162794Y-71666816D01*
X172162052Y-71663854D01*
X171436279Y-72747676D02*
X171439380Y-72427099D01*
X176423363Y-72475272D02*
X176407498Y-72534910D01*
X176391877Y-72589479D01*
X176376432Y-72639081D01*
X176361099Y-72683817D01*
X176345811Y-72723789D01*
X176330501Y-72759099D01*
X176315104Y-72789850D01*
X176291700Y-72827648D01*
X176267727Y-72855760D01*
X176234491Y-72878768D01*
X176199318Y-72885981D01*
X176161678Y-72878215D01*
X178123779Y-72907852D02*
X178071711Y-72924924D01*
X178024241Y-72940777D01*
X177981119Y-72955523D01*
X177942098Y-72969274D01*
X177906928Y-72982142D01*
X177875361Y-72994239D01*
X177834223Y-73011183D01*
X177799795Y-73027021D01*
X177771239Y-73042132D01*
X177740848Y-73061801D01*
X177712414Y-73086879D01*
X177703217Y-73097422D01*
X169477501Y-72867030D02*
X169445488Y-72877353D01*
X169409661Y-72883567D01*
X169374365Y-72887478D01*
X169335881Y-72890035D01*
X169303905Y-72890977D01*
X169271788Y-72890832D01*
X176563032Y-75282672D02*
X176589132Y-75262772D01*
X176615424Y-75237306D01*
X176641760Y-75206600D01*
X176667995Y-75170980D01*
X176693985Y-75130770D01*
X176719583Y-75086298D01*
X176744643Y-75037888D01*
X176769022Y-74985867D01*
X176792572Y-74930561D01*
X176815148Y-74872295D01*
X176826026Y-74842154D01*
X176836606Y-74811395D01*
X176846869Y-74780059D01*
X176856799Y-74748187D01*
X176866375Y-74715819D01*
X176875581Y-74682996D01*
X176884399Y-74649760D01*
X176892809Y-74616150D01*
X176900794Y-74582207D01*
X176908335Y-74547973D01*
X176915415Y-74513487D01*
X176922015Y-74478791D01*
X173757930Y-71576418D02*
X173757509Y-71608504D01*
X173756814Y-71641440D01*
X173755852Y-71675127D01*
X173754636Y-71709464D01*
X173753176Y-71744350D01*
X173751481Y-71779686D01*
X173749562Y-71815371D01*
X173747430Y-71851305D01*
X173745095Y-71887388D01*
X173742568Y-71923519D01*
X173739858Y-71959598D01*
X173736976Y-71995525D01*
X173733934Y-72031199D01*
X173730740Y-72066521D01*
X173727405Y-72101390D01*
X173723941Y-72135706D01*
X173720356Y-72169368D01*
X173716662Y-72202277D01*
X173712869Y-72234331D01*
X173705028Y-72295477D01*
X173696916Y-72352004D01*
X173688615Y-72403110D01*
X173680209Y-72447992D01*
X173671782Y-72485849D01*
X173659283Y-72527707D01*
X173723740Y-78523298D02*
X173683509Y-78505269D01*
X173641484Y-78484801D01*
X173597933Y-78462077D01*
X173553126Y-78437278D01*
X173507332Y-78410587D01*
X173460819Y-78382185D01*
X173413856Y-78352254D01*
X173366713Y-78320977D01*
X173319658Y-78288535D01*
X173272961Y-78255109D01*
X173226891Y-78220883D01*
X173181716Y-78186038D01*
X173137705Y-78150756D01*
X173095128Y-78115220D01*
X173054254Y-78079610D01*
X173015351Y-78044109D01*
X170028199Y-71659181D02*
X170016242Y-71698165D01*
X170004220Y-71738166D01*
X169992311Y-71778542D01*
X169980697Y-71818646D01*
X169969558Y-71857835D01*
X169959072Y-71895465D01*
X169949422Y-71930891D01*
X169940787Y-71963470D01*
X169931163Y-72001363D01*
X169924091Y-72031522D01*
X170720654Y-75253397D02*
X170685710Y-75259463D01*
X170652974Y-75263888D01*
X170621365Y-75267128D01*
X170587213Y-75269001D01*
X170584117Y-75269022D01*
X174886279Y-70801904D02*
X174941660Y-70798075D01*
X174990777Y-70794752D01*
X175034723Y-70791928D01*
X175074595Y-70789599D01*
X175111488Y-70787759D01*
X175146498Y-70786403D01*
X175180719Y-70785526D01*
X175215247Y-70785122D01*
X175251178Y-70785186D01*
X175289607Y-70785713D01*
X175331629Y-70786697D01*
X175378339Y-70788134D01*
X175430834Y-70790017D01*
X175490209Y-70792342D01*
X175522818Y-70793669D01*
X175557559Y-70795104D01*
X175594566Y-70796647D01*
X175633979Y-70798297D01*
X174555163Y-78158739D02*
X174589470Y-78155220D01*
X174622143Y-78143348D01*
X174655237Y-78128441D01*
X174665106Y-78123523D01*
X170716971Y-70931304D02*
X170769343Y-70913069D01*
X170817094Y-70897226D01*
X170860485Y-70883769D01*
X170899779Y-70872693D01*
X170935239Y-70863995D01*
X170967128Y-70857670D01*
X171008838Y-70852621D01*
X171043991Y-70852885D01*
X171082190Y-70861476D01*
X171112408Y-70879450D01*
X171136744Y-70906770D01*
X171147364Y-70923925D01*
X171261883Y-76576858D02*
X171284718Y-76553501D01*
X171311691Y-76527756D01*
X171341422Y-76503374D01*
X171368795Y-76486523D01*
X171401654Y-76474535D01*
X171438148Y-76469547D01*
X171458957Y-76469022D01*
X170265381Y-77582587D02*
X170233982Y-77669554D01*
D11*
X177292000Y-89154000D02*
X178308000Y-88392000D01*
D10*
X170882930Y-71576418D02*
X170882509Y-71608504D01*
X170881814Y-71641440D01*
X170880852Y-71675127D01*
X170879636Y-71709464D01*
X170878176Y-71744350D01*
X170876481Y-71779686D01*
X170874562Y-71815371D01*
X170872430Y-71851305D01*
X170870095Y-71887388D01*
X170867568Y-71923519D01*
X170864858Y-71959598D01*
X170861976Y-71995525D01*
X170858934Y-72031199D01*
X170855740Y-72066521D01*
X170852405Y-72101390D01*
X170848941Y-72135706D01*
X170845356Y-72169368D01*
X170841662Y-72202277D01*
X170837869Y-72234331D01*
X170830028Y-72295477D01*
X170821916Y-72352004D01*
X170813615Y-72403110D01*
X170805209Y-72447992D01*
X170796782Y-72485849D01*
X170784283Y-72527707D01*
X169623779Y-71273291D02*
X169610259Y-71242120D01*
X169584259Y-71217854D01*
X169553823Y-71197344D01*
X169525449Y-71181365D01*
X169492373Y-71164907D01*
X169454644Y-71148000D01*
X169412308Y-71130672D01*
X169381549Y-71118901D01*
X169348779Y-71106964D01*
X169575228Y-77956522D02*
X169569869Y-78010500D01*
X169564741Y-78061678D01*
X169559830Y-78110130D01*
X169555124Y-78155930D01*
X169550610Y-78199151D01*
X169546277Y-78239869D01*
X169542110Y-78278157D01*
X169538098Y-78314089D01*
X169534227Y-78347740D01*
X169526863Y-78408495D01*
X169519915Y-78461014D01*
X169513283Y-78505890D01*
X169506868Y-78543718D01*
X169500567Y-78575090D01*
X169491112Y-78611341D01*
X169477970Y-78642618D01*
X169455472Y-78662623D01*
X173074147Y-72716785D02*
X173087368Y-72685374D01*
X173117037Y-72660655D01*
X173151583Y-72643123D01*
X173183956Y-72631929D01*
X173219232Y-72623888D01*
X173256206Y-72619587D01*
X173274955Y-72619022D01*
X172160560Y-74188863D02*
X172157708Y-74139793D01*
X172155333Y-74095657D01*
X172153453Y-74056118D01*
X172152090Y-74020840D01*
X172151056Y-73975177D01*
X172151296Y-73937213D01*
X172153715Y-73896610D01*
X172158677Y-73864990D01*
X172168702Y-73834006D01*
X172183265Y-73807613D01*
X173421726Y-77269816D02*
X173182173Y-77517111D01*
X177940909Y-72509379D02*
X177981068Y-72496513D01*
X178019980Y-72484845D01*
X178057650Y-72474376D01*
X178094082Y-72465107D01*
X178129281Y-72457041D01*
X178163253Y-72450177D01*
X178196003Y-72444518D01*
X178227535Y-72440065D01*
X178286968Y-72434783D01*
X178341593Y-72434341D01*
X178391449Y-72438751D01*
X178436578Y-72448023D01*
X178477020Y-72462169D01*
X178512816Y-72481199D01*
X178544005Y-72505126D01*
X178570629Y-72533959D01*
X178592727Y-72567711D01*
X178610341Y-72606392D01*
X178623511Y-72650012D01*
X178632278Y-72698585D01*
X170336279Y-76419022D02*
X170368393Y-76424590D01*
X170401293Y-76437501D01*
X170430125Y-76453430D01*
X170456161Y-76472388D01*
X170459495Y-76475272D01*
X175873779Y-75766894D02*
X175835365Y-75758227D01*
X175796511Y-75746987D01*
X175757496Y-75733320D01*
X175718601Y-75717372D01*
X175680105Y-75699288D01*
X175642289Y-75679214D01*
X175605432Y-75657296D01*
X175569814Y-75633679D01*
X175535715Y-75608509D01*
X175503414Y-75581932D01*
X175483019Y-75563504D01*
X173186279Y-73975828D02*
X173184719Y-74571001D01*
X171187415Y-72832658D02*
X171162343Y-72855669D01*
X171131122Y-72874692D01*
X171097675Y-72884674D01*
X171062075Y-72889606D01*
X171028360Y-72891894D01*
X170987305Y-72893234D01*
X170955269Y-72893718D01*
X170919087Y-72893957D01*
X170878405Y-72894022D01*
X169044683Y-72821928D02*
X169017259Y-72792651D01*
X168994032Y-72756257D01*
X168980703Y-72726470D01*
X168968975Y-72691163D01*
X168958743Y-72649395D01*
X168949900Y-72600223D01*
X168942341Y-72542704D01*
X168939010Y-72510521D01*
X168935961Y-72475898D01*
X168933180Y-72438717D01*
X168930653Y-72398860D01*
X168928369Y-72356210D01*
X168926313Y-72310650D01*
X168924473Y-72262060D01*
X168922835Y-72210324D01*
X168921385Y-72155323D01*
X168920112Y-72096940D01*
X168919001Y-72035058D01*
X168918039Y-71969557D01*
X168917214Y-71900321D01*
X168916511Y-71827232D01*
X168915919Y-71750171D01*
X168915423Y-71669022D01*
X172814493Y-78138378D02*
X172805676Y-78190504D01*
X172797904Y-78238224D01*
X172791152Y-78281989D01*
X172785397Y-78322252D01*
X172780615Y-78359462D01*
X172776783Y-78394073D01*
X172773879Y-78426534D01*
X172771208Y-78472183D01*
X172770491Y-78515536D01*
X172771649Y-78558115D01*
X172774603Y-78601445D01*
X172779274Y-78647048D01*
X172783302Y-78679465D01*
X172785583Y-78696448D01*
X177124485Y-75213694D02*
X177103906Y-75263861D01*
X177081624Y-75312358D01*
X177057739Y-75359070D01*
X177032351Y-75403884D01*
X177005562Y-75446687D01*
X176977470Y-75487366D01*
X176948178Y-75525806D01*
X176917786Y-75561894D01*
X176886393Y-75595518D01*
X176854100Y-75626564D01*
X176821009Y-75654917D01*
X176787219Y-75680466D01*
X176752830Y-75703097D01*
X176717944Y-75722696D01*
X176682661Y-75739149D01*
X176647082Y-75752345D01*
X170348206Y-71243449D02*
X170326802Y-71219500D01*
X170312611Y-71190281D01*
X170317442Y-71157369D01*
X170324086Y-71143449D01*
X176606805Y-71982054D02*
X176590381Y-71882587D01*
X169455472Y-78662623D02*
X169424751Y-78651333D01*
X169399505Y-78626989D01*
X169382532Y-78604315D01*
X177825613Y-72090647D02*
X177822679Y-72134933D01*
X177819951Y-72178101D01*
X177817439Y-72219923D01*
X177815151Y-72260169D01*
X177813095Y-72298611D01*
X177811280Y-72335020D01*
X177809716Y-72369166D01*
X177807859Y-72415645D01*
X177806615Y-72455747D01*
X177806014Y-72488700D01*
X177806522Y-72525638D01*
X177808367Y-72536944D01*
X176647082Y-75752345D02*
X176600222Y-75764167D01*
X176561803Y-75770926D01*
X176518519Y-75776771D01*
X176471122Y-75781687D01*
X176420364Y-75785660D01*
X176366997Y-75788676D01*
X176311775Y-75790721D01*
X176255449Y-75791781D01*
X176198772Y-75791841D01*
X176142497Y-75790888D01*
X176087375Y-75788906D01*
X176034159Y-75785883D01*
X175983602Y-75781804D01*
X175936456Y-75776655D01*
X175893473Y-75770421D01*
X175873779Y-75766894D01*
X170199147Y-72716785D02*
X170212368Y-72685374D01*
X170242037Y-72660655D01*
X170276583Y-72643123D01*
X170308956Y-72631929D01*
X170344232Y-72623888D01*
X170381206Y-72619587D01*
X170399955Y-72619022D01*
X173853657Y-71154490D02*
X173761279Y-71196314D01*
X172856204Y-77895235D02*
X172814493Y-78138378D01*
X174226423Y-76744742D02*
X174259046Y-76715074D01*
X174286852Y-76689574D01*
X174310575Y-76667491D01*
X174337124Y-76642069D01*
X174364591Y-76614257D01*
X174388879Y-76587612D01*
X174413387Y-76558666D01*
X174435438Y-76531521D01*
X174885248Y-75469022D02*
X174924767Y-75469550D01*
X174963542Y-75471063D01*
X175000590Y-75473457D01*
X175034924Y-75476623D01*
X175072524Y-75481507D01*
X175107307Y-75488452D01*
X175125422Y-75494901D01*
X173407881Y-71410011D02*
X173402798Y-71376088D01*
X173396158Y-71343713D01*
X173382415Y-71311289D01*
X173354087Y-71295403D01*
X173332881Y-71294022D01*
X173964007Y-78512772D02*
X173968699Y-78546953D01*
X173962212Y-78580396D01*
X173928181Y-78592633D01*
X173893061Y-78586803D01*
X173858109Y-78576360D01*
X173815084Y-78560745D01*
X173781607Y-78547474D01*
X173744080Y-78531924D01*
X173723740Y-78523298D01*
X177382929Y-72817961D02*
X177396846Y-72786827D01*
X177407223Y-72751721D01*
X177414645Y-72718080D01*
X177421223Y-72679839D01*
X177425568Y-72648326D01*
X177429382Y-72614534D01*
X177432641Y-72578595D01*
X177435320Y-72540639D01*
X177436081Y-72527562D01*
X174436586Y-75231522D02*
X174443361Y-75180302D01*
X174449485Y-75125065D01*
X174454939Y-75066488D01*
X174459710Y-75005252D01*
X174463780Y-74942034D01*
X174465548Y-74909894D01*
X174467135Y-74877513D01*
X174468540Y-74844976D01*
X174469759Y-74812369D01*
X174470792Y-74779775D01*
X174471636Y-74747280D01*
X174472290Y-74714968D01*
X174472750Y-74682925D01*
X174473087Y-74619982D01*
X174472629Y-74559131D01*
X174471361Y-74501051D01*
X174469268Y-74446420D01*
X174466334Y-74395917D01*
X174462544Y-74350221D01*
X174457881Y-74310011D01*
X174803405Y-75794022D02*
X174764551Y-75794146D01*
X174725017Y-75794509D01*
X174685422Y-75795090D01*
X174646383Y-75795871D01*
X174608520Y-75796833D01*
X174572451Y-75797959D01*
X174538795Y-75799228D01*
X174498740Y-75801112D01*
X174465539Y-75803175D01*
X174446018Y-75804813D01*
X171439380Y-72427099D02*
X171439866Y-72392290D01*
X171440652Y-72357606D01*
X171441738Y-72323044D01*
X171443123Y-72288605D01*
X171444807Y-72254285D01*
X171446792Y-72220086D01*
X171449076Y-72186005D01*
X171451661Y-72152041D01*
X171454546Y-72118193D01*
X171457732Y-72084459D01*
X171461219Y-72050840D01*
X171465007Y-72017332D01*
X171469095Y-71983937D01*
X171473486Y-71950651D01*
X171478177Y-71917474D01*
X171483171Y-71884406D01*
X171488466Y-71851443D01*
X171494063Y-71818587D01*
X171499963Y-71785834D01*
X171506165Y-71753185D01*
X171512670Y-71720638D01*
X171519477Y-71688192D01*
X171526588Y-71655846D01*
X171534001Y-71623598D01*
X171541718Y-71591447D01*
X171549739Y-71559393D01*
X171558063Y-71527433D01*
X171566691Y-71495568D01*
X171575623Y-71463795D01*
X171584859Y-71432114D01*
X171594400Y-71400523D01*
X171604246Y-71369022D01*
X171240507Y-75929519D02*
X171222868Y-75955947D01*
X171189716Y-75967317D01*
X171158968Y-75958685D01*
X171131277Y-75939189D01*
X171117503Y-75925272D01*
X172785583Y-78696448D02*
X172790312Y-78737543D01*
X172792256Y-78772322D01*
X172790268Y-78809166D01*
X172779945Y-78840486D01*
X172749674Y-78858264D01*
X172715851Y-78853433D01*
X172680963Y-78839664D01*
X172671110Y-78834901D01*
X171147364Y-70923925D02*
X171163172Y-70954232D01*
X171171146Y-70987097D01*
X171158406Y-71016959D01*
X171137389Y-71041926D01*
X171128030Y-71051996D01*
X176623504Y-72112772D02*
X176620536Y-72078283D01*
X176616018Y-72042923D01*
X176610905Y-72007824D01*
X176606805Y-71982054D01*
X176274276Y-77152267D02*
X176356901Y-77082742D01*
X170798779Y-75291013D02*
X170794342Y-75259037D01*
X170761521Y-75247031D01*
X170726855Y-75252178D01*
X170720654Y-75253397D01*
X170633982Y-74869554D02*
X170622189Y-74903726D01*
X170610637Y-74942726D01*
X170603888Y-74974640D01*
X170602853Y-75010225D01*
X170622011Y-75038998D01*
X170648779Y-75044022D01*
X170398779Y-78091013D02*
X170394342Y-78059037D01*
X170361521Y-78047031D01*
X170326855Y-78052178D01*
X170320654Y-78053397D01*
X175112415Y-75732658D02*
X175087343Y-75755669D01*
X175056122Y-75774692D01*
X175022675Y-75784674D01*
X174987075Y-75789606D01*
X174953360Y-75791894D01*
X174912305Y-75793234D01*
X174880269Y-75793718D01*
X174844087Y-75793957D01*
X174803405Y-75794022D01*
X171128030Y-71051996D02*
X171102856Y-71075349D01*
X171075570Y-71096573D01*
X171045198Y-71117413D01*
X171013807Y-71136450D01*
X170983466Y-71152266D01*
X170978657Y-71154490D01*
X170320654Y-78053397D02*
X170285710Y-78059463D01*
X170252974Y-78063888D01*
X170221365Y-78067128D01*
X170187213Y-78069001D01*
X170184117Y-78069022D01*
X177540083Y-78274766D02*
X177526269Y-78235785D01*
X177515398Y-78198034D01*
X177507466Y-78161771D01*
X177502470Y-78127254D01*
X177500407Y-78094742D01*
X177502212Y-78054960D01*
X177509219Y-78019817D01*
X177521418Y-77989926D01*
X177543959Y-77960884D01*
X176935479Y-71406522D02*
X176941021Y-71451282D01*
X176945383Y-71483363D01*
X176950715Y-71521319D01*
X176956950Y-71564706D01*
X176964023Y-71613078D01*
X176971865Y-71665992D01*
X176980411Y-71723003D01*
X176989592Y-71783667D01*
X176994400Y-71815230D01*
X176999342Y-71847540D01*
X177004410Y-71880541D01*
X177009595Y-71914177D01*
X177014888Y-71948393D01*
X177020282Y-71983133D01*
X177025768Y-72018342D01*
X177031338Y-72053965D01*
X177036983Y-72089945D01*
X177042695Y-72126228D01*
X177048466Y-72162757D01*
X177054287Y-72199477D01*
X177060149Y-72236333D01*
X177066046Y-72273269D01*
X174298779Y-70968042D02*
X174303872Y-70932191D01*
X174321487Y-70902631D01*
X174355126Y-70878371D01*
X174392978Y-70863058D01*
X174425045Y-70853990D01*
X174463088Y-70845690D01*
X174507545Y-70838034D01*
X174558854Y-70830898D01*
X174617453Y-70824158D01*
X174649623Y-70820898D01*
X174683780Y-70817691D01*
X174719978Y-70814521D01*
X174758272Y-70811373D01*
X174798717Y-70808231D01*
X174841368Y-70805079D01*
X174886279Y-70801904D01*
X170474013Y-74056522D02*
X170485165Y-74010940D01*
X170495675Y-73969146D01*
X170505612Y-73930949D01*
X170515047Y-73896160D01*
X170524050Y-73864588D01*
X170536896Y-73822847D01*
X170549164Y-73787275D01*
X170561091Y-73757231D01*
X170576869Y-73724663D01*
X170597183Y-73693853D01*
X170614590Y-73675272D01*
X174435438Y-76531521D02*
X174456750Y-76506219D01*
X174480937Y-76483128D01*
X174512818Y-76472688D01*
X174541014Y-76484200D01*
X173273779Y-74006964D02*
X173186279Y-73975828D01*
X175527811Y-71128747D02*
X175478583Y-71128410D01*
X175434479Y-71128254D01*
X175395331Y-71128293D01*
X175360973Y-71128544D01*
X175318049Y-71129350D01*
X175284958Y-71130720D01*
X175250125Y-71134400D01*
X175261279Y-71153747D01*
X169282577Y-77337772D02*
X169286511Y-77299051D01*
X169289417Y-77262156D01*
X169292037Y-77221430D01*
X169293775Y-77189164D01*
X169295287Y-77156042D01*
X169296546Y-77122619D01*
X169297524Y-77089452D01*
X169298194Y-77057097D01*
X169298560Y-77016184D01*
X174075422Y-72594901D02*
X174102612Y-72618285D01*
X174118732Y-72651292D01*
X174123950Y-72690837D01*
X174120388Y-72725107D01*
X174110043Y-72760007D01*
X174093001Y-72793959D01*
X174069350Y-72825382D01*
X174062415Y-72832658D01*
X176784495Y-70775272D02*
X176807982Y-70803112D01*
X176824471Y-70832470D01*
X176840082Y-70869471D01*
X176854898Y-70914454D01*
X176864374Y-70949043D01*
X176873555Y-70987431D01*
X176882467Y-71029716D01*
X176891133Y-71076001D01*
X176899578Y-71126384D01*
X176907825Y-71180967D01*
X176915898Y-71239849D01*
X176923822Y-71303130D01*
X176927735Y-71336452D01*
X176931619Y-71370912D01*
X176935479Y-71406522D01*
X172158770Y-71854569D02*
X172185431Y-71832086D01*
X172213418Y-71807570D01*
X172237002Y-71784396D01*
X172249200Y-71754089D01*
X172224862Y-71739530D01*
X174709283Y-75427707D02*
X174720786Y-75459547D01*
X174752033Y-75465496D01*
X174784879Y-75467658D01*
X174816745Y-75468548D01*
X174855416Y-75468955D01*
X174885248Y-75469022D01*
D11*
X176530000Y-87376000D02*
X177546000Y-86360000D01*
D10*
X172162052Y-71663854D02*
X172154020Y-71628959D01*
X172146869Y-71597857D01*
X172138217Y-71560211D01*
X172130917Y-71528442D01*
X172123057Y-71494232D01*
X172114761Y-71458116D01*
X172106151Y-71420623D01*
X172097347Y-71382286D01*
X172091432Y-71356522D01*
X170532881Y-71410011D02*
X170527798Y-71376088D01*
X170521158Y-71343713D01*
X170507415Y-71311289D01*
X170479087Y-71295403D01*
X170457881Y-71294022D01*
X177461572Y-72181522D02*
X177464728Y-72146972D01*
X177467577Y-72110474D01*
X177470767Y-72066032D01*
X177473052Y-72032492D01*
X177475442Y-71996175D01*
X177477917Y-71957381D01*
X177480458Y-71916412D01*
X177483048Y-71873569D01*
X177485666Y-71829153D01*
X177488293Y-71783465D01*
X177490912Y-71736807D01*
X177493502Y-71689479D01*
X177496045Y-71641784D01*
X177498523Y-71594022D01*
X175423726Y-74719156D02*
X175437681Y-74686045D01*
X175453964Y-74651439D01*
X175472334Y-74615676D01*
X175492552Y-74579094D01*
X175514378Y-74542032D01*
X175537571Y-74504828D01*
X175561893Y-74467822D01*
X175587104Y-74431350D01*
X175612963Y-74395752D01*
X175639230Y-74361367D01*
X175665666Y-74328532D01*
X175692032Y-74297586D01*
X175718086Y-74268868D01*
X175743590Y-74242716D01*
X175768303Y-74219468D01*
X175791986Y-74199464D01*
X171988309Y-72295706D02*
X171967804Y-72271201D01*
X171956091Y-72239997D01*
X171952737Y-72203204D01*
X171957315Y-72161937D01*
X171969393Y-72117306D01*
X171981400Y-72086233D01*
X171996422Y-72054489D01*
X172014332Y-72022404D01*
X172035003Y-71990308D01*
X172058307Y-71958530D01*
X172084117Y-71927399D01*
X172112306Y-71897246D01*
X172142745Y-71868399D01*
X172158770Y-71854569D01*
X175961279Y-78275322D02*
X175961154Y-78318144D01*
X175960764Y-78357862D01*
X175960089Y-78394676D01*
X175959107Y-78428786D01*
X175957009Y-78475323D01*
X175954098Y-78516905D01*
X175950300Y-78554210D01*
X175945543Y-78587915D01*
X175937582Y-78628425D01*
X175927612Y-78665342D01*
X175915461Y-78700272D01*
X176658576Y-76948256D02*
X176673503Y-76978587D01*
X176686007Y-77012867D01*
X176692965Y-77047221D01*
X176694753Y-77084174D01*
X176692565Y-77118777D01*
X176688563Y-77150004D01*
X170236678Y-75778215D02*
X170209884Y-75756348D01*
X170202029Y-75722211D01*
X170201177Y-75682027D01*
X170202367Y-75649877D01*
X170204723Y-75610752D01*
X170208154Y-75563878D01*
X170209521Y-75546398D01*
X174852324Y-76597610D02*
X174908881Y-76584126D01*
X174962478Y-76571999D01*
X175013019Y-76561236D01*
X175060409Y-76551847D01*
X175104554Y-76543842D01*
X175145358Y-76537229D01*
X175182726Y-76532018D01*
X175216564Y-76528217D01*
X175260494Y-76525181D01*
X175295946Y-76525371D01*
X175329474Y-76530696D01*
X175348779Y-76549699D01*
X177543959Y-77960884D02*
X177573136Y-77940987D01*
X177608301Y-77941952D01*
X177640664Y-77955343D01*
X177675599Y-77974121D01*
X177708432Y-77993314D01*
X177747918Y-78017177D01*
X177762709Y-78026214D01*
X172934843Y-71849527D02*
X172932086Y-71894319D01*
X172924275Y-71937265D01*
X172910380Y-71979724D01*
X172889371Y-72023055D01*
X172870903Y-72053099D01*
X172848509Y-72084539D01*
X172821885Y-72117776D01*
X172790724Y-72153215D01*
X172754721Y-72191257D01*
X172713572Y-72232307D01*
X172666969Y-72276766D01*
X172641528Y-72300401D01*
X172614609Y-72325039D01*
X172586175Y-72350731D01*
X172556186Y-72377527D01*
X172524606Y-72405478D01*
X172491395Y-72434634D01*
X176324368Y-77581951D02*
X176737132Y-78031737D01*
X173349572Y-72600272D02*
X173353500Y-72567411D01*
X173358372Y-72531090D01*
X173363398Y-72494603D01*
X173369261Y-72452705D01*
X173374116Y-72418394D01*
X173379293Y-72382124D01*
X173384728Y-72344361D01*
X173386586Y-72331522D01*
X178632278Y-72698585D02*
X178647361Y-72815648D01*
X172091432Y-71356522D02*
X172034034Y-71106522D01*
X175009268Y-71653490D02*
X175031461Y-71125458D01*
X169271788Y-72890832D02*
X169237839Y-72889757D01*
X169199072Y-72887328D01*
X169166513Y-72883388D01*
X169132517Y-72875725D01*
X169098124Y-72861472D01*
X169066474Y-72840416D01*
X169044683Y-72821928D01*
X171200422Y-72594901D02*
X171227612Y-72618285D01*
X171243732Y-72651292D01*
X171248950Y-72690837D01*
X171245388Y-72725107D01*
X171235043Y-72760007D01*
X171218001Y-72793959D01*
X171194350Y-72825382D01*
X171187415Y-72832658D01*
X173835248Y-72569022D02*
X173874767Y-72569550D01*
X173913542Y-72571063D01*
X173950590Y-72573457D01*
X173984924Y-72576623D01*
X174022524Y-72581507D01*
X174057307Y-72588452D01*
X174075422Y-72594901D01*
X173548779Y-74173291D02*
X173535259Y-74142120D01*
X173509259Y-74117854D01*
X173478823Y-74097344D01*
X173450449Y-74081365D01*
X173417373Y-74064907D01*
X173379644Y-74048000D01*
X173337308Y-74030672D01*
X173306549Y-74018901D01*
X173273779Y-74006964D01*
X169259719Y-71671001D02*
X169259633Y-71731584D01*
X169259693Y-71790380D01*
X169259892Y-71847088D01*
X169260225Y-71901408D01*
X169260684Y-71953038D01*
X169261263Y-72001677D01*
X169261956Y-72047026D01*
X169262757Y-72088783D01*
X169263658Y-72126648D01*
X169264654Y-72160320D01*
X169266310Y-72202309D01*
X169268790Y-72240812D01*
X169272252Y-72257464D01*
X172526568Y-77223369D02*
X172534368Y-77173745D01*
X172542208Y-77126150D01*
X172550102Y-77080553D01*
X172558062Y-77036924D01*
X172566104Y-76995233D01*
X172574239Y-76955452D01*
X172582483Y-76917550D01*
X172590849Y-76881498D01*
X172599350Y-76847265D01*
X172608001Y-76814823D01*
X172616814Y-76784142D01*
X172634985Y-76727943D01*
X172653973Y-76678431D01*
X172673887Y-76635368D01*
X172694838Y-76598517D01*
X172716934Y-76567642D01*
X172740286Y-76542503D01*
X172777908Y-76515035D01*
X172818973Y-76499141D01*
X172863851Y-76494022D01*
X172345059Y-71555234D02*
X172343524Y-71589896D01*
X172343414Y-71622426D01*
X172344510Y-71656447D01*
X172344884Y-71662407D01*
X173332881Y-71294022D02*
X173298642Y-71287894D01*
X173268866Y-71275570D01*
X173240870Y-71258444D01*
X173223206Y-71243449D01*
X176723779Y-72391013D02*
X176719342Y-72359037D01*
X176686521Y-72347031D01*
X176651855Y-72352178D01*
X176645654Y-72353397D01*
X174903657Y-74054490D02*
X174811279Y-74096314D01*
X171971470Y-78119786D02*
X172011757Y-78101649D01*
X172050379Y-78084880D01*
X172086863Y-78069649D01*
X172120735Y-78056125D01*
X172151523Y-78044476D01*
X172186956Y-78032154D01*
X172220645Y-78022474D01*
X172244881Y-78022058D01*
X170324086Y-71143449D02*
X170345551Y-71111181D01*
X170368843Y-71087577D01*
X170399849Y-71064708D01*
X170429429Y-71047357D01*
X170465414Y-71029305D01*
X170508690Y-71010073D01*
X170542028Y-70996360D01*
X170579263Y-70981768D01*
X170620657Y-70966156D01*
X170666472Y-70949381D01*
X170716971Y-70931304D01*
X177436081Y-72527562D02*
X177438083Y-72492569D01*
X177440293Y-72456374D01*
X177442667Y-72419577D01*
X177445160Y-72382775D01*
X177447728Y-72346567D01*
X177450327Y-72311552D01*
X177452913Y-72278330D01*
X177456265Y-72237856D01*
X177459410Y-72203051D01*
X177461572Y-72181522D01*
X170960248Y-72569022D02*
X170999767Y-72569550D01*
X171038542Y-72571063D01*
X171075590Y-72573457D01*
X171109924Y-72576623D01*
X171147524Y-72581507D01*
X171182307Y-72588452D01*
X171200422Y-72594901D01*
X171099775Y-77960072D02*
X171086995Y-77907769D01*
X171075443Y-77855408D01*
X171065110Y-77803054D01*
X171055988Y-77750770D01*
X171048071Y-77698620D01*
X171041350Y-77646670D01*
X171035818Y-77594984D01*
X171031468Y-77543626D01*
X171028292Y-77492660D01*
X171026282Y-77442151D01*
X171025431Y-77392163D01*
X171025731Y-77342761D01*
X171027175Y-77294009D01*
X171029755Y-77245971D01*
X171033463Y-77198712D01*
X171038293Y-77152296D01*
X171044237Y-77106788D01*
X171051286Y-77062251D01*
X171059434Y-77018751D01*
X171068673Y-76976352D01*
X171078995Y-76935118D01*
X171090393Y-76895113D01*
X171102859Y-76856403D01*
X171116386Y-76819050D01*
X171130966Y-76783121D01*
X171146592Y-76748678D01*
X171163256Y-76715787D01*
X171180950Y-76684512D01*
X171199668Y-76654917D01*
X171219401Y-76627067D01*
X171240141Y-76601025D01*
X171261883Y-76576858D01*
X173274955Y-72619022D02*
X173306965Y-72617165D01*
X173338434Y-72609975D01*
X173349572Y-72600272D01*
X175940311Y-71079049D02*
X175910905Y-71098367D01*
X175878551Y-71112198D01*
X175845948Y-71119866D01*
X175803579Y-71124971D01*
X175763285Y-71127371D01*
X175731547Y-71128390D01*
X175695397Y-71129006D01*
X175654398Y-71129271D01*
X175608111Y-71129239D01*
X175556100Y-71128961D01*
X175527811Y-71128747D01*
X175756902Y-76712454D02*
X175791980Y-76720959D01*
X175824713Y-76725489D01*
X175865774Y-76730023D01*
X175901222Y-76733344D01*
X175940025Y-76736535D01*
X175981613Y-76739537D01*
X176025415Y-76742294D01*
X176070862Y-76744748D01*
X176086279Y-76745489D01*
X175031461Y-71125458D02*
X174733870Y-71113580D01*
X178368949Y-78040259D02*
X178368755Y-78007146D01*
X178360470Y-77973670D01*
X178343982Y-77939732D01*
X178319180Y-77905234D01*
X178285955Y-77870077D01*
X178259070Y-77846225D01*
X178228359Y-77822007D01*
X178193790Y-77797395D01*
X178155329Y-77772359D01*
X178112943Y-77746871D01*
X178066601Y-77720901D01*
X178016269Y-77694421D01*
X177961914Y-77667400D01*
X177933218Y-77653679D01*
X176442702Y-77481737D02*
X176324368Y-77581951D01*
X172344884Y-71662407D02*
X172348772Y-71718292D01*
X172040703Y-70719022D02*
X172076035Y-70720317D01*
X172115255Y-70727909D01*
X172147283Y-70745494D01*
X172174111Y-70776665D01*
X172192017Y-70811120D01*
X172208958Y-70856751D01*
X172220130Y-70894130D01*
X172231495Y-70937600D01*
X172243303Y-70987608D01*
X172255801Y-71044604D01*
X172262387Y-71075863D01*
X172269238Y-71109037D01*
X172276388Y-71144183D01*
X173071000Y-73630985D02*
X173133410Y-73640493D01*
X173195488Y-73650963D01*
X173256866Y-73662292D01*
X173317175Y-73674378D01*
X173376048Y-73687117D01*
X173433117Y-73700408D01*
X173488015Y-73714148D01*
X173540375Y-73728233D01*
X173589827Y-73742562D01*
X173636005Y-73757032D01*
X173678541Y-73771540D01*
X173717067Y-73785983D01*
X173751215Y-73800260D01*
X173780619Y-73814266D01*
X173815023Y-73834546D01*
X173823720Y-73841061D01*
X173396018Y-72904813D02*
X173360122Y-72907237D01*
X173322033Y-72907893D01*
X173284300Y-72906868D01*
X173249471Y-72904250D01*
X173215906Y-72899301D01*
X173211953Y-72898435D01*
X174446018Y-75804813D02*
X174410122Y-75807237D01*
X174372033Y-75807893D01*
X174334300Y-75806868D01*
X174299471Y-75804250D01*
X174265906Y-75799301D01*
X174261953Y-75798435D01*
X170665381Y-74782587D02*
X170633982Y-74869554D01*
X178566818Y-72802764D02*
X178534667Y-72801677D01*
X178499800Y-72805301D01*
X178468089Y-72810693D01*
X178431451Y-72818415D01*
X178389741Y-72828502D01*
X178342815Y-72840988D01*
X178308561Y-72850662D01*
X178271881Y-72861428D01*
X178232732Y-72873295D01*
X178191072Y-72886275D01*
X178146857Y-72900377D01*
X178123779Y-72907852D01*
X170459495Y-76475272D02*
X170482982Y-76503112D01*
X170499470Y-76532470D01*
X170515082Y-76569471D01*
X170529898Y-76614454D01*
X170539373Y-76649043D01*
X170548555Y-76687431D01*
X170557467Y-76729716D01*
X170566133Y-76776001D01*
X170574578Y-76826384D01*
X170582825Y-76880967D01*
X170590898Y-76939849D01*
X170598822Y-77003130D01*
X170602735Y-77036452D01*
X170606619Y-77070912D01*
X170610479Y-77106522D01*
X170498363Y-75375272D02*
X170482498Y-75434910D01*
X170466877Y-75489479D01*
X170451432Y-75539081D01*
X170436099Y-75583817D01*
X170420811Y-75623789D01*
X170405501Y-75659099D01*
X170390104Y-75689850D01*
X170366700Y-75727648D01*
X170342727Y-75755760D01*
X170309491Y-75778768D01*
X170274318Y-75785981D01*
X170236678Y-75778215D01*
X177703217Y-73097422D02*
X177675637Y-73126157D01*
X177645765Y-73147478D01*
X177613997Y-73161351D01*
X177580729Y-73167747D01*
X177546356Y-73166635D01*
X177511277Y-73157983D01*
X177475886Y-73141761D01*
X177440580Y-73117938D01*
X176737132Y-78031737D02*
X176775672Y-78073795D01*
X176812223Y-78113821D01*
X176846840Y-78151889D01*
X176879581Y-78188077D01*
X176910500Y-78222462D01*
X176939654Y-78255119D01*
X176967099Y-78286126D01*
X176992891Y-78315559D01*
X177017086Y-78343494D01*
X177039739Y-78370009D01*
X177060907Y-78395179D01*
X177099010Y-78441792D01*
X177131845Y-78483947D01*
X177159858Y-78522256D01*
X177183498Y-78557331D01*
X177203211Y-78589785D01*
X177219447Y-78620231D01*
X177232653Y-78649280D01*
X177247761Y-78691577D01*
X177258570Y-78734177D01*
X177261480Y-78748802D01*
X171521005Y-72823602D02*
X171436279Y-72747676D01*
X176573779Y-72144022D02*
X176605473Y-72136862D01*
X176623504Y-72112772D01*
X178352140Y-77362084D02*
X178387026Y-77381570D01*
X178420594Y-77401083D01*
X178452858Y-77420641D01*
X178483832Y-77440265D01*
X178513530Y-77459973D01*
X178541967Y-77479786D01*
X178569157Y-77499723D01*
X178595114Y-77519804D01*
X178619853Y-77540048D01*
X178665730Y-77581104D01*
X178706904Y-77623047D01*
X178743487Y-77666036D01*
X178775594Y-77710225D01*
X178803339Y-77755772D01*
X178826835Y-77802834D01*
X178846196Y-77851567D01*
X178861536Y-77902127D01*
X178872968Y-77954672D01*
X178880607Y-78009358D01*
X178884567Y-78066342D01*
X178885203Y-78095745D01*
X172491395Y-72434634D02*
X172455107Y-72466253D01*
X172420165Y-72496443D01*
X172386520Y-72525232D01*
X172354120Y-72552653D01*
X172322915Y-72578735D01*
X172292857Y-72603509D01*
X172263893Y-72627006D01*
X172235975Y-72649257D01*
X172209052Y-72670292D01*
X172183074Y-72690142D01*
X172133753Y-72726410D01*
X172087611Y-72758306D01*
X172044247Y-72786075D01*
X172003261Y-72809964D01*
X171964250Y-72830218D01*
X171926816Y-72847082D01*
X171890555Y-72860801D01*
X171855069Y-72871622D01*
X171819955Y-72879789D01*
X171784814Y-72885549D01*
X171749244Y-72889147D01*
X176645654Y-72353397D02*
X176610710Y-72359463D01*
X176577974Y-72363888D01*
X176546365Y-72367128D01*
X176512213Y-72369001D01*
X176509117Y-72369022D01*
X172863851Y-76494022D02*
X172903851Y-76496802D01*
X172938578Y-76505343D01*
X172968171Y-76519940D01*
X172992773Y-76540891D01*
X173012523Y-76568492D01*
X173027562Y-76603042D01*
X173038031Y-76644837D01*
X173042541Y-76676872D01*
X173045124Y-76712347D01*
X173045822Y-76751350D01*
X173044677Y-76793969D01*
X173041730Y-76840292D01*
X173039595Y-76864871D01*
X171141046Y-75173269D02*
X171146901Y-75210060D01*
X171152643Y-75246487D01*
X171158265Y-75282501D01*
X171163761Y-75318054D01*
X171169124Y-75353098D01*
X171174348Y-75387583D01*
X171179427Y-75421462D01*
X171184354Y-75454686D01*
X171189123Y-75487206D01*
X171193727Y-75518974D01*
X171202417Y-75580060D01*
X171210372Y-75637556D01*
X171217542Y-75691076D01*
X171223876Y-75740230D01*
X171229322Y-75784631D01*
X171233830Y-75823892D01*
X171237348Y-75857625D01*
X171240658Y-75897010D01*
X171240507Y-75929519D01*
X174193725Y-78279407D02*
X174194447Y-78247349D01*
X174195698Y-78212827D01*
X174197429Y-78176486D01*
X174199592Y-78138972D01*
X174202138Y-78100930D01*
X174205020Y-78063004D01*
X174208190Y-78025840D01*
X174211599Y-77990084D01*
X174215200Y-77956380D01*
X174220216Y-77915750D01*
X174221497Y-77906521D01*
X175633979Y-70798297D02*
X175683537Y-70800453D01*
X175728030Y-70802584D01*
X175767764Y-70804742D01*
X175803047Y-70806981D01*
X175848300Y-70810603D01*
X175885269Y-70814699D01*
X175923471Y-70821205D01*
X175956861Y-70831604D01*
X175985413Y-70851861D01*
X175991288Y-70859145D01*
X174756012Y-77505749D02*
X174724468Y-77510621D01*
X174690886Y-77517602D01*
X174658875Y-77527407D01*
X174629636Y-77543163D01*
X174614078Y-77564982D01*
X178637308Y-78518524D02*
X178596506Y-78535514D01*
X178565208Y-78545879D01*
X178530999Y-78555432D01*
X178494194Y-78564139D01*
X178455109Y-78571964D01*
X178414059Y-78578871D01*
X178371358Y-78584825D01*
X178327322Y-78589790D01*
X178282265Y-78593731D01*
X178236503Y-78596612D01*
X178190350Y-78598397D01*
X178144122Y-78599052D01*
X178098134Y-78598540D01*
X178052700Y-78596827D01*
X178008136Y-78593876D01*
X177986279Y-78591926D01*
X168958851Y-76950272D02*
X168956424Y-77469022D01*
X169486029Y-76431522D02*
X169518911Y-76433236D01*
X169548417Y-76446080D01*
X169566572Y-76474568D01*
X169578306Y-76508774D01*
X169588462Y-76546371D01*
X169594143Y-76569022D01*
X174807930Y-74476418D02*
X174807509Y-74508504D01*
X174806814Y-74541440D01*
X174805852Y-74575127D01*
X174804636Y-74609464D01*
X174803176Y-74644350D01*
X174801481Y-74679686D01*
X174799562Y-74715371D01*
X174797430Y-74751305D01*
X174795095Y-74787388D01*
X174792568Y-74823519D01*
X174789858Y-74859598D01*
X174786976Y-74895525D01*
X174783934Y-74931199D01*
X174780740Y-74966521D01*
X174777405Y-75001390D01*
X174773941Y-75035706D01*
X174770356Y-75069368D01*
X174766662Y-75102277D01*
X174762869Y-75134331D01*
X174755028Y-75195477D01*
X174746916Y-75252004D01*
X174738615Y-75303110D01*
X174730209Y-75347992D01*
X174721782Y-75385849D01*
X174709283Y-75427707D01*
X168914978Y-77875272D02*
X168911806Y-77907104D01*
X168908839Y-77947370D01*
X168906787Y-77982119D01*
X168904915Y-78020000D01*
X168903249Y-78060323D01*
X168901818Y-78102397D01*
X168900650Y-78145531D01*
X168899772Y-78189036D01*
X168899211Y-78232219D01*
X168898996Y-78274392D01*
X177543008Y-71058434D02*
X177554676Y-71025722D01*
X177573361Y-70992094D01*
X177595738Y-70967114D01*
X177626157Y-70949425D01*
X177658955Y-70946153D01*
X177692529Y-70958372D01*
X176877068Y-74254820D02*
X176838114Y-74262149D01*
X176795618Y-74268792D01*
X176761568Y-74273850D01*
X176724202Y-74279239D01*
X176684600Y-74284812D01*
X176643841Y-74290424D01*
X176603005Y-74295926D01*
X176563172Y-74301171D01*
X176525421Y-74306013D01*
X176490832Y-74310304D01*
X176447238Y-74315386D01*
X176410255Y-74318864D01*
X176405685Y-74319022D01*
X175483019Y-75563504D02*
X175456751Y-75534446D01*
X175433309Y-75499612D01*
X175412730Y-75459560D01*
X175395054Y-75414851D01*
X175380321Y-75366046D01*
X175368570Y-75313706D01*
X175359841Y-75258391D01*
X175354171Y-75200661D01*
X175351602Y-75141076D01*
X175352172Y-75080199D01*
X175355921Y-75018588D01*
X175362889Y-74956805D01*
X175373113Y-74895409D01*
X175386635Y-74834962D01*
X175403492Y-74776024D01*
X175423726Y-74719156D01*
X171883905Y-77149353D02*
X171855141Y-77130942D01*
X171827743Y-77113478D01*
X171776904Y-77081328D01*
X171731116Y-77052767D01*
X171690106Y-77027663D01*
X171653602Y-77005882D01*
X171621330Y-76987291D01*
X171593018Y-76971756D01*
X171557379Y-76953892D01*
X171521174Y-76939523D01*
X171486682Y-76936054D01*
X171471415Y-76947444D01*
X171982692Y-75493407D02*
X171934950Y-75472663D01*
X171889143Y-75449011D01*
X171845311Y-75422503D01*
X171803492Y-75393190D01*
X171763728Y-75361123D01*
X171726059Y-75326353D01*
X171690524Y-75288932D01*
X171657163Y-75248910D01*
X171626017Y-75206339D01*
X171597125Y-75161271D01*
X171570528Y-75113756D01*
X171546266Y-75063846D01*
X171524378Y-75011592D01*
X171504905Y-74957045D01*
X171487887Y-74900257D01*
X171473364Y-74841279D01*
X175892237Y-77044021D02*
X175910223Y-77137771D01*
X173386586Y-72331522D02*
X173393361Y-72280302D01*
X173399485Y-72225065D01*
X173404939Y-72166488D01*
X173409710Y-72105252D01*
X173413780Y-72042034D01*
X173415548Y-72009894D01*
X173417135Y-71977513D01*
X173418540Y-71944976D01*
X173419759Y-71912369D01*
X173420792Y-71879775D01*
X173421636Y-71847280D01*
X173422290Y-71814968D01*
X173422750Y-71782925D01*
X173423087Y-71719982D01*
X173422629Y-71659131D01*
X173421361Y-71601051D01*
X173419268Y-71546420D01*
X173416334Y-71495917D01*
X173412544Y-71450221D01*
X173407881Y-71410011D01*
X173402501Y-75767030D02*
X173370488Y-75777353D01*
X173334661Y-75783567D01*
X173299365Y-75787478D01*
X173260881Y-75790035D01*
X173228905Y-75790977D01*
X173196788Y-75790832D01*
X172183265Y-73807613D02*
X172203657Y-73782993D01*
X172234867Y-73760553D01*
X172270936Y-73747541D01*
X172310259Y-73744136D01*
X172342982Y-73748450D01*
X172375938Y-73759120D01*
X172408307Y-73776237D01*
X172416212Y-73781535D01*
X177861007Y-76894547D02*
X177845330Y-76930339D01*
X177836087Y-76964622D01*
X177833264Y-76997374D01*
X177839471Y-77038628D01*
X177857048Y-77077076D01*
X177877676Y-77104042D01*
X177904674Y-77129382D01*
X177938032Y-77153076D01*
X177977737Y-77175104D01*
X178007728Y-77188853D01*
X178023779Y-77195445D01*
X169809521Y-78346398D02*
X169812738Y-78307310D01*
X169816222Y-78268071D01*
X169819979Y-78228647D01*
X169824015Y-78189005D01*
X169828335Y-78149113D01*
X169832946Y-78108936D01*
X169837854Y-78068442D01*
X169843064Y-78027599D01*
X169848581Y-77986372D01*
X169854413Y-77944730D01*
X169860565Y-77902638D01*
X169867042Y-77860065D01*
X169873851Y-77816976D01*
X169880998Y-77773340D01*
X169888487Y-77729122D01*
X169896326Y-77684290D01*
X169904520Y-77638811D01*
X169913074Y-77592652D01*
X169921996Y-77545780D01*
X169931290Y-77498162D01*
X169940962Y-77449764D01*
X169951019Y-77400554D01*
X169961466Y-77350499D01*
X169972308Y-77299566D01*
X169983553Y-77247722D01*
X169995206Y-77194933D01*
X170007272Y-77141167D01*
X170019758Y-77086390D01*
X170032669Y-77030571D01*
X170046011Y-76973675D01*
X170059790Y-76915669D01*
X170074013Y-76856522D01*
X170878405Y-72894022D02*
X170839551Y-72894146D01*
X170800017Y-72894509D01*
X170760422Y-72895090D01*
X170721383Y-72895871D01*
X170683520Y-72896833D01*
X170647451Y-72897959D01*
X170613795Y-72899228D01*
X170573740Y-72901112D01*
X170540539Y-72903175D01*
X170521018Y-72904813D01*
X168956424Y-77469022D02*
X169111618Y-77469022D01*
X170281805Y-77682054D02*
X170265381Y-77582587D01*
X174811279Y-74096314D02*
X174807930Y-74476418D01*
X175072364Y-73823924D02*
X175088172Y-73854231D01*
X175096146Y-73887097D01*
X175083406Y-73916958D01*
X175062389Y-73941926D01*
X175053030Y-73951996D01*
X170886279Y-71196314D02*
X170882930Y-71576418D01*
X173953199Y-74559181D02*
X173941242Y-74598165D01*
X173929220Y-74638166D01*
X173917311Y-74678542D01*
X173905697Y-74718646D01*
X173894558Y-74757835D01*
X173884072Y-74795465D01*
X173874422Y-74830891D01*
X173865787Y-74863470D01*
X173856163Y-74901363D01*
X173849091Y-74931522D01*
X169898720Y-70941061D02*
X169935652Y-70972824D01*
X169968550Y-71005286D01*
X169997454Y-71038672D01*
X170022404Y-71073208D01*
X170043441Y-71109117D01*
X170060606Y-71146626D01*
X170073939Y-71185959D01*
X170083480Y-71227341D01*
X170089271Y-71270997D01*
X170091352Y-71317154D01*
X170089764Y-71366034D01*
X170084546Y-71417864D01*
X170075740Y-71472869D01*
X170063387Y-71531273D01*
X170047526Y-71593302D01*
X170038293Y-71625746D01*
X170028199Y-71659181D01*
X176296590Y-77065874D02*
X176259598Y-77059127D01*
X176226274Y-77055300D01*
X176187332Y-77051960D01*
X176153386Y-77049742D01*
X176117988Y-77048014D01*
X176082094Y-77046855D01*
X176064258Y-77046514D01*
X172223779Y-77119418D02*
X172220365Y-77158527D01*
X172210303Y-77190192D01*
X172186998Y-77220794D01*
X172152968Y-77238066D01*
X172120784Y-77242239D01*
X172083184Y-77238859D01*
X172040431Y-77227904D01*
X172009198Y-77216381D01*
X171975870Y-77201473D01*
X171940527Y-77183174D01*
X171903247Y-77161477D01*
X171883905Y-77149353D01*
X173199086Y-71143449D02*
X173220551Y-71111181D01*
X173243843Y-71087577D01*
X173274849Y-71064708D01*
X173304429Y-71047357D01*
X173340414Y-71029305D01*
X173383690Y-71010073D01*
X173417028Y-70996360D01*
X173454263Y-70981768D01*
X173495657Y-70966156D01*
X173541472Y-70949381D01*
X173591971Y-70931304D01*
X174594955Y-76559200D02*
X174604011Y-76593425D01*
X174623080Y-76619648D01*
X174657304Y-76630600D01*
X174691788Y-76629902D01*
X174725161Y-76625386D01*
X174765884Y-76617583D01*
X174797523Y-76610616D01*
X174833037Y-76602280D01*
X174852324Y-76597610D01*
X170698504Y-75012772D02*
X170695536Y-74978283D01*
X170691018Y-74942923D01*
X170685905Y-74907825D01*
X170681805Y-74882054D01*
X172851325Y-71676791D02*
X172882388Y-71699077D01*
X172908387Y-71723012D01*
X172926092Y-71753102D01*
X172933083Y-71786210D01*
X172934901Y-71822607D01*
X172934843Y-71849527D01*
X175165093Y-77205588D02*
X175209443Y-77216666D01*
X175241865Y-77230680D01*
X175269356Y-77256309D01*
X175269475Y-77296934D01*
X175244604Y-77330450D01*
X175217185Y-77353477D01*
X175181746Y-77376572D01*
X175138846Y-77399326D01*
X175089042Y-77421329D01*
X175032893Y-77442172D01*
X175002613Y-77452031D01*
X174970957Y-77461445D01*
X174937994Y-77470365D01*
X174903793Y-77478739D01*
X174868424Y-77486515D01*
X174831958Y-77493643D01*
X174794464Y-77500071D01*
X174756012Y-77505749D01*
X177311223Y-74034935D02*
X177324908Y-74071727D01*
X177334812Y-74115969D01*
X177341020Y-74167119D01*
X177343617Y-74224633D01*
X177342690Y-74287969D01*
X177340932Y-74321651D01*
X177338325Y-74356585D01*
X177334880Y-74392702D01*
X177330608Y-74429936D01*
X177325519Y-74468219D01*
X177319624Y-74507482D01*
X177312934Y-74547658D01*
X177305460Y-74588679D01*
X177297212Y-74630476D01*
X177288202Y-74672983D01*
X177278439Y-74716132D01*
X177267935Y-74759854D01*
X177256700Y-74804081D01*
X177244746Y-74848747D01*
X177232082Y-74893782D01*
X177218720Y-74939120D01*
X177204671Y-74984692D01*
X177189944Y-75030431D01*
X177174551Y-75076268D01*
X177158504Y-75122136D01*
X177141811Y-75167967D01*
X177124485Y-75213694D01*
X177066046Y-72273269D02*
X177071901Y-72310060D01*
X177077643Y-72346487D01*
X177083265Y-72382501D01*
X177088761Y-72418054D01*
X177094124Y-72453098D01*
X177099348Y-72487583D01*
X177104427Y-72521462D01*
X177109354Y-72554686D01*
X177114123Y-72587206D01*
X177118727Y-72618974D01*
X177127417Y-72680060D01*
X177135372Y-72737556D01*
X177142542Y-72791076D01*
X177148876Y-72840230D01*
X177154322Y-72884631D01*
X177158830Y-72923892D01*
X177162348Y-72957625D01*
X177165658Y-72997010D01*
X177165507Y-73029519D01*
X178647361Y-72815648D02*
X178566818Y-72802764D01*
X169594143Y-76569022D02*
X169602964Y-76611454D01*
X169610426Y-76661695D01*
X169616534Y-76719337D01*
X169621293Y-76783971D01*
X169623169Y-76818783D01*
X169624709Y-76855190D01*
X169625915Y-76893141D01*
X169626787Y-76932585D01*
X169627327Y-76973472D01*
X169627534Y-77015749D01*
X169627409Y-77059367D01*
X169626954Y-77104274D01*
X169626168Y-77150420D01*
X169625052Y-77197753D01*
X169623608Y-77246222D01*
X169621836Y-77295776D01*
X169619736Y-77346364D01*
X169617310Y-77397936D01*
X169614557Y-77450441D01*
X169611480Y-77503826D01*
X169608077Y-77558042D01*
X169604351Y-77613038D01*
X169600301Y-77668761D01*
X169595929Y-77725163D01*
X169591234Y-77782190D01*
X169586219Y-77839793D01*
X169580883Y-77897921D01*
X169575228Y-77956522D01*
X174399572Y-75500272D02*
X174403500Y-75467411D01*
X174408372Y-75431090D01*
X174413398Y-75394603D01*
X174419261Y-75352705D01*
X174424116Y-75318394D01*
X174429293Y-75282124D01*
X174434728Y-75244361D01*
X174436586Y-75231522D01*
X168915423Y-71669022D02*
X168911279Y-70906522D01*
X172969683Y-75721928D02*
X172942259Y-75692651D01*
X172919032Y-75656257D01*
X172905703Y-75626470D01*
X172893975Y-75591163D01*
X172883743Y-75549395D01*
X172874900Y-75500223D01*
X172867341Y-75442704D01*
X172864010Y-75410521D01*
X172860961Y-75375898D01*
X172858180Y-75338717D01*
X172855653Y-75298860D01*
X172853369Y-75256210D01*
X172851313Y-75210650D01*
X172849473Y-75162060D01*
X172847835Y-75110324D01*
X172846385Y-75055323D01*
X172845112Y-74996940D01*
X172844001Y-74935058D01*
X172843039Y-74869557D01*
X172842214Y-74800321D01*
X172841511Y-74727232D01*
X172840919Y-74650171D01*
X172840423Y-74569022D01*
X174382881Y-74194022D02*
X174348642Y-74187894D01*
X174318866Y-74175570D01*
X174290870Y-74158444D01*
X174273206Y-74143449D01*
X175967623Y-74636799D02*
X175945129Y-74680581D01*
X175924325Y-74725942D01*
X175905299Y-74772377D01*
X175888140Y-74819379D01*
X175872938Y-74866441D01*
X175859783Y-74913058D01*
X175848763Y-74958723D01*
X175839969Y-75002930D01*
X175833489Y-75045172D01*
X175829414Y-75084944D01*
X175827832Y-75121739D01*
X175828834Y-75155051D01*
X175835375Y-75197381D01*
X175848231Y-75229025D01*
X175860460Y-75243342D01*
X171010479Y-74306522D02*
X171016021Y-74351282D01*
X171020383Y-74383363D01*
X171025715Y-74421319D01*
X171031950Y-74464706D01*
X171039023Y-74513078D01*
X171046865Y-74565992D01*
X171055411Y-74623003D01*
X171064592Y-74683667D01*
X171069400Y-74715230D01*
X171074342Y-74747540D01*
X171079410Y-74780541D01*
X171084595Y-74814177D01*
X171089888Y-74848393D01*
X171095282Y-74883133D01*
X171100768Y-74918342D01*
X171106338Y-74953965D01*
X171111983Y-74989945D01*
X171117695Y-75026228D01*
X171123466Y-75062757D01*
X171129287Y-75099477D01*
X171135149Y-75136333D01*
X171141046Y-75173269D01*
X176398779Y-74269022D02*
X176393880Y-74237264D01*
X176377394Y-74219022D01*
X174661092Y-76978977D02*
X174653652Y-77031316D01*
X174647212Y-77077044D01*
X174641780Y-77116584D01*
X174637363Y-77150355D01*
X174632663Y-77191120D01*
X174630033Y-77229223D01*
X174635619Y-77260682D01*
X174666726Y-77259225D01*
X174324955Y-75519022D02*
X174356965Y-75517165D01*
X174388434Y-75509975D01*
X174399572Y-75500272D01*
X177135070Y-78983638D02*
X177103788Y-78996435D01*
X177073031Y-79007677D01*
X177040425Y-79015007D01*
X177004894Y-79011070D01*
X176972408Y-78998514D01*
X172348772Y-71718292D02*
X172474698Y-71668657D01*
X172527911Y-78641447D02*
X172508931Y-78603342D01*
X172492864Y-78568800D01*
X172479409Y-78536533D01*
X172468264Y-78505258D01*
X172459127Y-78473688D01*
X172451697Y-78440538D01*
X172445672Y-78404522D01*
X172440752Y-78364356D01*
X172436633Y-78318754D01*
X172434185Y-78284698D01*
X172431869Y-78247274D01*
X172430734Y-78227180D01*
X174214852Y-77068708D02*
X174190953Y-77037040D01*
X174172242Y-77005127D01*
X174158712Y-76973148D01*
X174150356Y-76941279D01*
X174147254Y-76899266D01*
X174153324Y-76858185D01*
X174163887Y-76828239D01*
X174179596Y-76799231D01*
X174200443Y-76771340D01*
X174226423Y-76744742D01*
X173015351Y-78044109D02*
X172856204Y-77895235D01*
X169366574Y-72090138D02*
X169382193Y-72056812D01*
X169399805Y-72014986D01*
X169418996Y-71965976D01*
X169439352Y-71911095D01*
X169460460Y-71851659D01*
X169471165Y-71820643D01*
X169481903Y-71788982D01*
X169492622Y-71756840D01*
X169503270Y-71724380D01*
X169513795Y-71691768D01*
X169524146Y-71659168D01*
X169534270Y-71626744D01*
X169544116Y-71594661D01*
X169553632Y-71563082D01*
X169562766Y-71532173D01*
X169579684Y-71473019D01*
X169594454Y-71418515D01*
X169606662Y-71369975D01*
X169615895Y-71328714D01*
X169621739Y-71296048D01*
X169623779Y-71273291D01*
X176323779Y-73930640D02*
X176358160Y-73925171D01*
X176392323Y-73919022D01*
X176431014Y-73911581D01*
X176462229Y-73905310D01*
X176494725Y-73898570D01*
X176527960Y-73891472D01*
X176561392Y-73884127D01*
X176594479Y-73876646D01*
X176626678Y-73869138D01*
X176637120Y-73866650D01*
X176064258Y-77046514D02*
X175892237Y-77044021D01*
X176086279Y-76745489D02*
X176119352Y-76747155D01*
X176151162Y-76749022D01*
X176211102Y-76753399D01*
X176266326Y-76758698D01*
X176317062Y-76765001D01*
X176363536Y-76772388D01*
X176405977Y-76780941D01*
X176444612Y-76790738D01*
X176479668Y-76801862D01*
X176511372Y-76814392D01*
X176539953Y-76828409D01*
X176577465Y-76852399D01*
X176609227Y-76880189D01*
X176636008Y-76912051D01*
X176658576Y-76948256D01*
X169382534Y-78604315D02*
X169366228Y-78574027D01*
X169350716Y-78534644D01*
X169340900Y-78503835D01*
X169331561Y-78469732D01*
X169322751Y-78432635D01*
X169314519Y-78392842D01*
X169306917Y-78350652D01*
X169299993Y-78306365D01*
X169293800Y-78260280D01*
X169288385Y-78212697D01*
X169283801Y-78163914D01*
X169280098Y-78114231D01*
X169277324Y-78063946D01*
X169275532Y-78013360D01*
X169274771Y-77962772D01*
X173286836Y-77649316D02*
X173312238Y-77679835D01*
X173335797Y-77706481D01*
X173362605Y-77735718D01*
X173392110Y-77766984D01*
X173423760Y-77799711D01*
X173457003Y-77833337D01*
X173479777Y-77855975D01*
X173502849Y-77878593D01*
X173526057Y-77901024D01*
X173549236Y-77923102D01*
X173583594Y-77955190D01*
X173605987Y-77975652D01*
X172069560Y-75072939D02*
X172159027Y-75151492D01*
X171780068Y-73666660D02*
X171814071Y-73684342D01*
X171841725Y-73709485D01*
X171863193Y-73742704D01*
X171875334Y-73773286D01*
X171884158Y-73809014D01*
X171889735Y-73850147D01*
X171892135Y-73896945D01*
X171892004Y-73931418D01*
X171890512Y-73968600D01*
X171887680Y-74008569D01*
X171883529Y-74051400D01*
X175523321Y-71661969D02*
X175522972Y-71698314D01*
X175522072Y-71735855D01*
X175520641Y-71774471D01*
X175518698Y-71814041D01*
X175516263Y-71854446D01*
X175513355Y-71895563D01*
X175509994Y-71937273D01*
X175506199Y-71979455D01*
X175501990Y-72021989D01*
X175497386Y-72064753D01*
X175492407Y-72107629D01*
X175487072Y-72150494D01*
X175481401Y-72193228D01*
X175475414Y-72235711D01*
X175469130Y-72277822D01*
X175462568Y-72319441D01*
X175455748Y-72360447D01*
X175448690Y-72400720D01*
X175441412Y-72440139D01*
X175433936Y-72478583D01*
X175426279Y-72515932D01*
X175418462Y-72552065D01*
X175410504Y-72586862D01*
X175402425Y-72620202D01*
X175394244Y-72651964D01*
X175377654Y-72710276D01*
X175360892Y-72760831D01*
X175344113Y-72802665D01*
X175335767Y-72820011D01*
X169274771Y-77962772D02*
X169273779Y-77744022D01*
X175298779Y-78094466D02*
X175285514Y-78125583D01*
X175260483Y-78151124D01*
X175232223Y-78173442D01*
X175195179Y-78198896D01*
X175165314Y-78217796D01*
X175131111Y-78238373D01*
X175092395Y-78260740D01*
X175048993Y-78285011D01*
X175000731Y-78311299D01*
X174947436Y-78339718D01*
X174918847Y-78354761D01*
X174888934Y-78370380D01*
X174857675Y-78386588D01*
X174825050Y-78403400D01*
X174457881Y-74310011D02*
X174452798Y-74276088D01*
X174446158Y-74243712D01*
X174432415Y-74211289D01*
X174404087Y-74195403D01*
X174382881Y-74194022D01*
X170784283Y-72527707D02*
X170795786Y-72559547D01*
X170827033Y-72565496D01*
X170859879Y-72567658D01*
X170891745Y-72568548D01*
X170930416Y-72568955D01*
X170960248Y-72569022D01*
X175964084Y-77969072D02*
X175962750Y-78006192D01*
X175962302Y-78039249D01*
X175961921Y-78080828D01*
X175961686Y-78116849D01*
X175961500Y-78156425D01*
X175961367Y-78199029D01*
X175961293Y-78244129D01*
X175961279Y-78275322D01*
X171797118Y-78544869D02*
X171758284Y-78562187D01*
X171717458Y-78575755D01*
X171675262Y-78585583D01*
X171632316Y-78591680D01*
X171589242Y-78594058D01*
X171546660Y-78592726D01*
X171505192Y-78587695D01*
X171465459Y-78578976D01*
X171428081Y-78566579D01*
X171393681Y-78550514D01*
X171372708Y-78537772D01*
X170978657Y-71154490D02*
X170886279Y-71196314D01*
X176134521Y-72646398D02*
X176137738Y-72607310D01*
X176141222Y-72568071D01*
X176144979Y-72528647D01*
X176149015Y-72489005D01*
X176153335Y-72449113D01*
X176157946Y-72408936D01*
X176162854Y-72368442D01*
X176168064Y-72327599D01*
X176173581Y-72286372D01*
X176179413Y-72244730D01*
X176185565Y-72202638D01*
X176192042Y-72160065D01*
X176198851Y-72116976D01*
X176205997Y-72073340D01*
X176213487Y-72029122D01*
X176221326Y-71984290D01*
X176229519Y-71938811D01*
X176238074Y-71892652D01*
X176246995Y-71845780D01*
X176256289Y-71798162D01*
X176265961Y-71749764D01*
X176276018Y-71700554D01*
X176286465Y-71650499D01*
X176297308Y-71599566D01*
X176308553Y-71547722D01*
X176320205Y-71494933D01*
X176332272Y-71441167D01*
X176344757Y-71386390D01*
X176357668Y-71330571D01*
X176371011Y-71273675D01*
X176384790Y-71215669D01*
X176399013Y-71156522D01*
X173039595Y-76864871D02*
X173023936Y-77031522D01*
X176637120Y-73866650D02*
X176698078Y-73853499D01*
X176757198Y-73843672D01*
X176814336Y-73837133D01*
X176869347Y-73833845D01*
X176922089Y-73833773D01*
X176972416Y-73836881D01*
X177020185Y-73843132D01*
X177065252Y-73852492D01*
X177107473Y-73864923D01*
X177146703Y-73880390D01*
X177182799Y-73898857D01*
X177215616Y-73920289D01*
X177245011Y-73944648D01*
X177270840Y-73971899D01*
X177292959Y-74002007D01*
X177311223Y-74034935D01*
X174665106Y-78123523D02*
X174703350Y-78105278D01*
X174745439Y-78087387D01*
X174775101Y-78075813D01*
X174805671Y-78064628D01*
X174836828Y-78053927D01*
X174868253Y-78043803D01*
X174899626Y-78034349D01*
X174930624Y-78025659D01*
X174975722Y-78014257D01*
X175018177Y-78005098D01*
X175056910Y-77998494D01*
X175090838Y-77994760D01*
X175110254Y-77994022D01*
X174541014Y-76484200D02*
X174565700Y-76505400D01*
X174585344Y-76533338D01*
X174594955Y-76559200D01*
X177498523Y-71594022D02*
X177501039Y-71546529D01*
X177503697Y-71499623D01*
X177506474Y-71453580D01*
X177509346Y-71408674D01*
X177512292Y-71365180D01*
X177515289Y-71323371D01*
X177518313Y-71283524D01*
X177521342Y-71245911D01*
X177524353Y-71210809D01*
X177527323Y-71178490D01*
X177531651Y-71135835D01*
X177535759Y-71100989D01*
X177540762Y-71068278D01*
X177543008Y-71058434D01*
X172178227Y-75079699D02*
X172184533Y-75042058D01*
X172187686Y-75000980D01*
X172189034Y-74967309D01*
X172189776Y-74928507D01*
X172189910Y-74884485D01*
X172189436Y-74835152D01*
X172188350Y-74780421D01*
X172186652Y-74720202D01*
X172185573Y-74688007D01*
X172184340Y-74654406D01*
X172182953Y-74619389D01*
X172181411Y-74582944D01*
X172179715Y-74545061D01*
X172177864Y-74505727D01*
X172175859Y-74464933D01*
X172173698Y-74422667D01*
X172171382Y-74378917D01*
X172168910Y-74333673D01*
X172166283Y-74286923D01*
X172163499Y-74238657D01*
X172160560Y-74188863D01*
X173761279Y-71196314D02*
X173757930Y-71576418D01*
X173211953Y-72898435D02*
X173178506Y-72885851D01*
X173147674Y-72865046D01*
X173120683Y-72837635D01*
X173098758Y-72805235D01*
X173083126Y-72769461D01*
X173075012Y-72731928D01*
X173074147Y-72716785D01*
X175092479Y-72850272D02*
X175066519Y-72814566D01*
X175051540Y-72785423D01*
X175038374Y-72751294D01*
X175026976Y-72711562D01*
X175017305Y-72665616D01*
X175009318Y-72612840D01*
X175002972Y-72552622D01*
X175000402Y-72519529D01*
X174998225Y-72484346D01*
X174996438Y-72446995D01*
X174995034Y-72407399D01*
X174994009Y-72365482D01*
X174993356Y-72321167D01*
X174993071Y-72274378D01*
X174993149Y-72225037D01*
X174993583Y-72173068D01*
X174994369Y-72118393D01*
X174995501Y-72060938D01*
X174996974Y-72000623D01*
X174998783Y-71937374D01*
X175000922Y-71871113D01*
X175003386Y-71801762D01*
X175006170Y-71729247D01*
X175009268Y-71653490D01*
X170859495Y-73675272D02*
X170882982Y-73703112D01*
X170899471Y-73732470D01*
X170915082Y-73769471D01*
X170929898Y-73814454D01*
X170939374Y-73849043D01*
X170948555Y-73887431D01*
X170957467Y-73929716D01*
X170966133Y-73976001D01*
X170974578Y-74026384D01*
X170982825Y-74080967D01*
X170990898Y-74139849D01*
X170998822Y-74203130D01*
X171002735Y-74236452D01*
X171006619Y-74270912D01*
X171010479Y-74306522D01*
X170233982Y-77669554D02*
X170222189Y-77703726D01*
X170210637Y-77742726D01*
X170203888Y-77774640D01*
X170202853Y-77810225D01*
X170222011Y-77838998D01*
X170248779Y-77844022D01*
X169273779Y-77744022D02*
X169102261Y-77744022D01*
X168961279Y-76431522D02*
X168958851Y-76950272D01*
X173517029Y-75598126D02*
X173503228Y-75627128D01*
X173488340Y-75655262D01*
X173468918Y-75688153D01*
X173449450Y-75717250D01*
X173427318Y-75745256D01*
X173402501Y-75767030D01*
X176590381Y-71882587D02*
X176558982Y-71969554D01*
X174273206Y-74143449D02*
X174251802Y-74119500D01*
X174237611Y-74090281D01*
X174242442Y-74057369D01*
X174249086Y-74043449D01*
X173701112Y-75256522D02*
X173682079Y-75288513D01*
X173662494Y-75322220D01*
X173642674Y-75357050D01*
X173622938Y-75392412D01*
X173603605Y-75427715D01*
X173584992Y-75462369D01*
X173567420Y-75495781D01*
X173551205Y-75527362D01*
X173536667Y-75556520D01*
X173520442Y-75590606D01*
X173517029Y-75598126D01*
X177808367Y-72536944D02*
X177843673Y-72535571D01*
X177876846Y-72528174D01*
X177910533Y-72518894D01*
X177940909Y-72509379D01*
X171861279Y-76737384D02*
X171893189Y-76758209D01*
X171925357Y-76781013D01*
X171957463Y-76805459D01*
X171989188Y-76831211D01*
X172020211Y-76857930D01*
X172050214Y-76885281D01*
X172078876Y-76912927D01*
X172105878Y-76940531D01*
X172130901Y-76967756D01*
X172153624Y-76994264D01*
X172173728Y-77019720D01*
X172198275Y-77055193D01*
X172215131Y-77086402D01*
X172223779Y-77119418D01*
X176405685Y-74319022D02*
X176399199Y-74286167D01*
X176398779Y-74269022D01*
X168698340Y-76802661D02*
X168708606Y-76747595D01*
X168718672Y-76697611D01*
X168728636Y-76652515D01*
X168738599Y-76612116D01*
X168748658Y-76576221D01*
X168758914Y-76544639D01*
X168774882Y-76504932D01*
X168791851Y-76473847D01*
X168816609Y-76444696D01*
X168844534Y-76428185D01*
X168876418Y-76422780D01*
X168894094Y-76423762D01*
X173223206Y-71243449D02*
X173201802Y-71219500D01*
X173187611Y-71190281D01*
X173192442Y-71157369D01*
X173199086Y-71143449D01*
X168930743Y-77744022D02*
X168914978Y-77875272D01*
X177461976Y-77222219D02*
X177449084Y-77179110D01*
X177439054Y-77134246D01*
X177431874Y-77088194D01*
X177427534Y-77041524D01*
X177426024Y-76994802D01*
X177427333Y-76948599D01*
X177431452Y-76903481D01*
X177438369Y-76860017D01*
X177448075Y-76818775D01*
X177460559Y-76780324D01*
X177470420Y-76756522D01*
X176399013Y-71156522D02*
X176410165Y-71110940D01*
X176420675Y-71069146D01*
X176430612Y-71030949D01*
X176440047Y-70996160D01*
X176449050Y-70964588D01*
X176461896Y-70922847D01*
X176474164Y-70887275D01*
X176486091Y-70857231D01*
X176501869Y-70824663D01*
X176522183Y-70793853D01*
X176539590Y-70775272D01*
X170336953Y-72898435D02*
X170303506Y-72885851D01*
X170272674Y-72865046D01*
X170245683Y-72837635D01*
X170223758Y-72805235D01*
X170208126Y-72769461D01*
X170200012Y-72731928D01*
X170199147Y-72716785D01*
X168911279Y-70906522D02*
X168971000Y-70810454D01*
X176972408Y-78998514D02*
X176947439Y-78978270D01*
X176919178Y-78951969D01*
X176895362Y-78929096D01*
X176867879Y-78902265D01*
X176836995Y-78871744D01*
X176802979Y-78837802D01*
X176766099Y-78800706D01*
X176726621Y-78760724D01*
X176684814Y-78718126D01*
X176640946Y-78673179D01*
X176618323Y-78649909D01*
X176595284Y-78626152D01*
X176571864Y-78601942D01*
X176548096Y-78577313D01*
X176524014Y-78552298D01*
X176499650Y-78526930D01*
X176475039Y-78501243D01*
X176450214Y-78475272D01*
X168894094Y-76423762D02*
X168961279Y-76431522D01*
X170521018Y-72904813D02*
X170485121Y-72907237D01*
X170447033Y-72907893D01*
X170409300Y-72906868D01*
X170374471Y-72904250D01*
X170340906Y-72899301D01*
X170336953Y-72898435D01*
X170648779Y-75044022D02*
X170680473Y-75036862D01*
X170698504Y-75012772D01*
X170248779Y-77844022D02*
X170280473Y-77836862D01*
X170298504Y-77812772D01*
X172671110Y-78834901D02*
X172645287Y-78814808D01*
X172623363Y-78790684D01*
X172599668Y-78759942D01*
X172580106Y-78731486D01*
X172560557Y-78700343D01*
X172541531Y-78667201D01*
X172527911Y-78641447D01*
X173197252Y-75157464D02*
X173216202Y-75129909D01*
X173234029Y-75098914D01*
X173251704Y-75066639D01*
X173267146Y-75037564D01*
X173283326Y-75006341D01*
X173291572Y-74990138D01*
X176688563Y-77150004D02*
X176682884Y-77182265D01*
X176672693Y-77220898D01*
X176658014Y-77256539D01*
X176637217Y-77291387D01*
X176616624Y-77318324D01*
X176590985Y-77346979D01*
X176559614Y-77378280D01*
X176535175Y-77401075D01*
X176507680Y-77425733D01*
X176476923Y-77452528D01*
X176442702Y-77481737D01*
X168847834Y-78569527D02*
X168813990Y-78582712D01*
X168780940Y-78585902D01*
X168749119Y-78579286D01*
X168718965Y-78563054D01*
X168690912Y-78537396D01*
X168670276Y-78510210D01*
X168656000Y-78486000D01*
X172034034Y-71106522D02*
X171956692Y-71319022D01*
X174614078Y-77564982D02*
X174606998Y-77598208D01*
X174601720Y-77630369D01*
X174596148Y-77668998D01*
X174590413Y-77712773D01*
X174584646Y-77760372D01*
X174578979Y-77810475D01*
X174573543Y-77861761D01*
X174568468Y-77912908D01*
X174563885Y-77962596D01*
X174559927Y-78009502D01*
X174556723Y-78052306D01*
X174554405Y-78089687D01*
X174552877Y-78132700D01*
X174555163Y-78158739D01*
X174679237Y-76851432D02*
X174661092Y-76978977D01*
X176539590Y-70775272D02*
X176569432Y-70751797D01*
X176599752Y-70735029D01*
X176630423Y-70724969D01*
X176669055Y-70721825D01*
X176707780Y-70729160D01*
X176738656Y-70742575D01*
X176769300Y-70762696D01*
X176784495Y-70775272D01*
X174221497Y-77906521D02*
X174226852Y-77865404D01*
X174231090Y-77828708D01*
X174235435Y-77787887D01*
X174239816Y-77743752D01*
X174244158Y-77697109D01*
X174246996Y-77665020D01*
X174249763Y-77632416D01*
X174252437Y-77599535D01*
X174254997Y-77566618D01*
X174257422Y-77533904D01*
X174259689Y-77501633D01*
X174262747Y-77454579D01*
X174263665Y-77439376D01*
X173659283Y-72527707D02*
X173670786Y-72559547D01*
X173702033Y-72565496D01*
X173734879Y-72567658D01*
X173766745Y-72568548D01*
X173805416Y-72568955D01*
X173835248Y-72569022D01*
X174641971Y-73831304D02*
X174694343Y-73813069D01*
X174742094Y-73797226D01*
X174785485Y-73783769D01*
X174824779Y-73772693D01*
X174860239Y-73763995D01*
X174892128Y-73757670D01*
X174933838Y-73752620D01*
X174968991Y-73752885D01*
X175007190Y-73761475D01*
X175037408Y-73779449D01*
X175061744Y-73806770D01*
X175072364Y-73823924D01*
X177165507Y-73029519D02*
X177147868Y-73055947D01*
X177114716Y-73067317D01*
X177083968Y-73058685D01*
X177056277Y-73039189D01*
X177042503Y-73025272D01*
X176071046Y-77282907D02*
X176103708Y-77265481D01*
X176131393Y-77249588D01*
X176159557Y-77232541D01*
X176187368Y-77214875D01*
X176213991Y-77197127D01*
X176244330Y-77175641D01*
X176269883Y-77155910D01*
X176274276Y-77152267D01*
X171553279Y-78202037D02*
X171570005Y-78236112D01*
X171598942Y-78256991D01*
X171639905Y-78255854D01*
X171675448Y-78246372D01*
X171721344Y-78229872D01*
X171758553Y-78214804D01*
X171801655Y-78196363D01*
X171851164Y-78174447D01*
X171907596Y-78148955D01*
X171938571Y-78134836D01*
X171971470Y-78119786D01*
X170298504Y-77812772D02*
X170295536Y-77778283D01*
X170291018Y-77742923D01*
X170285905Y-77707824D01*
X170281805Y-77682054D01*
X170511586Y-72331522D02*
X170518361Y-72280302D01*
X170524485Y-72225065D01*
X170529939Y-72166488D01*
X170534710Y-72105252D01*
X170538780Y-72042034D01*
X170540548Y-72009894D01*
X170542135Y-71977513D01*
X170543540Y-71944976D01*
X170544759Y-71912369D01*
X170545792Y-71879775D01*
X170546636Y-71847280D01*
X170547290Y-71814968D01*
X170547750Y-71782925D01*
X170548087Y-71719982D01*
X170547629Y-71659131D01*
X170546361Y-71601051D01*
X170544268Y-71546420D01*
X170541334Y-71495917D01*
X170537544Y-71450221D01*
X170532881Y-71410011D01*
X177936279Y-78132432D02*
X178148779Y-78119477D01*
X177440580Y-73117938D02*
X177411133Y-73089439D01*
X177387514Y-73055629D01*
X177369986Y-73017877D01*
X177358812Y-72977554D01*
X177354256Y-72936030D01*
X177356581Y-72894676D01*
X177366051Y-72854863D01*
X177382929Y-72817961D01*
X175926274Y-77287771D02*
X175926139Y-77319582D01*
X175954875Y-77337171D01*
X175986033Y-77324910D01*
X176022494Y-77307373D01*
X176057682Y-77289675D01*
X176071046Y-77282906D01*
X170098363Y-78175272D02*
X170082498Y-78234910D01*
X170066877Y-78289479D01*
X170051432Y-78339081D01*
X170036099Y-78383817D01*
X170020811Y-78423789D01*
X170005501Y-78459099D01*
X169990104Y-78489850D01*
X169966700Y-78527648D01*
X169942727Y-78555760D01*
X169909491Y-78578768D01*
X169874318Y-78585981D01*
X169836678Y-78578215D01*
X172075470Y-72298768D02*
X172044946Y-72313576D01*
X172012256Y-72311489D01*
X171988309Y-72295706D01*
X174258715Y-78535657D02*
X174233011Y-78512034D01*
X174212019Y-78484532D01*
X174199787Y-78450118D01*
X174194767Y-78410175D01*
X174193261Y-78367392D01*
X174193187Y-78327374D01*
X174193725Y-78279407D01*
X171862886Y-74494022D02*
X171863944Y-74545488D01*
X171866428Y-74594479D01*
X171870370Y-74641091D01*
X171875805Y-74685415D01*
X171882765Y-74727545D01*
X171891284Y-74767575D01*
X171901396Y-74805598D01*
X171913133Y-74841709D01*
X171926529Y-74875999D01*
X171941617Y-74908564D01*
X171958432Y-74939495D01*
X171977005Y-74968888D01*
X171997372Y-74996835D01*
X172019564Y-75023430D01*
X172043615Y-75048767D01*
X172069560Y-75072939D01*
X173849091Y-74931522D02*
X173838447Y-74968990D01*
X173825296Y-75005390D01*
X173813127Y-75035562D01*
X173799265Y-75067572D01*
X173783967Y-75100857D01*
X173767489Y-75134854D01*
X173750087Y-75169002D01*
X173732017Y-75202738D01*
X173713535Y-75235499D01*
X173701112Y-75256522D01*
X172836279Y-73806522D02*
X172896000Y-73710454D01*
X171723779Y-72505060D02*
X171725338Y-72541897D01*
X171732918Y-72573227D01*
X171763485Y-72589415D01*
X171797704Y-72578369D01*
X171835329Y-72557836D01*
X171870300Y-72535623D01*
X171897106Y-72517574D01*
X171911612Y-72507579D01*
X172416212Y-73781535D02*
X172446243Y-73812187D01*
X172465079Y-73842230D01*
X172482912Y-73879646D01*
X172499697Y-73924166D01*
X172515386Y-73975518D01*
X172529933Y-74033435D01*
X172536763Y-74064771D01*
X172543291Y-74097647D01*
X172549510Y-74132029D01*
X172555415Y-74167884D01*
X172560999Y-74205177D01*
X172566256Y-74243876D01*
X172571182Y-74283947D01*
X172575770Y-74325355D01*
X172580014Y-74368068D01*
X172583909Y-74412051D01*
X172587449Y-74457271D01*
X172590627Y-74503694D01*
X172593439Y-74551287D01*
X172595878Y-74600015D01*
X172597938Y-74649846D01*
X172599614Y-74700745D01*
X172600900Y-74752679D01*
X172601789Y-74805613D01*
X172602278Y-74859516D01*
X174666726Y-77259225D02*
X174703687Y-77249420D01*
X174748672Y-77239957D01*
X174782092Y-77233949D01*
X174817539Y-77228258D01*
X174854397Y-77222952D01*
X174892049Y-77218096D01*
X174929880Y-77213756D01*
X174967275Y-77209999D01*
X175003618Y-77206892D01*
X175038292Y-77204499D01*
X175070683Y-77202889D01*
X175113640Y-77202083D01*
X175147994Y-77203409D01*
X175165093Y-77205588D01*
X170614590Y-73675272D02*
X170644432Y-73651797D01*
X170674752Y-73635029D01*
X170705423Y-73624969D01*
X170744055Y-73621825D01*
X170782780Y-73629160D01*
X170813656Y-73642575D01*
X170844300Y-73662696D01*
X170859495Y-73675272D01*
X171458957Y-76469022D02*
X171492167Y-76470600D01*
X171527212Y-76477668D01*
X171560278Y-76492083D01*
X171588818Y-76511004D01*
X171613736Y-76531415D01*
X171641618Y-76557090D01*
X171656992Y-76572069D01*
X170610479Y-77106522D02*
X170616021Y-77151282D01*
X170620383Y-77183363D01*
X170625715Y-77221319D01*
X170631950Y-77264706D01*
X170639023Y-77313078D01*
X170646865Y-77365992D01*
X170655411Y-77423003D01*
X170664592Y-77483667D01*
X170669400Y-77515230D01*
X170674342Y-77547540D01*
X170679410Y-77580541D01*
X170684595Y-77614177D01*
X170689888Y-77648393D01*
X170695282Y-77683133D01*
X170700768Y-77718342D01*
X170706338Y-77753965D01*
X170711983Y-77789945D01*
X170717695Y-77826228D01*
X170723466Y-77862757D01*
X170729287Y-77899477D01*
X170735149Y-77936333D01*
X170741046Y-77973269D01*
X177042503Y-73025272D02*
X177019524Y-72994022D01*
X176999775Y-72962709D01*
X176977236Y-72924514D01*
X176952554Y-72880723D01*
X176926376Y-72832623D01*
X176899348Y-72781499D01*
X176872116Y-72728639D01*
X176845327Y-72675329D01*
X176819627Y-72622856D01*
X176795663Y-72572505D01*
X176774081Y-72525564D01*
X176755529Y-72483318D01*
X176740651Y-72447055D01*
X176726640Y-72406691D01*
X176723779Y-72391013D01*
X172159027Y-75151492D02*
X172178227Y-75079699D01*
X177261480Y-78748802D02*
X177266712Y-78790220D01*
X177266096Y-78827893D01*
X177259550Y-78861970D01*
X177246995Y-78892600D01*
X177228349Y-78919933D01*
X177203533Y-78944118D01*
X177172467Y-78965303D01*
X177135070Y-78983638D01*
X169924091Y-72031522D02*
X169913447Y-72068990D01*
X169900296Y-72105390D01*
X169888127Y-72135562D01*
X169874265Y-72167572D01*
X169858967Y-72200857D01*
X169842489Y-72234854D01*
X169825087Y-72269002D01*
X169807017Y-72302738D01*
X169788535Y-72335499D01*
X169776112Y-72356522D01*
X174249086Y-74043449D02*
X174270551Y-74011181D01*
X174293843Y-73987577D01*
X174324849Y-73964708D01*
X174354429Y-73947357D01*
X174390414Y-73929305D01*
X174433690Y-73910073D01*
X174467028Y-73896360D01*
X174504263Y-73881768D01*
X174545657Y-73866156D01*
X174591472Y-73849381D01*
X174641971Y-73831304D01*
X176509117Y-72369022D02*
X176475577Y-72374689D01*
X176449887Y-72399583D01*
X176435486Y-72433204D01*
X176425440Y-72467323D01*
X176423363Y-72475272D01*
X178239950Y-76838564D02*
X178215383Y-76858914D01*
X178183032Y-76862472D01*
X178149683Y-76849406D01*
X178116199Y-76831745D01*
X178099918Y-76822666D01*
X173823720Y-73841061D02*
X173860652Y-73872824D01*
X173893550Y-73905286D01*
X173922454Y-73938672D01*
X173947404Y-73973208D01*
X173968441Y-74009117D01*
X173985606Y-74046626D01*
X173998939Y-74085959D01*
X174008480Y-74127341D01*
X174014271Y-74170997D01*
X174016352Y-74217154D01*
X174014764Y-74266034D01*
X174009546Y-74317864D01*
X174000740Y-74372869D01*
X173988387Y-74431273D01*
X173972526Y-74493302D01*
X173963293Y-74525746D01*
X173953199Y-74559181D01*
X176922015Y-74478791D02*
X176929566Y-74433442D01*
X176934705Y-74393242D01*
X176937425Y-74358152D01*
X176937273Y-74319247D01*
X176930988Y-74283160D01*
X176910746Y-74255734D01*
X176877068Y-74254820D01*
X177470420Y-76756522D02*
X177490044Y-76718037D01*
X177513031Y-76681035D01*
X177539060Y-76645710D01*
X177567805Y-76612262D01*
X177598944Y-76580888D01*
X177632153Y-76551784D01*
X177667108Y-76525148D01*
X177703488Y-76501178D01*
X177740967Y-76480071D01*
X177779223Y-76462024D01*
X177817932Y-76447235D01*
X177856771Y-76435901D01*
X177895416Y-76428219D01*
X177933545Y-76424387D01*
X177970833Y-76424602D01*
X178006958Y-76429062D01*
X175348779Y-76549699D02*
X175327813Y-76576031D01*
X175297399Y-76597698D01*
X175255975Y-76622608D01*
X175223198Y-76640549D01*
X175186961Y-76659230D01*
X175147837Y-76678371D01*
X175106399Y-76697691D01*
X175063221Y-76716910D01*
X175018876Y-76735748D01*
X174973938Y-76753923D01*
X174928979Y-76771155D01*
X174884574Y-76787164D01*
X174841295Y-76801669D01*
X174820258Y-76808271D01*
X170584117Y-75269022D02*
X170550577Y-75274689D01*
X170524887Y-75299583D01*
X170510486Y-75333204D01*
X170500440Y-75367323D01*
X170498363Y-75375272D01*
X173080108Y-76965843D02*
X173124723Y-76913721D01*
X173166780Y-76864709D01*
X173206383Y-76818721D01*
X173243637Y-76775676D01*
X173278646Y-76735491D01*
X173311516Y-76698081D01*
X173342349Y-76663366D01*
X173371251Y-76631260D01*
X173398327Y-76601683D01*
X173423680Y-76574550D01*
X173447415Y-76549778D01*
X173490449Y-76506989D01*
X173528266Y-76472650D01*
X173561701Y-76446098D01*
X173591589Y-76426670D01*
X173631601Y-76409432D01*
X173668335Y-76404489D01*
X173704613Y-76409600D01*
X173743253Y-76422526D01*
X173757147Y-76428184D01*
X174825050Y-78403400D02*
X174786926Y-78422818D01*
X174749222Y-78441691D01*
X174712162Y-78459923D01*
X174675967Y-78477414D01*
X174640861Y-78494068D01*
X174607067Y-78509787D01*
X174574808Y-78524472D01*
X174544306Y-78538026D01*
X174502336Y-78556024D01*
X174465574Y-78570927D01*
X174434772Y-78582406D01*
X174404276Y-78591815D01*
X174390308Y-78594022D01*
X175110254Y-77994022D02*
X175148719Y-77998037D01*
X175180689Y-78006282D01*
X175211914Y-78018036D01*
X175240726Y-78032410D01*
X175270804Y-78052707D01*
X175293885Y-78078187D01*
X175298779Y-78094466D01*
X170474572Y-72600272D02*
X170478500Y-72567411D01*
X170483372Y-72531090D01*
X170488398Y-72494603D01*
X170494261Y-72452705D01*
X170499116Y-72418394D01*
X170504293Y-72382124D01*
X170509728Y-72344361D01*
X170511586Y-72331522D01*
X172474698Y-71668657D02*
X172504967Y-71657255D01*
X172548021Y-71643115D01*
X172588491Y-71632536D01*
X172626644Y-71625524D01*
X172662749Y-71622084D01*
X172697072Y-71622222D01*
X172729881Y-71625945D01*
X172761443Y-71633257D01*
X172792026Y-71644165D01*
X172821897Y-71658674D01*
X172851325Y-71676791D01*
X169380186Y-76497796D02*
X169396471Y-76469785D01*
X169421222Y-76446043D01*
X169453494Y-76434081D01*
X169486029Y-76431522D01*
X175521681Y-76941842D02*
X175516732Y-76906589D01*
X175525388Y-76875603D01*
X175542614Y-76842702D01*
X175566579Y-76809669D01*
X175595455Y-76778288D01*
X175627414Y-76750343D01*
X175660626Y-76727616D01*
X175693262Y-76711892D01*
X175732721Y-76704902D01*
X175756902Y-76712454D01*
X176450214Y-78475272D02*
X176425435Y-78449322D01*
X176400964Y-78423701D01*
X176376830Y-78398442D01*
X176353066Y-78373577D01*
X176329703Y-78349139D01*
X176306771Y-78325160D01*
X176284301Y-78301672D01*
X176262326Y-78278708D01*
X176219982Y-78234481D01*
X176179986Y-78192739D01*
X176142590Y-78153741D01*
X176108041Y-78117747D01*
X176076590Y-78085016D01*
X176048485Y-78055808D01*
X176023975Y-78030382D01*
X175994497Y-77999903D01*
X175970105Y-77974925D01*
X175964084Y-77969072D01*
X178148779Y-78119477D02*
X178185363Y-78117213D01*
X178217505Y-78115094D01*
X178258046Y-78111952D01*
X178290279Y-78108530D01*
X178322080Y-78102901D01*
X178353731Y-78087698D01*
X178366734Y-78056860D01*
X178368949Y-78040259D01*
X170184117Y-78069022D02*
X170150577Y-78074689D01*
X170124887Y-78099583D01*
X170110486Y-78133204D01*
X170100440Y-78167323D01*
X170098363Y-78175272D01*
X177933218Y-77653679D02*
X177878244Y-77627184D01*
X177827883Y-77601734D01*
X177781874Y-77577090D01*
X177739958Y-77553016D01*
X177701877Y-77529275D01*
X177667372Y-77505628D01*
X177636183Y-77481840D01*
X177608051Y-77457672D01*
X177582718Y-77432888D01*
X177559923Y-77407250D01*
X177539409Y-77380522D01*
X177520917Y-77352466D01*
X177504186Y-77322845D01*
X177488958Y-77291421D01*
X177474974Y-77257958D01*
X177461976Y-77222219D01*
X171956692Y-71319022D02*
X171937301Y-71375808D01*
X171927422Y-71407238D01*
X171917458Y-71440493D01*
X171907441Y-71475422D01*
X171897398Y-71511877D01*
X171887360Y-71549709D01*
X171877356Y-71588766D01*
X171867415Y-71628900D01*
X171857566Y-71669961D01*
X171847839Y-71711800D01*
X171838264Y-71754267D01*
X171828869Y-71797211D01*
X171819685Y-71840485D01*
X171810740Y-71883938D01*
X171802063Y-71927420D01*
X171793685Y-71970782D01*
X171785635Y-72013874D01*
X171777941Y-72056546D01*
X171770634Y-72098650D01*
X171763743Y-72140036D01*
X171757297Y-72180553D01*
X171751325Y-72220052D01*
X171745857Y-72258384D01*
X171740922Y-72295399D01*
X171736550Y-72330947D01*
X171732770Y-72364879D01*
X171729611Y-72397045D01*
X171725276Y-72455482D01*
X171723779Y-72505060D01*
X170399955Y-72619022D02*
X170431965Y-72617165D01*
X170463434Y-72609975D01*
X170474572Y-72600272D01*
X170717503Y-78725272D02*
X170694524Y-78694022D01*
X170674775Y-78662709D01*
X170652236Y-78624514D01*
X170627554Y-78580723D01*
X170601376Y-78532623D01*
X170574348Y-78481499D01*
X170547116Y-78428639D01*
X170520327Y-78375329D01*
X170494627Y-78322856D01*
X170470663Y-78272505D01*
X170449081Y-78225564D01*
X170430529Y-78183318D01*
X170415651Y-78147055D01*
X170401640Y-78106691D01*
X170398779Y-78091013D01*
X171604246Y-71369022D02*
X171616814Y-71330226D01*
X171629501Y-71292549D01*
X171642302Y-71255996D01*
X171655213Y-71220577D01*
X171668228Y-71186298D01*
X171681342Y-71153166D01*
X171694550Y-71121190D01*
X171707847Y-71090376D01*
X171721229Y-71060732D01*
X171748224Y-71004984D01*
X171775496Y-70954007D01*
X171803004Y-70907859D01*
X171830708Y-70866599D01*
X171858569Y-70830289D01*
X171886545Y-70798987D01*
X171914598Y-70772754D01*
X171942687Y-70751648D01*
X171970772Y-70735730D01*
X172012803Y-70721710D01*
X172040703Y-70719022D01*
X175672804Y-78362406D02*
X175659471Y-78320252D01*
X175646651Y-78273536D01*
X175634389Y-78222599D01*
X175622724Y-78167781D01*
X175611701Y-78109425D01*
X175601361Y-78047871D01*
X175596460Y-78016002D01*
X175591746Y-77983461D01*
X175587224Y-77950291D01*
X175582900Y-77916535D01*
X175578778Y-77882236D01*
X175574863Y-77847436D01*
X175571162Y-77812177D01*
X175567680Y-77776503D01*
X175564421Y-77740456D01*
X175561391Y-77704078D01*
X175558595Y-77667413D01*
X175556040Y-77630503D01*
X175553729Y-77593391D01*
X175551668Y-77556119D01*
X175549863Y-77518730D01*
X175548318Y-77481266D01*
X175547040Y-77443771D01*
X175546033Y-77406287D01*
X175545303Y-77368856D01*
X175544855Y-77331522D01*
X175915461Y-78700272D02*
X175903198Y-78730215D01*
X175885406Y-78766609D01*
X175862719Y-78799196D01*
X175830658Y-78813813D01*
X175805472Y-78794473D01*
X175786150Y-78758295D01*
X175772057Y-78719049D01*
X175762823Y-78687104D01*
X175753698Y-78650526D01*
X175749173Y-78630499D01*
X174733870Y-71113580D02*
X174672314Y-71110796D01*
X174616443Y-71107540D01*
X174566022Y-71103733D01*
X174520813Y-71099295D01*
X174480579Y-71094147D01*
X174445085Y-71088210D01*
X174400213Y-71077652D01*
X174364674Y-71064874D01*
X174330428Y-71043921D01*
X174309463Y-71017914D01*
X174299887Y-70986219D01*
X174298779Y-70968042D01*
X169266812Y-77469022D02*
X169282577Y-77337772D01*
X176356901Y-77082742D02*
X176296590Y-77065874D01*
X175749173Y-78630499D02*
X175740849Y-78595052D01*
X175732553Y-78562605D01*
X175723140Y-78527715D01*
X175712923Y-78491482D01*
X175702217Y-78455003D01*
X175691333Y-78419380D01*
X175680586Y-78385712D01*
X175672804Y-78362406D01*
X174124147Y-75616785D02*
X174137368Y-75585374D01*
X174167037Y-75560655D01*
X174201583Y-75543123D01*
X174233956Y-75531929D01*
X174269232Y-75523888D01*
X174306206Y-75519587D01*
X174324955Y-75519022D01*
X173605987Y-77975652D02*
X173645328Y-78011999D01*
X173682116Y-78047539D01*
X173716414Y-78082367D01*
X173748284Y-78116575D01*
X173777788Y-78150257D01*
X173804988Y-78183506D01*
X173829948Y-78216416D01*
X173852728Y-78249081D01*
X173873392Y-78281593D01*
X173892001Y-78314047D01*
X173908618Y-78346535D01*
X173923306Y-78379152D01*
X173936126Y-78411990D01*
X173947142Y-78445144D01*
X173956414Y-78478707D01*
X173964007Y-78512772D01*
X171526869Y-73831522D02*
X171547418Y-73793604D01*
X171568795Y-73760224D01*
X171590942Y-73731420D01*
X171613800Y-73707229D01*
X171645284Y-73682217D01*
X171677791Y-73665564D01*
X171711182Y-73657360D01*
X171745321Y-73657695D01*
X171780068Y-73666660D01*
X168656000Y-78486000D02*
X168640412Y-78445817D01*
X168627433Y-78389909D01*
X168621909Y-78356530D01*
X168617024Y-78319787D01*
X168612772Y-78279868D01*
X168609148Y-78236963D01*
X168606148Y-78191260D01*
X168603767Y-78142948D01*
X168602000Y-78092217D01*
X168600842Y-78039256D01*
X168600289Y-77984253D01*
X168600336Y-77927397D01*
X168600978Y-77868878D01*
X168602210Y-77808884D01*
X168604028Y-77747605D01*
X168606427Y-77685229D01*
X168609402Y-77621945D01*
X168612948Y-77557943D01*
X168617061Y-77493411D01*
X168621736Y-77428539D01*
X168626968Y-77363515D01*
X168632752Y-77298528D01*
X168639084Y-77233768D01*
X168645958Y-77169423D01*
X168653371Y-77105683D01*
X168661317Y-77042736D01*
X168669792Y-76980771D01*
X168678790Y-76919977D01*
X168688308Y-76860544D01*
X168698340Y-76802661D01*
X170457881Y-71294022D02*
X170423642Y-71287894D01*
X170393866Y-71275570D01*
X170365870Y-71258444D01*
X170348206Y-71243449D01*
X168971000Y-70810454D02*
X168990712Y-70779289D01*
X169010995Y-70751237D01*
X169038044Y-70729236D01*
X169072924Y-70723115D01*
X169108389Y-70725851D01*
X169146000Y-70730985D01*
X169146000Y-70730985D02*
X169208410Y-70740493D01*
X169270488Y-70750963D01*
X169331866Y-70762292D01*
X169392175Y-70774378D01*
X169451048Y-70787117D01*
X169508117Y-70800408D01*
X169563015Y-70814148D01*
X169615375Y-70828233D01*
X169664827Y-70842562D01*
X169711005Y-70857032D01*
X169753541Y-70871540D01*
X169792067Y-70885983D01*
X169826215Y-70900260D01*
X169855619Y-70914266D01*
X169890023Y-70934546D01*
X169898720Y-70941061D01*
X176558982Y-71969554D02*
X176547189Y-72003726D01*
X176535637Y-72042726D01*
X176528888Y-72074640D01*
X176527853Y-72110225D01*
X176547011Y-72138998D01*
X176573779Y-72144022D01*
X173182173Y-77517111D02*
X173286836Y-77649316D01*
X169102261Y-77744022D02*
X168930743Y-77744022D01*
X172430734Y-78227180D02*
X172428459Y-78181913D01*
X172426846Y-78138915D01*
X172425991Y-78097201D01*
X172425988Y-78055785D01*
X172426929Y-78013681D01*
X172428909Y-77969905D01*
X172432023Y-77923470D01*
X172436364Y-77873393D01*
X172442027Y-77818686D01*
X172449105Y-77758366D01*
X172453204Y-77725792D01*
X172457693Y-77691446D01*
X172462582Y-77655203D01*
X172467884Y-77616941D01*
X172473611Y-77576537D01*
X172479773Y-77533866D01*
X172486384Y-77488807D01*
X172493454Y-77441236D01*
X172500996Y-77391030D01*
X172509021Y-77338065D01*
X172517541Y-77282219D01*
X172526568Y-77223369D01*
X169261279Y-71075828D02*
X169259719Y-71671001D01*
X168898996Y-78274392D02*
X168898897Y-78317614D01*
X168898642Y-78356058D01*
X168898173Y-78390041D01*
X168896953Y-78433340D01*
X168894946Y-78468378D01*
X168890728Y-78504085D01*
X168880207Y-78539187D01*
X168856047Y-78564801D01*
X168847834Y-78569527D01*
X173757147Y-76428184D02*
X173795052Y-76447994D01*
X173825019Y-76472399D01*
X173847069Y-76501349D01*
X173861219Y-76534797D01*
X173867488Y-76572696D01*
X173865895Y-76614999D01*
X173856460Y-76661659D01*
X173839201Y-76712627D01*
X173814136Y-76767857D01*
X173798683Y-76797056D01*
X173781285Y-76827302D01*
X173761946Y-76858590D01*
X173740667Y-76890913D01*
X173717451Y-76924267D01*
X173692300Y-76958644D01*
X173665217Y-76994039D01*
X173636204Y-77030447D01*
X173605263Y-77067861D01*
X173572397Y-77106275D01*
X173537607Y-77145683D01*
X173500898Y-77186080D01*
X173462269Y-77227459D01*
X173421726Y-77269816D01*
X174263665Y-77439376D02*
X174266668Y-77388172D01*
X174269194Y-77343203D01*
X174271170Y-77303931D01*
X174272526Y-77269824D01*
X174273245Y-77227176D01*
X174272174Y-77193140D01*
X174267551Y-77158034D01*
X174255845Y-77124653D01*
X174236527Y-77095143D01*
X174214852Y-77068708D01*
X169272252Y-72257464D02*
X169291202Y-72229909D01*
X169309029Y-72198914D01*
X169326704Y-72166639D01*
X169342146Y-72137564D01*
X169358326Y-72106341D01*
X169366572Y-72090138D01*
X170074013Y-76856522D02*
X170081799Y-76824725D01*
X170096921Y-76765525D01*
X170111565Y-76711976D01*
X170125875Y-76663836D01*
X170140000Y-76620860D01*
X170154084Y-76582805D01*
X170168273Y-76549428D01*
X170182715Y-76520484D01*
X170205168Y-76484848D01*
X170229010Y-76457816D01*
X170254734Y-76438566D01*
X170292811Y-76423583D01*
X170324842Y-76419291D01*
X170336279Y-76419022D01*
X172602278Y-74859516D02*
X172602435Y-74908737D01*
X172602341Y-74953512D01*
X172601961Y-74994173D01*
X172601258Y-75031052D01*
X172600196Y-75064480D01*
X172597852Y-75108878D01*
X172594498Y-75147378D01*
X172590013Y-75181099D01*
X172582063Y-75220562D01*
X172571597Y-75256175D01*
X172558328Y-75290591D01*
X172554540Y-75299319D01*
X172896000Y-73710454D02*
X172915712Y-73679289D01*
X172935995Y-73651237D01*
X172963044Y-73629236D01*
X172997924Y-73623115D01*
X173033389Y-73625851D01*
X173071000Y-73630985D01*
X172554540Y-75299319D02*
X172535110Y-75338195D01*
X172512770Y-75373755D01*
X172487678Y-75405944D01*
X172459991Y-75434710D01*
X172429866Y-75460000D01*
X172397462Y-75481758D01*
X172362936Y-75499933D01*
X172326445Y-75514470D01*
X172288147Y-75525317D01*
X172248199Y-75532419D01*
X172206759Y-75535723D01*
X172163985Y-75535176D01*
X172120033Y-75530724D01*
X172075062Y-75522315D01*
X172029229Y-75509893D01*
X171982692Y-75493407D01*
D11*
X173482000Y-87376000D02*
X175006000Y-85852000D01*
D10*
X172840423Y-74569022D02*
X172836279Y-73806522D01*
X171749244Y-72889147D02*
X171715041Y-72891391D01*
X171677229Y-72892738D01*
X171639653Y-72890962D01*
X171603584Y-72882269D01*
X171570939Y-72864573D01*
X171541450Y-72841541D01*
X171520998Y-72823602D01*
X175335767Y-72820011D02*
X175318871Y-72848921D01*
X175295213Y-72874808D01*
X175265984Y-72888833D01*
X175232174Y-72893613D01*
X175214512Y-72894022D01*
X174261953Y-75798435D02*
X174228506Y-75785851D01*
X174197674Y-75765046D01*
X174170683Y-75737635D01*
X174148758Y-75705235D01*
X174133126Y-75669461D01*
X174125012Y-75631928D01*
X174124147Y-75616785D01*
X170840507Y-78729519D02*
X170822868Y-78755947D01*
X170789716Y-78767317D01*
X170758968Y-78758685D01*
X170731277Y-78739189D01*
X170717503Y-78725272D01*
X176377394Y-74219022D02*
X176348082Y-74232313D01*
X176314216Y-74257507D01*
X176287313Y-74280195D01*
X176257779Y-74306750D01*
X176226324Y-74336449D01*
X176193660Y-74368566D01*
X176160497Y-74402377D01*
X176127546Y-74437156D01*
X176095518Y-74472181D01*
X176065124Y-74506725D01*
X176037074Y-74540064D01*
X176012079Y-74571473D01*
X175990850Y-74600228D01*
X175967623Y-74636799D01*
X171520998Y-72823602D02*
X171521005Y-72823602D01*
X171473364Y-74841279D02*
X171466394Y-74802910D01*
X171461992Y-74769003D01*
X171458302Y-74730806D01*
X171455327Y-74688415D01*
X171453070Y-74641926D01*
X171451967Y-74608705D01*
X171451187Y-74573735D01*
X171450730Y-74537044D01*
X171450597Y-74498661D01*
X171450790Y-74458614D01*
X171451311Y-74416932D01*
X171452158Y-74373644D01*
X171453336Y-74328779D01*
X173291574Y-74990138D02*
X173307193Y-74956812D01*
X173324805Y-74914986D01*
X173343996Y-74865976D01*
X173364352Y-74811095D01*
X173385460Y-74751659D01*
X173396165Y-74720643D01*
X173406903Y-74688982D01*
X173417622Y-74656840D01*
X173428270Y-74624380D01*
X173438795Y-74591768D01*
X173449146Y-74559168D01*
X173459270Y-74526744D01*
X173469116Y-74494661D01*
X173478632Y-74463082D01*
X173487766Y-74432173D01*
X173504684Y-74373019D01*
X173519454Y-74318515D01*
X173531662Y-74269975D01*
X173540895Y-74228714D01*
X173546739Y-74196048D01*
X173548779Y-74173291D01*
X175991288Y-70859145D02*
X176009890Y-70893071D01*
X176018246Y-70928911D01*
X176016633Y-70965469D01*
X176005328Y-71001550D01*
X175989492Y-71029269D01*
X175967772Y-71055305D01*
X175940311Y-71079049D01*
X171883529Y-74051400D02*
X171880171Y-74085279D01*
X171877004Y-74122946D01*
X171874064Y-74163637D01*
X171871386Y-74206584D01*
X171869007Y-74251021D01*
X171866962Y-74296183D01*
X171865287Y-74341305D01*
X171864017Y-74385619D01*
X171863189Y-74428361D01*
X171862837Y-74468764D01*
X171862886Y-74494022D01*
X174022364Y-70923925D02*
X174038172Y-70954232D01*
X174046146Y-70987097D01*
X174033406Y-71016959D01*
X174012389Y-71041926D01*
X174003030Y-71051996D01*
X174390308Y-78594022D02*
X174356019Y-78588243D01*
X174325359Y-78576877D01*
X174294374Y-78560902D01*
X174265957Y-78541603D01*
X174258715Y-78535658D01*
D11*
X186835074Y-79247419D02*
X186358884Y-79247419D01*
X186358884Y-79247419D02*
X186358884Y-78247419D01*
X187168408Y-78866466D02*
X187930313Y-78866466D01*
X187549360Y-79247419D02*
X187549360Y-78485514D01*
X147623884Y-94487419D02*
X147623884Y-93487419D01*
X147623884Y-93487419D02*
X148004836Y-93487419D01*
X148004836Y-93487419D02*
X148100074Y-93535038D01*
X148100074Y-93535038D02*
X148147693Y-93582657D01*
X148147693Y-93582657D02*
X148195312Y-93677895D01*
X148195312Y-93677895D02*
X148195312Y-93820752D01*
X148195312Y-93820752D02*
X148147693Y-93915990D01*
X148147693Y-93915990D02*
X148100074Y-93963609D01*
X148100074Y-93963609D02*
X148004836Y-94011228D01*
X148004836Y-94011228D02*
X147623884Y-94011228D01*
X148481027Y-93487419D02*
X148814360Y-94487419D01*
X148814360Y-94487419D02*
X149147693Y-93487419D01*
X149481027Y-94487419D02*
X149481027Y-93487419D01*
X149481027Y-93487419D02*
X149719122Y-93487419D01*
X149719122Y-93487419D02*
X149861979Y-93535038D01*
X149861979Y-93535038D02*
X149957217Y-93630276D01*
X149957217Y-93630276D02*
X150004836Y-93725514D01*
X150004836Y-93725514D02*
X150052455Y-93915990D01*
X150052455Y-93915990D02*
X150052455Y-94058847D01*
X150052455Y-94058847D02*
X150004836Y-94249323D01*
X150004836Y-94249323D02*
X149957217Y-94344561D01*
X149957217Y-94344561D02*
X149861979Y-94439800D01*
X149861979Y-94439800D02*
X149719122Y-94487419D01*
X149719122Y-94487419D02*
X149481027Y-94487419D01*
X150481027Y-94487419D02*
X150481027Y-93487419D01*
X150481027Y-93487419D02*
X150719122Y-93487419D01*
X150719122Y-93487419D02*
X150861979Y-93535038D01*
X150861979Y-93535038D02*
X150957217Y-93630276D01*
X150957217Y-93630276D02*
X151004836Y-93725514D01*
X151004836Y-93725514D02*
X151052455Y-93915990D01*
X151052455Y-93915990D02*
X151052455Y-94058847D01*
X151052455Y-94058847D02*
X151004836Y-94249323D01*
X151004836Y-94249323D02*
X150957217Y-94344561D01*
X150957217Y-94344561D02*
X150861979Y-94439800D01*
X150861979Y-94439800D02*
X150719122Y-94487419D01*
X150719122Y-94487419D02*
X150481027Y-94487419D01*
X186930312Y-107822419D02*
X186596979Y-107346228D01*
X186358884Y-107822419D02*
X186358884Y-106822419D01*
X186358884Y-106822419D02*
X186739836Y-106822419D01*
X186739836Y-106822419D02*
X186835074Y-106870038D01*
X186835074Y-106870038D02*
X186882693Y-106917657D01*
X186882693Y-106917657D02*
X186930312Y-107012895D01*
X186930312Y-107012895D02*
X186930312Y-107155752D01*
X186930312Y-107155752D02*
X186882693Y-107250990D01*
X186882693Y-107250990D02*
X186835074Y-107298609D01*
X186835074Y-107298609D02*
X186739836Y-107346228D01*
X186739836Y-107346228D02*
X186358884Y-107346228D01*
X187358884Y-107441466D02*
X188120789Y-107441466D01*
X186835074Y-91947419D02*
X186358884Y-91947419D01*
X186358884Y-91947419D02*
X186358884Y-90947419D01*
X187168408Y-91566466D02*
X187930313Y-91566466D01*
X139368884Y-91566466D02*
X140130789Y-91566466D01*
X139749836Y-91947419D02*
X139749836Y-91185514D01*
X141130788Y-91947419D02*
X140559360Y-91947419D01*
X140845074Y-91947419D02*
X140845074Y-90947419D01*
X140845074Y-90947419D02*
X140749836Y-91090276D01*
X140749836Y-91090276D02*
X140654598Y-91185514D01*
X140654598Y-91185514D02*
X140559360Y-91233133D01*
X141511741Y-91042657D02*
X141559360Y-90995038D01*
X141559360Y-90995038D02*
X141654598Y-90947419D01*
X141654598Y-90947419D02*
X141892693Y-90947419D01*
X141892693Y-90947419D02*
X141987931Y-90995038D01*
X141987931Y-90995038D02*
X142035550Y-91042657D01*
X142035550Y-91042657D02*
X142083169Y-91137895D01*
X142083169Y-91137895D02*
X142083169Y-91233133D01*
X142083169Y-91233133D02*
X142035550Y-91375990D01*
X142035550Y-91375990D02*
X141464122Y-91947419D01*
X141464122Y-91947419D02*
X142083169Y-91947419D01*
X142368884Y-90947419D02*
X142702217Y-91947419D01*
X142702217Y-91947419D02*
X143035550Y-90947419D01*
X140003884Y-96646466D02*
X140765789Y-96646466D01*
X140384836Y-97027419D02*
X140384836Y-96265514D01*
X141718169Y-96027419D02*
X141241979Y-96027419D01*
X141241979Y-96027419D02*
X141194360Y-96503609D01*
X141194360Y-96503609D02*
X141241979Y-96455990D01*
X141241979Y-96455990D02*
X141337217Y-96408371D01*
X141337217Y-96408371D02*
X141575312Y-96408371D01*
X141575312Y-96408371D02*
X141670550Y-96455990D01*
X141670550Y-96455990D02*
X141718169Y-96503609D01*
X141718169Y-96503609D02*
X141765788Y-96598847D01*
X141765788Y-96598847D02*
X141765788Y-96836942D01*
X141765788Y-96836942D02*
X141718169Y-96932180D01*
X141718169Y-96932180D02*
X141670550Y-96979800D01*
X141670550Y-96979800D02*
X141575312Y-97027419D01*
X141575312Y-97027419D02*
X141337217Y-97027419D01*
X141337217Y-97027419D02*
X141241979Y-96979800D01*
X141241979Y-96979800D02*
X141194360Y-96932180D01*
X142051503Y-96027419D02*
X142384836Y-97027419D01*
X142384836Y-97027419D02*
X142718169Y-96027419D01*
X186930312Y-95122419D02*
X186596979Y-94646228D01*
X186358884Y-95122419D02*
X186358884Y-94122419D01*
X186358884Y-94122419D02*
X186739836Y-94122419D01*
X186739836Y-94122419D02*
X186835074Y-94170038D01*
X186835074Y-94170038D02*
X186882693Y-94217657D01*
X186882693Y-94217657D02*
X186930312Y-94312895D01*
X186930312Y-94312895D02*
X186930312Y-94455752D01*
X186930312Y-94455752D02*
X186882693Y-94550990D01*
X186882693Y-94550990D02*
X186835074Y-94598609D01*
X186835074Y-94598609D02*
X186739836Y-94646228D01*
X186739836Y-94646228D02*
X186358884Y-94646228D01*
X187358884Y-94741466D02*
X188120789Y-94741466D01*
X187739836Y-95122419D02*
X187739836Y-94360514D01*
D12*
X168013142Y-87227580D02*
X167965523Y-87275200D01*
X167965523Y-87275200D02*
X167822666Y-87322819D01*
X167822666Y-87322819D02*
X167727428Y-87322819D01*
X167727428Y-87322819D02*
X167584571Y-87275200D01*
X167584571Y-87275200D02*
X167489333Y-87179961D01*
X167489333Y-87179961D02*
X167441714Y-87084723D01*
X167441714Y-87084723D02*
X167394095Y-86894247D01*
X167394095Y-86894247D02*
X167394095Y-86751390D01*
X167394095Y-86751390D02*
X167441714Y-86560914D01*
X167441714Y-86560914D02*
X167489333Y-86465676D01*
X167489333Y-86465676D02*
X167584571Y-86370438D01*
X167584571Y-86370438D02*
X167727428Y-86322819D01*
X167727428Y-86322819D02*
X167822666Y-86322819D01*
X167822666Y-86322819D02*
X167965523Y-86370438D01*
X167965523Y-86370438D02*
X168013142Y-86418057D01*
X168965523Y-87322819D02*
X168394095Y-87322819D01*
X168679809Y-87322819D02*
X168679809Y-86322819D01*
X168679809Y-86322819D02*
X168584571Y-86465676D01*
X168584571Y-86465676D02*
X168489333Y-86560914D01*
X168489333Y-86560914D02*
X168394095Y-86608533D01*
X169346476Y-86418057D02*
X169394095Y-86370438D01*
X169394095Y-86370438D02*
X169489333Y-86322819D01*
X169489333Y-86322819D02*
X169727428Y-86322819D01*
X169727428Y-86322819D02*
X169822666Y-86370438D01*
X169822666Y-86370438D02*
X169870285Y-86418057D01*
X169870285Y-86418057D02*
X169917904Y-86513295D01*
X169917904Y-86513295D02*
X169917904Y-86608533D01*
X169917904Y-86608533D02*
X169870285Y-86751390D01*
X169870285Y-86751390D02*
X169298857Y-87322819D01*
X169298857Y-87322819D02*
X169917904Y-87322819D01*
X168482142Y-99579580D02*
X168434523Y-99627200D01*
X168434523Y-99627200D02*
X168291666Y-99674819D01*
X168291666Y-99674819D02*
X168196428Y-99674819D01*
X168196428Y-99674819D02*
X168053571Y-99627200D01*
X168053571Y-99627200D02*
X167958333Y-99531961D01*
X167958333Y-99531961D02*
X167910714Y-99436723D01*
X167910714Y-99436723D02*
X167863095Y-99246247D01*
X167863095Y-99246247D02*
X167863095Y-99103390D01*
X167863095Y-99103390D02*
X167910714Y-98912914D01*
X167910714Y-98912914D02*
X167958333Y-98817676D01*
X167958333Y-98817676D02*
X168053571Y-98722438D01*
X168053571Y-98722438D02*
X168196428Y-98674819D01*
X168196428Y-98674819D02*
X168291666Y-98674819D01*
X168291666Y-98674819D02*
X168434523Y-98722438D01*
X168434523Y-98722438D02*
X168482142Y-98770057D01*
X169434523Y-99674819D02*
X168863095Y-99674819D01*
X169148809Y-99674819D02*
X169148809Y-98674819D01*
X169148809Y-98674819D02*
X169053571Y-98817676D01*
X169053571Y-98817676D02*
X168958333Y-98912914D01*
X168958333Y-98912914D02*
X168863095Y-98960533D01*
X170291666Y-99008152D02*
X170291666Y-99674819D01*
X170053571Y-98627200D02*
X169815476Y-99341485D01*
X169815476Y-99341485D02*
X170434523Y-99341485D01*
X152690533Y-77975619D02*
X152357200Y-77499428D01*
X152119105Y-77975619D02*
X152119105Y-76975619D01*
X152119105Y-76975619D02*
X152500057Y-76975619D01*
X152500057Y-76975619D02*
X152595295Y-77023238D01*
X152595295Y-77023238D02*
X152642914Y-77070857D01*
X152642914Y-77070857D02*
X152690533Y-77166095D01*
X152690533Y-77166095D02*
X152690533Y-77308952D01*
X152690533Y-77308952D02*
X152642914Y-77404190D01*
X152642914Y-77404190D02*
X152595295Y-77451809D01*
X152595295Y-77451809D02*
X152500057Y-77499428D01*
X152500057Y-77499428D02*
X152119105Y-77499428D01*
X153642914Y-77975619D02*
X153071486Y-77975619D01*
X153357200Y-77975619D02*
X153357200Y-76975619D01*
X153357200Y-76975619D02*
X153261962Y-77118476D01*
X153261962Y-77118476D02*
X153166724Y-77213714D01*
X153166724Y-77213714D02*
X153071486Y-77261333D01*
X172273933Y-103229580D02*
X172226314Y-103277200D01*
X172226314Y-103277200D02*
X172083457Y-103324819D01*
X172083457Y-103324819D02*
X171988219Y-103324819D01*
X171988219Y-103324819D02*
X171845362Y-103277200D01*
X171845362Y-103277200D02*
X171750124Y-103181961D01*
X171750124Y-103181961D02*
X171702505Y-103086723D01*
X171702505Y-103086723D02*
X171654886Y-102896247D01*
X171654886Y-102896247D02*
X171654886Y-102753390D01*
X171654886Y-102753390D02*
X171702505Y-102562914D01*
X171702505Y-102562914D02*
X171750124Y-102467676D01*
X171750124Y-102467676D02*
X171845362Y-102372438D01*
X171845362Y-102372438D02*
X171988219Y-102324819D01*
X171988219Y-102324819D02*
X172083457Y-102324819D01*
X172083457Y-102324819D02*
X172226314Y-102372438D01*
X172226314Y-102372438D02*
X172273933Y-102420057D01*
X173131076Y-102324819D02*
X172940600Y-102324819D01*
X172940600Y-102324819D02*
X172845362Y-102372438D01*
X172845362Y-102372438D02*
X172797743Y-102420057D01*
X172797743Y-102420057D02*
X172702505Y-102562914D01*
X172702505Y-102562914D02*
X172654886Y-102753390D01*
X172654886Y-102753390D02*
X172654886Y-103134342D01*
X172654886Y-103134342D02*
X172702505Y-103229580D01*
X172702505Y-103229580D02*
X172750124Y-103277200D01*
X172750124Y-103277200D02*
X172845362Y-103324819D01*
X172845362Y-103324819D02*
X173035838Y-103324819D01*
X173035838Y-103324819D02*
X173131076Y-103277200D01*
X173131076Y-103277200D02*
X173178695Y-103229580D01*
X173178695Y-103229580D02*
X173226314Y-103134342D01*
X173226314Y-103134342D02*
X173226314Y-102896247D01*
X173226314Y-102896247D02*
X173178695Y-102801009D01*
X173178695Y-102801009D02*
X173131076Y-102753390D01*
X173131076Y-102753390D02*
X173035838Y-102705771D01*
X173035838Y-102705771D02*
X172845362Y-102705771D01*
X172845362Y-102705771D02*
X172750124Y-102753390D01*
X172750124Y-102753390D02*
X172702505Y-102801009D01*
X172702505Y-102801009D02*
X172654886Y-102896247D01*
X149109580Y-114850357D02*
X149157200Y-114897976D01*
X149157200Y-114897976D02*
X149204819Y-115040833D01*
X149204819Y-115040833D02*
X149204819Y-115136071D01*
X149204819Y-115136071D02*
X149157200Y-115278928D01*
X149157200Y-115278928D02*
X149061961Y-115374166D01*
X149061961Y-115374166D02*
X148966723Y-115421785D01*
X148966723Y-115421785D02*
X148776247Y-115469404D01*
X148776247Y-115469404D02*
X148633390Y-115469404D01*
X148633390Y-115469404D02*
X148442914Y-115421785D01*
X148442914Y-115421785D02*
X148347676Y-115374166D01*
X148347676Y-115374166D02*
X148252438Y-115278928D01*
X148252438Y-115278928D02*
X148204819Y-115136071D01*
X148204819Y-115136071D02*
X148204819Y-115040833D01*
X148204819Y-115040833D02*
X148252438Y-114897976D01*
X148252438Y-114897976D02*
X148300057Y-114850357D01*
X149204819Y-113897976D02*
X149204819Y-114469404D01*
X149204819Y-114183690D02*
X148204819Y-114183690D01*
X148204819Y-114183690D02*
X148347676Y-114278928D01*
X148347676Y-114278928D02*
X148442914Y-114374166D01*
X148442914Y-114374166D02*
X148490533Y-114469404D01*
X148204819Y-112993214D02*
X148204819Y-113469404D01*
X148204819Y-113469404D02*
X148681009Y-113517023D01*
X148681009Y-113517023D02*
X148633390Y-113469404D01*
X148633390Y-113469404D02*
X148585771Y-113374166D01*
X148585771Y-113374166D02*
X148585771Y-113136071D01*
X148585771Y-113136071D02*
X148633390Y-113040833D01*
X148633390Y-113040833D02*
X148681009Y-112993214D01*
X148681009Y-112993214D02*
X148776247Y-112945595D01*
X148776247Y-112945595D02*
X149014342Y-112945595D01*
X149014342Y-112945595D02*
X149109580Y-112993214D01*
X149109580Y-112993214D02*
X149157200Y-113040833D01*
X149157200Y-113040833D02*
X149204819Y-113136071D01*
X149204819Y-113136071D02*
X149204819Y-113374166D01*
X149204819Y-113374166D02*
X149157200Y-113469404D01*
X149157200Y-113469404D02*
X149109580Y-113517023D01*
X160012142Y-116659819D02*
X159678809Y-116183628D01*
X159440714Y-116659819D02*
X159440714Y-115659819D01*
X159440714Y-115659819D02*
X159821666Y-115659819D01*
X159821666Y-115659819D02*
X159916904Y-115707438D01*
X159916904Y-115707438D02*
X159964523Y-115755057D01*
X159964523Y-115755057D02*
X160012142Y-115850295D01*
X160012142Y-115850295D02*
X160012142Y-115993152D01*
X160012142Y-115993152D02*
X159964523Y-116088390D01*
X159964523Y-116088390D02*
X159916904Y-116136009D01*
X159916904Y-116136009D02*
X159821666Y-116183628D01*
X159821666Y-116183628D02*
X159440714Y-116183628D01*
X160964523Y-116659819D02*
X160393095Y-116659819D01*
X160678809Y-116659819D02*
X160678809Y-115659819D01*
X160678809Y-115659819D02*
X160583571Y-115802676D01*
X160583571Y-115802676D02*
X160488333Y-115897914D01*
X160488333Y-115897914D02*
X160393095Y-115945533D01*
X161583571Y-115659819D02*
X161678809Y-115659819D01*
X161678809Y-115659819D02*
X161774047Y-115707438D01*
X161774047Y-115707438D02*
X161821666Y-115755057D01*
X161821666Y-115755057D02*
X161869285Y-115850295D01*
X161869285Y-115850295D02*
X161916904Y-116040771D01*
X161916904Y-116040771D02*
X161916904Y-116278866D01*
X161916904Y-116278866D02*
X161869285Y-116469342D01*
X161869285Y-116469342D02*
X161821666Y-116564580D01*
X161821666Y-116564580D02*
X161774047Y-116612200D01*
X161774047Y-116612200D02*
X161678809Y-116659819D01*
X161678809Y-116659819D02*
X161583571Y-116659819D01*
X161583571Y-116659819D02*
X161488333Y-116612200D01*
X161488333Y-116612200D02*
X161440714Y-116564580D01*
X161440714Y-116564580D02*
X161393095Y-116469342D01*
X161393095Y-116469342D02*
X161345476Y-116278866D01*
X161345476Y-116278866D02*
X161345476Y-116040771D01*
X161345476Y-116040771D02*
X161393095Y-115850295D01*
X161393095Y-115850295D02*
X161440714Y-115755057D01*
X161440714Y-115755057D02*
X161488333Y-115707438D01*
X161488333Y-115707438D02*
X161583571Y-115659819D01*
X178173142Y-88243580D02*
X178125523Y-88291200D01*
X178125523Y-88291200D02*
X177982666Y-88338819D01*
X177982666Y-88338819D02*
X177887428Y-88338819D01*
X177887428Y-88338819D02*
X177744571Y-88291200D01*
X177744571Y-88291200D02*
X177649333Y-88195961D01*
X177649333Y-88195961D02*
X177601714Y-88100723D01*
X177601714Y-88100723D02*
X177554095Y-87910247D01*
X177554095Y-87910247D02*
X177554095Y-87767390D01*
X177554095Y-87767390D02*
X177601714Y-87576914D01*
X177601714Y-87576914D02*
X177649333Y-87481676D01*
X177649333Y-87481676D02*
X177744571Y-87386438D01*
X177744571Y-87386438D02*
X177887428Y-87338819D01*
X177887428Y-87338819D02*
X177982666Y-87338819D01*
X177982666Y-87338819D02*
X178125523Y-87386438D01*
X178125523Y-87386438D02*
X178173142Y-87434057D01*
X179125523Y-88338819D02*
X178554095Y-88338819D01*
X178839809Y-88338819D02*
X178839809Y-87338819D01*
X178839809Y-87338819D02*
X178744571Y-87481676D01*
X178744571Y-87481676D02*
X178649333Y-87576914D01*
X178649333Y-87576914D02*
X178554095Y-87624533D01*
X179696952Y-87767390D02*
X179601714Y-87719771D01*
X179601714Y-87719771D02*
X179554095Y-87672152D01*
X179554095Y-87672152D02*
X179506476Y-87576914D01*
X179506476Y-87576914D02*
X179506476Y-87529295D01*
X179506476Y-87529295D02*
X179554095Y-87434057D01*
X179554095Y-87434057D02*
X179601714Y-87386438D01*
X179601714Y-87386438D02*
X179696952Y-87338819D01*
X179696952Y-87338819D02*
X179887428Y-87338819D01*
X179887428Y-87338819D02*
X179982666Y-87386438D01*
X179982666Y-87386438D02*
X180030285Y-87434057D01*
X180030285Y-87434057D02*
X180077904Y-87529295D01*
X180077904Y-87529295D02*
X180077904Y-87576914D01*
X180077904Y-87576914D02*
X180030285Y-87672152D01*
X180030285Y-87672152D02*
X179982666Y-87719771D01*
X179982666Y-87719771D02*
X179887428Y-87767390D01*
X179887428Y-87767390D02*
X179696952Y-87767390D01*
X179696952Y-87767390D02*
X179601714Y-87815009D01*
X179601714Y-87815009D02*
X179554095Y-87862628D01*
X179554095Y-87862628D02*
X179506476Y-87957866D01*
X179506476Y-87957866D02*
X179506476Y-88148342D01*
X179506476Y-88148342D02*
X179554095Y-88243580D01*
X179554095Y-88243580D02*
X179601714Y-88291200D01*
X179601714Y-88291200D02*
X179696952Y-88338819D01*
X179696952Y-88338819D02*
X179887428Y-88338819D01*
X179887428Y-88338819D02*
X179982666Y-88291200D01*
X179982666Y-88291200D02*
X180030285Y-88243580D01*
X180030285Y-88243580D02*
X180077904Y-88148342D01*
X180077904Y-88148342D02*
X180077904Y-87957866D01*
X180077904Y-87957866D02*
X180030285Y-87862628D01*
X180030285Y-87862628D02*
X179982666Y-87815009D01*
X179982666Y-87815009D02*
X179887428Y-87767390D01*
X140208095Y-80023619D02*
X140208095Y-80833142D01*
X140208095Y-80833142D02*
X140255714Y-80928380D01*
X140255714Y-80928380D02*
X140303333Y-80976000D01*
X140303333Y-80976000D02*
X140398571Y-81023619D01*
X140398571Y-81023619D02*
X140589047Y-81023619D01*
X140589047Y-81023619D02*
X140684285Y-80976000D01*
X140684285Y-80976000D02*
X140731904Y-80928380D01*
X140731904Y-80928380D02*
X140779523Y-80833142D01*
X140779523Y-80833142D02*
X140779523Y-80023619D01*
X141731904Y-80023619D02*
X141255714Y-80023619D01*
X141255714Y-80023619D02*
X141208095Y-80499809D01*
X141208095Y-80499809D02*
X141255714Y-80452190D01*
X141255714Y-80452190D02*
X141350952Y-80404571D01*
X141350952Y-80404571D02*
X141589047Y-80404571D01*
X141589047Y-80404571D02*
X141684285Y-80452190D01*
X141684285Y-80452190D02*
X141731904Y-80499809D01*
X141731904Y-80499809D02*
X141779523Y-80595047D01*
X141779523Y-80595047D02*
X141779523Y-80833142D01*
X141779523Y-80833142D02*
X141731904Y-80928380D01*
X141731904Y-80928380D02*
X141684285Y-80976000D01*
X141684285Y-80976000D02*
X141589047Y-81023619D01*
X141589047Y-81023619D02*
X141350952Y-81023619D01*
X141350952Y-81023619D02*
X141255714Y-80976000D01*
X141255714Y-80976000D02*
X141208095Y-80928380D01*
X147853400Y-82385819D02*
X147853400Y-82623914D01*
X147615305Y-82528676D02*
X147853400Y-82623914D01*
X147853400Y-82623914D02*
X148091495Y-82528676D01*
X147710543Y-82814390D02*
X147853400Y-82623914D01*
X147853400Y-82623914D02*
X147996257Y-82814390D01*
X181207580Y-90656666D02*
X181255200Y-90704285D01*
X181255200Y-90704285D02*
X181302819Y-90847142D01*
X181302819Y-90847142D02*
X181302819Y-90942380D01*
X181302819Y-90942380D02*
X181255200Y-91085237D01*
X181255200Y-91085237D02*
X181159961Y-91180475D01*
X181159961Y-91180475D02*
X181064723Y-91228094D01*
X181064723Y-91228094D02*
X180874247Y-91275713D01*
X180874247Y-91275713D02*
X180731390Y-91275713D01*
X180731390Y-91275713D02*
X180540914Y-91228094D01*
X180540914Y-91228094D02*
X180445676Y-91180475D01*
X180445676Y-91180475D02*
X180350438Y-91085237D01*
X180350438Y-91085237D02*
X180302819Y-90942380D01*
X180302819Y-90942380D02*
X180302819Y-90847142D01*
X180302819Y-90847142D02*
X180350438Y-90704285D01*
X180350438Y-90704285D02*
X180398057Y-90656666D01*
X181302819Y-89704285D02*
X181302819Y-90275713D01*
X181302819Y-89989999D02*
X180302819Y-89989999D01*
X180302819Y-89989999D02*
X180445676Y-90085237D01*
X180445676Y-90085237D02*
X180540914Y-90180475D01*
X180540914Y-90180475D02*
X180588533Y-90275713D01*
X140219580Y-114850357D02*
X140267200Y-114897976D01*
X140267200Y-114897976D02*
X140314819Y-115040833D01*
X140314819Y-115040833D02*
X140314819Y-115136071D01*
X140314819Y-115136071D02*
X140267200Y-115278928D01*
X140267200Y-115278928D02*
X140171961Y-115374166D01*
X140171961Y-115374166D02*
X140076723Y-115421785D01*
X140076723Y-115421785D02*
X139886247Y-115469404D01*
X139886247Y-115469404D02*
X139743390Y-115469404D01*
X139743390Y-115469404D02*
X139552914Y-115421785D01*
X139552914Y-115421785D02*
X139457676Y-115374166D01*
X139457676Y-115374166D02*
X139362438Y-115278928D01*
X139362438Y-115278928D02*
X139314819Y-115136071D01*
X139314819Y-115136071D02*
X139314819Y-115040833D01*
X139314819Y-115040833D02*
X139362438Y-114897976D01*
X139362438Y-114897976D02*
X139410057Y-114850357D01*
X139410057Y-114469404D02*
X139362438Y-114421785D01*
X139362438Y-114421785D02*
X139314819Y-114326547D01*
X139314819Y-114326547D02*
X139314819Y-114088452D01*
X139314819Y-114088452D02*
X139362438Y-113993214D01*
X139362438Y-113993214D02*
X139410057Y-113945595D01*
X139410057Y-113945595D02*
X139505295Y-113897976D01*
X139505295Y-113897976D02*
X139600533Y-113897976D01*
X139600533Y-113897976D02*
X139743390Y-113945595D01*
X139743390Y-113945595D02*
X140314819Y-114517023D01*
X140314819Y-114517023D02*
X140314819Y-113897976D01*
X140314819Y-112945595D02*
X140314819Y-113517023D01*
X140314819Y-113231309D02*
X139314819Y-113231309D01*
X139314819Y-113231309D02*
X139457676Y-113326547D01*
X139457676Y-113326547D02*
X139552914Y-113421785D01*
X139552914Y-113421785D02*
X139600533Y-113517023D01*
X146028580Y-114790457D02*
X146076200Y-114838076D01*
X146076200Y-114838076D02*
X146123819Y-114980933D01*
X146123819Y-114980933D02*
X146123819Y-115076171D01*
X146123819Y-115076171D02*
X146076200Y-115219028D01*
X146076200Y-115219028D02*
X145980961Y-115314266D01*
X145980961Y-115314266D02*
X145885723Y-115361885D01*
X145885723Y-115361885D02*
X145695247Y-115409504D01*
X145695247Y-115409504D02*
X145552390Y-115409504D01*
X145552390Y-115409504D02*
X145361914Y-115361885D01*
X145361914Y-115361885D02*
X145266676Y-115314266D01*
X145266676Y-115314266D02*
X145171438Y-115219028D01*
X145171438Y-115219028D02*
X145123819Y-115076171D01*
X145123819Y-115076171D02*
X145123819Y-114980933D01*
X145123819Y-114980933D02*
X145171438Y-114838076D01*
X145171438Y-114838076D02*
X145219057Y-114790457D01*
X145219057Y-114409504D02*
X145171438Y-114361885D01*
X145171438Y-114361885D02*
X145123819Y-114266647D01*
X145123819Y-114266647D02*
X145123819Y-114028552D01*
X145123819Y-114028552D02*
X145171438Y-113933314D01*
X145171438Y-113933314D02*
X145219057Y-113885695D01*
X145219057Y-113885695D02*
X145314295Y-113838076D01*
X145314295Y-113838076D02*
X145409533Y-113838076D01*
X145409533Y-113838076D02*
X145552390Y-113885695D01*
X145552390Y-113885695D02*
X146123819Y-114457123D01*
X146123819Y-114457123D02*
X146123819Y-113838076D01*
X145123819Y-113219028D02*
X145123819Y-113123790D01*
X145123819Y-113123790D02*
X145171438Y-113028552D01*
X145171438Y-113028552D02*
X145219057Y-112980933D01*
X145219057Y-112980933D02*
X145314295Y-112933314D01*
X145314295Y-112933314D02*
X145504771Y-112885695D01*
X145504771Y-112885695D02*
X145742866Y-112885695D01*
X145742866Y-112885695D02*
X145933342Y-112933314D01*
X145933342Y-112933314D02*
X146028580Y-112980933D01*
X146028580Y-112980933D02*
X146076200Y-113028552D01*
X146076200Y-113028552D02*
X146123819Y-113123790D01*
X146123819Y-113123790D02*
X146123819Y-113219028D01*
X146123819Y-113219028D02*
X146076200Y-113314266D01*
X146076200Y-113314266D02*
X146028580Y-113361885D01*
X146028580Y-113361885D02*
X145933342Y-113409504D01*
X145933342Y-113409504D02*
X145742866Y-113457123D01*
X145742866Y-113457123D02*
X145504771Y-113457123D01*
X145504771Y-113457123D02*
X145314295Y-113409504D01*
X145314295Y-113409504D02*
X145219057Y-113361885D01*
X145219057Y-113361885D02*
X145171438Y-113314266D01*
X145171438Y-113314266D02*
X145123819Y-113219028D01*
X142682933Y-77924819D02*
X142349600Y-77448628D01*
X142111505Y-77924819D02*
X142111505Y-76924819D01*
X142111505Y-76924819D02*
X142492457Y-76924819D01*
X142492457Y-76924819D02*
X142587695Y-76972438D01*
X142587695Y-76972438D02*
X142635314Y-77020057D01*
X142635314Y-77020057D02*
X142682933Y-77115295D01*
X142682933Y-77115295D02*
X142682933Y-77258152D01*
X142682933Y-77258152D02*
X142635314Y-77353390D01*
X142635314Y-77353390D02*
X142587695Y-77401009D01*
X142587695Y-77401009D02*
X142492457Y-77448628D01*
X142492457Y-77448628D02*
X142111505Y-77448628D01*
X143540076Y-77258152D02*
X143540076Y-77924819D01*
X143301981Y-76877200D02*
X143063886Y-77591485D01*
X143063886Y-77591485D02*
X143682933Y-77591485D01*
X147788333Y-77924819D02*
X147455000Y-77448628D01*
X147216905Y-77924819D02*
X147216905Y-76924819D01*
X147216905Y-76924819D02*
X147597857Y-76924819D01*
X147597857Y-76924819D02*
X147693095Y-76972438D01*
X147693095Y-76972438D02*
X147740714Y-77020057D01*
X147740714Y-77020057D02*
X147788333Y-77115295D01*
X147788333Y-77115295D02*
X147788333Y-77258152D01*
X147788333Y-77258152D02*
X147740714Y-77353390D01*
X147740714Y-77353390D02*
X147693095Y-77401009D01*
X147693095Y-77401009D02*
X147597857Y-77448628D01*
X147597857Y-77448628D02*
X147216905Y-77448628D01*
X148169286Y-77020057D02*
X148216905Y-76972438D01*
X148216905Y-76972438D02*
X148312143Y-76924819D01*
X148312143Y-76924819D02*
X148550238Y-76924819D01*
X148550238Y-76924819D02*
X148645476Y-76972438D01*
X148645476Y-76972438D02*
X148693095Y-77020057D01*
X148693095Y-77020057D02*
X148740714Y-77115295D01*
X148740714Y-77115295D02*
X148740714Y-77210533D01*
X148740714Y-77210533D02*
X148693095Y-77353390D01*
X148693095Y-77353390D02*
X148121667Y-77924819D01*
X148121667Y-77924819D02*
X148740714Y-77924819D01*
X166116095Y-89116819D02*
X166116095Y-89926342D01*
X166116095Y-89926342D02*
X166163714Y-90021580D01*
X166163714Y-90021580D02*
X166211333Y-90069200D01*
X166211333Y-90069200D02*
X166306571Y-90116819D01*
X166306571Y-90116819D02*
X166497047Y-90116819D01*
X166497047Y-90116819D02*
X166592285Y-90069200D01*
X166592285Y-90069200D02*
X166639904Y-90021580D01*
X166639904Y-90021580D02*
X166687523Y-89926342D01*
X166687523Y-89926342D02*
X166687523Y-89116819D01*
X167687523Y-90116819D02*
X167116095Y-90116819D01*
X167401809Y-90116819D02*
X167401809Y-89116819D01*
X167401809Y-89116819D02*
X167306571Y-89259676D01*
X167306571Y-89259676D02*
X167211333Y-89354914D01*
X167211333Y-89354914D02*
X167116095Y-89402533D01*
X168202200Y-90096619D02*
X168202200Y-90334714D01*
X167964105Y-90239476D02*
X168202200Y-90334714D01*
X168202200Y-90334714D02*
X168440295Y-90239476D01*
X168059343Y-90525190D02*
X168202200Y-90334714D01*
X168202200Y-90334714D02*
X168345057Y-90525190D01*
X171958333Y-84404580D02*
X171910714Y-84452200D01*
X171910714Y-84452200D02*
X171767857Y-84499819D01*
X171767857Y-84499819D02*
X171672619Y-84499819D01*
X171672619Y-84499819D02*
X171529762Y-84452200D01*
X171529762Y-84452200D02*
X171434524Y-84356961D01*
X171434524Y-84356961D02*
X171386905Y-84261723D01*
X171386905Y-84261723D02*
X171339286Y-84071247D01*
X171339286Y-84071247D02*
X171339286Y-83928390D01*
X171339286Y-83928390D02*
X171386905Y-83737914D01*
X171386905Y-83737914D02*
X171434524Y-83642676D01*
X171434524Y-83642676D02*
X171529762Y-83547438D01*
X171529762Y-83547438D02*
X171672619Y-83499819D01*
X171672619Y-83499819D02*
X171767857Y-83499819D01*
X171767857Y-83499819D02*
X171910714Y-83547438D01*
X171910714Y-83547438D02*
X171958333Y-83595057D01*
X172529762Y-83928390D02*
X172434524Y-83880771D01*
X172434524Y-83880771D02*
X172386905Y-83833152D01*
X172386905Y-83833152D02*
X172339286Y-83737914D01*
X172339286Y-83737914D02*
X172339286Y-83690295D01*
X172339286Y-83690295D02*
X172386905Y-83595057D01*
X172386905Y-83595057D02*
X172434524Y-83547438D01*
X172434524Y-83547438D02*
X172529762Y-83499819D01*
X172529762Y-83499819D02*
X172720238Y-83499819D01*
X172720238Y-83499819D02*
X172815476Y-83547438D01*
X172815476Y-83547438D02*
X172863095Y-83595057D01*
X172863095Y-83595057D02*
X172910714Y-83690295D01*
X172910714Y-83690295D02*
X172910714Y-83737914D01*
X172910714Y-83737914D02*
X172863095Y-83833152D01*
X172863095Y-83833152D02*
X172815476Y-83880771D01*
X172815476Y-83880771D02*
X172720238Y-83928390D01*
X172720238Y-83928390D02*
X172529762Y-83928390D01*
X172529762Y-83928390D02*
X172434524Y-83976009D01*
X172434524Y-83976009D02*
X172386905Y-84023628D01*
X172386905Y-84023628D02*
X172339286Y-84118866D01*
X172339286Y-84118866D02*
X172339286Y-84309342D01*
X172339286Y-84309342D02*
X172386905Y-84404580D01*
X172386905Y-84404580D02*
X172434524Y-84452200D01*
X172434524Y-84452200D02*
X172529762Y-84499819D01*
X172529762Y-84499819D02*
X172720238Y-84499819D01*
X172720238Y-84499819D02*
X172815476Y-84452200D01*
X172815476Y-84452200D02*
X172863095Y-84404580D01*
X172863095Y-84404580D02*
X172910714Y-84309342D01*
X172910714Y-84309342D02*
X172910714Y-84118866D01*
X172910714Y-84118866D02*
X172863095Y-84023628D01*
X172863095Y-84023628D02*
X172815476Y-83976009D01*
X172815476Y-83976009D02*
X172720238Y-83928390D01*
X140530342Y-116793180D02*
X140482723Y-116840800D01*
X140482723Y-116840800D02*
X140339866Y-116888419D01*
X140339866Y-116888419D02*
X140244628Y-116888419D01*
X140244628Y-116888419D02*
X140101771Y-116840800D01*
X140101771Y-116840800D02*
X140006533Y-116745561D01*
X140006533Y-116745561D02*
X139958914Y-116650323D01*
X139958914Y-116650323D02*
X139911295Y-116459847D01*
X139911295Y-116459847D02*
X139911295Y-116316990D01*
X139911295Y-116316990D02*
X139958914Y-116126514D01*
X139958914Y-116126514D02*
X140006533Y-116031276D01*
X140006533Y-116031276D02*
X140101771Y-115936038D01*
X140101771Y-115936038D02*
X140244628Y-115888419D01*
X140244628Y-115888419D02*
X140339866Y-115888419D01*
X140339866Y-115888419D02*
X140482723Y-115936038D01*
X140482723Y-115936038D02*
X140530342Y-115983657D01*
X141482723Y-116888419D02*
X140911295Y-116888419D01*
X141197009Y-116888419D02*
X141197009Y-115888419D01*
X141197009Y-115888419D02*
X141101771Y-116031276D01*
X141101771Y-116031276D02*
X141006533Y-116126514D01*
X141006533Y-116126514D02*
X140911295Y-116174133D01*
X142339866Y-115888419D02*
X142149390Y-115888419D01*
X142149390Y-115888419D02*
X142054152Y-115936038D01*
X142054152Y-115936038D02*
X142006533Y-115983657D01*
X142006533Y-115983657D02*
X141911295Y-116126514D01*
X141911295Y-116126514D02*
X141863676Y-116316990D01*
X141863676Y-116316990D02*
X141863676Y-116697942D01*
X141863676Y-116697942D02*
X141911295Y-116793180D01*
X141911295Y-116793180D02*
X141958914Y-116840800D01*
X141958914Y-116840800D02*
X142054152Y-116888419D01*
X142054152Y-116888419D02*
X142244628Y-116888419D01*
X142244628Y-116888419D02*
X142339866Y-116840800D01*
X142339866Y-116840800D02*
X142387485Y-116793180D01*
X142387485Y-116793180D02*
X142435104Y-116697942D01*
X142435104Y-116697942D02*
X142435104Y-116459847D01*
X142435104Y-116459847D02*
X142387485Y-116364609D01*
X142387485Y-116364609D02*
X142339866Y-116316990D01*
X142339866Y-116316990D02*
X142244628Y-116269371D01*
X142244628Y-116269371D02*
X142054152Y-116269371D01*
X142054152Y-116269371D02*
X141958914Y-116316990D01*
X141958914Y-116316990D02*
X141911295Y-116364609D01*
X141911295Y-116364609D02*
X141863676Y-116459847D01*
X157922933Y-77975619D02*
X157589600Y-77499428D01*
X157351505Y-77975619D02*
X157351505Y-76975619D01*
X157351505Y-76975619D02*
X157732457Y-76975619D01*
X157732457Y-76975619D02*
X157827695Y-77023238D01*
X157827695Y-77023238D02*
X157875314Y-77070857D01*
X157875314Y-77070857D02*
X157922933Y-77166095D01*
X157922933Y-77166095D02*
X157922933Y-77308952D01*
X157922933Y-77308952D02*
X157875314Y-77404190D01*
X157875314Y-77404190D02*
X157827695Y-77451809D01*
X157827695Y-77451809D02*
X157732457Y-77499428D01*
X157732457Y-77499428D02*
X157351505Y-77499428D01*
X158256267Y-76975619D02*
X158875314Y-76975619D01*
X158875314Y-76975619D02*
X158541981Y-77356571D01*
X158541981Y-77356571D02*
X158684838Y-77356571D01*
X158684838Y-77356571D02*
X158780076Y-77404190D01*
X158780076Y-77404190D02*
X158827695Y-77451809D01*
X158827695Y-77451809D02*
X158875314Y-77547047D01*
X158875314Y-77547047D02*
X158875314Y-77785142D01*
X158875314Y-77785142D02*
X158827695Y-77880380D01*
X158827695Y-77880380D02*
X158780076Y-77928000D01*
X158780076Y-77928000D02*
X158684838Y-77975619D01*
X158684838Y-77975619D02*
X158399124Y-77975619D01*
X158399124Y-77975619D02*
X158303886Y-77928000D01*
X158303886Y-77928000D02*
X158256267Y-77880380D01*
X180519819Y-101298333D02*
X181234104Y-101298333D01*
X181234104Y-101298333D02*
X181376961Y-101345952D01*
X181376961Y-101345952D02*
X181472200Y-101441190D01*
X181472200Y-101441190D02*
X181519819Y-101584047D01*
X181519819Y-101584047D02*
X181519819Y-101679285D01*
X180519819Y-100917380D02*
X180519819Y-100298333D01*
X180519819Y-100298333D02*
X180900771Y-100631666D01*
X180900771Y-100631666D02*
X180900771Y-100488809D01*
X180900771Y-100488809D02*
X180948390Y-100393571D01*
X180948390Y-100393571D02*
X180996009Y-100345952D01*
X180996009Y-100345952D02*
X181091247Y-100298333D01*
X181091247Y-100298333D02*
X181329342Y-100298333D01*
X181329342Y-100298333D02*
X181424580Y-100345952D01*
X181424580Y-100345952D02*
X181472200Y-100393571D01*
X181472200Y-100393571D02*
X181519819Y-100488809D01*
X181519819Y-100488809D02*
X181519819Y-100774523D01*
X181519819Y-100774523D02*
X181472200Y-100869761D01*
X181472200Y-100869761D02*
X181424580Y-100917380D01*
X177665142Y-99673580D02*
X177617523Y-99721200D01*
X177617523Y-99721200D02*
X177474666Y-99768819D01*
X177474666Y-99768819D02*
X177379428Y-99768819D01*
X177379428Y-99768819D02*
X177236571Y-99721200D01*
X177236571Y-99721200D02*
X177141333Y-99625961D01*
X177141333Y-99625961D02*
X177093714Y-99530723D01*
X177093714Y-99530723D02*
X177046095Y-99340247D01*
X177046095Y-99340247D02*
X177046095Y-99197390D01*
X177046095Y-99197390D02*
X177093714Y-99006914D01*
X177093714Y-99006914D02*
X177141333Y-98911676D01*
X177141333Y-98911676D02*
X177236571Y-98816438D01*
X177236571Y-98816438D02*
X177379428Y-98768819D01*
X177379428Y-98768819D02*
X177474666Y-98768819D01*
X177474666Y-98768819D02*
X177617523Y-98816438D01*
X177617523Y-98816438D02*
X177665142Y-98864057D01*
X178617523Y-99768819D02*
X178046095Y-99768819D01*
X178331809Y-99768819D02*
X178331809Y-98768819D01*
X178331809Y-98768819D02*
X178236571Y-98911676D01*
X178236571Y-98911676D02*
X178141333Y-99006914D01*
X178141333Y-99006914D02*
X178046095Y-99054533D01*
X178950857Y-98768819D02*
X179569904Y-98768819D01*
X179569904Y-98768819D02*
X179236571Y-99149771D01*
X179236571Y-99149771D02*
X179379428Y-99149771D01*
X179379428Y-99149771D02*
X179474666Y-99197390D01*
X179474666Y-99197390D02*
X179522285Y-99245009D01*
X179522285Y-99245009D02*
X179569904Y-99340247D01*
X179569904Y-99340247D02*
X179569904Y-99578342D01*
X179569904Y-99578342D02*
X179522285Y-99673580D01*
X179522285Y-99673580D02*
X179474666Y-99721200D01*
X179474666Y-99721200D02*
X179379428Y-99768819D01*
X179379428Y-99768819D02*
X179093714Y-99768819D01*
X179093714Y-99768819D02*
X178998476Y-99721200D01*
X178998476Y-99721200D02*
X178950857Y-99673580D01*
X164933333Y-116659819D02*
X164600000Y-116183628D01*
X164361905Y-116659819D02*
X164361905Y-115659819D01*
X164361905Y-115659819D02*
X164742857Y-115659819D01*
X164742857Y-115659819D02*
X164838095Y-115707438D01*
X164838095Y-115707438D02*
X164885714Y-115755057D01*
X164885714Y-115755057D02*
X164933333Y-115850295D01*
X164933333Y-115850295D02*
X164933333Y-115993152D01*
X164933333Y-115993152D02*
X164885714Y-116088390D01*
X164885714Y-116088390D02*
X164838095Y-116136009D01*
X164838095Y-116136009D02*
X164742857Y-116183628D01*
X164742857Y-116183628D02*
X164361905Y-116183628D01*
X165409524Y-116659819D02*
X165600000Y-116659819D01*
X165600000Y-116659819D02*
X165695238Y-116612200D01*
X165695238Y-116612200D02*
X165742857Y-116564580D01*
X165742857Y-116564580D02*
X165838095Y-116421723D01*
X165838095Y-116421723D02*
X165885714Y-116231247D01*
X165885714Y-116231247D02*
X165885714Y-115850295D01*
X165885714Y-115850295D02*
X165838095Y-115755057D01*
X165838095Y-115755057D02*
X165790476Y-115707438D01*
X165790476Y-115707438D02*
X165695238Y-115659819D01*
X165695238Y-115659819D02*
X165504762Y-115659819D01*
X165504762Y-115659819D02*
X165409524Y-115707438D01*
X165409524Y-115707438D02*
X165361905Y-115755057D01*
X165361905Y-115755057D02*
X165314286Y-115850295D01*
X165314286Y-115850295D02*
X165314286Y-116088390D01*
X165314286Y-116088390D02*
X165361905Y-116183628D01*
X165361905Y-116183628D02*
X165409524Y-116231247D01*
X165409524Y-116231247D02*
X165504762Y-116278866D01*
X165504762Y-116278866D02*
X165695238Y-116278866D01*
X165695238Y-116278866D02*
X165790476Y-116231247D01*
X165790476Y-116231247D02*
X165838095Y-116183628D01*
X165838095Y-116183628D02*
X165885714Y-116088390D01*
X181109580Y-95477666D02*
X181157200Y-95525285D01*
X181157200Y-95525285D02*
X181204819Y-95668142D01*
X181204819Y-95668142D02*
X181204819Y-95763380D01*
X181204819Y-95763380D02*
X181157200Y-95906237D01*
X181157200Y-95906237D02*
X181061961Y-96001475D01*
X181061961Y-96001475D02*
X180966723Y-96049094D01*
X180966723Y-96049094D02*
X180776247Y-96096713D01*
X180776247Y-96096713D02*
X180633390Y-96096713D01*
X180633390Y-96096713D02*
X180442914Y-96049094D01*
X180442914Y-96049094D02*
X180347676Y-96001475D01*
X180347676Y-96001475D02*
X180252438Y-95906237D01*
X180252438Y-95906237D02*
X180204819Y-95763380D01*
X180204819Y-95763380D02*
X180204819Y-95668142D01*
X180204819Y-95668142D02*
X180252438Y-95525285D01*
X180252438Y-95525285D02*
X180300057Y-95477666D01*
X180204819Y-95144332D02*
X180204819Y-94525285D01*
X180204819Y-94525285D02*
X180585771Y-94858618D01*
X180585771Y-94858618D02*
X180585771Y-94715761D01*
X180585771Y-94715761D02*
X180633390Y-94620523D01*
X180633390Y-94620523D02*
X180681009Y-94572904D01*
X180681009Y-94572904D02*
X180776247Y-94525285D01*
X180776247Y-94525285D02*
X181014342Y-94525285D01*
X181014342Y-94525285D02*
X181109580Y-94572904D01*
X181109580Y-94572904D02*
X181157200Y-94620523D01*
X181157200Y-94620523D02*
X181204819Y-94715761D01*
X181204819Y-94715761D02*
X181204819Y-95001475D01*
X181204819Y-95001475D02*
X181157200Y-95096713D01*
X181157200Y-95096713D02*
X181109580Y-95144332D01*
X163053733Y-77924819D02*
X162720400Y-77448628D01*
X162482305Y-77924819D02*
X162482305Y-76924819D01*
X162482305Y-76924819D02*
X162863257Y-76924819D01*
X162863257Y-76924819D02*
X162958495Y-76972438D01*
X162958495Y-76972438D02*
X163006114Y-77020057D01*
X163006114Y-77020057D02*
X163053733Y-77115295D01*
X163053733Y-77115295D02*
X163053733Y-77258152D01*
X163053733Y-77258152D02*
X163006114Y-77353390D01*
X163006114Y-77353390D02*
X162958495Y-77401009D01*
X162958495Y-77401009D02*
X162863257Y-77448628D01*
X162863257Y-77448628D02*
X162482305Y-77448628D01*
X163958495Y-76924819D02*
X163482305Y-76924819D01*
X163482305Y-76924819D02*
X163434686Y-77401009D01*
X163434686Y-77401009D02*
X163482305Y-77353390D01*
X163482305Y-77353390D02*
X163577543Y-77305771D01*
X163577543Y-77305771D02*
X163815638Y-77305771D01*
X163815638Y-77305771D02*
X163910876Y-77353390D01*
X163910876Y-77353390D02*
X163958495Y-77401009D01*
X163958495Y-77401009D02*
X164006114Y-77496247D01*
X164006114Y-77496247D02*
X164006114Y-77734342D01*
X164006114Y-77734342D02*
X163958495Y-77829580D01*
X163958495Y-77829580D02*
X163910876Y-77877200D01*
X163910876Y-77877200D02*
X163815638Y-77924819D01*
X163815638Y-77924819D02*
X163577543Y-77924819D01*
X163577543Y-77924819D02*
X163482305Y-77877200D01*
X163482305Y-77877200D02*
X163434686Y-77829580D01*
X144581666Y-98641819D02*
X144581666Y-99356104D01*
X144581666Y-99356104D02*
X144534047Y-99498961D01*
X144534047Y-99498961D02*
X144438809Y-99594200D01*
X144438809Y-99594200D02*
X144295952Y-99641819D01*
X144295952Y-99641819D02*
X144200714Y-99641819D01*
X145057857Y-99641819D02*
X145057857Y-98641819D01*
X145057857Y-98641819D02*
X145438809Y-98641819D01*
X145438809Y-98641819D02*
X145534047Y-98689438D01*
X145534047Y-98689438D02*
X145581666Y-98737057D01*
X145581666Y-98737057D02*
X145629285Y-98832295D01*
X145629285Y-98832295D02*
X145629285Y-98975152D01*
X145629285Y-98975152D02*
X145581666Y-99070390D01*
X145581666Y-99070390D02*
X145534047Y-99118009D01*
X145534047Y-99118009D02*
X145438809Y-99165628D01*
X145438809Y-99165628D02*
X145057857Y-99165628D01*
X146581666Y-99641819D02*
X146010238Y-99641819D01*
X146295952Y-99641819D02*
X146295952Y-98641819D01*
X146295952Y-98641819D02*
X146200714Y-98784676D01*
X146200714Y-98784676D02*
X146105476Y-98879914D01*
X146105476Y-98879914D02*
X146010238Y-98927533D01*
X175093333Y-100689580D02*
X175045714Y-100737200D01*
X175045714Y-100737200D02*
X174902857Y-100784819D01*
X174902857Y-100784819D02*
X174807619Y-100784819D01*
X174807619Y-100784819D02*
X174664762Y-100737200D01*
X174664762Y-100737200D02*
X174569524Y-100641961D01*
X174569524Y-100641961D02*
X174521905Y-100546723D01*
X174521905Y-100546723D02*
X174474286Y-100356247D01*
X174474286Y-100356247D02*
X174474286Y-100213390D01*
X174474286Y-100213390D02*
X174521905Y-100022914D01*
X174521905Y-100022914D02*
X174569524Y-99927676D01*
X174569524Y-99927676D02*
X174664762Y-99832438D01*
X174664762Y-99832438D02*
X174807619Y-99784819D01*
X174807619Y-99784819D02*
X174902857Y-99784819D01*
X174902857Y-99784819D02*
X175045714Y-99832438D01*
X175045714Y-99832438D02*
X175093333Y-99880057D01*
X175998095Y-99784819D02*
X175521905Y-99784819D01*
X175521905Y-99784819D02*
X175474286Y-100261009D01*
X175474286Y-100261009D02*
X175521905Y-100213390D01*
X175521905Y-100213390D02*
X175617143Y-100165771D01*
X175617143Y-100165771D02*
X175855238Y-100165771D01*
X175855238Y-100165771D02*
X175950476Y-100213390D01*
X175950476Y-100213390D02*
X175998095Y-100261009D01*
X175998095Y-100261009D02*
X176045714Y-100356247D01*
X176045714Y-100356247D02*
X176045714Y-100594342D01*
X176045714Y-100594342D02*
X175998095Y-100689580D01*
X175998095Y-100689580D02*
X175950476Y-100737200D01*
X175950476Y-100737200D02*
X175855238Y-100784819D01*
X175855238Y-100784819D02*
X175617143Y-100784819D01*
X175617143Y-100784819D02*
X175521905Y-100737200D01*
X175521905Y-100737200D02*
X175474286Y-100689580D01*
X145288095Y-106769819D02*
X145288095Y-107579342D01*
X145288095Y-107579342D02*
X145335714Y-107674580D01*
X145335714Y-107674580D02*
X145383333Y-107722200D01*
X145383333Y-107722200D02*
X145478571Y-107769819D01*
X145478571Y-107769819D02*
X145669047Y-107769819D01*
X145669047Y-107769819D02*
X145764285Y-107722200D01*
X145764285Y-107722200D02*
X145811904Y-107674580D01*
X145811904Y-107674580D02*
X145859523Y-107579342D01*
X145859523Y-107579342D02*
X145859523Y-106769819D01*
X146764285Y-107103152D02*
X146764285Y-107769819D01*
X146526190Y-106722200D02*
X146288095Y-107436485D01*
X146288095Y-107436485D02*
X146907142Y-107436485D01*
X144055180Y-107696000D02*
X143817085Y-107696000D01*
X143912323Y-107457905D02*
X143817085Y-107696000D01*
X143817085Y-107696000D02*
X143912323Y-107934095D01*
X143626609Y-107553143D02*
X143817085Y-107696000D01*
X143817085Y-107696000D02*
X143626609Y-107838857D01*
X140885942Y-85144780D02*
X140838323Y-85192400D01*
X140838323Y-85192400D02*
X140695466Y-85240019D01*
X140695466Y-85240019D02*
X140600228Y-85240019D01*
X140600228Y-85240019D02*
X140457371Y-85192400D01*
X140457371Y-85192400D02*
X140362133Y-85097161D01*
X140362133Y-85097161D02*
X140314514Y-85001923D01*
X140314514Y-85001923D02*
X140266895Y-84811447D01*
X140266895Y-84811447D02*
X140266895Y-84668590D01*
X140266895Y-84668590D02*
X140314514Y-84478114D01*
X140314514Y-84478114D02*
X140362133Y-84382876D01*
X140362133Y-84382876D02*
X140457371Y-84287638D01*
X140457371Y-84287638D02*
X140600228Y-84240019D01*
X140600228Y-84240019D02*
X140695466Y-84240019D01*
X140695466Y-84240019D02*
X140838323Y-84287638D01*
X140838323Y-84287638D02*
X140885942Y-84335257D01*
X141838323Y-85240019D02*
X141266895Y-85240019D01*
X141552609Y-85240019D02*
X141552609Y-84240019D01*
X141552609Y-84240019D02*
X141457371Y-84382876D01*
X141457371Y-84382876D02*
X141362133Y-84478114D01*
X141362133Y-84478114D02*
X141266895Y-84525733D01*
X142314514Y-85240019D02*
X142504990Y-85240019D01*
X142504990Y-85240019D02*
X142600228Y-85192400D01*
X142600228Y-85192400D02*
X142647847Y-85144780D01*
X142647847Y-85144780D02*
X142743085Y-85001923D01*
X142743085Y-85001923D02*
X142790704Y-84811447D01*
X142790704Y-84811447D02*
X142790704Y-84430495D01*
X142790704Y-84430495D02*
X142743085Y-84335257D01*
X142743085Y-84335257D02*
X142695466Y-84287638D01*
X142695466Y-84287638D02*
X142600228Y-84240019D01*
X142600228Y-84240019D02*
X142409752Y-84240019D01*
X142409752Y-84240019D02*
X142314514Y-84287638D01*
X142314514Y-84287638D02*
X142266895Y-84335257D01*
X142266895Y-84335257D02*
X142219276Y-84430495D01*
X142219276Y-84430495D02*
X142219276Y-84668590D01*
X142219276Y-84668590D02*
X142266895Y-84763828D01*
X142266895Y-84763828D02*
X142314514Y-84811447D01*
X142314514Y-84811447D02*
X142409752Y-84859066D01*
X142409752Y-84859066D02*
X142600228Y-84859066D01*
X142600228Y-84859066D02*
X142695466Y-84811447D01*
X142695466Y-84811447D02*
X142743085Y-84763828D01*
X142743085Y-84763828D02*
X142790704Y-84668590D01*
X136409580Y-114850357D02*
X136457200Y-114897976D01*
X136457200Y-114897976D02*
X136504819Y-115040833D01*
X136504819Y-115040833D02*
X136504819Y-115136071D01*
X136504819Y-115136071D02*
X136457200Y-115278928D01*
X136457200Y-115278928D02*
X136361961Y-115374166D01*
X136361961Y-115374166D02*
X136266723Y-115421785D01*
X136266723Y-115421785D02*
X136076247Y-115469404D01*
X136076247Y-115469404D02*
X135933390Y-115469404D01*
X135933390Y-115469404D02*
X135742914Y-115421785D01*
X135742914Y-115421785D02*
X135647676Y-115374166D01*
X135647676Y-115374166D02*
X135552438Y-115278928D01*
X135552438Y-115278928D02*
X135504819Y-115136071D01*
X135504819Y-115136071D02*
X135504819Y-115040833D01*
X135504819Y-115040833D02*
X135552438Y-114897976D01*
X135552438Y-114897976D02*
X135600057Y-114850357D01*
X136504819Y-113897976D02*
X136504819Y-114469404D01*
X136504819Y-114183690D02*
X135504819Y-114183690D01*
X135504819Y-114183690D02*
X135647676Y-114278928D01*
X135647676Y-114278928D02*
X135742914Y-114374166D01*
X135742914Y-114374166D02*
X135790533Y-114469404D01*
X135504819Y-113564642D02*
X135504819Y-112897976D01*
X135504819Y-112897976D02*
X136504819Y-113326547D01*
X174839333Y-85703580D02*
X174791714Y-85751200D01*
X174791714Y-85751200D02*
X174648857Y-85798819D01*
X174648857Y-85798819D02*
X174553619Y-85798819D01*
X174553619Y-85798819D02*
X174410762Y-85751200D01*
X174410762Y-85751200D02*
X174315524Y-85655961D01*
X174315524Y-85655961D02*
X174267905Y-85560723D01*
X174267905Y-85560723D02*
X174220286Y-85370247D01*
X174220286Y-85370247D02*
X174220286Y-85227390D01*
X174220286Y-85227390D02*
X174267905Y-85036914D01*
X174267905Y-85036914D02*
X174315524Y-84941676D01*
X174315524Y-84941676D02*
X174410762Y-84846438D01*
X174410762Y-84846438D02*
X174553619Y-84798819D01*
X174553619Y-84798819D02*
X174648857Y-84798819D01*
X174648857Y-84798819D02*
X174791714Y-84846438D01*
X174791714Y-84846438D02*
X174839333Y-84894057D01*
X175172667Y-84798819D02*
X175839333Y-84798819D01*
X175839333Y-84798819D02*
X175410762Y-85798819D01*
X151826933Y-116609019D02*
X151493600Y-116132828D01*
X151255505Y-116609019D02*
X151255505Y-115609019D01*
X151255505Y-115609019D02*
X151636457Y-115609019D01*
X151636457Y-115609019D02*
X151731695Y-115656638D01*
X151731695Y-115656638D02*
X151779314Y-115704257D01*
X151779314Y-115704257D02*
X151826933Y-115799495D01*
X151826933Y-115799495D02*
X151826933Y-115942352D01*
X151826933Y-115942352D02*
X151779314Y-116037590D01*
X151779314Y-116037590D02*
X151731695Y-116085209D01*
X151731695Y-116085209D02*
X151636457Y-116132828D01*
X151636457Y-116132828D02*
X151255505Y-116132828D01*
X152160267Y-115609019D02*
X152826933Y-115609019D01*
X152826933Y-115609019D02*
X152398362Y-116609019D01*
X176998333Y-93323580D02*
X176950714Y-93371200D01*
X176950714Y-93371200D02*
X176807857Y-93418819D01*
X176807857Y-93418819D02*
X176712619Y-93418819D01*
X176712619Y-93418819D02*
X176569762Y-93371200D01*
X176569762Y-93371200D02*
X176474524Y-93275961D01*
X176474524Y-93275961D02*
X176426905Y-93180723D01*
X176426905Y-93180723D02*
X176379286Y-92990247D01*
X176379286Y-92990247D02*
X176379286Y-92847390D01*
X176379286Y-92847390D02*
X176426905Y-92656914D01*
X176426905Y-92656914D02*
X176474524Y-92561676D01*
X176474524Y-92561676D02*
X176569762Y-92466438D01*
X176569762Y-92466438D02*
X176712619Y-92418819D01*
X176712619Y-92418819D02*
X176807857Y-92418819D01*
X176807857Y-92418819D02*
X176950714Y-92466438D01*
X176950714Y-92466438D02*
X176998333Y-92514057D01*
X177855476Y-92752152D02*
X177855476Y-93418819D01*
X177617381Y-92371200D02*
X177379286Y-93085485D01*
X177379286Y-93085485D02*
X177998333Y-93085485D01*
X177411142Y-86211580D02*
X177363523Y-86259200D01*
X177363523Y-86259200D02*
X177220666Y-86306819D01*
X177220666Y-86306819D02*
X177125428Y-86306819D01*
X177125428Y-86306819D02*
X176982571Y-86259200D01*
X176982571Y-86259200D02*
X176887333Y-86163961D01*
X176887333Y-86163961D02*
X176839714Y-86068723D01*
X176839714Y-86068723D02*
X176792095Y-85878247D01*
X176792095Y-85878247D02*
X176792095Y-85735390D01*
X176792095Y-85735390D02*
X176839714Y-85544914D01*
X176839714Y-85544914D02*
X176887333Y-85449676D01*
X176887333Y-85449676D02*
X176982571Y-85354438D01*
X176982571Y-85354438D02*
X177125428Y-85306819D01*
X177125428Y-85306819D02*
X177220666Y-85306819D01*
X177220666Y-85306819D02*
X177363523Y-85354438D01*
X177363523Y-85354438D02*
X177411142Y-85402057D01*
X178363523Y-86306819D02*
X177792095Y-86306819D01*
X178077809Y-86306819D02*
X178077809Y-85306819D01*
X178077809Y-85306819D02*
X177982571Y-85449676D01*
X177982571Y-85449676D02*
X177887333Y-85544914D01*
X177887333Y-85544914D02*
X177792095Y-85592533D01*
X179315904Y-86306819D02*
X178744476Y-86306819D01*
X179030190Y-86306819D02*
X179030190Y-85306819D01*
X179030190Y-85306819D02*
X178934952Y-85449676D01*
X178934952Y-85449676D02*
X178839714Y-85544914D01*
X178839714Y-85544914D02*
X178744476Y-85592533D01*
X139573095Y-106769819D02*
X139573095Y-107579342D01*
X139573095Y-107579342D02*
X139620714Y-107674580D01*
X139620714Y-107674580D02*
X139668333Y-107722200D01*
X139668333Y-107722200D02*
X139763571Y-107769819D01*
X139763571Y-107769819D02*
X139954047Y-107769819D01*
X139954047Y-107769819D02*
X140049285Y-107722200D01*
X140049285Y-107722200D02*
X140096904Y-107674580D01*
X140096904Y-107674580D02*
X140144523Y-107579342D01*
X140144523Y-107579342D02*
X140144523Y-106769819D01*
X140573095Y-106865057D02*
X140620714Y-106817438D01*
X140620714Y-106817438D02*
X140715952Y-106769819D01*
X140715952Y-106769819D02*
X140954047Y-106769819D01*
X140954047Y-106769819D02*
X141049285Y-106817438D01*
X141049285Y-106817438D02*
X141096904Y-106865057D01*
X141096904Y-106865057D02*
X141144523Y-106960295D01*
X141144523Y-106960295D02*
X141144523Y-107055533D01*
X141144523Y-107055533D02*
X141096904Y-107198390D01*
X141096904Y-107198390D02*
X140525476Y-107769819D01*
X140525476Y-107769819D02*
X141144523Y-107769819D01*
X137959180Y-108335949D02*
X137721085Y-108335949D01*
X137816323Y-108097854D02*
X137721085Y-108335949D01*
X137721085Y-108335949D02*
X137816323Y-108574044D01*
X137530609Y-108193092D02*
X137721085Y-108335949D01*
X137721085Y-108335949D02*
X137530609Y-108478806D01*
X156094133Y-116659819D02*
X155760800Y-116183628D01*
X155522705Y-116659819D02*
X155522705Y-115659819D01*
X155522705Y-115659819D02*
X155903657Y-115659819D01*
X155903657Y-115659819D02*
X155998895Y-115707438D01*
X155998895Y-115707438D02*
X156046514Y-115755057D01*
X156046514Y-115755057D02*
X156094133Y-115850295D01*
X156094133Y-115850295D02*
X156094133Y-115993152D01*
X156094133Y-115993152D02*
X156046514Y-116088390D01*
X156046514Y-116088390D02*
X155998895Y-116136009D01*
X155998895Y-116136009D02*
X155903657Y-116183628D01*
X155903657Y-116183628D02*
X155522705Y-116183628D01*
X156665562Y-116088390D02*
X156570324Y-116040771D01*
X156570324Y-116040771D02*
X156522705Y-115993152D01*
X156522705Y-115993152D02*
X156475086Y-115897914D01*
X156475086Y-115897914D02*
X156475086Y-115850295D01*
X156475086Y-115850295D02*
X156522705Y-115755057D01*
X156522705Y-115755057D02*
X156570324Y-115707438D01*
X156570324Y-115707438D02*
X156665562Y-115659819D01*
X156665562Y-115659819D02*
X156856038Y-115659819D01*
X156856038Y-115659819D02*
X156951276Y-115707438D01*
X156951276Y-115707438D02*
X156998895Y-115755057D01*
X156998895Y-115755057D02*
X157046514Y-115850295D01*
X157046514Y-115850295D02*
X157046514Y-115897914D01*
X157046514Y-115897914D02*
X156998895Y-115993152D01*
X156998895Y-115993152D02*
X156951276Y-116040771D01*
X156951276Y-116040771D02*
X156856038Y-116088390D01*
X156856038Y-116088390D02*
X156665562Y-116088390D01*
X156665562Y-116088390D02*
X156570324Y-116136009D01*
X156570324Y-116136009D02*
X156522705Y-116183628D01*
X156522705Y-116183628D02*
X156475086Y-116278866D01*
X156475086Y-116278866D02*
X156475086Y-116469342D01*
X156475086Y-116469342D02*
X156522705Y-116564580D01*
X156522705Y-116564580D02*
X156570324Y-116612200D01*
X156570324Y-116612200D02*
X156665562Y-116659819D01*
X156665562Y-116659819D02*
X156856038Y-116659819D01*
X156856038Y-116659819D02*
X156951276Y-116612200D01*
X156951276Y-116612200D02*
X156998895Y-116564580D01*
X156998895Y-116564580D02*
X157046514Y-116469342D01*
X157046514Y-116469342D02*
X157046514Y-116278866D01*
X157046514Y-116278866D02*
X156998895Y-116183628D01*
X156998895Y-116183628D02*
X156951276Y-116136009D01*
X156951276Y-116136009D02*
X156856038Y-116088390D01*
X132072142Y-77924819D02*
X131738809Y-77448628D01*
X131500714Y-77924819D02*
X131500714Y-76924819D01*
X131500714Y-76924819D02*
X131881666Y-76924819D01*
X131881666Y-76924819D02*
X131976904Y-76972438D01*
X131976904Y-76972438D02*
X132024523Y-77020057D01*
X132024523Y-77020057D02*
X132072142Y-77115295D01*
X132072142Y-77115295D02*
X132072142Y-77258152D01*
X132072142Y-77258152D02*
X132024523Y-77353390D01*
X132024523Y-77353390D02*
X131976904Y-77401009D01*
X131976904Y-77401009D02*
X131881666Y-77448628D01*
X131881666Y-77448628D02*
X131500714Y-77448628D01*
X133024523Y-77924819D02*
X132453095Y-77924819D01*
X132738809Y-77924819D02*
X132738809Y-76924819D01*
X132738809Y-76924819D02*
X132643571Y-77067676D01*
X132643571Y-77067676D02*
X132548333Y-77162914D01*
X132548333Y-77162914D02*
X132453095Y-77210533D01*
X133405476Y-77020057D02*
X133453095Y-76972438D01*
X133453095Y-76972438D02*
X133548333Y-76924819D01*
X133548333Y-76924819D02*
X133786428Y-76924819D01*
X133786428Y-76924819D02*
X133881666Y-76972438D01*
X133881666Y-76972438D02*
X133929285Y-77020057D01*
X133929285Y-77020057D02*
X133976904Y-77115295D01*
X133976904Y-77115295D02*
X133976904Y-77210533D01*
X133976904Y-77210533D02*
X133929285Y-77353390D01*
X133929285Y-77353390D02*
X133357857Y-77924819D01*
X133357857Y-77924819D02*
X133976904Y-77924819D01*
X137628333Y-77924819D02*
X137295000Y-77448628D01*
X137056905Y-77924819D02*
X137056905Y-76924819D01*
X137056905Y-76924819D02*
X137437857Y-76924819D01*
X137437857Y-76924819D02*
X137533095Y-76972438D01*
X137533095Y-76972438D02*
X137580714Y-77020057D01*
X137580714Y-77020057D02*
X137628333Y-77115295D01*
X137628333Y-77115295D02*
X137628333Y-77258152D01*
X137628333Y-77258152D02*
X137580714Y-77353390D01*
X137580714Y-77353390D02*
X137533095Y-77401009D01*
X137533095Y-77401009D02*
X137437857Y-77448628D01*
X137437857Y-77448628D02*
X137056905Y-77448628D01*
X138485476Y-76924819D02*
X138295000Y-76924819D01*
X138295000Y-76924819D02*
X138199762Y-76972438D01*
X138199762Y-76972438D02*
X138152143Y-77020057D01*
X138152143Y-77020057D02*
X138056905Y-77162914D01*
X138056905Y-77162914D02*
X138009286Y-77353390D01*
X138009286Y-77353390D02*
X138009286Y-77734342D01*
X138009286Y-77734342D02*
X138056905Y-77829580D01*
X138056905Y-77829580D02*
X138104524Y-77877200D01*
X138104524Y-77877200D02*
X138199762Y-77924819D01*
X138199762Y-77924819D02*
X138390238Y-77924819D01*
X138390238Y-77924819D02*
X138485476Y-77877200D01*
X138485476Y-77877200D02*
X138533095Y-77829580D01*
X138533095Y-77829580D02*
X138580714Y-77734342D01*
X138580714Y-77734342D02*
X138580714Y-77496247D01*
X138580714Y-77496247D02*
X138533095Y-77401009D01*
X138533095Y-77401009D02*
X138485476Y-77353390D01*
X138485476Y-77353390D02*
X138390238Y-77305771D01*
X138390238Y-77305771D02*
X138199762Y-77305771D01*
X138199762Y-77305771D02*
X138104524Y-77353390D01*
X138104524Y-77353390D02*
X138056905Y-77401009D01*
X138056905Y-77401009D02*
X138009286Y-77496247D01*
X133234580Y-114850357D02*
X133282200Y-114897976D01*
X133282200Y-114897976D02*
X133329819Y-115040833D01*
X133329819Y-115040833D02*
X133329819Y-115136071D01*
X133329819Y-115136071D02*
X133282200Y-115278928D01*
X133282200Y-115278928D02*
X133186961Y-115374166D01*
X133186961Y-115374166D02*
X133091723Y-115421785D01*
X133091723Y-115421785D02*
X132901247Y-115469404D01*
X132901247Y-115469404D02*
X132758390Y-115469404D01*
X132758390Y-115469404D02*
X132567914Y-115421785D01*
X132567914Y-115421785D02*
X132472676Y-115374166D01*
X132472676Y-115374166D02*
X132377438Y-115278928D01*
X132377438Y-115278928D02*
X132329819Y-115136071D01*
X132329819Y-115136071D02*
X132329819Y-115040833D01*
X132329819Y-115040833D02*
X132377438Y-114897976D01*
X132377438Y-114897976D02*
X132425057Y-114850357D01*
X132425057Y-114469404D02*
X132377438Y-114421785D01*
X132377438Y-114421785D02*
X132329819Y-114326547D01*
X132329819Y-114326547D02*
X132329819Y-114088452D01*
X132329819Y-114088452D02*
X132377438Y-113993214D01*
X132377438Y-113993214D02*
X132425057Y-113945595D01*
X132425057Y-113945595D02*
X132520295Y-113897976D01*
X132520295Y-113897976D02*
X132615533Y-113897976D01*
X132615533Y-113897976D02*
X132758390Y-113945595D01*
X132758390Y-113945595D02*
X133329819Y-114517023D01*
X133329819Y-114517023D02*
X133329819Y-113897976D01*
X132425057Y-113517023D02*
X132377438Y-113469404D01*
X132377438Y-113469404D02*
X132329819Y-113374166D01*
X132329819Y-113374166D02*
X132329819Y-113136071D01*
X132329819Y-113136071D02*
X132377438Y-113040833D01*
X132377438Y-113040833D02*
X132425057Y-112993214D01*
X132425057Y-112993214D02*
X132520295Y-112945595D01*
X132520295Y-112945595D02*
X132615533Y-112945595D01*
X132615533Y-112945595D02*
X132758390Y-112993214D01*
X132758390Y-112993214D02*
X133329819Y-113564642D01*
X133329819Y-113564642D02*
X133329819Y-112945595D01*
X127068342Y-77924819D02*
X126735009Y-77448628D01*
X126496914Y-77924819D02*
X126496914Y-76924819D01*
X126496914Y-76924819D02*
X126877866Y-76924819D01*
X126877866Y-76924819D02*
X126973104Y-76972438D01*
X126973104Y-76972438D02*
X127020723Y-77020057D01*
X127020723Y-77020057D02*
X127068342Y-77115295D01*
X127068342Y-77115295D02*
X127068342Y-77258152D01*
X127068342Y-77258152D02*
X127020723Y-77353390D01*
X127020723Y-77353390D02*
X126973104Y-77401009D01*
X126973104Y-77401009D02*
X126877866Y-77448628D01*
X126877866Y-77448628D02*
X126496914Y-77448628D01*
X128020723Y-77924819D02*
X127449295Y-77924819D01*
X127735009Y-77924819D02*
X127735009Y-76924819D01*
X127735009Y-76924819D02*
X127639771Y-77067676D01*
X127639771Y-77067676D02*
X127544533Y-77162914D01*
X127544533Y-77162914D02*
X127449295Y-77210533D01*
X128973104Y-77924819D02*
X128401676Y-77924819D01*
X128687390Y-77924819D02*
X128687390Y-76924819D01*
X128687390Y-76924819D02*
X128592152Y-77067676D01*
X128592152Y-77067676D02*
X128496914Y-77162914D01*
X128496914Y-77162914D02*
X128401676Y-77210533D01*
X180519819Y-85423333D02*
X181234104Y-85423333D01*
X181234104Y-85423333D02*
X181376961Y-85470952D01*
X181376961Y-85470952D02*
X181472200Y-85566190D01*
X181472200Y-85566190D02*
X181519819Y-85709047D01*
X181519819Y-85709047D02*
X181519819Y-85804285D01*
X180615057Y-84994761D02*
X180567438Y-84947142D01*
X180567438Y-84947142D02*
X180519819Y-84851904D01*
X180519819Y-84851904D02*
X180519819Y-84613809D01*
X180519819Y-84613809D02*
X180567438Y-84518571D01*
X180567438Y-84518571D02*
X180615057Y-84470952D01*
X180615057Y-84470952D02*
X180710295Y-84423333D01*
X180710295Y-84423333D02*
X180805533Y-84423333D01*
X180805533Y-84423333D02*
X180948390Y-84470952D01*
X180948390Y-84470952D02*
X181519819Y-85042380D01*
X181519819Y-85042380D02*
X181519819Y-84423333D01*
X148601133Y-85195580D02*
X148553514Y-85243200D01*
X148553514Y-85243200D02*
X148410657Y-85290819D01*
X148410657Y-85290819D02*
X148315419Y-85290819D01*
X148315419Y-85290819D02*
X148172562Y-85243200D01*
X148172562Y-85243200D02*
X148077324Y-85147961D01*
X148077324Y-85147961D02*
X148029705Y-85052723D01*
X148029705Y-85052723D02*
X147982086Y-84862247D01*
X147982086Y-84862247D02*
X147982086Y-84719390D01*
X147982086Y-84719390D02*
X148029705Y-84528914D01*
X148029705Y-84528914D02*
X148077324Y-84433676D01*
X148077324Y-84433676D02*
X148172562Y-84338438D01*
X148172562Y-84338438D02*
X148315419Y-84290819D01*
X148315419Y-84290819D02*
X148410657Y-84290819D01*
X148410657Y-84290819D02*
X148553514Y-84338438D01*
X148553514Y-84338438D02*
X148601133Y-84386057D01*
X148982086Y-84386057D02*
X149029705Y-84338438D01*
X149029705Y-84338438D02*
X149124943Y-84290819D01*
X149124943Y-84290819D02*
X149363038Y-84290819D01*
X149363038Y-84290819D02*
X149458276Y-84338438D01*
X149458276Y-84338438D02*
X149505895Y-84386057D01*
X149505895Y-84386057D02*
X149553514Y-84481295D01*
X149553514Y-84481295D02*
X149553514Y-84576533D01*
X149553514Y-84576533D02*
X149505895Y-84719390D01*
X149505895Y-84719390D02*
X148934467Y-85290819D01*
X148934467Y-85290819D02*
X149553514Y-85290819D01*
X132588095Y-106769819D02*
X132588095Y-107579342D01*
X132588095Y-107579342D02*
X132635714Y-107674580D01*
X132635714Y-107674580D02*
X132683333Y-107722200D01*
X132683333Y-107722200D02*
X132778571Y-107769819D01*
X132778571Y-107769819D02*
X132969047Y-107769819D01*
X132969047Y-107769819D02*
X133064285Y-107722200D01*
X133064285Y-107722200D02*
X133111904Y-107674580D01*
X133111904Y-107674580D02*
X133159523Y-107579342D01*
X133159523Y-107579342D02*
X133159523Y-106769819D01*
X133540476Y-106769819D02*
X134159523Y-106769819D01*
X134159523Y-106769819D02*
X133826190Y-107150771D01*
X133826190Y-107150771D02*
X133969047Y-107150771D01*
X133969047Y-107150771D02*
X134064285Y-107198390D01*
X134064285Y-107198390D02*
X134111904Y-107246009D01*
X134111904Y-107246009D02*
X134159523Y-107341247D01*
X134159523Y-107341247D02*
X134159523Y-107579342D01*
X134159523Y-107579342D02*
X134111904Y-107674580D01*
X134111904Y-107674580D02*
X134064285Y-107722200D01*
X134064285Y-107722200D02*
X133969047Y-107769819D01*
X133969047Y-107769819D02*
X133683333Y-107769819D01*
X133683333Y-107769819D02*
X133588095Y-107722200D01*
X133588095Y-107722200D02*
X133540476Y-107674580D01*
X129905369Y-108335948D02*
X130143464Y-108335948D01*
X130048226Y-108574043D02*
X130143464Y-108335948D01*
X130143464Y-108335948D02*
X130048226Y-108097853D01*
X130333940Y-108478805D02*
X130143464Y-108335948D01*
X130143464Y-108335948D02*
X130333940Y-108193091D01*
D13*
X168985580Y-88775000D02*
X168704420Y-88775000D01*
X168985580Y-87755000D02*
X168704420Y-87755000D01*
X169265580Y-98300000D02*
X168984420Y-98300000D01*
X169265580Y-97280000D02*
X168984420Y-97280000D01*
X154745000Y-72258748D02*
X154745000Y-75031252D01*
X151325000Y-72258748D02*
X151325000Y-75031252D01*
X172179348Y-100179200D02*
X172701852Y-100179200D01*
X172179348Y-101649200D02*
X172701852Y-101649200D01*
X147830000Y-114066920D02*
X147830000Y-114348080D01*
X146810000Y-114066920D02*
X146810000Y-114348080D01*
X162365000Y-110776248D02*
X162365000Y-113548752D01*
X158945000Y-110776248D02*
X158945000Y-113548752D01*
X176655000Y-90805580D02*
X176655000Y-90524420D01*
X177675000Y-90805580D02*
X177675000Y-90524420D01*
D14*
X147091400Y-78953600D02*
X143738600Y-78953600D01*
X143738600Y-82306400D02*
X147091400Y-82306400D01*
D13*
X178335000Y-90751252D02*
X178335000Y-90228748D01*
X179805000Y-90751252D02*
X179805000Y-90228748D01*
X138940000Y-114066920D02*
X138940000Y-114348080D01*
X137920000Y-114066920D02*
X137920000Y-114348080D01*
X143635000Y-114348080D02*
X143635000Y-114066920D01*
X144655000Y-114348080D02*
X144655000Y-114066920D01*
X141165000Y-75031252D02*
X141165000Y-72258748D01*
X144585000Y-75031252D02*
X144585000Y-72258748D01*
X149665000Y-72258748D02*
X149665000Y-75031252D01*
X146245000Y-72258748D02*
X146245000Y-75031252D01*
D14*
X169015000Y-89966800D02*
X169015000Y-90432059D01*
X169015000Y-95851541D02*
X169015000Y-96316800D01*
X169015000Y-96316800D02*
X169480259Y-96316800D01*
X169480259Y-89966800D02*
X169015000Y-89966800D01*
X174899741Y-96316800D02*
X175365000Y-96316800D01*
X175365000Y-89966800D02*
X174899741Y-89966800D01*
X175365000Y-90432059D02*
X175365000Y-89966800D01*
X175365000Y-96316800D02*
X175365000Y-95851541D01*
G36*
X168583200Y-95582301D02*
G01*
X168329200Y-95582301D01*
X168329200Y-95201301D01*
X168583200Y-95201301D01*
X168583200Y-95582301D01*
G37*
G36*
X170130499Y-89535000D02*
G01*
X169749499Y-89535000D01*
X169749499Y-89281000D01*
X170130499Y-89281000D01*
X170130499Y-89535000D01*
G37*
G36*
X174630501Y-97002600D02*
G01*
X174249501Y-97002600D01*
X174249501Y-96748600D01*
X174630501Y-96748600D01*
X174630501Y-97002600D01*
G37*
G36*
X176050800Y-91082299D02*
G01*
X175796800Y-91082299D01*
X175796800Y-90701299D01*
X176050800Y-90701299D01*
X176050800Y-91082299D01*
G37*
D13*
X171863748Y-84990000D02*
X172386252Y-84990000D01*
X171863748Y-86460000D02*
X172386252Y-86460000D01*
X142115000Y-114066920D02*
X142115000Y-114348080D01*
X141095000Y-114066920D02*
X141095000Y-114348080D01*
X159825000Y-72258748D02*
X159825000Y-75031252D01*
X156405000Y-72258748D02*
X156405000Y-75031252D01*
X191485000Y-106345000D02*
X192225000Y-106345000D01*
X192225000Y-106345000D02*
X192225000Y-105845000D01*
X182064000Y-106105000D02*
X191985000Y-106105000D01*
X182064000Y-106105000D02*
X182064000Y-95825000D01*
X185024000Y-106105000D02*
X185024000Y-95825000D01*
X189925000Y-106105000D02*
X189925000Y-95825000D01*
X191425000Y-106105000D02*
X191425000Y-95825000D01*
X191985000Y-106105000D02*
X191985000Y-95825000D01*
X188348000Y-99652000D02*
X188394000Y-99699000D01*
X188564000Y-99459000D02*
X188599000Y-99494000D01*
X186050000Y-97355000D02*
X186086000Y-97390000D01*
X186256000Y-97150000D02*
X186302000Y-97197000D01*
X182064000Y-95825000D02*
X191985000Y-95825000D01*
X186641001Y-105039999D02*
G75*
G03*
X188008042Y-105040426I684000J1534992D01*
G01*
X185790001Y-102821001D02*
G75*
G03*
X185789574Y-104188042I1534992J-684000D01*
G01*
X188859999Y-104189000D02*
G75*
G03*
X189005252Y-103476195I-1535000J683999D01*
G01*
X189004999Y-103505000D02*
G75*
G03*
X188859755Y-102821682I-1679999J0D01*
G01*
X188009000Y-101970000D02*
G75*
G03*
X186641958Y-101969574I-684000J-1535000D01*
G01*
X189005000Y-98425000D02*
G75*
G03*
X189005000Y-98425000I-1680000J0D01*
G01*
X175868420Y-97280000D02*
X176149580Y-97280000D01*
X175868420Y-98300000D02*
X176149580Y-98300000D01*
X166810000Y-110776248D02*
X166810000Y-113548752D01*
X163390000Y-110776248D02*
X163390000Y-113548752D01*
X179805000Y-95049748D02*
X179805000Y-95572252D01*
X178335000Y-95049748D02*
X178335000Y-95572252D01*
X164905000Y-72258748D02*
X164905000Y-75031252D01*
X161485000Y-72258748D02*
X161485000Y-75031252D01*
X146745000Y-97850000D02*
X145415000Y-97850000D01*
X146745000Y-96520000D02*
X146745000Y-97850000D01*
X146745000Y-95250000D02*
X146745000Y-90110000D01*
X146745000Y-95250000D02*
X144085000Y-95250000D01*
X146745000Y-90110000D02*
X144085000Y-90110000D01*
X144085000Y-95250000D02*
X144085000Y-90110000D01*
X172299420Y-97864200D02*
X172580580Y-97864200D01*
X172299420Y-98884200D02*
X172580580Y-98884200D01*
X144655000Y-84439420D02*
X144655000Y-84720580D01*
X143635000Y-84439420D02*
X143635000Y-84720580D01*
X135130000Y-114066920D02*
X135130000Y-114348080D01*
X134110000Y-114066920D02*
X134110000Y-114348080D01*
X172019420Y-87755000D02*
X172300580Y-87755000D01*
X172019420Y-88775000D02*
X172300580Y-88775000D01*
X153475000Y-110776248D02*
X153475000Y-113548752D01*
X150055000Y-110776248D02*
X150055000Y-113548752D01*
X177675000Y-94969420D02*
X177675000Y-95250580D01*
X176655000Y-94969420D02*
X176655000Y-95250580D01*
X175334420Y-87755000D02*
X175615580Y-87755000D01*
X175334420Y-88775000D02*
X175615580Y-88775000D01*
X157920000Y-110776248D02*
X157920000Y-113548752D01*
X154500000Y-110776248D02*
X154500000Y-113548752D01*
X131005000Y-75031252D02*
X131005000Y-72258748D01*
X134425000Y-75031252D02*
X134425000Y-72258748D01*
X136085000Y-75031252D02*
X136085000Y-72258748D01*
X139505000Y-75031252D02*
X139505000Y-72258748D01*
X131955000Y-114066920D02*
X131955000Y-114348080D01*
X130935000Y-114066920D02*
X130935000Y-114348080D01*
X126055000Y-75031252D02*
X126055000Y-72258748D01*
X129475000Y-75031252D02*
X129475000Y-72258748D01*
X191485000Y-90470000D02*
X192225000Y-90470000D01*
X192225000Y-90470000D02*
X192225000Y-89970000D01*
X182064000Y-90230000D02*
X191985000Y-90230000D01*
X182064000Y-90230000D02*
X182064000Y-79950000D01*
X185024000Y-90230000D02*
X185024000Y-79950000D01*
X189925000Y-90230000D02*
X189925000Y-79950000D01*
X191425000Y-90230000D02*
X191425000Y-79950000D01*
X191985000Y-90230000D02*
X191985000Y-79950000D01*
X188348000Y-83777000D02*
X188394000Y-83824000D01*
X188564000Y-83584000D02*
X188599000Y-83619000D01*
X186050000Y-81480000D02*
X186086000Y-81515000D01*
X186256000Y-81275000D02*
X186302000Y-81322000D01*
X182064000Y-79950000D02*
X191985000Y-79950000D01*
X186641001Y-89164999D02*
G75*
G03*
X188008042Y-89165426I684000J1534992D01*
G01*
X185790001Y-86946001D02*
G75*
G03*
X185789574Y-88313042I1534992J-684000D01*
G01*
X188859999Y-88314000D02*
G75*
G03*
X189005252Y-87601195I-1535000J683999D01*
G01*
X189004999Y-87630000D02*
G75*
G03*
X188859755Y-86946682I-1679999J0D01*
G01*
X188009000Y-86095000D02*
G75*
G03*
X186641958Y-86094574I-684000J-1535000D01*
G01*
X189005000Y-82550000D02*
G75*
G03*
X189005000Y-82550000I-1680000J0D01*
G01*
X147195000Y-84439420D02*
X147195000Y-84720580D01*
X146175000Y-84439420D02*
X146175000Y-84720580D01*
%LPC*%
D15*
X169620000Y-88265000D03*
X168070000Y-88265000D03*
X169900000Y-97790000D03*
X168350000Y-97790000D03*
D16*
X153035000Y-71507500D03*
X153035000Y-75782500D03*
D17*
X171490600Y-100914200D03*
X173390600Y-100914200D03*
D18*
X147320000Y-113432500D03*
X147320000Y-114982500D03*
D16*
X160655000Y-110025000D03*
X160655000Y-114300000D03*
D19*
X177165000Y-91440000D03*
X177165000Y-89890000D03*
D20*
X147612100Y-81604999D03*
X147612100Y-80955001D03*
X147612100Y-80304999D03*
X147612100Y-79655001D03*
X143217900Y-79655001D03*
X143217900Y-80304999D03*
X143217900Y-80955001D03*
X143217900Y-81604999D03*
D21*
X179070000Y-91440000D03*
X179070000Y-89540000D03*
D18*
X138430000Y-113432500D03*
X138430000Y-114982500D03*
D19*
X144145000Y-114982500D03*
X144145000Y-113432500D03*
D22*
X142875000Y-75782500D03*
X142875000Y-71507500D03*
D16*
X147955000Y-71507500D03*
X147955000Y-75782500D03*
D23*
X169218200Y-90891799D03*
X169218200Y-91391801D03*
X169218200Y-91891800D03*
X169218200Y-92391799D03*
X169218200Y-92891800D03*
X169218200Y-93391800D03*
X169218200Y-93891801D03*
X169218200Y-94391800D03*
X169218200Y-94891799D03*
X169218200Y-95391801D03*
D24*
X169939999Y-96113600D03*
X170440001Y-96113600D03*
X170940000Y-96113600D03*
X171439999Y-96113600D03*
X171940000Y-96113600D03*
X172440000Y-96113600D03*
X172940001Y-96113600D03*
X173440000Y-96113600D03*
X173939999Y-96113600D03*
X174440001Y-96113600D03*
D23*
X175161800Y-95391801D03*
X175161800Y-94891799D03*
X175161800Y-94391800D03*
X175161800Y-93891801D03*
X175161800Y-93391800D03*
X175161800Y-92891800D03*
X175161800Y-92391799D03*
X175161800Y-91891800D03*
X175161800Y-91391801D03*
X175161800Y-90891799D03*
D24*
X174440001Y-90170000D03*
X173939999Y-90170000D03*
X173440000Y-90170000D03*
X172940001Y-90170000D03*
X172440000Y-90170000D03*
X171940000Y-90170000D03*
X171439999Y-90170000D03*
X170940000Y-90170000D03*
X170440001Y-90170000D03*
X169939999Y-90170000D03*
D25*
X172190000Y-93141800D03*
D17*
X171175000Y-85725000D03*
X173075000Y-85725000D03*
D18*
X141605000Y-113432500D03*
X141605000Y-114982500D03*
D26*
X189865000Y-114300000D03*
D16*
X158115000Y-71507500D03*
X158115000Y-75782500D03*
D27*
X187325000Y-103505000D03*
D28*
X187325000Y-98425000D03*
D29*
X175234000Y-97790000D03*
X176784000Y-97790000D03*
D16*
X165100000Y-110025000D03*
X165100000Y-114300000D03*
D30*
X179070000Y-94361000D03*
X179070000Y-96261000D03*
D16*
X163195000Y-71507500D03*
X163195000Y-75782500D03*
D31*
X145415000Y-96520000D03*
D32*
X145415000Y-93980000D03*
X145415000Y-91440000D03*
D29*
X171665000Y-98374200D03*
X173215000Y-98374200D03*
D33*
X144452350Y-108997497D03*
X144452350Y-109947497D03*
X144452350Y-110897497D03*
X147152350Y-110897497D03*
X147152350Y-109947497D03*
X147152350Y-108997497D03*
D18*
X144145000Y-83805000D03*
X144145000Y-85355000D03*
X134620000Y-113432500D03*
X134620000Y-114982500D03*
D29*
X171385000Y-88265000D03*
X172935000Y-88265000D03*
D16*
X151765000Y-110025000D03*
X151765000Y-114300000D03*
D18*
X177165000Y-94335000D03*
X177165000Y-95885000D03*
D29*
X174700000Y-88265000D03*
X176250000Y-88265000D03*
D33*
X138902450Y-108992499D03*
X138902450Y-109942499D03*
X138902450Y-110892499D03*
X141602450Y-110892499D03*
X141602450Y-109942499D03*
X141602450Y-108992499D03*
D16*
X156210000Y-110025000D03*
X156210000Y-114300000D03*
D26*
X189865000Y-71120000D03*
D22*
X132715000Y-75782500D03*
X132715000Y-71507500D03*
X137795000Y-75782500D03*
X137795000Y-71507500D03*
D18*
X131445000Y-113432500D03*
X131445000Y-114982500D03*
D22*
X127765000Y-75782500D03*
X127765000Y-71507500D03*
D27*
X187325000Y-87630000D03*
D28*
X187325000Y-82550000D03*
D18*
X146685000Y-83805000D03*
X146685000Y-85355000D03*
D33*
X131752350Y-108992499D03*
X131752350Y-109942499D03*
X131752350Y-110892499D03*
X134452350Y-110892499D03*
X134452350Y-109942499D03*
X134452350Y-108992499D03*
D31*
X107315000Y-69850000D03*
D32*
X107315000Y-72390000D03*
X107315000Y-74930000D03*
X107315000Y-77470000D03*
X107315000Y-80010000D03*
X107315000Y-82550000D03*
X107315000Y-85090000D03*
X107315000Y-87630000D03*
X107315000Y-90170000D03*
X107315000Y-92710000D03*
X107315000Y-95250000D03*
X107315000Y-97790000D03*
X107315000Y-100330000D03*
X107315000Y-102870000D03*
X107315000Y-105410000D03*
X107315000Y-107950000D03*
X107315000Y-110490000D03*
X107315000Y-113030000D03*
X107315000Y-115570000D03*
%LPD*%
M02*
