M48
; DRILL file {KiCad 7.0.9} date Tue Mar  5 18:50:01 2024
; FORMAT={-:-/ absolute / metric / decimal}
; #@! TF.CreationDate,2024-03-05T18:50:01-08:00
; #@! TF.GenerationSoftware,Kicad,Pcbnew,7.0.9
; #@! TF.FileFunction,Plated,1,2,PTH
FMAT,2
METRIC
; #@! TA.AperFunction,Plated,PTH,ViaDrill
T1C0.300
; #@! TA.AperFunction,Plated,PTH,ComponentDrill
T2C1.000
; #@! TA.AperFunction,Plated,PTH,ComponentDrill
T3C1.300
%
G90
G05
T1
X109.22Y-88.265
X110.49Y-97.79
X110.744Y-86.639
X112.395Y-83.744
X113.03Y-92.075
X113.792Y-94.742
X114.681Y-90.475
X116.332Y-84.963
X116.383Y-94.971
X116.764Y-88.519
X118.034Y-91.923
X121.717Y-75.717
X123.292Y-77.394
X124.46Y-105.41
X124.46Y-109.855
X125.933Y-99.797
X126.187Y-90.602
X129.54Y-111.76
X130.048Y-73.406
X130.175Y-78.105
X130.556Y-109.474
X131.064Y-111.887
X131.445Y-99.06
X131.445Y-106.68
X132.715Y-73.812
X133.13Y-108.5
X133.604Y-80.035
X134.112Y-112.014
X135.255Y-104.14
X135.941Y-83.109
X136.525Y-99.06
X136.525Y-106.045
X136.525Y-109.855
X137.16Y-110.49
X137.795Y-111.76
X138.43Y-107.95
X138.582Y-78.511
X139.065Y-93.98
X139.7Y-106.68
X139.7Y-113.03
X140.208Y-109.982
X140.97Y-112.395
X142.441Y-112.596
X142.748Y-110.998
X143.129Y-109.982
X145.44Y-84.455
X145.796Y-109.982
X145.923Y-74.27
X146.075Y-81.077
X147.32Y-106.68
X147.32Y-112.395
X148.514Y-103.302
X148.59Y-107.315
X148.59Y-110.49
X149.225Y-111.76
X150.495Y-73.66
X150.495Y-98.425
X151.13Y-88.265
X152.095Y-111.912
X152.4Y-83.82
X152.4Y-108.585
X152.425Y-80.62
X154.94Y-86.36
X154.94Y-100.965
X158.115Y-73.645
X158.42Y-112.649
X160.02Y-81.28
X160.02Y-93.472
X161.925Y-103.505
X163.017Y-72.746
X163.576Y-91.694
X164.44Y-111.709
X165.125Y-81.636
X165.76Y-73.635
X166.37Y-107.315
X167.132Y-89.916
X167.132Y-96.774
X170.459Y-91.491
X170.51Y-92.964
X170.536Y-94.386
X170.688Y-84.455
X171.069Y-102.235
X171.67Y-84.47
X171.958Y-102.235
X172.009Y-92.964
X172.034Y-94.412
X172.085Y-91.516
X172.72Y-111.76
X173.584Y-92.964
X173.634Y-94.412
X173.66Y-91.542
X173.736Y-87.122
X174.117Y-99.568
X175.895Y-89.916
X177.673Y-96.901
X180.696Y-94.386
X180.848Y-89.535
X182.372Y-74.397
X182.372Y-94.234
X182.753Y-84.963
X184.785Y-68.58
X186.055Y-106.68
X188.595Y-100.965
X189.23Y-93.345
X189.865Y-85.09
X190.5Y-109.22
X191.77Y-91.44
T2
X107.315Y-69.85
X107.315Y-72.39
X107.315Y-74.93
X107.315Y-77.47
X107.315Y-80.01
X107.315Y-82.55
X107.315Y-85.09
X107.315Y-87.63
X107.315Y-90.17
X107.315Y-92.71
X107.315Y-95.25
X107.315Y-97.79
X107.315Y-100.33
X107.315Y-102.87
X107.315Y-105.41
X107.315Y-107.95
X107.315Y-110.49
X107.315Y-113.03
X107.315Y-115.57
X145.415Y-91.44
X145.415Y-93.98
X145.415Y-96.52
T3
X187.325Y-82.55
X187.325Y-87.63
X187.325Y-98.425
X187.325Y-103.505
T0
M30
