G04 #@! TF.GenerationSoftware,KiCad,Pcbnew,7.0.9*
G04 #@! TF.CreationDate,2024-03-05T18:49:30-08:00*
G04 #@! TF.ProjectId,SSM3582_v02,53534d33-3538-4325-9f76-30322e6b6963,rev?*
G04 #@! TF.SameCoordinates,Original*
G04 #@! TF.FileFunction,Copper,L2,Bot*
G04 #@! TF.FilePolarity,Positive*
%FSLAX46Y46*%
G04 Gerber Fmt 4.6, Leading zero omitted, Abs format (unit mm)*
G04 Created by KiCad (PCBNEW 7.0.9) date 2024-03-05 18:49:30*
%MOMM*%
%LPD*%
G01*
G04 APERTURE LIST*
G04 Aperture macros list*
%AMRoundRect*
0 Rectangle with rounded corners*
0 $1 Rounding radius*
0 $2 $3 $4 $5 $6 $7 $8 $9 X,Y pos of 4 corners*
0 Add a 4 corners polygon primitive as box body*
4,1,4,$2,$3,$4,$5,$6,$7,$8,$9,$2,$3,0*
0 Add four circle primitives for the rounded corners*
1,1,$1+$1,$2,$3*
1,1,$1+$1,$4,$5*
1,1,$1+$1,$6,$7*
1,1,$1+$1,$8,$9*
0 Add four rect primitives between the rounded corners*
20,1,$1+$1,$2,$3,$4,$5,0*
20,1,$1+$1,$4,$5,$6,$7,0*
20,1,$1+$1,$6,$7,$8,$9,0*
20,1,$1+$1,$8,$9,$2,$3,0*%
G04 Aperture macros list end*
G04 #@! TA.AperFunction,ComponentPad*
%ADD10R,2.600000X2.600000*%
G04 #@! TD*
G04 #@! TA.AperFunction,ComponentPad*
%ADD11C,2.600000*%
G04 #@! TD*
G04 #@! TA.AperFunction,ComponentPad*
%ADD12R,1.700000X1.700000*%
G04 #@! TD*
G04 #@! TA.AperFunction,ComponentPad*
%ADD13O,1.700000X1.700000*%
G04 #@! TD*
G04 #@! TA.AperFunction,SMDPad,CuDef*
%ADD14RoundRect,0.250000X-0.550000X1.500000X-0.550000X-1.500000X0.550000X-1.500000X0.550000X1.500000X0*%
G04 #@! TD*
G04 #@! TA.AperFunction,SMDPad,CuDef*
%ADD15RoundRect,0.250000X0.550000X-1.500000X0.550000X1.500000X-0.550000X1.500000X-0.550000X-1.500000X0*%
G04 #@! TD*
G04 #@! TA.AperFunction,ViaPad*
%ADD16C,0.600000*%
G04 #@! TD*
G04 #@! TA.AperFunction,Conductor*
%ADD17C,0.254000*%
G04 #@! TD*
G04 #@! TA.AperFunction,Conductor*
%ADD18C,1.016000*%
G04 #@! TD*
G04 APERTURE END LIST*
D10*
X187325000Y-103505000D03*
D11*
X187325000Y-98425000D03*
D12*
X145415000Y-96520000D03*
D13*
X145415000Y-93980000D03*
X145415000Y-91440000D03*
D10*
X187325000Y-87630000D03*
D11*
X187325000Y-82550000D03*
D14*
X169011600Y-84886800D03*
X169011600Y-90286800D03*
D12*
X107315000Y-69850000D03*
D13*
X107315000Y-72390000D03*
X107315000Y-74930000D03*
X107315000Y-77470000D03*
X107315000Y-80010000D03*
X107315000Y-82550000D03*
X107315000Y-85090000D03*
X107315000Y-87630000D03*
X107315000Y-90170000D03*
X107315000Y-92710000D03*
X107315000Y-95250000D03*
X107315000Y-97790000D03*
X107315000Y-100330000D03*
X107315000Y-102870000D03*
X107315000Y-105410000D03*
X107315000Y-107950000D03*
X107315000Y-110490000D03*
X107315000Y-113030000D03*
X107315000Y-115570000D03*
D15*
X169011600Y-102082600D03*
X169011600Y-96682600D03*
D16*
X191770000Y-91440000D03*
X143129000Y-109982000D03*
X163576000Y-91694000D03*
X130556000Y-109474000D03*
X170510200Y-92964000D03*
X160020000Y-81280000D03*
X158419800Y-112649000D03*
X173634400Y-94411800D03*
X160020000Y-93472000D03*
X188595000Y-100965000D03*
X126187200Y-90601800D03*
X180848000Y-89535000D03*
X110490000Y-97790000D03*
X184785000Y-68580000D03*
X130175000Y-78105000D03*
X182372000Y-94234000D03*
X125933200Y-99796600D03*
X161925000Y-103505000D03*
X135940800Y-83108800D03*
X173583600Y-92964000D03*
X137160000Y-110490000D03*
X139700000Y-113030000D03*
X172720000Y-111760000D03*
X190500000Y-109220000D03*
X116382800Y-94970600D03*
X130048000Y-73406000D03*
X150495000Y-73660000D03*
X173659800Y-91541600D03*
X136525000Y-99060000D03*
X140208000Y-109982000D03*
X166370000Y-107315000D03*
X173736000Y-87122000D03*
X135255000Y-104140000D03*
X152400000Y-83820000D03*
X131064000Y-111887000D03*
X172085000Y-91516200D03*
X165125400Y-81635600D03*
X151130000Y-88265000D03*
X170459400Y-91490800D03*
X177673000Y-96901000D03*
X172008800Y-92964000D03*
X175895000Y-89916000D03*
X118033800Y-91922600D03*
X158115000Y-73645000D03*
X139700000Y-106680000D03*
X116332000Y-84963000D03*
X149225000Y-111760000D03*
X124460000Y-105410000D03*
X182753000Y-84963000D03*
X189865000Y-85090000D03*
X182372000Y-74396600D03*
X138582400Y-78511400D03*
X167132000Y-89916000D03*
X167132000Y-96774000D03*
X145440400Y-84455000D03*
X170535600Y-94386400D03*
X121716800Y-75717400D03*
X124460000Y-109855000D03*
X113792000Y-94742000D03*
X189230000Y-93345000D03*
X154940000Y-86360000D03*
X139065000Y-93980000D03*
X172034200Y-94411800D03*
X165760400Y-73634600D03*
X150495000Y-98425000D03*
X174117000Y-99568000D03*
X154940000Y-100965000D03*
X123291600Y-77393800D03*
X186055000Y-106680000D03*
X145796000Y-109982000D03*
X136525000Y-109855000D03*
X136525000Y-106045000D03*
X142748000Y-110998000D03*
X148590000Y-107315000D03*
X152400000Y-108585000D03*
X148590000Y-110490000D03*
X171670000Y-84470000D03*
X171069000Y-102235000D03*
X170688000Y-84455000D03*
X171958000Y-102235000D03*
X180695600Y-94386400D03*
X152095200Y-111912400D03*
X142441250Y-112596250D03*
X133130000Y-108500000D03*
X148513800Y-103301800D03*
X134112000Y-112014000D03*
X146075400Y-81076800D03*
X147320000Y-112395000D03*
X145923000Y-74269600D03*
X147320000Y-106680000D03*
X164439600Y-111709200D03*
X131445000Y-99060000D03*
X131445000Y-106680000D03*
X132715000Y-73812400D03*
X133604000Y-80035400D03*
X163017200Y-72745600D03*
X152425400Y-80619600D03*
X138430000Y-107950000D03*
X116763800Y-88519000D03*
X112395000Y-83743800D03*
X140970000Y-112395000D03*
X114681000Y-90474800D03*
X110744000Y-86639400D03*
X113030000Y-92075000D03*
X129540000Y-111760000D03*
X137795000Y-111760000D03*
X109220000Y-88265000D03*
D17*
X133130000Y-111032000D02*
X134112000Y-112014000D01*
X133130000Y-108500000D02*
X133130000Y-111032000D01*
X136525000Y-109855000D02*
X136525000Y-106045000D01*
X143637000Y-110998000D02*
X147320000Y-107315000D01*
X147320000Y-107315000D02*
X148590000Y-107315000D01*
X142748000Y-110998000D02*
X143637000Y-110998000D01*
X148590000Y-110490000D02*
X150495000Y-108585000D01*
X150495000Y-108585000D02*
X152400000Y-108585000D01*
D18*
X118745000Y-96520000D02*
X107315000Y-107950000D01*
X180695600Y-95885000D02*
X171170600Y-105410000D01*
X154305000Y-105410000D02*
X145415000Y-96520000D01*
X145415000Y-96520000D02*
X118745000Y-96520000D01*
X171170600Y-105410000D02*
X154305000Y-105410000D01*
X180695600Y-94386400D02*
X180695600Y-95885000D01*
D17*
X145923000Y-74269600D02*
X146075400Y-74422000D01*
X142642500Y-112395000D02*
X147320000Y-112395000D01*
X147320000Y-104495600D02*
X148513800Y-103301800D01*
X152095200Y-111912400D02*
X164236400Y-111912400D01*
X164236400Y-111912400D02*
X164439600Y-111709200D01*
X142441250Y-112596250D02*
X142642500Y-112395000D01*
X147320000Y-106680000D02*
X147320000Y-104495600D01*
X146075400Y-74422000D02*
X146075400Y-81076800D01*
X131445000Y-106680000D02*
X131445000Y-99060000D01*
X132715000Y-73812400D02*
X132715000Y-79146400D01*
X132715000Y-79146400D02*
X133604000Y-80035400D01*
X152425400Y-80619600D02*
X155143200Y-80619600D01*
X155143200Y-80619600D02*
X163017200Y-72745600D01*
X138430000Y-109855000D02*
X138430000Y-107950000D01*
X140970000Y-112395000D02*
X138430000Y-109855000D01*
X112395000Y-83743800D02*
X112395000Y-84150200D01*
X112395000Y-84150200D02*
X116763800Y-88519000D01*
X110744000Y-86639400D02*
X114579400Y-90474800D01*
X114579400Y-90474800D02*
X114681000Y-90474800D01*
X136606000Y-112949000D02*
X130729000Y-112949000D01*
X109220000Y-88265000D02*
X113030000Y-92075000D01*
X130729000Y-112949000D02*
X129540000Y-111760000D01*
X137795000Y-111760000D02*
X136606000Y-112949000D01*
G04 #@! TA.AperFunction,Conductor*
G36*
X193356194Y-67628806D02*
G01*
X193374500Y-67673000D01*
X193374500Y-117747000D01*
X193356194Y-117791194D01*
X193312000Y-117809500D01*
X105138000Y-117809500D01*
X105093806Y-117791194D01*
X105075500Y-117747000D01*
X105075500Y-115820000D01*
X106242472Y-115820000D01*
X106284886Y-115969068D01*
X106375754Y-116151555D01*
X106375757Y-116151561D01*
X106498598Y-116314230D01*
X106498605Y-116314237D01*
X106649261Y-116451579D01*
X106649260Y-116451579D01*
X106822583Y-116558897D01*
X106822584Y-116558898D01*
X107012684Y-116632541D01*
X107065000Y-116642320D01*
X107065000Y-116005501D01*
X107172685Y-116054680D01*
X107279237Y-116070000D01*
X107350763Y-116070000D01*
X107457315Y-116054680D01*
X107565000Y-116005501D01*
X107565000Y-116642320D01*
X107617315Y-116632541D01*
X107807415Y-116558898D01*
X107807416Y-116558897D01*
X107980739Y-116451579D01*
X108131394Y-116314237D01*
X108131401Y-116314230D01*
X108254242Y-116151561D01*
X108254245Y-116151555D01*
X108345113Y-115969068D01*
X108387528Y-115820000D01*
X107748686Y-115820000D01*
X107774493Y-115779844D01*
X107815000Y-115641889D01*
X107815000Y-115498111D01*
X107774493Y-115360156D01*
X107748686Y-115320000D01*
X108387528Y-115320000D01*
X108387527Y-115319999D01*
X108345113Y-115170931D01*
X108254245Y-114988444D01*
X108254242Y-114988438D01*
X108131401Y-114825769D01*
X108131394Y-114825762D01*
X107980738Y-114688420D01*
X107980739Y-114688420D01*
X107807416Y-114581102D01*
X107807415Y-114581101D01*
X107617316Y-114507458D01*
X107565000Y-114497678D01*
X107565000Y-115134498D01*
X107457315Y-115085320D01*
X107350763Y-115070000D01*
X107279237Y-115070000D01*
X107172685Y-115085320D01*
X107065000Y-115134498D01*
X107065000Y-114497678D01*
X107012683Y-114507458D01*
X106822584Y-114581101D01*
X106822583Y-114581102D01*
X106649260Y-114688420D01*
X106498605Y-114825762D01*
X106498598Y-114825769D01*
X106375757Y-114988438D01*
X106375754Y-114988444D01*
X106284886Y-115170931D01*
X106242472Y-115319999D01*
X106242472Y-115320000D01*
X106881314Y-115320000D01*
X106855507Y-115360156D01*
X106815000Y-115498111D01*
X106815000Y-115641889D01*
X106855507Y-115779844D01*
X106881314Y-115820000D01*
X106242472Y-115820000D01*
X105075500Y-115820000D01*
X105075500Y-114300000D01*
X187929569Y-114300000D01*
X187944406Y-114507458D01*
X187949269Y-114575441D01*
X188003723Y-114825762D01*
X188007968Y-114845274D01*
X188007969Y-114845279D01*
X188104468Y-115104003D01*
X188104471Y-115104010D01*
X188236811Y-115346372D01*
X188236816Y-115346378D01*
X188402303Y-115567443D01*
X188597556Y-115762696D01*
X188597559Y-115762698D01*
X188597562Y-115762701D01*
X188818627Y-115928188D01*
X189050279Y-116054680D01*
X189060993Y-116060530D01*
X189060996Y-116060531D01*
X189319720Y-116157030D01*
X189319721Y-116157030D01*
X189319726Y-116157032D01*
X189589559Y-116215731D01*
X189796056Y-116230500D01*
X189796061Y-116230500D01*
X189933939Y-116230500D01*
X189933944Y-116230500D01*
X190140441Y-116215731D01*
X190410274Y-116157032D01*
X190669007Y-116060530D01*
X190911373Y-115928188D01*
X191132438Y-115762701D01*
X191327701Y-115567438D01*
X191493188Y-115346373D01*
X191625530Y-115104007D01*
X191722032Y-114845274D01*
X191780731Y-114575441D01*
X191800431Y-114300000D01*
X191780731Y-114024559D01*
X191722032Y-113754726D01*
X191625530Y-113495993D01*
X191493188Y-113253627D01*
X191327701Y-113032562D01*
X191327698Y-113032559D01*
X191327696Y-113032556D01*
X191132443Y-112837303D01*
X191131470Y-112836574D01*
X190911373Y-112671812D01*
X190911372Y-112671811D01*
X190669010Y-112539471D01*
X190669003Y-112539468D01*
X190410279Y-112442969D01*
X190410274Y-112442968D01*
X190140441Y-112384269D01*
X190140436Y-112384268D01*
X190140432Y-112384268D01*
X190037373Y-112376897D01*
X189933944Y-112369500D01*
X189796056Y-112369500D01*
X189702044Y-112376223D01*
X189589567Y-112384268D01*
X189589561Y-112384268D01*
X189589559Y-112384269D01*
X189540230Y-112395000D01*
X189319725Y-112442968D01*
X189319720Y-112442969D01*
X189060996Y-112539468D01*
X189060989Y-112539471D01*
X188818627Y-112671811D01*
X188818621Y-112671816D01*
X188597556Y-112837303D01*
X188402303Y-113032556D01*
X188236816Y-113253621D01*
X188236811Y-113253627D01*
X188104471Y-113495989D01*
X188104468Y-113495996D01*
X188007969Y-113754720D01*
X188007968Y-113754725D01*
X187978618Y-113889642D01*
X187950501Y-114018898D01*
X187949269Y-114024560D01*
X187949268Y-114024566D01*
X187929569Y-114300000D01*
X105075500Y-114300000D01*
X105075500Y-113280000D01*
X106242472Y-113280000D01*
X106284886Y-113429068D01*
X106375754Y-113611555D01*
X106375757Y-113611561D01*
X106498598Y-113774230D01*
X106498605Y-113774237D01*
X106649261Y-113911579D01*
X106649260Y-113911579D01*
X106822583Y-114018897D01*
X106822584Y-114018898D01*
X107012684Y-114092541D01*
X107065000Y-114102320D01*
X107065000Y-113465501D01*
X107172685Y-113514680D01*
X107279237Y-113530000D01*
X107350763Y-113530000D01*
X107457315Y-113514680D01*
X107565000Y-113465501D01*
X107565000Y-114102320D01*
X107617315Y-114092541D01*
X107807415Y-114018898D01*
X107807416Y-114018897D01*
X107980739Y-113911579D01*
X108131394Y-113774237D01*
X108131401Y-113774230D01*
X108254242Y-113611561D01*
X108254245Y-113611555D01*
X108345113Y-113429068D01*
X108387528Y-113280000D01*
X107748686Y-113280000D01*
X107774493Y-113239844D01*
X107815000Y-113101889D01*
X107815000Y-112958111D01*
X107774493Y-112820156D01*
X107748686Y-112780000D01*
X108387528Y-112780000D01*
X108387527Y-112779999D01*
X108345113Y-112630931D01*
X108254245Y-112448444D01*
X108254242Y-112448438D01*
X108131401Y-112285769D01*
X108131394Y-112285762D01*
X107980738Y-112148420D01*
X107980739Y-112148420D01*
X107807416Y-112041102D01*
X107807415Y-112041101D01*
X107617316Y-111967458D01*
X107565000Y-111957678D01*
X107565000Y-112594498D01*
X107457315Y-112545320D01*
X107350763Y-112530000D01*
X107279237Y-112530000D01*
X107172685Y-112545320D01*
X107065000Y-112594498D01*
X107065000Y-111957678D01*
X107012683Y-111967458D01*
X106822584Y-112041101D01*
X106822583Y-112041102D01*
X106649260Y-112148420D01*
X106498605Y-112285762D01*
X106498598Y-112285769D01*
X106375757Y-112448438D01*
X106375754Y-112448444D01*
X106284886Y-112630931D01*
X106242472Y-112779999D01*
X106242472Y-112780000D01*
X106881314Y-112780000D01*
X106855507Y-112820156D01*
X106815000Y-112958111D01*
X106815000Y-113101889D01*
X106855507Y-113239844D01*
X106881314Y-113280000D01*
X106242472Y-113280000D01*
X105075500Y-113280000D01*
X105075500Y-111760000D01*
X129054559Y-111760000D01*
X129074222Y-111896763D01*
X129074223Y-111896766D01*
X129131620Y-112022447D01*
X129131623Y-112022452D01*
X129222105Y-112126874D01*
X129319866Y-112189700D01*
X129338341Y-112201573D01*
X129433037Y-112229378D01*
X129470912Y-112240499D01*
X129470914Y-112240500D01*
X129470915Y-112240500D01*
X129609087Y-112240500D01*
X129613310Y-112239260D01*
X129660871Y-112244371D01*
X129675115Y-112255033D01*
X130526965Y-113106883D01*
X130534738Y-113116354D01*
X130545513Y-113132481D01*
X130545516Y-113132484D01*
X130565891Y-113146098D01*
X130565903Y-113146107D01*
X130566764Y-113146682D01*
X130566766Y-113146684D01*
X130629699Y-113188734D01*
X130679349Y-113198610D01*
X130728999Y-113208486D01*
X130729000Y-113208486D01*
X130748029Y-113204700D01*
X130760222Y-113203500D01*
X136574778Y-113203500D01*
X136586970Y-113204700D01*
X136606000Y-113208486D01*
X136606001Y-113208486D01*
X136639100Y-113201902D01*
X136705301Y-113188734D01*
X136768234Y-113146684D01*
X136768234Y-113146682D01*
X136772636Y-113143742D01*
X136772647Y-113143734D01*
X136779882Y-113138899D01*
X136789484Y-113132484D01*
X136800262Y-113116352D01*
X136808029Y-113106887D01*
X137659885Y-112255031D01*
X137704078Y-112236726D01*
X137721685Y-112239258D01*
X137725915Y-112240500D01*
X137725917Y-112240500D01*
X137864086Y-112240500D01*
X137864086Y-112240499D01*
X137996659Y-112201573D01*
X138042854Y-112171885D01*
X138112894Y-112126874D01*
X138112896Y-112126872D01*
X138203379Y-112022449D01*
X138260777Y-111896765D01*
X138280441Y-111760000D01*
X138260777Y-111623235D01*
X138203379Y-111497551D01*
X138203376Y-111497547D01*
X138112894Y-111393125D01*
X137996663Y-111318429D01*
X137996654Y-111318425D01*
X137864087Y-111279500D01*
X137864085Y-111279500D01*
X137725915Y-111279500D01*
X137725913Y-111279500D01*
X137593345Y-111318425D01*
X137593336Y-111318429D01*
X137477105Y-111393125D01*
X137386623Y-111497547D01*
X137386620Y-111497552D01*
X137329223Y-111623233D01*
X137329222Y-111623236D01*
X137309559Y-111760000D01*
X137320885Y-111838778D01*
X137309055Y-111885127D01*
X137303215Y-111891866D01*
X136518888Y-112676194D01*
X136474694Y-112694500D01*
X130860306Y-112694500D01*
X130816112Y-112676194D01*
X130031784Y-111891866D01*
X130013478Y-111847672D01*
X130014114Y-111838777D01*
X130025441Y-111760000D01*
X130005777Y-111623235D01*
X129948379Y-111497551D01*
X129948376Y-111497547D01*
X129857894Y-111393125D01*
X129741663Y-111318429D01*
X129741654Y-111318425D01*
X129609087Y-111279500D01*
X129609085Y-111279500D01*
X129470915Y-111279500D01*
X129470913Y-111279500D01*
X129338345Y-111318425D01*
X129338336Y-111318429D01*
X129222105Y-111393125D01*
X129131623Y-111497547D01*
X129131620Y-111497552D01*
X129074223Y-111623233D01*
X129074222Y-111623236D01*
X129054559Y-111760000D01*
X105075500Y-111760000D01*
X105075500Y-110490000D01*
X106332770Y-110490000D01*
X106351642Y-110681622D01*
X106368002Y-110735551D01*
X106407538Y-110865883D01*
X106407539Y-110865884D01*
X106498302Y-111035692D01*
X106498306Y-111035698D01*
X106620459Y-111184541D01*
X106769302Y-111306694D01*
X106769304Y-111306695D01*
X106769307Y-111306697D01*
X106813491Y-111330313D01*
X106939117Y-111397462D01*
X107123376Y-111453357D01*
X107315000Y-111472230D01*
X107506624Y-111453357D01*
X107690883Y-111397462D01*
X107860698Y-111306694D01*
X108009541Y-111184541D01*
X108131694Y-111035698D01*
X108222462Y-110865883D01*
X108278357Y-110681624D01*
X108297230Y-110490000D01*
X108278357Y-110298376D01*
X108222462Y-110114117D01*
X108131694Y-109944302D01*
X108009541Y-109795459D01*
X107860698Y-109673306D01*
X107860692Y-109673302D01*
X107753695Y-109616112D01*
X107690883Y-109582538D01*
X107573111Y-109546811D01*
X107506622Y-109526642D01*
X107315000Y-109507770D01*
X107123377Y-109526642D01*
X107005604Y-109562369D01*
X106939117Y-109582538D01*
X106939115Y-109582538D01*
X106939115Y-109582539D01*
X106769307Y-109673302D01*
X106769301Y-109673306D01*
X106620459Y-109795459D01*
X106498306Y-109944301D01*
X106498302Y-109944307D01*
X106438050Y-110057033D01*
X106407538Y-110114117D01*
X106404805Y-110123128D01*
X106351642Y-110298377D01*
X106332770Y-110489999D01*
X106332770Y-110490000D01*
X105075500Y-110490000D01*
X105075500Y-107950000D01*
X106332770Y-107950000D01*
X106351642Y-108141622D01*
X106371811Y-108208111D01*
X106407538Y-108325883D01*
X106417899Y-108345267D01*
X106498302Y-108495692D01*
X106498306Y-108495698D01*
X106620459Y-108644541D01*
X106769302Y-108766694D01*
X106769304Y-108766695D01*
X106769307Y-108766697D01*
X106813491Y-108790313D01*
X106939117Y-108857462D01*
X107123376Y-108913357D01*
X107315000Y-108932230D01*
X107506624Y-108913357D01*
X107690883Y-108857462D01*
X107860698Y-108766694D01*
X108009541Y-108644541D01*
X108128163Y-108500000D01*
X132644559Y-108500000D01*
X132664222Y-108636763D01*
X132664223Y-108636766D01*
X132721620Y-108762447D01*
X132721623Y-108762452D01*
X132788386Y-108839500D01*
X132812104Y-108866872D01*
X132846789Y-108889163D01*
X132874071Y-108928455D01*
X132875500Y-108941741D01*
X132875500Y-111000777D01*
X132874299Y-111012969D01*
X132870514Y-111031998D01*
X132870514Y-111032002D01*
X132874514Y-111052116D01*
X132874519Y-111052133D01*
X132883503Y-111097301D01*
X132890265Y-111131299D01*
X132890267Y-111131303D01*
X132933098Y-111195405D01*
X132933109Y-111195419D01*
X132946516Y-111215484D01*
X132946517Y-111215485D01*
X132962646Y-111226262D01*
X132972118Y-111234035D01*
X133620215Y-111882132D01*
X133638521Y-111926326D01*
X133637885Y-111935220D01*
X133626559Y-112013999D01*
X133646222Y-112150763D01*
X133646223Y-112150766D01*
X133703620Y-112276447D01*
X133703623Y-112276452D01*
X133794105Y-112380874D01*
X133899248Y-112448444D01*
X133910341Y-112455573D01*
X133923668Y-112459486D01*
X134042912Y-112494499D01*
X134042914Y-112494500D01*
X134042915Y-112494500D01*
X134181086Y-112494500D01*
X134181086Y-112494499D01*
X134313659Y-112455573D01*
X134357284Y-112427536D01*
X134429894Y-112380874D01*
X134453204Y-112353973D01*
X134520379Y-112276449D01*
X134577777Y-112150765D01*
X134597441Y-112014000D01*
X134577777Y-111877235D01*
X134520379Y-111751551D01*
X134483682Y-111709200D01*
X134429894Y-111647125D01*
X134313663Y-111572429D01*
X134313654Y-111572425D01*
X134181087Y-111533500D01*
X134181085Y-111533500D01*
X134042915Y-111533500D01*
X134042910Y-111533500D01*
X134038677Y-111534743D01*
X133991117Y-111529622D01*
X133976884Y-111518966D01*
X133402806Y-110944888D01*
X133384500Y-110900694D01*
X133384500Y-109855000D01*
X136039559Y-109855000D01*
X136059222Y-109991763D01*
X136059223Y-109991766D01*
X136116620Y-110117447D01*
X136116623Y-110117452D01*
X136207105Y-110221874D01*
X136323336Y-110296570D01*
X136323341Y-110296573D01*
X136329485Y-110298377D01*
X136455912Y-110335499D01*
X136455914Y-110335500D01*
X136455915Y-110335500D01*
X136594086Y-110335500D01*
X136594086Y-110335499D01*
X136726659Y-110296573D01*
X136770284Y-110268536D01*
X136842894Y-110221874D01*
X136928458Y-110123128D01*
X136933379Y-110117449D01*
X136990777Y-109991765D01*
X137010441Y-109855000D01*
X136990777Y-109718235D01*
X136933379Y-109592551D01*
X136876269Y-109526643D01*
X136842896Y-109488128D01*
X136842895Y-109488127D01*
X136808208Y-109465834D01*
X136780928Y-109426541D01*
X136779500Y-109413257D01*
X136779500Y-107950000D01*
X137944559Y-107950000D01*
X137964222Y-108086763D01*
X137964223Y-108086766D01*
X138021620Y-108212447D01*
X138021623Y-108212452D01*
X138105221Y-108308929D01*
X138112104Y-108316872D01*
X138146789Y-108339163D01*
X138174071Y-108378455D01*
X138175500Y-108391741D01*
X138175500Y-109823777D01*
X138174299Y-109835969D01*
X138170514Y-109854998D01*
X138170514Y-109855000D01*
X138190265Y-109954299D01*
X138190267Y-109954303D01*
X138233270Y-110018662D01*
X138233282Y-110018678D01*
X138246513Y-110038481D01*
X138246516Y-110038484D01*
X138262644Y-110049260D01*
X138272115Y-110057033D01*
X139380437Y-111165355D01*
X140478215Y-112263132D01*
X140496521Y-112307326D01*
X140495885Y-112316220D01*
X140484559Y-112394999D01*
X140504222Y-112531763D01*
X140504223Y-112531766D01*
X140561620Y-112657447D01*
X140561623Y-112657452D01*
X140652105Y-112761874D01*
X140768336Y-112836570D01*
X140768341Y-112836573D01*
X140843689Y-112858697D01*
X140900912Y-112875499D01*
X140900914Y-112875500D01*
X140900915Y-112875500D01*
X141039086Y-112875500D01*
X141039086Y-112875499D01*
X141171659Y-112836573D01*
X141215284Y-112808536D01*
X141287894Y-112761874D01*
X141312900Y-112733016D01*
X141378379Y-112657449D01*
X141406328Y-112596250D01*
X141955809Y-112596250D01*
X141975472Y-112733013D01*
X141975473Y-112733016D01*
X142032870Y-112858697D01*
X142032873Y-112858702D01*
X142123355Y-112963124D01*
X142239586Y-113037820D01*
X142239591Y-113037823D01*
X142372162Y-113076749D01*
X142372164Y-113076750D01*
X142372165Y-113076750D01*
X142510336Y-113076750D01*
X142510336Y-113076749D01*
X142642909Y-113037823D01*
X142686534Y-113009786D01*
X142759144Y-112963124D01*
X142763488Y-112958111D01*
X142849629Y-112858699D01*
X142907027Y-112733015D01*
X142911328Y-112703104D01*
X142935738Y-112661966D01*
X142973192Y-112649500D01*
X146876190Y-112649500D01*
X146920384Y-112667806D01*
X146923424Y-112671071D01*
X147002105Y-112761874D01*
X147118336Y-112836570D01*
X147118341Y-112836573D01*
X147193689Y-112858697D01*
X147250912Y-112875499D01*
X147250914Y-112875500D01*
X147250915Y-112875500D01*
X147389086Y-112875500D01*
X147389086Y-112875499D01*
X147521659Y-112836573D01*
X147565284Y-112808536D01*
X147637894Y-112761874D01*
X147662900Y-112733016D01*
X147728379Y-112657449D01*
X147785777Y-112531765D01*
X147805441Y-112395000D01*
X147785777Y-112258235D01*
X147728379Y-112132551D01*
X147723460Y-112126874D01*
X147637894Y-112028125D01*
X147521663Y-111953429D01*
X147521654Y-111953425D01*
X147389087Y-111914500D01*
X147389085Y-111914500D01*
X147250915Y-111914500D01*
X147250913Y-111914500D01*
X147118345Y-111953425D01*
X147118336Y-111953429D01*
X147002105Y-112028125D01*
X146923424Y-112118929D01*
X146880649Y-112140341D01*
X146876190Y-112140500D01*
X142673717Y-112140500D01*
X142661525Y-112139299D01*
X142642500Y-112135515D01*
X142642498Y-112135515D01*
X142619495Y-112140090D01*
X142619484Y-112140092D01*
X142618889Y-112140211D01*
X142589100Y-112138877D01*
X142510337Y-112115750D01*
X142510335Y-112115750D01*
X142372165Y-112115750D01*
X142372163Y-112115750D01*
X142239595Y-112154675D01*
X142239586Y-112154679D01*
X142123355Y-112229375D01*
X142032873Y-112333797D01*
X142032870Y-112333802D01*
X141975473Y-112459483D01*
X141975472Y-112459486D01*
X141955809Y-112596250D01*
X141406328Y-112596250D01*
X141435777Y-112531765D01*
X141455441Y-112395000D01*
X141435777Y-112258235D01*
X141378379Y-112132551D01*
X141373460Y-112126874D01*
X141287894Y-112028125D01*
X141171663Y-111953429D01*
X141171654Y-111953425D01*
X141039087Y-111914500D01*
X141039085Y-111914500D01*
X140900915Y-111914500D01*
X140900910Y-111914500D01*
X140896677Y-111915743D01*
X140865630Y-111912400D01*
X151609759Y-111912400D01*
X151629422Y-112049163D01*
X151629423Y-112049166D01*
X151686820Y-112174847D01*
X151686823Y-112174852D01*
X151777305Y-112279274D01*
X151862154Y-112333802D01*
X151893541Y-112353973D01*
X152026112Y-112392899D01*
X152026114Y-112392900D01*
X152026115Y-112392900D01*
X152164286Y-112392900D01*
X152164286Y-112392899D01*
X152296859Y-112353973D01*
X152355604Y-112316220D01*
X152413094Y-112279274D01*
X152415540Y-112276452D01*
X152447767Y-112239260D01*
X152491776Y-112188471D01*
X152534551Y-112167059D01*
X152539010Y-112166900D01*
X164205178Y-112166900D01*
X164217370Y-112168100D01*
X164236400Y-112171886D01*
X164265122Y-112166172D01*
X164294919Y-112167502D01*
X164343780Y-112181849D01*
X164370514Y-112189700D01*
X164370515Y-112189700D01*
X164508686Y-112189700D01*
X164508686Y-112189699D01*
X164641259Y-112150773D01*
X164695756Y-112115750D01*
X164757494Y-112076074D01*
X164780811Y-112049165D01*
X164847979Y-111971649D01*
X164905377Y-111845965D01*
X164925041Y-111709200D01*
X164905377Y-111572435D01*
X164847979Y-111446751D01*
X164847976Y-111446747D01*
X164757494Y-111342325D01*
X164641263Y-111267629D01*
X164641254Y-111267625D01*
X164508687Y-111228700D01*
X164508685Y-111228700D01*
X164370515Y-111228700D01*
X164370513Y-111228700D01*
X164237945Y-111267625D01*
X164237936Y-111267629D01*
X164121705Y-111342325D01*
X164031223Y-111446747D01*
X164031220Y-111446752D01*
X163973823Y-111572433D01*
X163973822Y-111572436D01*
X163969242Y-111604295D01*
X163944833Y-111645434D01*
X163907378Y-111657900D01*
X152539010Y-111657900D01*
X152494816Y-111639594D01*
X152491776Y-111636329D01*
X152413094Y-111545525D01*
X152296863Y-111470829D01*
X152296854Y-111470825D01*
X152164287Y-111431900D01*
X152164285Y-111431900D01*
X152026115Y-111431900D01*
X152026113Y-111431900D01*
X151893545Y-111470825D01*
X151893536Y-111470829D01*
X151777305Y-111545525D01*
X151686823Y-111649947D01*
X151686820Y-111649952D01*
X151629423Y-111775633D01*
X151629422Y-111775636D01*
X151609759Y-111912400D01*
X140865630Y-111912400D01*
X140849117Y-111910622D01*
X140834884Y-111899966D01*
X139932918Y-110998000D01*
X142262559Y-110998000D01*
X142282222Y-111134763D01*
X142282223Y-111134766D01*
X142339620Y-111260447D01*
X142339623Y-111260452D01*
X142430105Y-111364874D01*
X142546336Y-111439570D01*
X142546341Y-111439573D01*
X142678912Y-111478499D01*
X142678914Y-111478500D01*
X142678915Y-111478500D01*
X142817086Y-111478500D01*
X142817086Y-111478499D01*
X142949659Y-111439573D01*
X143021929Y-111393128D01*
X143065894Y-111364874D01*
X143144576Y-111274071D01*
X143187351Y-111252659D01*
X143191810Y-111252500D01*
X143605778Y-111252500D01*
X143617970Y-111253700D01*
X143637000Y-111257486D01*
X143637001Y-111257486D01*
X143670100Y-111250902D01*
X143736301Y-111237734D01*
X143799234Y-111195684D01*
X143799234Y-111195682D01*
X143803636Y-111192742D01*
X143803647Y-111192734D01*
X143810882Y-111187899D01*
X143820484Y-111181484D01*
X143831262Y-111165352D01*
X143839029Y-111155887D01*
X144504916Y-110490000D01*
X148104559Y-110490000D01*
X148124222Y-110626763D01*
X148124223Y-110626766D01*
X148181620Y-110752447D01*
X148181623Y-110752452D01*
X148272105Y-110856874D01*
X148388336Y-110931570D01*
X148388341Y-110931573D01*
X148520912Y-110970499D01*
X148520914Y-110970500D01*
X148520915Y-110970500D01*
X148659086Y-110970500D01*
X148659086Y-110970499D01*
X148791659Y-110931573D01*
X148839708Y-110900694D01*
X148907894Y-110856874D01*
X148998376Y-110752452D01*
X148998379Y-110752449D01*
X149055777Y-110626765D01*
X149075441Y-110490000D01*
X149064114Y-110411220D01*
X149075944Y-110364871D01*
X149081777Y-110358139D01*
X150582112Y-108857806D01*
X150626306Y-108839500D01*
X151956190Y-108839500D01*
X152000384Y-108857806D01*
X152003424Y-108861071D01*
X152082105Y-108951874D01*
X152198336Y-109026570D01*
X152198341Y-109026573D01*
X152330912Y-109065499D01*
X152330914Y-109065500D01*
X152330915Y-109065500D01*
X152469086Y-109065500D01*
X152469086Y-109065499D01*
X152601659Y-109026573D01*
X152645284Y-108998536D01*
X152717894Y-108951874D01*
X152717896Y-108951872D01*
X152808379Y-108847449D01*
X152865777Y-108721765D01*
X152885441Y-108585000D01*
X152865777Y-108448235D01*
X152808379Y-108322551D01*
X152808376Y-108322547D01*
X152717894Y-108218125D01*
X152601663Y-108143429D01*
X152601654Y-108143425D01*
X152469087Y-108104500D01*
X152469085Y-108104500D01*
X152330915Y-108104500D01*
X152330913Y-108104500D01*
X152198345Y-108143425D01*
X152198336Y-108143429D01*
X152082105Y-108218125D01*
X152003424Y-108308929D01*
X151960649Y-108330341D01*
X151956190Y-108330500D01*
X150526222Y-108330500D01*
X150514029Y-108329299D01*
X150495000Y-108325514D01*
X150494999Y-108325514D01*
X150395700Y-108345265D01*
X150395695Y-108345267D01*
X150332761Y-108387319D01*
X150311515Y-108401516D01*
X150300735Y-108417648D01*
X150292965Y-108427115D01*
X148725114Y-109994966D01*
X148680920Y-110013272D01*
X148663315Y-110010741D01*
X148659088Y-110009500D01*
X148659085Y-110009500D01*
X148520915Y-110009500D01*
X148520913Y-110009500D01*
X148388345Y-110048425D01*
X148388336Y-110048429D01*
X148272105Y-110123125D01*
X148181623Y-110227547D01*
X148181620Y-110227552D01*
X148124223Y-110353233D01*
X148124222Y-110353236D01*
X148104559Y-110490000D01*
X144504916Y-110490000D01*
X147407111Y-107587806D01*
X147451305Y-107569500D01*
X148146190Y-107569500D01*
X148190384Y-107587806D01*
X148193424Y-107591071D01*
X148272105Y-107681874D01*
X148388336Y-107756570D01*
X148388341Y-107756573D01*
X148394485Y-107758377D01*
X148520912Y-107795499D01*
X148520914Y-107795500D01*
X148520915Y-107795500D01*
X148659086Y-107795500D01*
X148659086Y-107795499D01*
X148791659Y-107756573D01*
X148835284Y-107728536D01*
X148907894Y-107681874D01*
X148986575Y-107591071D01*
X148998379Y-107577449D01*
X149055777Y-107451765D01*
X149075441Y-107315000D01*
X149055777Y-107178235D01*
X148998379Y-107052551D01*
X148993460Y-107046874D01*
X148907894Y-106948125D01*
X148791663Y-106873429D01*
X148791654Y-106873425D01*
X148659087Y-106834500D01*
X148659085Y-106834500D01*
X148520915Y-106834500D01*
X148520913Y-106834500D01*
X148388345Y-106873425D01*
X148388336Y-106873429D01*
X148272105Y-106948125D01*
X148193424Y-107038929D01*
X148150649Y-107060341D01*
X148146190Y-107060500D01*
X147762944Y-107060500D01*
X147718750Y-107042194D01*
X147700444Y-106998000D01*
X147715710Y-106957071D01*
X147728376Y-106942452D01*
X147728379Y-106942449D01*
X147785777Y-106816765D01*
X147805441Y-106680000D01*
X147785777Y-106543235D01*
X147728379Y-106417551D01*
X147723458Y-106411872D01*
X147637896Y-106313128D01*
X147637895Y-106313127D01*
X147603208Y-106290834D01*
X147575928Y-106251541D01*
X147574500Y-106238257D01*
X147574500Y-104626905D01*
X147592805Y-104582712D01*
X148378685Y-103796831D01*
X148422878Y-103778526D01*
X148440485Y-103781058D01*
X148444715Y-103782300D01*
X148444717Y-103782300D01*
X148582886Y-103782300D01*
X148582886Y-103782299D01*
X148715459Y-103743373D01*
X148803649Y-103686697D01*
X148831694Y-103668674D01*
X148921926Y-103564541D01*
X148922179Y-103564249D01*
X148979577Y-103438565D01*
X148999241Y-103301800D01*
X148979577Y-103165035D01*
X148922179Y-103039351D01*
X148922176Y-103039347D01*
X148831694Y-102934925D01*
X148715463Y-102860229D01*
X148715454Y-102860225D01*
X148582887Y-102821300D01*
X148582885Y-102821300D01*
X148444715Y-102821300D01*
X148444713Y-102821300D01*
X148312145Y-102860225D01*
X148312136Y-102860229D01*
X148195905Y-102934925D01*
X148105423Y-103039347D01*
X148105420Y-103039352D01*
X148048023Y-103165033D01*
X148048022Y-103165036D01*
X148028359Y-103301800D01*
X148039685Y-103380577D01*
X148027855Y-103426926D01*
X148022015Y-103433665D01*
X147162115Y-104293565D01*
X147152648Y-104301335D01*
X147136516Y-104312115D01*
X147122319Y-104333361D01*
X147080267Y-104396295D01*
X147080265Y-104396300D01*
X147060514Y-104495599D01*
X147064299Y-104514627D01*
X147065500Y-104526821D01*
X147065500Y-106238257D01*
X147047194Y-106282451D01*
X147036792Y-106290834D01*
X147002104Y-106313127D01*
X147002103Y-106313128D01*
X146911623Y-106417547D01*
X146911620Y-106417552D01*
X146854223Y-106543233D01*
X146854222Y-106543236D01*
X146834559Y-106680000D01*
X146854222Y-106816763D01*
X146854223Y-106816766D01*
X146911620Y-106942447D01*
X146911623Y-106942452D01*
X146998349Y-107042539D01*
X147002104Y-107046872D01*
X147074504Y-107093401D01*
X147101786Y-107132693D01*
X147093293Y-107179769D01*
X147084908Y-107190173D01*
X143549888Y-110725194D01*
X143505694Y-110743500D01*
X143191810Y-110743500D01*
X143147616Y-110725194D01*
X143144576Y-110721929D01*
X143065894Y-110631125D01*
X142949663Y-110556429D01*
X142949654Y-110556425D01*
X142817087Y-110517500D01*
X142817085Y-110517500D01*
X142678915Y-110517500D01*
X142678913Y-110517500D01*
X142546345Y-110556425D01*
X142546336Y-110556429D01*
X142430105Y-110631125D01*
X142339623Y-110735547D01*
X142339620Y-110735552D01*
X142282223Y-110861233D01*
X142282222Y-110861236D01*
X142262559Y-110998000D01*
X139932918Y-110998000D01*
X138702806Y-109767888D01*
X138684500Y-109723694D01*
X138684500Y-108391741D01*
X138702806Y-108347547D01*
X138713207Y-108339165D01*
X138747896Y-108316872D01*
X138838379Y-108212449D01*
X138895777Y-108086765D01*
X138915441Y-107950000D01*
X138895777Y-107813235D01*
X138838379Y-107687551D01*
X138833460Y-107681874D01*
X138747894Y-107583125D01*
X138631663Y-107508429D01*
X138631654Y-107508425D01*
X138499087Y-107469500D01*
X138499085Y-107469500D01*
X138360915Y-107469500D01*
X138360913Y-107469500D01*
X138228345Y-107508425D01*
X138228336Y-107508429D01*
X138112105Y-107583125D01*
X138021623Y-107687547D01*
X138021620Y-107687552D01*
X137964223Y-107813233D01*
X137964222Y-107813236D01*
X137944559Y-107950000D01*
X136779500Y-107950000D01*
X136779500Y-106486741D01*
X136797806Y-106442547D01*
X136808207Y-106434165D01*
X136842896Y-106411872D01*
X136933379Y-106307449D01*
X136990777Y-106181765D01*
X137010441Y-106045000D01*
X136990777Y-105908235D01*
X136933379Y-105782551D01*
X136933376Y-105782547D01*
X136842894Y-105678125D01*
X136726663Y-105603429D01*
X136726654Y-105603425D01*
X136594087Y-105564500D01*
X136594085Y-105564500D01*
X136455915Y-105564500D01*
X136455913Y-105564500D01*
X136323345Y-105603425D01*
X136323336Y-105603429D01*
X136207105Y-105678125D01*
X136116623Y-105782547D01*
X136116620Y-105782552D01*
X136059223Y-105908233D01*
X136059222Y-105908236D01*
X136039559Y-106045000D01*
X136059222Y-106181763D01*
X136059223Y-106181766D01*
X136116620Y-106307447D01*
X136116623Y-106307452D01*
X136190084Y-106392230D01*
X136207104Y-106411872D01*
X136241789Y-106434163D01*
X136269071Y-106473455D01*
X136270500Y-106486741D01*
X136270500Y-109413257D01*
X136252194Y-109457451D01*
X136241792Y-109465834D01*
X136207104Y-109488127D01*
X136207103Y-109488128D01*
X136116623Y-109592547D01*
X136116620Y-109592552D01*
X136059223Y-109718233D01*
X136059222Y-109718236D01*
X136039559Y-109855000D01*
X133384500Y-109855000D01*
X133384500Y-108941741D01*
X133402806Y-108897547D01*
X133413207Y-108889165D01*
X133447896Y-108866872D01*
X133538379Y-108762449D01*
X133595777Y-108636765D01*
X133615441Y-108500000D01*
X133595777Y-108363235D01*
X133538379Y-108237551D01*
X133521549Y-108218128D01*
X133447894Y-108133125D01*
X133331663Y-108058429D01*
X133331654Y-108058425D01*
X133199087Y-108019500D01*
X133199085Y-108019500D01*
X133060915Y-108019500D01*
X133060913Y-108019500D01*
X132928345Y-108058425D01*
X132928336Y-108058429D01*
X132812105Y-108133125D01*
X132721623Y-108237547D01*
X132721620Y-108237552D01*
X132664223Y-108363233D01*
X132664222Y-108363236D01*
X132644559Y-108500000D01*
X108128163Y-108500000D01*
X108131694Y-108495698D01*
X108222462Y-108325883D01*
X108278357Y-108141624D01*
X108297230Y-107950000D01*
X108292640Y-107903404D01*
X108306525Y-107857630D01*
X108310635Y-107853095D01*
X109483730Y-106680000D01*
X130959559Y-106680000D01*
X130979222Y-106816763D01*
X130979223Y-106816766D01*
X131036620Y-106942447D01*
X131036623Y-106942452D01*
X131127105Y-107046874D01*
X131243336Y-107121570D01*
X131243341Y-107121573D01*
X131349572Y-107152765D01*
X131375912Y-107160499D01*
X131375914Y-107160500D01*
X131375915Y-107160500D01*
X131514086Y-107160500D01*
X131514086Y-107160499D01*
X131646659Y-107121573D01*
X131690497Y-107093400D01*
X131762894Y-107046874D01*
X131762897Y-107046871D01*
X131853379Y-106942449D01*
X131910777Y-106816765D01*
X131930441Y-106680000D01*
X131910777Y-106543235D01*
X131853379Y-106417551D01*
X131848458Y-106411872D01*
X131762896Y-106313128D01*
X131762895Y-106313127D01*
X131728208Y-106290834D01*
X131700928Y-106251541D01*
X131699500Y-106238257D01*
X131699500Y-99501741D01*
X131717806Y-99457547D01*
X131728207Y-99449165D01*
X131762896Y-99426872D01*
X131853379Y-99322449D01*
X131910777Y-99196765D01*
X131930441Y-99060000D01*
X131910777Y-98923235D01*
X131853379Y-98797551D01*
X131853376Y-98797547D01*
X131762894Y-98693125D01*
X131646663Y-98618429D01*
X131646654Y-98618425D01*
X131514087Y-98579500D01*
X131514085Y-98579500D01*
X131375915Y-98579500D01*
X131375913Y-98579500D01*
X131243345Y-98618425D01*
X131243336Y-98618429D01*
X131127105Y-98693125D01*
X131036623Y-98797547D01*
X131036620Y-98797552D01*
X130979223Y-98923233D01*
X130979222Y-98923236D01*
X130959559Y-99060000D01*
X130979222Y-99196763D01*
X130979223Y-99196766D01*
X131036620Y-99322447D01*
X131036623Y-99322452D01*
X131123349Y-99422539D01*
X131127104Y-99426872D01*
X131161789Y-99449163D01*
X131189071Y-99488455D01*
X131190500Y-99501741D01*
X131190500Y-106238257D01*
X131172194Y-106282451D01*
X131161792Y-106290834D01*
X131127104Y-106313127D01*
X131127103Y-106313128D01*
X131036623Y-106417547D01*
X131036620Y-106417552D01*
X130979223Y-106543233D01*
X130979222Y-106543236D01*
X130959559Y-106680000D01*
X109483730Y-106680000D01*
X118989927Y-97173806D01*
X119034121Y-97155500D01*
X144375000Y-97155500D01*
X144419194Y-97173806D01*
X144437500Y-97218000D01*
X144437500Y-97382557D01*
X144444898Y-97419748D01*
X144444898Y-97419749D01*
X144473077Y-97461922D01*
X144501257Y-97480750D01*
X144515252Y-97490102D01*
X144552442Y-97497500D01*
X145467880Y-97497500D01*
X145512074Y-97515806D01*
X153801142Y-105804875D01*
X153809717Y-105815578D01*
X153811442Y-105818297D01*
X153811445Y-105818300D01*
X153811447Y-105818303D01*
X153862693Y-105866426D01*
X153883906Y-105887639D01*
X153890654Y-105892873D01*
X153892889Y-105894782D01*
X153928496Y-105928219D01*
X153928497Y-105928220D01*
X153950706Y-105940429D01*
X153958903Y-105945813D01*
X153978934Y-105961350D01*
X154023772Y-105980752D01*
X154026395Y-105982039D01*
X154069197Y-106005569D01*
X154093757Y-106011874D01*
X154103019Y-106015045D01*
X154126293Y-106025117D01*
X154174542Y-106032758D01*
X154177386Y-106033346D01*
X154224718Y-106045500D01*
X154250069Y-106045500D01*
X154259844Y-106046269D01*
X154284880Y-106050235D01*
X154315485Y-106047341D01*
X154333506Y-106045639D01*
X154336448Y-106045500D01*
X171093539Y-106045500D01*
X171107173Y-106047004D01*
X171110319Y-106047708D01*
X171110319Y-106047707D01*
X171110320Y-106047708D01*
X171180585Y-106045500D01*
X171210578Y-106045500D01*
X171210583Y-106045500D01*
X171219070Y-106044427D01*
X171221977Y-106044199D01*
X171270805Y-106042665D01*
X171295150Y-106035591D01*
X171304751Y-106033603D01*
X171329899Y-106030427D01*
X171329902Y-106030426D01*
X171329903Y-106030426D01*
X171351603Y-106021833D01*
X171375320Y-106012442D01*
X171378069Y-106011501D01*
X171424993Y-105997869D01*
X171446817Y-105984961D01*
X171455617Y-105980650D01*
X171479188Y-105971319D01*
X171518707Y-105942605D01*
X171521141Y-105941005D01*
X171563198Y-105916134D01*
X171581121Y-105898209D01*
X171588576Y-105891843D01*
X171609087Y-105876942D01*
X171609089Y-105876938D01*
X171609092Y-105876937D01*
X171624315Y-105858533D01*
X171640231Y-105839293D01*
X171642194Y-105837136D01*
X172661773Y-104817557D01*
X185897500Y-104817557D01*
X185904898Y-104854748D01*
X185904898Y-104854749D01*
X185933077Y-104896922D01*
X185961257Y-104915750D01*
X185975252Y-104925102D01*
X186012442Y-104932500D01*
X186012443Y-104932500D01*
X188637557Y-104932500D01*
X188637558Y-104932500D01*
X188674748Y-104925102D01*
X188716922Y-104896922D01*
X188745102Y-104854748D01*
X188752500Y-104817558D01*
X188752500Y-102192442D01*
X188745102Y-102155252D01*
X188745101Y-102155250D01*
X188716922Y-102113077D01*
X188674748Y-102084898D01*
X188637558Y-102077500D01*
X186012442Y-102077500D01*
X185993847Y-102081199D01*
X185975251Y-102084898D01*
X185975250Y-102084898D01*
X185933077Y-102113077D01*
X185904898Y-102155250D01*
X185904898Y-102155251D01*
X185897500Y-102192442D01*
X185897500Y-104817557D01*
X172661773Y-104817557D01*
X179054330Y-98425000D01*
X185892608Y-98425000D01*
X185912144Y-98660764D01*
X185970219Y-98890097D01*
X185970220Y-98890099D01*
X186065250Y-99106745D01*
X186065252Y-99106748D01*
X186194640Y-99304791D01*
X186194643Y-99304796D01*
X186354868Y-99478846D01*
X186354871Y-99478849D01*
X186541554Y-99624150D01*
X186541556Y-99624151D01*
X186562451Y-99635459D01*
X186749615Y-99736746D01*
X186973369Y-99813561D01*
X187206714Y-99852500D01*
X187206720Y-99852500D01*
X187443280Y-99852500D01*
X187443286Y-99852500D01*
X187676631Y-99813561D01*
X187900385Y-99736746D01*
X188108444Y-99624151D01*
X188295133Y-99478845D01*
X188455359Y-99304793D01*
X188584751Y-99106743D01*
X188679781Y-98890097D01*
X188737856Y-98660764D01*
X188757392Y-98425000D01*
X188737856Y-98189236D01*
X188679781Y-97959903D01*
X188584751Y-97743257D01*
X188455359Y-97545207D01*
X188455357Y-97545205D01*
X188455356Y-97545203D01*
X188295131Y-97371153D01*
X188295128Y-97371150D01*
X188108445Y-97225849D01*
X188108443Y-97225848D01*
X187900390Y-97113256D01*
X187900386Y-97113254D01*
X187900385Y-97113254D01*
X187676631Y-97036439D01*
X187443287Y-96997500D01*
X187443286Y-96997500D01*
X187206714Y-96997500D01*
X187206712Y-96997500D01*
X186973368Y-97036439D01*
X186749609Y-97113256D01*
X186541556Y-97225848D01*
X186541554Y-97225849D01*
X186354871Y-97371150D01*
X186354868Y-97371153D01*
X186194643Y-97545203D01*
X186194640Y-97545208D01*
X186065252Y-97743251D01*
X186065250Y-97743254D01*
X186044746Y-97790000D01*
X185970219Y-97959903D01*
X185912144Y-98189236D01*
X185892608Y-98425000D01*
X179054330Y-98425000D01*
X181090476Y-96388854D01*
X181101180Y-96380280D01*
X181103903Y-96378553D01*
X181152041Y-96327290D01*
X181173238Y-96306094D01*
X181178479Y-96299336D01*
X181180376Y-96297115D01*
X181213817Y-96261506D01*
X181226037Y-96239275D01*
X181231406Y-96231103D01*
X181246949Y-96211067D01*
X181266348Y-96166237D01*
X181267633Y-96163614D01*
X181291169Y-96120803D01*
X181297474Y-96096243D01*
X181300645Y-96086981D01*
X181310717Y-96063708D01*
X181318357Y-96015463D01*
X181318948Y-96012603D01*
X181331100Y-95965282D01*
X181331100Y-95939932D01*
X181331870Y-95930153D01*
X181335835Y-95905123D01*
X181335310Y-95899573D01*
X181333886Y-95884500D01*
X181331239Y-95856494D01*
X181331100Y-95853552D01*
X181331100Y-94346417D01*
X181323549Y-94286643D01*
X181316027Y-94227101D01*
X181256919Y-94077812D01*
X181162542Y-93947913D01*
X181162539Y-93947910D01*
X181162538Y-93947909D01*
X181038827Y-93845567D01*
X181038826Y-93845566D01*
X181038824Y-93845565D01*
X180893541Y-93777200D01*
X180788672Y-93757195D01*
X180735822Y-93747113D01*
X180735819Y-93747112D01*
X180575572Y-93757195D01*
X180422867Y-93806811D01*
X180287296Y-93892847D01*
X180177385Y-94009891D01*
X180177380Y-94009898D01*
X180100031Y-94150595D01*
X180084058Y-94212805D01*
X180060100Y-94306118D01*
X180060100Y-94306121D01*
X180060100Y-95595879D01*
X180041794Y-95640073D01*
X170925673Y-104756194D01*
X170881479Y-104774500D01*
X154594121Y-104774500D01*
X154549927Y-104756194D01*
X146410806Y-96617073D01*
X146392500Y-96572879D01*
X146392500Y-95657442D01*
X146386222Y-95625884D01*
X146385102Y-95620252D01*
X146385101Y-95620250D01*
X146356922Y-95578077D01*
X146314748Y-95549898D01*
X146277558Y-95542500D01*
X144552442Y-95542500D01*
X144533847Y-95546199D01*
X144515251Y-95549898D01*
X144515250Y-95549898D01*
X144473077Y-95578077D01*
X144444898Y-95620250D01*
X144444898Y-95620251D01*
X144437500Y-95657442D01*
X144437500Y-95822000D01*
X144419194Y-95866194D01*
X144375000Y-95884500D01*
X118822061Y-95884500D01*
X118808426Y-95882995D01*
X118805279Y-95882291D01*
X118735015Y-95884500D01*
X118705011Y-95884500D01*
X118696539Y-95885569D01*
X118693607Y-95885800D01*
X118644799Y-95887334D01*
X118644789Y-95887335D01*
X118620446Y-95894407D01*
X118610849Y-95896395D01*
X118585698Y-95899573D01*
X118540285Y-95917552D01*
X118537500Y-95918505D01*
X118490609Y-95932130D01*
X118490607Y-95932130D01*
X118468783Y-95945037D01*
X118459984Y-95949347D01*
X118436412Y-95958681D01*
X118436410Y-95958682D01*
X118396896Y-95987389D01*
X118394436Y-95989005D01*
X118352400Y-96013867D01*
X118352399Y-96013868D01*
X118334480Y-96031786D01*
X118327027Y-96038152D01*
X118306512Y-96053058D01*
X118275371Y-96090699D01*
X118273389Y-96092877D01*
X107411912Y-106954353D01*
X107367718Y-106972659D01*
X107361593Y-106972358D01*
X107315002Y-106967770D01*
X107315000Y-106967770D01*
X107123377Y-106986642D01*
X107005604Y-107022369D01*
X106939117Y-107042538D01*
X106939115Y-107042538D01*
X106939115Y-107042539D01*
X106769307Y-107133302D01*
X106769301Y-107133306D01*
X106620459Y-107255459D01*
X106498306Y-107404301D01*
X106498302Y-107404307D01*
X106410006Y-107569500D01*
X106407538Y-107574117D01*
X106402395Y-107591071D01*
X106351642Y-107758377D01*
X106332770Y-107949999D01*
X106332770Y-107950000D01*
X105075500Y-107950000D01*
X105075500Y-105410000D01*
X106332770Y-105410000D01*
X106351642Y-105601622D01*
X106371811Y-105668111D01*
X106407538Y-105785883D01*
X106435486Y-105838170D01*
X106498302Y-105955692D01*
X106498306Y-105955698D01*
X106620459Y-106104541D01*
X106769302Y-106226694D01*
X106769304Y-106226695D01*
X106769307Y-106226697D01*
X106790935Y-106238257D01*
X106939117Y-106317462D01*
X107123376Y-106373357D01*
X107315000Y-106392230D01*
X107506624Y-106373357D01*
X107690883Y-106317462D01*
X107860698Y-106226694D01*
X108009541Y-106104541D01*
X108131694Y-105955698D01*
X108222462Y-105785883D01*
X108278357Y-105601624D01*
X108297230Y-105410000D01*
X108278357Y-105218376D01*
X108222462Y-105034117D01*
X108131694Y-104864302D01*
X108009541Y-104715459D01*
X107860698Y-104593306D01*
X107860692Y-104593302D01*
X107724798Y-104520666D01*
X107690883Y-104502538D01*
X107573111Y-104466811D01*
X107506622Y-104446642D01*
X107315000Y-104427770D01*
X107123377Y-104446642D01*
X107005604Y-104482369D01*
X106939117Y-104502538D01*
X106939115Y-104502538D01*
X106939115Y-104502539D01*
X106769307Y-104593302D01*
X106769301Y-104593306D01*
X106620459Y-104715459D01*
X106498306Y-104864301D01*
X106498302Y-104864307D01*
X106407539Y-105034115D01*
X106351642Y-105218377D01*
X106332770Y-105409999D01*
X106332770Y-105410000D01*
X105075500Y-105410000D01*
X105075500Y-102870000D01*
X106332770Y-102870000D01*
X106351642Y-103061622D01*
X106351643Y-103061624D01*
X106407538Y-103245883D01*
X106407539Y-103245884D01*
X106498302Y-103415692D01*
X106498306Y-103415698D01*
X106620459Y-103564541D01*
X106769302Y-103686694D01*
X106769304Y-103686695D01*
X106769307Y-103686697D01*
X106813491Y-103710313D01*
X106939117Y-103777462D01*
X107123376Y-103833357D01*
X107315000Y-103852230D01*
X107506624Y-103833357D01*
X107690883Y-103777462D01*
X107860698Y-103686694D01*
X108009541Y-103564541D01*
X108131694Y-103415698D01*
X108222462Y-103245883D01*
X108278357Y-103061624D01*
X108297230Y-102870000D01*
X108296267Y-102860227D01*
X108278357Y-102678377D01*
X108263069Y-102627980D01*
X108222462Y-102494117D01*
X108131694Y-102324302D01*
X108009541Y-102175459D01*
X107860698Y-102053306D01*
X107860692Y-102053302D01*
X107753695Y-101996112D01*
X107690883Y-101962538D01*
X107573111Y-101926811D01*
X107506622Y-101906642D01*
X107315000Y-101887770D01*
X107123377Y-101906642D01*
X107005604Y-101942369D01*
X106939117Y-101962538D01*
X106939115Y-101962538D01*
X106939115Y-101962539D01*
X106769307Y-102053302D01*
X106769301Y-102053306D01*
X106620459Y-102175459D01*
X106498306Y-102324301D01*
X106498302Y-102324307D01*
X106407539Y-102494115D01*
X106351642Y-102678377D01*
X106332770Y-102869999D01*
X106332770Y-102870000D01*
X105075500Y-102870000D01*
X105075500Y-100330000D01*
X106332770Y-100330000D01*
X106351642Y-100521622D01*
X106351643Y-100521624D01*
X106407538Y-100705883D01*
X106407539Y-100705884D01*
X106498302Y-100875692D01*
X106498306Y-100875698D01*
X106620459Y-101024541D01*
X106769302Y-101146694D01*
X106769304Y-101146695D01*
X106769307Y-101146697D01*
X106813491Y-101170313D01*
X106939117Y-101237462D01*
X107123376Y-101293357D01*
X107315000Y-101312230D01*
X107506624Y-101293357D01*
X107690883Y-101237462D01*
X107860698Y-101146694D01*
X108009541Y-101024541D01*
X108131694Y-100875698D01*
X108222462Y-100705883D01*
X108278357Y-100521624D01*
X108297230Y-100330000D01*
X108278357Y-100138376D01*
X108222462Y-99954117D01*
X108131694Y-99784302D01*
X108009541Y-99635459D01*
X107860698Y-99513306D01*
X107860692Y-99513302D01*
X107698989Y-99426871D01*
X107690883Y-99422538D01*
X107573111Y-99386811D01*
X107506622Y-99366642D01*
X107315000Y-99347770D01*
X107123377Y-99366642D01*
X107005604Y-99402369D01*
X106939117Y-99422538D01*
X106939115Y-99422538D01*
X106939115Y-99422539D01*
X106769307Y-99513302D01*
X106769301Y-99513306D01*
X106620459Y-99635459D01*
X106498306Y-99784301D01*
X106498302Y-99784307D01*
X106407539Y-99954115D01*
X106351642Y-100138377D01*
X106332770Y-100329999D01*
X106332770Y-100330000D01*
X105075500Y-100330000D01*
X105075500Y-97790000D01*
X106332770Y-97790000D01*
X106351642Y-97981622D01*
X106351643Y-97981624D01*
X106407538Y-98165883D01*
X106441112Y-98228695D01*
X106498302Y-98335692D01*
X106498306Y-98335698D01*
X106620459Y-98484541D01*
X106769302Y-98606694D01*
X106769304Y-98606695D01*
X106769307Y-98606697D01*
X106805327Y-98625950D01*
X106939117Y-98697462D01*
X107123376Y-98753357D01*
X107315000Y-98772230D01*
X107506624Y-98753357D01*
X107690883Y-98697462D01*
X107860698Y-98606694D01*
X108009541Y-98484541D01*
X108131694Y-98335698D01*
X108222462Y-98165883D01*
X108278357Y-97981624D01*
X108297230Y-97790000D01*
X108278357Y-97598376D01*
X108222462Y-97414117D01*
X108131694Y-97244302D01*
X108009541Y-97095459D01*
X107860698Y-96973306D01*
X107860692Y-96973302D01*
X107753695Y-96916112D01*
X107690883Y-96882538D01*
X107573111Y-96846811D01*
X107506622Y-96826642D01*
X107315000Y-96807770D01*
X107123377Y-96826642D01*
X107005604Y-96862369D01*
X106939117Y-96882538D01*
X106939115Y-96882538D01*
X106939115Y-96882539D01*
X106769307Y-96973302D01*
X106769301Y-96973306D01*
X106620459Y-97095459D01*
X106498306Y-97244301D01*
X106498302Y-97244307D01*
X106407539Y-97414115D01*
X106351642Y-97598377D01*
X106332770Y-97789999D01*
X106332770Y-97790000D01*
X105075500Y-97790000D01*
X105075500Y-95250000D01*
X106332770Y-95250000D01*
X106351642Y-95441622D01*
X106351643Y-95441624D01*
X106407538Y-95625883D01*
X106407539Y-95625884D01*
X106498302Y-95795692D01*
X106498306Y-95795698D01*
X106620459Y-95944541D01*
X106769302Y-96066694D01*
X106769304Y-96066695D01*
X106769307Y-96066697D01*
X106807226Y-96086965D01*
X106939117Y-96157462D01*
X107123376Y-96213357D01*
X107315000Y-96232230D01*
X107506624Y-96213357D01*
X107690883Y-96157462D01*
X107860698Y-96066694D01*
X108009541Y-95944541D01*
X108131694Y-95795698D01*
X108222462Y-95625883D01*
X108278357Y-95441624D01*
X108297230Y-95250000D01*
X108278357Y-95058376D01*
X108222462Y-94874117D01*
X108221333Y-94872005D01*
X144142700Y-94872005D01*
X144147396Y-94915678D01*
X144147397Y-94915684D01*
X144158603Y-94967195D01*
X144161090Y-94977373D01*
X144204100Y-95058085D01*
X144249855Y-95110889D01*
X144249860Y-95110894D01*
X144249861Y-95110895D01*
X144267445Y-95128843D01*
X144267447Y-95128844D01*
X144278054Y-95134777D01*
X144347263Y-95173490D01*
X144414302Y-95193175D01*
X144472200Y-95201500D01*
X146579808Y-95201500D01*
X146604173Y-95206444D01*
X168069271Y-104293673D01*
X168109931Y-104306110D01*
X168160019Y-104315909D01*
X168202368Y-104319712D01*
X169943121Y-104295194D01*
X169944893Y-104295160D01*
X170003620Y-104285414D01*
X170070163Y-104264112D01*
X170122764Y-104238533D01*
X172399799Y-102696025D01*
X172431605Y-102669427D01*
X172466375Y-102633804D01*
X172471843Y-102627980D01*
X172516490Y-102548163D01*
X172536175Y-102481124D01*
X172544500Y-102423226D01*
X172544500Y-101670921D01*
X172538903Y-101623286D01*
X172525577Y-101567363D01*
X172521709Y-101553350D01*
X172521706Y-101553345D01*
X172521705Y-101553341D01*
X172475549Y-101474401D01*
X172475545Y-101474396D01*
X172427747Y-101423445D01*
X172427735Y-101423434D01*
X172382068Y-101386918D01*
X172382063Y-101386914D01*
X170911067Y-100521622D01*
X170284850Y-100153259D01*
X170278523Y-100149830D01*
X170278521Y-100149829D01*
X170264288Y-100142747D01*
X170257723Y-100139763D01*
X162488978Y-96932600D01*
X167961600Y-96932600D01*
X167961600Y-98230435D01*
X167968002Y-98289977D01*
X168018247Y-98424691D01*
X168018249Y-98424694D01*
X168104408Y-98539786D01*
X168104413Y-98539791D01*
X168219505Y-98625950D01*
X168219508Y-98625952D01*
X168354222Y-98676197D01*
X168413764Y-98682599D01*
X168413778Y-98682600D01*
X168761600Y-98682600D01*
X168761600Y-96932600D01*
X169261600Y-96932600D01*
X169261600Y-98682600D01*
X169609422Y-98682600D01*
X169609435Y-98682599D01*
X169668977Y-98676197D01*
X169803691Y-98625952D01*
X169803694Y-98625950D01*
X169918786Y-98539791D01*
X169918791Y-98539786D01*
X170004950Y-98424694D01*
X170004952Y-98424691D01*
X170055197Y-98289977D01*
X170061599Y-98230435D01*
X170061600Y-98230422D01*
X170061600Y-96932600D01*
X169261600Y-96932600D01*
X168761600Y-96932600D01*
X167961600Y-96932600D01*
X162488978Y-96932600D01*
X161277823Y-96432600D01*
X167961600Y-96432600D01*
X168761600Y-96432600D01*
X168761600Y-94682600D01*
X169261600Y-94682600D01*
X169261600Y-96432600D01*
X170061600Y-96432600D01*
X170061600Y-95134777D01*
X170061599Y-95134764D01*
X170055197Y-95075222D01*
X170004952Y-94940508D01*
X170004950Y-94940505D01*
X169918791Y-94825413D01*
X169918786Y-94825408D01*
X169803694Y-94739249D01*
X169803691Y-94739247D01*
X169668977Y-94689002D01*
X169609435Y-94682600D01*
X169261600Y-94682600D01*
X168761600Y-94682600D01*
X168413764Y-94682600D01*
X168354222Y-94689002D01*
X168219508Y-94739247D01*
X168219505Y-94739249D01*
X168104413Y-94825408D01*
X168104408Y-94825413D01*
X168018249Y-94940505D01*
X168018247Y-94940508D01*
X167968002Y-95075222D01*
X167961600Y-95134764D01*
X167961600Y-96432600D01*
X161277823Y-96432600D01*
X155382391Y-93998795D01*
X155348527Y-93965011D01*
X155348470Y-93917176D01*
X155380067Y-93884270D01*
X162639484Y-90536800D01*
X167961600Y-90536800D01*
X167961600Y-91834635D01*
X167968002Y-91894177D01*
X168018247Y-92028891D01*
X168018249Y-92028894D01*
X168104408Y-92143986D01*
X168104413Y-92143991D01*
X168219505Y-92230150D01*
X168219508Y-92230152D01*
X168354222Y-92280397D01*
X168413764Y-92286799D01*
X168413778Y-92286800D01*
X168761600Y-92286800D01*
X168761600Y-90536800D01*
X169261600Y-90536800D01*
X169261600Y-92286800D01*
X169609422Y-92286800D01*
X169609435Y-92286799D01*
X169668977Y-92280397D01*
X169803691Y-92230152D01*
X169803694Y-92230150D01*
X169918786Y-92143991D01*
X169918791Y-92143986D01*
X170004950Y-92028894D01*
X170004952Y-92028891D01*
X170055197Y-91894177D01*
X170061599Y-91834635D01*
X170061600Y-91834622D01*
X170061600Y-90536800D01*
X169261600Y-90536800D01*
X168761600Y-90536800D01*
X167961600Y-90536800D01*
X162639484Y-90536800D01*
X163723798Y-90036800D01*
X167961600Y-90036800D01*
X168761600Y-90036800D01*
X168761600Y-88286800D01*
X169261600Y-88286800D01*
X169261600Y-90036800D01*
X170061600Y-90036800D01*
X170061600Y-88942557D01*
X185897500Y-88942557D01*
X185904898Y-88979748D01*
X185904898Y-88979749D01*
X185933077Y-89021922D01*
X185961257Y-89040750D01*
X185975252Y-89050102D01*
X186012442Y-89057500D01*
X186012443Y-89057500D01*
X188637557Y-89057500D01*
X188637558Y-89057500D01*
X188674748Y-89050102D01*
X188716922Y-89021922D01*
X188745102Y-88979748D01*
X188752500Y-88942558D01*
X188752500Y-86317442D01*
X188745102Y-86280252D01*
X188739939Y-86272525D01*
X188716922Y-86238077D01*
X188674748Y-86209898D01*
X188637558Y-86202500D01*
X186012442Y-86202500D01*
X185993847Y-86206199D01*
X185975251Y-86209898D01*
X185975250Y-86209898D01*
X185933077Y-86238077D01*
X185904898Y-86280250D01*
X185904898Y-86280251D01*
X185897500Y-86317442D01*
X185897500Y-88942557D01*
X170061600Y-88942557D01*
X170061600Y-88738977D01*
X170061599Y-88738964D01*
X170055197Y-88679422D01*
X170004952Y-88544708D01*
X170004950Y-88544705D01*
X169918791Y-88429613D01*
X169918786Y-88429608D01*
X169803694Y-88343449D01*
X169803691Y-88343447D01*
X169668977Y-88293202D01*
X169609435Y-88286800D01*
X169261600Y-88286800D01*
X168761600Y-88286800D01*
X168413764Y-88286800D01*
X168354222Y-88293202D01*
X168219508Y-88343447D01*
X168219505Y-88343449D01*
X168104413Y-88429608D01*
X168104408Y-88429613D01*
X168018249Y-88544705D01*
X168018247Y-88544708D01*
X167968002Y-88679422D01*
X167961600Y-88738964D01*
X167961600Y-90036800D01*
X163723798Y-90036800D01*
X163763263Y-90018602D01*
X168863770Y-87666651D01*
X168867344Y-87664826D01*
X168871071Y-87662924D01*
X168895448Y-87649230D01*
X168898134Y-87647576D01*
X168902431Y-87644933D01*
X171114199Y-86158900D01*
X172097385Y-85498322D01*
X172125733Y-85475378D01*
X172140167Y-85461400D01*
X172157226Y-85444884D01*
X172158308Y-85443819D01*
X172159355Y-85442791D01*
X172208134Y-85365430D01*
X172231315Y-85299517D01*
X172242671Y-85242139D01*
X172287865Y-84383469D01*
X172287914Y-84373705D01*
X172286709Y-84345322D01*
X172268779Y-84269676D01*
X172240096Y-84205966D01*
X172208738Y-84156591D01*
X171798959Y-83678517D01*
X171771636Y-83652050D01*
X171736001Y-83623422D01*
X171735999Y-83623421D01*
X171735997Y-83623419D01*
X171704262Y-83602441D01*
X169947867Y-82662398D01*
X169947865Y-82662397D01*
X169902461Y-82644655D01*
X169845921Y-82629998D01*
X169845912Y-82629996D01*
X169797612Y-82623448D01*
X168255978Y-82598978D01*
X168255966Y-82598978D01*
X168209834Y-82603475D01*
X168155462Y-82615077D01*
X168155457Y-82615079D01*
X168111513Y-82629802D01*
X168111510Y-82629803D01*
X168111508Y-82629804D01*
X146808183Y-92563099D01*
X146347202Y-92778045D01*
X146320790Y-92783900D01*
X144472194Y-92783900D01*
X144428521Y-92788596D01*
X144377005Y-92799803D01*
X144366830Y-92802289D01*
X144366829Y-92802289D01*
X144366827Y-92802290D01*
X144321492Y-92826448D01*
X144286116Y-92845299D01*
X144286112Y-92845302D01*
X144261125Y-92866953D01*
X144233311Y-92891055D01*
X144233306Y-92891060D01*
X144233305Y-92891061D01*
X144215356Y-92908645D01*
X144215355Y-92908647D01*
X144170711Y-92988459D01*
X144151025Y-93055500D01*
X144151025Y-93055502D01*
X144142700Y-93113400D01*
X144142700Y-93113404D01*
X144142700Y-94872005D01*
X108221333Y-94872005D01*
X108150374Y-94739249D01*
X108131697Y-94704307D01*
X108131693Y-94704301D01*
X108009541Y-94555459D01*
X107860698Y-94433306D01*
X107860692Y-94433302D01*
X107753695Y-94376112D01*
X107690883Y-94342538D01*
X107570824Y-94306118D01*
X107506622Y-94286642D01*
X107315000Y-94267770D01*
X107123377Y-94286642D01*
X107005604Y-94322369D01*
X106939117Y-94342538D01*
X106939115Y-94342538D01*
X106939115Y-94342539D01*
X106769307Y-94433302D01*
X106769301Y-94433306D01*
X106620459Y-94555459D01*
X106498306Y-94704301D01*
X106498302Y-94704307D01*
X106408667Y-94872005D01*
X106407538Y-94874117D01*
X106394929Y-94915684D01*
X106351642Y-95058377D01*
X106332770Y-95249999D01*
X106332770Y-95250000D01*
X105075500Y-95250000D01*
X105075500Y-92710000D01*
X106332770Y-92710000D01*
X106351642Y-92901622D01*
X106353773Y-92908646D01*
X106407538Y-93085883D01*
X106441112Y-93148695D01*
X106498302Y-93255692D01*
X106498306Y-93255698D01*
X106620459Y-93404541D01*
X106769302Y-93526694D01*
X106769304Y-93526695D01*
X106769307Y-93526697D01*
X106813491Y-93550313D01*
X106939117Y-93617462D01*
X107123376Y-93673357D01*
X107315000Y-93692230D01*
X107506624Y-93673357D01*
X107690883Y-93617462D01*
X107860698Y-93526694D01*
X108009541Y-93404541D01*
X108131694Y-93255698D01*
X108222462Y-93085883D01*
X108278357Y-92901624D01*
X108297230Y-92710000D01*
X108278357Y-92518376D01*
X108222462Y-92334117D01*
X108131694Y-92164302D01*
X108009541Y-92015459D01*
X107860698Y-91893306D01*
X107860692Y-91893302D01*
X107750908Y-91834622D01*
X107690883Y-91802538D01*
X107573111Y-91766811D01*
X107506622Y-91746642D01*
X107315000Y-91727770D01*
X107123377Y-91746642D01*
X107005604Y-91782369D01*
X106939117Y-91802538D01*
X106939115Y-91802538D01*
X106939115Y-91802539D01*
X106769307Y-91893302D01*
X106769301Y-91893306D01*
X106620459Y-92015459D01*
X106498306Y-92164301D01*
X106498302Y-92164307D01*
X106432830Y-92286799D01*
X106407538Y-92334117D01*
X106395789Y-92372849D01*
X106351642Y-92518377D01*
X106332770Y-92709999D01*
X106332770Y-92710000D01*
X105075500Y-92710000D01*
X105075500Y-90170000D01*
X106332770Y-90170000D01*
X106351642Y-90361622D01*
X106351643Y-90361624D01*
X106407538Y-90545883D01*
X106407539Y-90545884D01*
X106498302Y-90715692D01*
X106498306Y-90715698D01*
X106620459Y-90864541D01*
X106769302Y-90986694D01*
X106769304Y-90986695D01*
X106769307Y-90986697D01*
X106813491Y-91010313D01*
X106939117Y-91077462D01*
X107123376Y-91133357D01*
X107315000Y-91152230D01*
X107506624Y-91133357D01*
X107690883Y-91077462D01*
X107860698Y-90986694D01*
X108009541Y-90864541D01*
X108131694Y-90715698D01*
X108222462Y-90545883D01*
X108278357Y-90361624D01*
X108297230Y-90170000D01*
X108278357Y-89978376D01*
X108222462Y-89794117D01*
X108131694Y-89624302D01*
X108009541Y-89475459D01*
X107860698Y-89353306D01*
X107860692Y-89353302D01*
X107749467Y-89293852D01*
X107690883Y-89262538D01*
X107573111Y-89226811D01*
X107506622Y-89206642D01*
X107315000Y-89187770D01*
X107123377Y-89206642D01*
X107005604Y-89242369D01*
X106939117Y-89262538D01*
X106939115Y-89262538D01*
X106939115Y-89262539D01*
X106769307Y-89353302D01*
X106769301Y-89353306D01*
X106620459Y-89475459D01*
X106498306Y-89624301D01*
X106498302Y-89624307D01*
X106407539Y-89794115D01*
X106351642Y-89978377D01*
X106332770Y-90169999D01*
X106332770Y-90170000D01*
X105075500Y-90170000D01*
X105075500Y-87630000D01*
X106332770Y-87630000D01*
X106351642Y-87821622D01*
X106371811Y-87888111D01*
X106407538Y-88005883D01*
X106424972Y-88038500D01*
X106498302Y-88175692D01*
X106498306Y-88175698D01*
X106620459Y-88324541D01*
X106769302Y-88446694D01*
X106769304Y-88446695D01*
X106769307Y-88446697D01*
X106813491Y-88470313D01*
X106939117Y-88537462D01*
X107123376Y-88593357D01*
X107315000Y-88612230D01*
X107506624Y-88593357D01*
X107690883Y-88537462D01*
X107860698Y-88446694D01*
X108009541Y-88324541D01*
X108058405Y-88265000D01*
X108734559Y-88265000D01*
X108754222Y-88401763D01*
X108754223Y-88401766D01*
X108811620Y-88527447D01*
X108811623Y-88527452D01*
X108902105Y-88631874D01*
X109018336Y-88706570D01*
X109018341Y-88706573D01*
X109128700Y-88738977D01*
X109150912Y-88745499D01*
X109150914Y-88745500D01*
X109150915Y-88745500D01*
X109289087Y-88745500D01*
X109293310Y-88744260D01*
X109340871Y-88749371D01*
X109355115Y-88760033D01*
X112538215Y-91943132D01*
X112556521Y-91987326D01*
X112555885Y-91996220D01*
X112544559Y-92074999D01*
X112564222Y-92211763D01*
X112564223Y-92211766D01*
X112621620Y-92337447D01*
X112621623Y-92337452D01*
X112712105Y-92441874D01*
X112828336Y-92516570D01*
X112828341Y-92516573D01*
X112954526Y-92553624D01*
X112960912Y-92555499D01*
X112960914Y-92555500D01*
X112960915Y-92555500D01*
X113099086Y-92555500D01*
X113099086Y-92555499D01*
X113231659Y-92516573D01*
X113275284Y-92488536D01*
X113347894Y-92441874D01*
X113347896Y-92441872D01*
X113438379Y-92337449D01*
X113495777Y-92211765D01*
X113515441Y-92075000D01*
X113495777Y-91938235D01*
X113438379Y-91812551D01*
X113429703Y-91802538D01*
X113347894Y-91708125D01*
X113231663Y-91633429D01*
X113231654Y-91633425D01*
X113099087Y-91594500D01*
X113099085Y-91594500D01*
X112960915Y-91594500D01*
X112956684Y-91595742D01*
X112909123Y-91590627D01*
X112894884Y-91579967D01*
X109711784Y-88396866D01*
X109693478Y-88352672D01*
X109694114Y-88343777D01*
X109705441Y-88265000D01*
X109685777Y-88128235D01*
X109628379Y-88002551D01*
X109628376Y-88002547D01*
X109537894Y-87898125D01*
X109421663Y-87823429D01*
X109421654Y-87823425D01*
X109289087Y-87784500D01*
X109289085Y-87784500D01*
X109150915Y-87784500D01*
X109150913Y-87784500D01*
X109018345Y-87823425D01*
X109018336Y-87823429D01*
X108902105Y-87898125D01*
X108811623Y-88002547D01*
X108811620Y-88002552D01*
X108754223Y-88128233D01*
X108754222Y-88128236D01*
X108734559Y-88265000D01*
X108058405Y-88265000D01*
X108131694Y-88175698D01*
X108222462Y-88005883D01*
X108278357Y-87821624D01*
X108297230Y-87630000D01*
X108278357Y-87438376D01*
X108222462Y-87254117D01*
X108131694Y-87084302D01*
X108009541Y-86935459D01*
X107860698Y-86813306D01*
X107860692Y-86813302D01*
X107740659Y-86749144D01*
X107690883Y-86722538D01*
X107573111Y-86686811D01*
X107506622Y-86666642D01*
X107315000Y-86647770D01*
X107123377Y-86666642D01*
X107005604Y-86702369D01*
X106939117Y-86722538D01*
X106939115Y-86722538D01*
X106939115Y-86722539D01*
X106769307Y-86813302D01*
X106769301Y-86813306D01*
X106620459Y-86935459D01*
X106498306Y-87084301D01*
X106498302Y-87084307D01*
X106407539Y-87254115D01*
X106351642Y-87438377D01*
X106332770Y-87629999D01*
X106332770Y-87630000D01*
X105075500Y-87630000D01*
X105075500Y-86639400D01*
X110258559Y-86639400D01*
X110278222Y-86776163D01*
X110278223Y-86776166D01*
X110335620Y-86901847D01*
X110335623Y-86901852D01*
X110426105Y-87006274D01*
X110542336Y-87080970D01*
X110542341Y-87080973D01*
X110553679Y-87084302D01*
X110674912Y-87119899D01*
X110674914Y-87119900D01*
X110674915Y-87119900D01*
X110813087Y-87119900D01*
X110817310Y-87118660D01*
X110864871Y-87123771D01*
X110879115Y-87134433D01*
X114177253Y-90432570D01*
X114193025Y-90470647D01*
X114194923Y-90470375D01*
X114215222Y-90611563D01*
X114215223Y-90611566D01*
X114272620Y-90737247D01*
X114272623Y-90737252D01*
X114363105Y-90841674D01*
X114479336Y-90916370D01*
X114479341Y-90916373D01*
X114611912Y-90955299D01*
X114611914Y-90955300D01*
X114611915Y-90955300D01*
X114750086Y-90955300D01*
X114750086Y-90955299D01*
X114882659Y-90916373D01*
X114926284Y-90888336D01*
X114998894Y-90841674D01*
X115089376Y-90737252D01*
X115089379Y-90737249D01*
X115146777Y-90611565D01*
X115166441Y-90474800D01*
X115146777Y-90338035D01*
X115089379Y-90212351D01*
X115052681Y-90169999D01*
X114998894Y-90107925D01*
X114882663Y-90033229D01*
X114882654Y-90033225D01*
X114750087Y-89994300D01*
X114750085Y-89994300D01*
X114611915Y-89994300D01*
X114529145Y-90018602D01*
X114481584Y-90013487D01*
X114467344Y-90002827D01*
X112851650Y-88387133D01*
X111235784Y-86771266D01*
X111217478Y-86727072D01*
X111218114Y-86718177D01*
X111229441Y-86639400D01*
X111209777Y-86502635D01*
X111152379Y-86376951D01*
X111152376Y-86376947D01*
X111061894Y-86272525D01*
X110945663Y-86197829D01*
X110945654Y-86197825D01*
X110813087Y-86158900D01*
X110813085Y-86158900D01*
X110674915Y-86158900D01*
X110674913Y-86158900D01*
X110542345Y-86197825D01*
X110542336Y-86197829D01*
X110426105Y-86272525D01*
X110335623Y-86376947D01*
X110335620Y-86376952D01*
X110278223Y-86502633D01*
X110278222Y-86502636D01*
X110258559Y-86639400D01*
X105075500Y-86639400D01*
X105075500Y-85090000D01*
X106332770Y-85090000D01*
X106351642Y-85281622D01*
X106351643Y-85281624D01*
X106407538Y-85465883D01*
X106412615Y-85475381D01*
X106498302Y-85635692D01*
X106498306Y-85635698D01*
X106620459Y-85784541D01*
X106769302Y-85906694D01*
X106769304Y-85906695D01*
X106769307Y-85906697D01*
X106813491Y-85930313D01*
X106939117Y-85997462D01*
X107123376Y-86053357D01*
X107315000Y-86072230D01*
X107506624Y-86053357D01*
X107690883Y-85997462D01*
X107860698Y-85906694D01*
X108009541Y-85784541D01*
X108131694Y-85635698D01*
X108222462Y-85465883D01*
X108278357Y-85281624D01*
X108297230Y-85090000D01*
X108278357Y-84898376D01*
X108222462Y-84714117D01*
X108131694Y-84544302D01*
X108009541Y-84395459D01*
X107860698Y-84273306D01*
X107860692Y-84273302D01*
X107753695Y-84216112D01*
X107690883Y-84182538D01*
X107573111Y-84146811D01*
X107506622Y-84126642D01*
X107315000Y-84107770D01*
X107123377Y-84126642D01*
X107005604Y-84162369D01*
X106939117Y-84182538D01*
X106939115Y-84182538D01*
X106939115Y-84182539D01*
X106769307Y-84273302D01*
X106769301Y-84273306D01*
X106620459Y-84395459D01*
X106498306Y-84544301D01*
X106498302Y-84544307D01*
X106407539Y-84714115D01*
X106351642Y-84898377D01*
X106332770Y-85089999D01*
X106332770Y-85090000D01*
X105075500Y-85090000D01*
X105075500Y-83743800D01*
X111909559Y-83743800D01*
X111929222Y-83880563D01*
X111929223Y-83880566D01*
X111986620Y-84006247D01*
X111986623Y-84006252D01*
X112037838Y-84065357D01*
X112075945Y-84109335D01*
X112077105Y-84110673D01*
X112112728Y-84133566D01*
X112140010Y-84172859D01*
X112140238Y-84173951D01*
X112155266Y-84249500D01*
X112155267Y-84249503D01*
X112198270Y-84313862D01*
X112198282Y-84313878D01*
X112211513Y-84333681D01*
X112211516Y-84333684D01*
X112227644Y-84344460D01*
X112237115Y-84352233D01*
X116272015Y-88387133D01*
X116290321Y-88431327D01*
X116289685Y-88440221D01*
X116278359Y-88518999D01*
X116298022Y-88655763D01*
X116298023Y-88655766D01*
X116355420Y-88781447D01*
X116355423Y-88781452D01*
X116445905Y-88885874D01*
X116562136Y-88960570D01*
X116562141Y-88960573D01*
X116627449Y-88979749D01*
X116694712Y-88999499D01*
X116694714Y-88999500D01*
X116694715Y-88999500D01*
X116832886Y-88999500D01*
X116832886Y-88999499D01*
X116965459Y-88960573D01*
X117009084Y-88932536D01*
X117081694Y-88885874D01*
X117172176Y-88781452D01*
X117172179Y-88781449D01*
X117229577Y-88655765D01*
X117249241Y-88519000D01*
X117229577Y-88382235D01*
X117172179Y-88256551D01*
X117102120Y-88175698D01*
X117081694Y-88152125D01*
X116965463Y-88077429D01*
X116965454Y-88077425D01*
X116832887Y-88038500D01*
X116832885Y-88038500D01*
X116694715Y-88038500D01*
X116694710Y-88038500D01*
X116690477Y-88039743D01*
X116642917Y-88034622D01*
X116628684Y-88023966D01*
X112755199Y-84150481D01*
X112736893Y-84106287D01*
X112752157Y-84065360D01*
X112803379Y-84006249D01*
X112860777Y-83880565D01*
X112880441Y-83743800D01*
X112860777Y-83607035D01*
X112803379Y-83481351D01*
X112803376Y-83481347D01*
X112712894Y-83376925D01*
X112596663Y-83302229D01*
X112596654Y-83302225D01*
X112464087Y-83263300D01*
X112464085Y-83263300D01*
X112325915Y-83263300D01*
X112325913Y-83263300D01*
X112193345Y-83302225D01*
X112193336Y-83302229D01*
X112077105Y-83376925D01*
X111986623Y-83481347D01*
X111986620Y-83481352D01*
X111929223Y-83607033D01*
X111929222Y-83607036D01*
X111909559Y-83743800D01*
X105075500Y-83743800D01*
X105075500Y-82550000D01*
X106332770Y-82550000D01*
X106351642Y-82741622D01*
X106365033Y-82785764D01*
X106407538Y-82925883D01*
X106407539Y-82925884D01*
X106498302Y-83095692D01*
X106498306Y-83095698D01*
X106620459Y-83244541D01*
X106769302Y-83366694D01*
X106769304Y-83366695D01*
X106769307Y-83366697D01*
X106788443Y-83376925D01*
X106939117Y-83457462D01*
X107123376Y-83513357D01*
X107315000Y-83532230D01*
X107506624Y-83513357D01*
X107690883Y-83457462D01*
X107860698Y-83366694D01*
X108009541Y-83244541D01*
X108131694Y-83095698D01*
X108222462Y-82925883D01*
X108278357Y-82741624D01*
X108297230Y-82550000D01*
X108278357Y-82358376D01*
X108222462Y-82174117D01*
X108131694Y-82004302D01*
X108009541Y-81855459D01*
X107860698Y-81733306D01*
X107860692Y-81733302D01*
X107742648Y-81670207D01*
X107690883Y-81642538D01*
X107573111Y-81606811D01*
X107506622Y-81586642D01*
X107315000Y-81567770D01*
X107123377Y-81586642D01*
X107005604Y-81622369D01*
X106939117Y-81642538D01*
X106939115Y-81642538D01*
X106939115Y-81642539D01*
X106769307Y-81733302D01*
X106769301Y-81733306D01*
X106620459Y-81855459D01*
X106498306Y-82004301D01*
X106498302Y-82004307D01*
X106407539Y-82174115D01*
X106351642Y-82358377D01*
X106332770Y-82549999D01*
X106332770Y-82550000D01*
X105075500Y-82550000D01*
X105075500Y-80010000D01*
X106332770Y-80010000D01*
X106351642Y-80201622D01*
X106351643Y-80201624D01*
X106407538Y-80385883D01*
X106441112Y-80448695D01*
X106498302Y-80555692D01*
X106498306Y-80555698D01*
X106620459Y-80704541D01*
X106769302Y-80826694D01*
X106769304Y-80826695D01*
X106769307Y-80826697D01*
X106813491Y-80850313D01*
X106939117Y-80917462D01*
X107123376Y-80973357D01*
X107315000Y-80992230D01*
X107506624Y-80973357D01*
X107690883Y-80917462D01*
X107860698Y-80826694D01*
X108009541Y-80704541D01*
X108131694Y-80555698D01*
X108222462Y-80385883D01*
X108278357Y-80201624D01*
X108297230Y-80010000D01*
X108278357Y-79818376D01*
X108222462Y-79634117D01*
X108131694Y-79464302D01*
X108009541Y-79315459D01*
X107860698Y-79193306D01*
X107860692Y-79193302D01*
X107753695Y-79136112D01*
X107690883Y-79102538D01*
X107573111Y-79066811D01*
X107506622Y-79046642D01*
X107315000Y-79027770D01*
X107123377Y-79046642D01*
X107005604Y-79082369D01*
X106939117Y-79102538D01*
X106939115Y-79102538D01*
X106939115Y-79102539D01*
X106769307Y-79193302D01*
X106769301Y-79193306D01*
X106620459Y-79315459D01*
X106498306Y-79464301D01*
X106498302Y-79464307D01*
X106429073Y-79593827D01*
X106407538Y-79634117D01*
X106387369Y-79700604D01*
X106351642Y-79818377D01*
X106332770Y-80009999D01*
X106332770Y-80010000D01*
X105075500Y-80010000D01*
X105075500Y-78109425D01*
X105938729Y-78109425D01*
X105938730Y-78109435D01*
X105941389Y-78138398D01*
X105946850Y-78165123D01*
X105948064Y-78170492D01*
X105985721Y-78234955D01*
X105985722Y-78234956D01*
X105985724Y-78234959D01*
X106020512Y-78267792D01*
X106064309Y-78295260D01*
X132556073Y-88382233D01*
X143466257Y-92536382D01*
X143502908Y-92550337D01*
X143526085Y-92556823D01*
X143548325Y-92560914D01*
X143572296Y-92563100D01*
X143572302Y-92563100D01*
X146370002Y-92563100D01*
X146370006Y-92563100D01*
X146409474Y-92555499D01*
X146419211Y-92553624D01*
X146419211Y-92553623D01*
X146419215Y-92553623D01*
X146462318Y-92536382D01*
X146486001Y-92524007D01*
X146534250Y-92467034D01*
X146553628Y-92423299D01*
X146564948Y-92372855D01*
X146564948Y-92372853D01*
X146564949Y-92372849D01*
X146638595Y-89353306D01*
X146638601Y-89353079D01*
X146636243Y-89324759D01*
X146636242Y-89324753D01*
X146631196Y-89298584D01*
X146630195Y-89293859D01*
X146630194Y-89293858D01*
X146630194Y-89293855D01*
X146593579Y-89228790D01*
X146559326Y-89195401D01*
X146559323Y-89195398D01*
X146515983Y-89167234D01*
X146515978Y-89167231D01*
X144711658Y-88446694D01*
X129945556Y-82550000D01*
X185892608Y-82550000D01*
X185912144Y-82785764D01*
X185970219Y-83015097D01*
X185970220Y-83015099D01*
X186065250Y-83231745D01*
X186065252Y-83231748D01*
X186073610Y-83244541D01*
X186153418Y-83366697D01*
X186194640Y-83429791D01*
X186194643Y-83429796D01*
X186354868Y-83603846D01*
X186354871Y-83603849D01*
X186541554Y-83749150D01*
X186541556Y-83749151D01*
X186749615Y-83861746D01*
X186973369Y-83938561D01*
X187206714Y-83977500D01*
X187206720Y-83977500D01*
X187443280Y-83977500D01*
X187443286Y-83977500D01*
X187676631Y-83938561D01*
X187900385Y-83861746D01*
X188108444Y-83749151D01*
X188233840Y-83651550D01*
X188295128Y-83603849D01*
X188295128Y-83603848D01*
X188295133Y-83603845D01*
X188455359Y-83429793D01*
X188584751Y-83231743D01*
X188679781Y-83015097D01*
X188737856Y-82785764D01*
X188757392Y-82550000D01*
X188737856Y-82314236D01*
X188679781Y-82084903D01*
X188584751Y-81868257D01*
X188455359Y-81670207D01*
X188455357Y-81670205D01*
X188455356Y-81670203D01*
X188295131Y-81496153D01*
X188295128Y-81496150D01*
X188108445Y-81350849D01*
X188108443Y-81350848D01*
X187900390Y-81238256D01*
X187900386Y-81238254D01*
X187900385Y-81238254D01*
X187676631Y-81161439D01*
X187443287Y-81122500D01*
X187443286Y-81122500D01*
X187206714Y-81122500D01*
X187206712Y-81122500D01*
X186973368Y-81161439D01*
X186749609Y-81238256D01*
X186541556Y-81350848D01*
X186541554Y-81350849D01*
X186354871Y-81496150D01*
X186354868Y-81496153D01*
X186194643Y-81670203D01*
X186194640Y-81670208D01*
X186065252Y-81868251D01*
X186065250Y-81868254D01*
X186005572Y-82004307D01*
X185970219Y-82084903D01*
X185912144Y-82314236D01*
X185892608Y-82550000D01*
X129945556Y-82550000D01*
X108087724Y-73821295D01*
X108087722Y-73821294D01*
X108087721Y-73821294D01*
X108087718Y-73821293D01*
X108060966Y-73813750D01*
X108053088Y-73812400D01*
X132229559Y-73812400D01*
X132249222Y-73949163D01*
X132249223Y-73949166D01*
X132306620Y-74074847D01*
X132306623Y-74074852D01*
X132356864Y-74132833D01*
X132397104Y-74179272D01*
X132431789Y-74201563D01*
X132459071Y-74240855D01*
X132460500Y-74254141D01*
X132460500Y-79115177D01*
X132459299Y-79127369D01*
X132455514Y-79146398D01*
X132455514Y-79146400D01*
X132475265Y-79245699D01*
X132475267Y-79245703D01*
X132518270Y-79310062D01*
X132518282Y-79310078D01*
X132531513Y-79329881D01*
X132531516Y-79329884D01*
X132547644Y-79340660D01*
X132557115Y-79348433D01*
X133112215Y-79903533D01*
X133130521Y-79947727D01*
X133129885Y-79956621D01*
X133118559Y-80035399D01*
X133138222Y-80172163D01*
X133138223Y-80172166D01*
X133195620Y-80297847D01*
X133195623Y-80297852D01*
X133286105Y-80402274D01*
X133402336Y-80476970D01*
X133402341Y-80476973D01*
X133422309Y-80482836D01*
X133534912Y-80515899D01*
X133534914Y-80515900D01*
X133534915Y-80515900D01*
X133673086Y-80515900D01*
X133673086Y-80515899D01*
X133805659Y-80476973D01*
X133849284Y-80448936D01*
X133921894Y-80402274D01*
X133936097Y-80385883D01*
X134012379Y-80297849D01*
X134069777Y-80172165D01*
X134089441Y-80035400D01*
X134069777Y-79898635D01*
X134012379Y-79772951D01*
X134012376Y-79772947D01*
X133921894Y-79668525D01*
X133805663Y-79593829D01*
X133805654Y-79593825D01*
X133673087Y-79554900D01*
X133673085Y-79554900D01*
X133534915Y-79554900D01*
X133534910Y-79554900D01*
X133530677Y-79556143D01*
X133483117Y-79551022D01*
X133468884Y-79540366D01*
X132987806Y-79059288D01*
X132969500Y-79015094D01*
X132969500Y-74269600D01*
X145437559Y-74269600D01*
X145457222Y-74406363D01*
X145457223Y-74406366D01*
X145514620Y-74532047D01*
X145514623Y-74532052D01*
X145605103Y-74636471D01*
X145605104Y-74636472D01*
X145721341Y-74711173D01*
X145776008Y-74727224D01*
X145813254Y-74757238D01*
X145820900Y-74787192D01*
X145820900Y-80635057D01*
X145802594Y-80679251D01*
X145792192Y-80687634D01*
X145757504Y-80709927D01*
X145757503Y-80709928D01*
X145667023Y-80814347D01*
X145667020Y-80814352D01*
X145609623Y-80940033D01*
X145609622Y-80940036D01*
X145589959Y-81076800D01*
X145609622Y-81213563D01*
X145609623Y-81213566D01*
X145667020Y-81339247D01*
X145667023Y-81339252D01*
X145757505Y-81443674D01*
X145873736Y-81518370D01*
X145873741Y-81518373D01*
X146006312Y-81557299D01*
X146006314Y-81557300D01*
X146006315Y-81557300D01*
X146144486Y-81557300D01*
X146144486Y-81557299D01*
X146277059Y-81518373D01*
X146320684Y-81490336D01*
X146393294Y-81443674D01*
X146393296Y-81443672D01*
X146483779Y-81339249D01*
X146541177Y-81213565D01*
X146560841Y-81076800D01*
X146541177Y-80940035D01*
X146483779Y-80814351D01*
X146483771Y-80814342D01*
X146393296Y-80709928D01*
X146393295Y-80709927D01*
X146358608Y-80687634D01*
X146331328Y-80648341D01*
X146329900Y-80635057D01*
X146329900Y-80619600D01*
X151939959Y-80619600D01*
X151959622Y-80756363D01*
X151959623Y-80756366D01*
X152017020Y-80882047D01*
X152017023Y-80882052D01*
X152107505Y-80986474D01*
X152223736Y-81061170D01*
X152223741Y-81061173D01*
X152356312Y-81100099D01*
X152356314Y-81100100D01*
X152356315Y-81100100D01*
X152494486Y-81100100D01*
X152494486Y-81100099D01*
X152627059Y-81061173D01*
X152670684Y-81033136D01*
X152743294Y-80986474D01*
X152821976Y-80895671D01*
X152864751Y-80874259D01*
X152869210Y-80874100D01*
X155111978Y-80874100D01*
X155124170Y-80875300D01*
X155143200Y-80879086D01*
X155143201Y-80879086D01*
X155176300Y-80872502D01*
X155242501Y-80859334D01*
X155305434Y-80817284D01*
X155305434Y-80817282D01*
X155309836Y-80814342D01*
X155309847Y-80814334D01*
X155317082Y-80809499D01*
X155326684Y-80803084D01*
X155337462Y-80786952D01*
X155345229Y-80777487D01*
X162882084Y-73240631D01*
X162926277Y-73222326D01*
X162943887Y-73224858D01*
X162948115Y-73226100D01*
X163086286Y-73226100D01*
X163086286Y-73226099D01*
X163218859Y-73187173D01*
X163262484Y-73159136D01*
X163335094Y-73112474D01*
X163425576Y-73008052D01*
X163425579Y-73008049D01*
X163482977Y-72882365D01*
X163502641Y-72745600D01*
X163482977Y-72608835D01*
X163425579Y-72483151D01*
X163425576Y-72483147D01*
X163335094Y-72378725D01*
X163218863Y-72304029D01*
X163218854Y-72304025D01*
X163086287Y-72265100D01*
X163086285Y-72265100D01*
X162948115Y-72265100D01*
X162948113Y-72265100D01*
X162815545Y-72304025D01*
X162815536Y-72304029D01*
X162699305Y-72378725D01*
X162608823Y-72483147D01*
X162608820Y-72483152D01*
X162551423Y-72608833D01*
X162551422Y-72608836D01*
X162531759Y-72745600D01*
X162543085Y-72824378D01*
X162531255Y-72870727D01*
X162525415Y-72877466D01*
X155056088Y-80346794D01*
X155011894Y-80365100D01*
X152869210Y-80365100D01*
X152825016Y-80346794D01*
X152821976Y-80343529D01*
X152743294Y-80252725D01*
X152627063Y-80178029D01*
X152627054Y-80178025D01*
X152494487Y-80139100D01*
X152494485Y-80139100D01*
X152356315Y-80139100D01*
X152356313Y-80139100D01*
X152223745Y-80178025D01*
X152223736Y-80178029D01*
X152107505Y-80252725D01*
X152017023Y-80357147D01*
X152017020Y-80357152D01*
X151959623Y-80482833D01*
X151959622Y-80482836D01*
X151939959Y-80619600D01*
X146329900Y-80619600D01*
X146329900Y-74548882D01*
X146335547Y-74522922D01*
X146388777Y-74406365D01*
X146408441Y-74269600D01*
X146388777Y-74132835D01*
X146331379Y-74007151D01*
X146305871Y-73977713D01*
X146240894Y-73902725D01*
X146124663Y-73828029D01*
X146124654Y-73828025D01*
X145992087Y-73789100D01*
X145992085Y-73789100D01*
X145853915Y-73789100D01*
X145853913Y-73789100D01*
X145721345Y-73828025D01*
X145721336Y-73828029D01*
X145605105Y-73902725D01*
X145514623Y-74007147D01*
X145514620Y-74007152D01*
X145457223Y-74132833D01*
X145457222Y-74132836D01*
X145437559Y-74269600D01*
X132969500Y-74269600D01*
X132969500Y-74254141D01*
X132987806Y-74209947D01*
X132998207Y-74201565D01*
X133032896Y-74179272D01*
X133123379Y-74074849D01*
X133180777Y-73949165D01*
X133200441Y-73812400D01*
X133180777Y-73675635D01*
X133123379Y-73549951D01*
X133123376Y-73549947D01*
X133032894Y-73445525D01*
X132916663Y-73370829D01*
X132916654Y-73370825D01*
X132784087Y-73331900D01*
X132784085Y-73331900D01*
X132645915Y-73331900D01*
X132645913Y-73331900D01*
X132513345Y-73370825D01*
X132513336Y-73370829D01*
X132397105Y-73445525D01*
X132306623Y-73549947D01*
X132306620Y-73549952D01*
X132249223Y-73675633D01*
X132249222Y-73675636D01*
X132229559Y-73812400D01*
X108053088Y-73812400D01*
X108035250Y-73809343D01*
X108007513Y-73807549D01*
X108007509Y-73807549D01*
X108007508Y-73807549D01*
X107668624Y-73821287D01*
X106200107Y-73880821D01*
X106200094Y-73880823D01*
X106153416Y-73891366D01*
X106112574Y-73908815D01*
X106091080Y-73920449D01*
X106043171Y-73977710D01*
X106043170Y-73977713D01*
X106024055Y-74021557D01*
X106013036Y-74072072D01*
X105938729Y-78109425D01*
X105075500Y-78109425D01*
X105075500Y-72640000D01*
X106242472Y-72640000D01*
X106284886Y-72789068D01*
X106375754Y-72971555D01*
X106375757Y-72971561D01*
X106498598Y-73134230D01*
X106498605Y-73134237D01*
X106649261Y-73271579D01*
X106649260Y-73271579D01*
X106822583Y-73378897D01*
X106822584Y-73378898D01*
X107012684Y-73452541D01*
X107065000Y-73462320D01*
X107065000Y-72825501D01*
X107172685Y-72874680D01*
X107279237Y-72890000D01*
X107350763Y-72890000D01*
X107457315Y-72874680D01*
X107565000Y-72825501D01*
X107565000Y-73462320D01*
X107617315Y-73452541D01*
X107807415Y-73378898D01*
X107807416Y-73378897D01*
X107980739Y-73271579D01*
X108131394Y-73134237D01*
X108131401Y-73134230D01*
X108254242Y-72971561D01*
X108254245Y-72971555D01*
X108345113Y-72789068D01*
X108387528Y-72640000D01*
X107748686Y-72640000D01*
X107774493Y-72599844D01*
X107815000Y-72461889D01*
X107815000Y-72318111D01*
X107774493Y-72180156D01*
X107748686Y-72140000D01*
X108387528Y-72140000D01*
X108387527Y-72139999D01*
X108345113Y-71990931D01*
X108254245Y-71808444D01*
X108254242Y-71808438D01*
X108131401Y-71645769D01*
X108131394Y-71645762D01*
X107980738Y-71508420D01*
X107980739Y-71508420D01*
X107807416Y-71401102D01*
X107807415Y-71401101D01*
X107617316Y-71327458D01*
X107565000Y-71317678D01*
X107565000Y-71954498D01*
X107457315Y-71905320D01*
X107350763Y-71890000D01*
X107279237Y-71890000D01*
X107172685Y-71905320D01*
X107065000Y-71954498D01*
X107065000Y-71317678D01*
X107012683Y-71327458D01*
X106822584Y-71401101D01*
X106822583Y-71401102D01*
X106649260Y-71508420D01*
X106498605Y-71645762D01*
X106498598Y-71645769D01*
X106375757Y-71808438D01*
X106375754Y-71808444D01*
X106284886Y-71990931D01*
X106242472Y-72139999D01*
X106242472Y-72140000D01*
X106881314Y-72140000D01*
X106855507Y-72180156D01*
X106815000Y-72318111D01*
X106815000Y-72461889D01*
X106855507Y-72599844D01*
X106881314Y-72640000D01*
X106242472Y-72640000D01*
X105075500Y-72640000D01*
X105075500Y-71120000D01*
X187929569Y-71120000D01*
X187944406Y-71327458D01*
X187949269Y-71395441D01*
X188003723Y-71645762D01*
X188007968Y-71665274D01*
X188007969Y-71665279D01*
X188104468Y-71924003D01*
X188104471Y-71924010D01*
X188222411Y-72140000D01*
X188236812Y-72166373D01*
X188339859Y-72304027D01*
X188402303Y-72387443D01*
X188597556Y-72582696D01*
X188597559Y-72582698D01*
X188597562Y-72582701D01*
X188818627Y-72748188D01*
X189055381Y-72877466D01*
X189060993Y-72880530D01*
X189065913Y-72882365D01*
X189319720Y-72977030D01*
X189319721Y-72977030D01*
X189319726Y-72977032D01*
X189589559Y-73035731D01*
X189796056Y-73050500D01*
X189796061Y-73050500D01*
X189933939Y-73050500D01*
X189933944Y-73050500D01*
X190140441Y-73035731D01*
X190410274Y-72977032D01*
X190669007Y-72880530D01*
X190911373Y-72748188D01*
X191132438Y-72582701D01*
X191327701Y-72387438D01*
X191493188Y-72166373D01*
X191625530Y-71924007D01*
X191722032Y-71665274D01*
X191780731Y-71395441D01*
X191800431Y-71120000D01*
X191780731Y-70844559D01*
X191722032Y-70574726D01*
X191625530Y-70315993D01*
X191493188Y-70073627D01*
X191327701Y-69852562D01*
X191327698Y-69852559D01*
X191327696Y-69852556D01*
X191132443Y-69657303D01*
X191109538Y-69640156D01*
X190911373Y-69491812D01*
X190911372Y-69491811D01*
X190669010Y-69359471D01*
X190669003Y-69359468D01*
X190410279Y-69262969D01*
X190410274Y-69262968D01*
X190140441Y-69204269D01*
X190140436Y-69204268D01*
X190140432Y-69204268D01*
X190037373Y-69196897D01*
X189933944Y-69189500D01*
X189796056Y-69189500D01*
X189702044Y-69196223D01*
X189589567Y-69204268D01*
X189589561Y-69204268D01*
X189589559Y-69204269D01*
X189454642Y-69233618D01*
X189319725Y-69262968D01*
X189319720Y-69262969D01*
X189060996Y-69359468D01*
X189060989Y-69359471D01*
X188818627Y-69491811D01*
X188818621Y-69491816D01*
X188597556Y-69657303D01*
X188402303Y-69852556D01*
X188236816Y-70073621D01*
X188236811Y-70073627D01*
X188104471Y-70315989D01*
X188104468Y-70315996D01*
X188007969Y-70574720D01*
X188007968Y-70574725D01*
X187949269Y-70844560D01*
X187949268Y-70844566D01*
X187929569Y-71120000D01*
X105075500Y-71120000D01*
X105075500Y-70724624D01*
X106215000Y-70724624D01*
X106229504Y-70797544D01*
X106229505Y-70797546D01*
X106284760Y-70880239D01*
X106367453Y-70935494D01*
X106367455Y-70935495D01*
X106440375Y-70949999D01*
X106440376Y-70950000D01*
X107065000Y-70950000D01*
X107065000Y-70285501D01*
X107172685Y-70334680D01*
X107279237Y-70350000D01*
X107350763Y-70350000D01*
X107457315Y-70334680D01*
X107565000Y-70285501D01*
X107565000Y-70950000D01*
X108189624Y-70950000D01*
X108189624Y-70949999D01*
X108262544Y-70935495D01*
X108262546Y-70935494D01*
X108345239Y-70880239D01*
X108400494Y-70797546D01*
X108400495Y-70797544D01*
X108414999Y-70724624D01*
X108415000Y-70724624D01*
X108415000Y-70100000D01*
X107748686Y-70100000D01*
X107774493Y-70059844D01*
X107815000Y-69921889D01*
X107815000Y-69778111D01*
X107774493Y-69640156D01*
X107748686Y-69600000D01*
X108415000Y-69600000D01*
X108415000Y-68975376D01*
X108414999Y-68975375D01*
X108400495Y-68902455D01*
X108400494Y-68902453D01*
X108345239Y-68819760D01*
X108262546Y-68764505D01*
X108262544Y-68764504D01*
X108189624Y-68750000D01*
X107565000Y-68750000D01*
X107565000Y-69414498D01*
X107457315Y-69365320D01*
X107350763Y-69350000D01*
X107279237Y-69350000D01*
X107172685Y-69365320D01*
X107065000Y-69414498D01*
X107065000Y-68750000D01*
X106440376Y-68750000D01*
X106367455Y-68764504D01*
X106367453Y-68764505D01*
X106284760Y-68819760D01*
X106229505Y-68902453D01*
X106229504Y-68902455D01*
X106215000Y-68975375D01*
X106215000Y-69600000D01*
X106881314Y-69600000D01*
X106855507Y-69640156D01*
X106815000Y-69778111D01*
X106815000Y-69921889D01*
X106855507Y-70059844D01*
X106881314Y-70100000D01*
X106215000Y-70100000D01*
X106215000Y-70724624D01*
X105075500Y-70724624D01*
X105075500Y-67673000D01*
X105093806Y-67628806D01*
X105138000Y-67610500D01*
X193312000Y-67610500D01*
X193356194Y-67628806D01*
G37*
G04 #@! TD.AperFunction*
G04 #@! TA.AperFunction,Conductor*
G36*
X108038585Y-73944346D02*
G01*
X108254732Y-74030662D01*
X146466839Y-89290282D01*
X146501092Y-89323671D01*
X146506140Y-89349848D01*
X146432487Y-92369624D01*
X146413109Y-92413359D01*
X146370006Y-92430600D01*
X143572296Y-92430600D01*
X143550056Y-92426509D01*
X106111457Y-78171432D01*
X106076669Y-78138599D01*
X106071208Y-78111873D01*
X106145515Y-74074510D01*
X106164631Y-74030662D01*
X106205471Y-74013213D01*
X108012875Y-73939940D01*
X108038585Y-73944346D01*
G37*
G04 #@! TD.AperFunction*
G04 #@! TA.AperFunction,Conductor*
G36*
X169794351Y-82828923D02*
G01*
X169850896Y-82843581D01*
X171607297Y-83783627D01*
X171642932Y-83812255D01*
X172052711Y-84290329D01*
X172081394Y-84354039D01*
X172082392Y-84377544D01*
X172037455Y-85231338D01*
X172014274Y-85297251D01*
X171982780Y-85327747D01*
X168791227Y-87472072D01*
X168773997Y-87481751D01*
X154736800Y-93954599D01*
X154736800Y-93954600D01*
X170175973Y-100328337D01*
X170183757Y-100332210D01*
X172277870Y-101564041D01*
X172325674Y-101614998D01*
X172339000Y-101670921D01*
X172339000Y-102423226D01*
X172319315Y-102490265D01*
X172284545Y-102525888D01*
X170007510Y-104068396D01*
X169940967Y-104089698D01*
X169939711Y-104089722D01*
X168199474Y-104114232D01*
X168149386Y-104104433D01*
X146634200Y-94996000D01*
X144472200Y-94996000D01*
X144405161Y-94976315D01*
X144359406Y-94923511D01*
X144348200Y-94872000D01*
X144348200Y-93113400D01*
X144367885Y-93046361D01*
X144420689Y-93000606D01*
X144472200Y-92989400D01*
X146380200Y-92989400D01*
X168198352Y-82816052D01*
X168252716Y-82804452D01*
X169794351Y-82828923D01*
G37*
G04 #@! TD.AperFunction*
M02*
