G04 #@! TF.GenerationSoftware,KiCad,Pcbnew,7.0.9*
G04 #@! TF.CreationDate,2024-03-05T18:49:30-08:00*
G04 #@! TF.ProjectId,SSM3582_v02,53534d33-3538-4325-9f76-30322e6b6963,rev?*
G04 #@! TF.SameCoordinates,Original*
G04 #@! TF.FileFunction,Legend,Bot*
G04 #@! TF.FilePolarity,Positive*
%FSLAX46Y46*%
G04 Gerber Fmt 4.6, Leading zero omitted, Abs format (unit mm)*
G04 Created by KiCad (PCBNEW 7.0.9) date 2024-03-05 18:49:30*
%MOMM*%
%LPD*%
G01*
G04 APERTURE LIST*
G04 Aperture macros list*
%AMRoundRect*
0 Rectangle with rounded corners*
0 $1 Rounding radius*
0 $2 $3 $4 $5 $6 $7 $8 $9 X,Y pos of 4 corners*
0 Add a 4 corners polygon primitive as box body*
4,1,4,$2,$3,$4,$5,$6,$7,$8,$9,$2,$3,0*
0 Add four circle primitives for the rounded corners*
1,1,$1+$1,$2,$3*
1,1,$1+$1,$4,$5*
1,1,$1+$1,$6,$7*
1,1,$1+$1,$8,$9*
0 Add four rect primitives between the rounded corners*
20,1,$1+$1,$2,$3,$4,$5,0*
20,1,$1+$1,$4,$5,$6,$7,0*
20,1,$1+$1,$6,$7,$8,$9,0*
20,1,$1+$1,$8,$9,$2,$3,0*%
G04 Aperture macros list end*
%ADD10C,0.100000*%
%ADD11C,0.125000*%
%ADD12C,0.150000*%
%ADD13C,0.120000*%
%ADD14C,3.276000*%
%ADD15RoundRect,0.038000X1.300000X-1.300000X1.300000X1.300000X-1.300000X1.300000X-1.300000X-1.300000X0*%
%ADD16C,2.676000*%
%ADD17RoundRect,0.038000X0.850000X0.850000X-0.850000X0.850000X-0.850000X-0.850000X0.850000X-0.850000X0*%
%ADD18O,1.776000X1.776000*%
%ADD19RoundRect,0.288000X-0.550000X1.500000X-0.550000X-1.500000X0.550000X-1.500000X0.550000X1.500000X0*%
%ADD20RoundRect,0.288000X0.550000X-1.500000X0.550000X1.500000X-0.550000X1.500000X-0.550000X-1.500000X0*%
G04 APERTURE END LIST*
D10*
X174749734Y-115140800D02*
X174606877Y-115188419D01*
X174606877Y-115188419D02*
X174368782Y-115188419D01*
X174368782Y-115188419D02*
X174273544Y-115140800D01*
X174273544Y-115140800D02*
X174225925Y-115093180D01*
X174225925Y-115093180D02*
X174178306Y-114997942D01*
X174178306Y-114997942D02*
X174178306Y-114902704D01*
X174178306Y-114902704D02*
X174225925Y-114807466D01*
X174225925Y-114807466D02*
X174273544Y-114759847D01*
X174273544Y-114759847D02*
X174368782Y-114712228D01*
X174368782Y-114712228D02*
X174559258Y-114664609D01*
X174559258Y-114664609D02*
X174654496Y-114616990D01*
X174654496Y-114616990D02*
X174702115Y-114569371D01*
X174702115Y-114569371D02*
X174749734Y-114474133D01*
X174749734Y-114474133D02*
X174749734Y-114378895D01*
X174749734Y-114378895D02*
X174702115Y-114283657D01*
X174702115Y-114283657D02*
X174654496Y-114236038D01*
X174654496Y-114236038D02*
X174559258Y-114188419D01*
X174559258Y-114188419D02*
X174321163Y-114188419D01*
X174321163Y-114188419D02*
X174178306Y-114236038D01*
X173368782Y-115140800D02*
X173464020Y-115188419D01*
X173464020Y-115188419D02*
X173654496Y-115188419D01*
X173654496Y-115188419D02*
X173749734Y-115140800D01*
X173749734Y-115140800D02*
X173797353Y-115045561D01*
X173797353Y-115045561D02*
X173797353Y-114664609D01*
X173797353Y-114664609D02*
X173749734Y-114569371D01*
X173749734Y-114569371D02*
X173654496Y-114521752D01*
X173654496Y-114521752D02*
X173464020Y-114521752D01*
X173464020Y-114521752D02*
X173368782Y-114569371D01*
X173368782Y-114569371D02*
X173321163Y-114664609D01*
X173321163Y-114664609D02*
X173321163Y-114759847D01*
X173321163Y-114759847D02*
X173797353Y-114855085D01*
X172892591Y-114521752D02*
X172892591Y-115188419D01*
X172892591Y-114616990D02*
X172844972Y-114569371D01*
X172844972Y-114569371D02*
X172749734Y-114521752D01*
X172749734Y-114521752D02*
X172606877Y-114521752D01*
X172606877Y-114521752D02*
X172511639Y-114569371D01*
X172511639Y-114569371D02*
X172464020Y-114664609D01*
X172464020Y-114664609D02*
X172464020Y-115188419D01*
X171987829Y-115188419D02*
X171987829Y-114521752D01*
X171987829Y-114188419D02*
X172035448Y-114236038D01*
X172035448Y-114236038D02*
X171987829Y-114283657D01*
X171987829Y-114283657D02*
X171940210Y-114236038D01*
X171940210Y-114236038D02*
X171987829Y-114188419D01*
X171987829Y-114188419D02*
X171987829Y-114283657D01*
X171368782Y-115188419D02*
X171464020Y-115140800D01*
X171464020Y-115140800D02*
X171511639Y-115093180D01*
X171511639Y-115093180D02*
X171559258Y-114997942D01*
X171559258Y-114997942D02*
X171559258Y-114712228D01*
X171559258Y-114712228D02*
X171511639Y-114616990D01*
X171511639Y-114616990D02*
X171464020Y-114569371D01*
X171464020Y-114569371D02*
X171368782Y-114521752D01*
X171368782Y-114521752D02*
X171225925Y-114521752D01*
X171225925Y-114521752D02*
X171130687Y-114569371D01*
X171130687Y-114569371D02*
X171083068Y-114616990D01*
X171083068Y-114616990D02*
X171035449Y-114712228D01*
X171035449Y-114712228D02*
X171035449Y-114997942D01*
X171035449Y-114997942D02*
X171083068Y-115093180D01*
X171083068Y-115093180D02*
X171130687Y-115140800D01*
X171130687Y-115140800D02*
X171225925Y-115188419D01*
X171225925Y-115188419D02*
X171368782Y-115188419D01*
X170606877Y-115188419D02*
X170606877Y-114521752D01*
X170606877Y-114712228D02*
X170559258Y-114616990D01*
X170559258Y-114616990D02*
X170511639Y-114569371D01*
X170511639Y-114569371D02*
X170416401Y-114521752D01*
X170416401Y-114521752D02*
X170321163Y-114521752D01*
X169225924Y-115188419D02*
X169225924Y-114188419D01*
X169225924Y-114188419D02*
X168987829Y-114188419D01*
X168987829Y-114188419D02*
X168844972Y-114236038D01*
X168844972Y-114236038D02*
X168749734Y-114331276D01*
X168749734Y-114331276D02*
X168702115Y-114426514D01*
X168702115Y-114426514D02*
X168654496Y-114616990D01*
X168654496Y-114616990D02*
X168654496Y-114759847D01*
X168654496Y-114759847D02*
X168702115Y-114950323D01*
X168702115Y-114950323D02*
X168749734Y-115045561D01*
X168749734Y-115045561D02*
X168844972Y-115140800D01*
X168844972Y-115140800D02*
X168987829Y-115188419D01*
X168987829Y-115188419D02*
X169225924Y-115188419D01*
X167844972Y-115140800D02*
X167940210Y-115188419D01*
X167940210Y-115188419D02*
X168130686Y-115188419D01*
X168130686Y-115188419D02*
X168225924Y-115140800D01*
X168225924Y-115140800D02*
X168273543Y-115045561D01*
X168273543Y-115045561D02*
X168273543Y-114664609D01*
X168273543Y-114664609D02*
X168225924Y-114569371D01*
X168225924Y-114569371D02*
X168130686Y-114521752D01*
X168130686Y-114521752D02*
X167940210Y-114521752D01*
X167940210Y-114521752D02*
X167844972Y-114569371D01*
X167844972Y-114569371D02*
X167797353Y-114664609D01*
X167797353Y-114664609D02*
X167797353Y-114759847D01*
X167797353Y-114759847D02*
X168273543Y-114855085D01*
X167416400Y-115140800D02*
X167321162Y-115188419D01*
X167321162Y-115188419D02*
X167130686Y-115188419D01*
X167130686Y-115188419D02*
X167035448Y-115140800D01*
X167035448Y-115140800D02*
X166987829Y-115045561D01*
X166987829Y-115045561D02*
X166987829Y-114997942D01*
X166987829Y-114997942D02*
X167035448Y-114902704D01*
X167035448Y-114902704D02*
X167130686Y-114855085D01*
X167130686Y-114855085D02*
X167273543Y-114855085D01*
X167273543Y-114855085D02*
X167368781Y-114807466D01*
X167368781Y-114807466D02*
X167416400Y-114712228D01*
X167416400Y-114712228D02*
X167416400Y-114664609D01*
X167416400Y-114664609D02*
X167368781Y-114569371D01*
X167368781Y-114569371D02*
X167273543Y-114521752D01*
X167273543Y-114521752D02*
X167130686Y-114521752D01*
X167130686Y-114521752D02*
X167035448Y-114569371D01*
X166559257Y-115188419D02*
X166559257Y-114521752D01*
X166559257Y-114188419D02*
X166606876Y-114236038D01*
X166606876Y-114236038D02*
X166559257Y-114283657D01*
X166559257Y-114283657D02*
X166511638Y-114236038D01*
X166511638Y-114236038D02*
X166559257Y-114188419D01*
X166559257Y-114188419D02*
X166559257Y-114283657D01*
X165654496Y-114521752D02*
X165654496Y-115331276D01*
X165654496Y-115331276D02*
X165702115Y-115426514D01*
X165702115Y-115426514D02*
X165749734Y-115474133D01*
X165749734Y-115474133D02*
X165844972Y-115521752D01*
X165844972Y-115521752D02*
X165987829Y-115521752D01*
X165987829Y-115521752D02*
X166083067Y-115474133D01*
X165654496Y-115140800D02*
X165749734Y-115188419D01*
X165749734Y-115188419D02*
X165940210Y-115188419D01*
X165940210Y-115188419D02*
X166035448Y-115140800D01*
X166035448Y-115140800D02*
X166083067Y-115093180D01*
X166083067Y-115093180D02*
X166130686Y-114997942D01*
X166130686Y-114997942D02*
X166130686Y-114712228D01*
X166130686Y-114712228D02*
X166083067Y-114616990D01*
X166083067Y-114616990D02*
X166035448Y-114569371D01*
X166035448Y-114569371D02*
X165940210Y-114521752D01*
X165940210Y-114521752D02*
X165749734Y-114521752D01*
X165749734Y-114521752D02*
X165654496Y-114569371D01*
X165178305Y-114521752D02*
X165178305Y-115188419D01*
X165178305Y-114616990D02*
X165130686Y-114569371D01*
X165130686Y-114569371D02*
X165035448Y-114521752D01*
X165035448Y-114521752D02*
X164892591Y-114521752D01*
X164892591Y-114521752D02*
X164797353Y-114569371D01*
X164797353Y-114569371D02*
X164749734Y-114664609D01*
X164749734Y-114664609D02*
X164749734Y-115188419D01*
X163511638Y-115188419D02*
X163511638Y-114188419D01*
X163511638Y-114188419D02*
X163130686Y-114188419D01*
X163130686Y-114188419D02*
X163035448Y-114236038D01*
X163035448Y-114236038D02*
X162987829Y-114283657D01*
X162987829Y-114283657D02*
X162940210Y-114378895D01*
X162940210Y-114378895D02*
X162940210Y-114521752D01*
X162940210Y-114521752D02*
X162987829Y-114616990D01*
X162987829Y-114616990D02*
X163035448Y-114664609D01*
X163035448Y-114664609D02*
X163130686Y-114712228D01*
X163130686Y-114712228D02*
X163511638Y-114712228D01*
X162511638Y-115188419D02*
X162511638Y-114521752D01*
X162511638Y-114712228D02*
X162464019Y-114616990D01*
X162464019Y-114616990D02*
X162416400Y-114569371D01*
X162416400Y-114569371D02*
X162321162Y-114521752D01*
X162321162Y-114521752D02*
X162225924Y-114521752D01*
X161749733Y-115188419D02*
X161844971Y-115140800D01*
X161844971Y-115140800D02*
X161892590Y-115093180D01*
X161892590Y-115093180D02*
X161940209Y-114997942D01*
X161940209Y-114997942D02*
X161940209Y-114712228D01*
X161940209Y-114712228D02*
X161892590Y-114616990D01*
X161892590Y-114616990D02*
X161844971Y-114569371D01*
X161844971Y-114569371D02*
X161749733Y-114521752D01*
X161749733Y-114521752D02*
X161606876Y-114521752D01*
X161606876Y-114521752D02*
X161511638Y-114569371D01*
X161511638Y-114569371D02*
X161464019Y-114616990D01*
X161464019Y-114616990D02*
X161416400Y-114712228D01*
X161416400Y-114712228D02*
X161416400Y-114997942D01*
X161416400Y-114997942D02*
X161464019Y-115093180D01*
X161464019Y-115093180D02*
X161511638Y-115140800D01*
X161511638Y-115140800D02*
X161606876Y-115188419D01*
X161606876Y-115188419D02*
X161749733Y-115188419D01*
X160987828Y-114521752D02*
X160987828Y-115378895D01*
X160987828Y-115378895D02*
X161035447Y-115474133D01*
X161035447Y-115474133D02*
X161130685Y-115521752D01*
X161130685Y-115521752D02*
X161178304Y-115521752D01*
X160987828Y-114188419D02*
X161035447Y-114236038D01*
X161035447Y-114236038D02*
X160987828Y-114283657D01*
X160987828Y-114283657D02*
X160940209Y-114236038D01*
X160940209Y-114236038D02*
X160987828Y-114188419D01*
X160987828Y-114188419D02*
X160987828Y-114283657D01*
X160130686Y-115140800D02*
X160225924Y-115188419D01*
X160225924Y-115188419D02*
X160416400Y-115188419D01*
X160416400Y-115188419D02*
X160511638Y-115140800D01*
X160511638Y-115140800D02*
X160559257Y-115045561D01*
X160559257Y-115045561D02*
X160559257Y-114664609D01*
X160559257Y-114664609D02*
X160511638Y-114569371D01*
X160511638Y-114569371D02*
X160416400Y-114521752D01*
X160416400Y-114521752D02*
X160225924Y-114521752D01*
X160225924Y-114521752D02*
X160130686Y-114569371D01*
X160130686Y-114569371D02*
X160083067Y-114664609D01*
X160083067Y-114664609D02*
X160083067Y-114759847D01*
X160083067Y-114759847D02*
X160559257Y-114855085D01*
X159225924Y-115140800D02*
X159321162Y-115188419D01*
X159321162Y-115188419D02*
X159511638Y-115188419D01*
X159511638Y-115188419D02*
X159606876Y-115140800D01*
X159606876Y-115140800D02*
X159654495Y-115093180D01*
X159654495Y-115093180D02*
X159702114Y-114997942D01*
X159702114Y-114997942D02*
X159702114Y-114712228D01*
X159702114Y-114712228D02*
X159654495Y-114616990D01*
X159654495Y-114616990D02*
X159606876Y-114569371D01*
X159606876Y-114569371D02*
X159511638Y-114521752D01*
X159511638Y-114521752D02*
X159321162Y-114521752D01*
X159321162Y-114521752D02*
X159225924Y-114569371D01*
X158940209Y-114521752D02*
X158559257Y-114521752D01*
X158797352Y-114188419D02*
X158797352Y-115045561D01*
X158797352Y-115045561D02*
X158749733Y-115140800D01*
X158749733Y-115140800D02*
X158654495Y-115188419D01*
X158654495Y-115188419D02*
X158559257Y-115188419D01*
X157511637Y-115140800D02*
X157368780Y-115188419D01*
X157368780Y-115188419D02*
X157130685Y-115188419D01*
X157130685Y-115188419D02*
X157035447Y-115140800D01*
X157035447Y-115140800D02*
X156987828Y-115093180D01*
X156987828Y-115093180D02*
X156940209Y-114997942D01*
X156940209Y-114997942D02*
X156940209Y-114902704D01*
X156940209Y-114902704D02*
X156987828Y-114807466D01*
X156987828Y-114807466D02*
X157035447Y-114759847D01*
X157035447Y-114759847D02*
X157130685Y-114712228D01*
X157130685Y-114712228D02*
X157321161Y-114664609D01*
X157321161Y-114664609D02*
X157416399Y-114616990D01*
X157416399Y-114616990D02*
X157464018Y-114569371D01*
X157464018Y-114569371D02*
X157511637Y-114474133D01*
X157511637Y-114474133D02*
X157511637Y-114378895D01*
X157511637Y-114378895D02*
X157464018Y-114283657D01*
X157464018Y-114283657D02*
X157416399Y-114236038D01*
X157416399Y-114236038D02*
X157321161Y-114188419D01*
X157321161Y-114188419D02*
X157083066Y-114188419D01*
X157083066Y-114188419D02*
X156940209Y-114236038D01*
X156511637Y-114521752D02*
X156511637Y-115521752D01*
X156511637Y-114569371D02*
X156416399Y-114521752D01*
X156416399Y-114521752D02*
X156225923Y-114521752D01*
X156225923Y-114521752D02*
X156130685Y-114569371D01*
X156130685Y-114569371D02*
X156083066Y-114616990D01*
X156083066Y-114616990D02*
X156035447Y-114712228D01*
X156035447Y-114712228D02*
X156035447Y-114997942D01*
X156035447Y-114997942D02*
X156083066Y-115093180D01*
X156083066Y-115093180D02*
X156130685Y-115140800D01*
X156130685Y-115140800D02*
X156225923Y-115188419D01*
X156225923Y-115188419D02*
X156416399Y-115188419D01*
X156416399Y-115188419D02*
X156511637Y-115140800D01*
X155606875Y-115188419D02*
X155606875Y-114521752D01*
X155606875Y-114712228D02*
X155559256Y-114616990D01*
X155559256Y-114616990D02*
X155511637Y-114569371D01*
X155511637Y-114569371D02*
X155416399Y-114521752D01*
X155416399Y-114521752D02*
X155321161Y-114521752D01*
X154987827Y-115188419D02*
X154987827Y-114521752D01*
X154987827Y-114188419D02*
X155035446Y-114236038D01*
X155035446Y-114236038D02*
X154987827Y-114283657D01*
X154987827Y-114283657D02*
X154940208Y-114236038D01*
X154940208Y-114236038D02*
X154987827Y-114188419D01*
X154987827Y-114188419D02*
X154987827Y-114283657D01*
X154511637Y-114521752D02*
X154511637Y-115188419D01*
X154511637Y-114616990D02*
X154464018Y-114569371D01*
X154464018Y-114569371D02*
X154368780Y-114521752D01*
X154368780Y-114521752D02*
X154225923Y-114521752D01*
X154225923Y-114521752D02*
X154130685Y-114569371D01*
X154130685Y-114569371D02*
X154083066Y-114664609D01*
X154083066Y-114664609D02*
X154083066Y-115188419D01*
X153178304Y-114521752D02*
X153178304Y-115331276D01*
X153178304Y-115331276D02*
X153225923Y-115426514D01*
X153225923Y-115426514D02*
X153273542Y-115474133D01*
X153273542Y-115474133D02*
X153368780Y-115521752D01*
X153368780Y-115521752D02*
X153511637Y-115521752D01*
X153511637Y-115521752D02*
X153606875Y-115474133D01*
X153178304Y-115140800D02*
X153273542Y-115188419D01*
X153273542Y-115188419D02*
X153464018Y-115188419D01*
X153464018Y-115188419D02*
X153559256Y-115140800D01*
X153559256Y-115140800D02*
X153606875Y-115093180D01*
X153606875Y-115093180D02*
X153654494Y-114997942D01*
X153654494Y-114997942D02*
X153654494Y-114712228D01*
X153654494Y-114712228D02*
X153606875Y-114616990D01*
X153606875Y-114616990D02*
X153559256Y-114569371D01*
X153559256Y-114569371D02*
X153464018Y-114521752D01*
X153464018Y-114521752D02*
X153273542Y-114521752D01*
X153273542Y-114521752D02*
X153178304Y-114569371D01*
X151987827Y-114283657D02*
X151940208Y-114236038D01*
X151940208Y-114236038D02*
X151844970Y-114188419D01*
X151844970Y-114188419D02*
X151606875Y-114188419D01*
X151606875Y-114188419D02*
X151511637Y-114236038D01*
X151511637Y-114236038D02*
X151464018Y-114283657D01*
X151464018Y-114283657D02*
X151416399Y-114378895D01*
X151416399Y-114378895D02*
X151416399Y-114474133D01*
X151416399Y-114474133D02*
X151464018Y-114616990D01*
X151464018Y-114616990D02*
X152035446Y-115188419D01*
X152035446Y-115188419D02*
X151416399Y-115188419D01*
X150797351Y-114188419D02*
X150702113Y-114188419D01*
X150702113Y-114188419D02*
X150606875Y-114236038D01*
X150606875Y-114236038D02*
X150559256Y-114283657D01*
X150559256Y-114283657D02*
X150511637Y-114378895D01*
X150511637Y-114378895D02*
X150464018Y-114569371D01*
X150464018Y-114569371D02*
X150464018Y-114807466D01*
X150464018Y-114807466D02*
X150511637Y-114997942D01*
X150511637Y-114997942D02*
X150559256Y-115093180D01*
X150559256Y-115093180D02*
X150606875Y-115140800D01*
X150606875Y-115140800D02*
X150702113Y-115188419D01*
X150702113Y-115188419D02*
X150797351Y-115188419D01*
X150797351Y-115188419D02*
X150892589Y-115140800D01*
X150892589Y-115140800D02*
X150940208Y-115093180D01*
X150940208Y-115093180D02*
X150987827Y-114997942D01*
X150987827Y-114997942D02*
X151035446Y-114807466D01*
X151035446Y-114807466D02*
X151035446Y-114569371D01*
X151035446Y-114569371D02*
X150987827Y-114378895D01*
X150987827Y-114378895D02*
X150940208Y-114283657D01*
X150940208Y-114283657D02*
X150892589Y-114236038D01*
X150892589Y-114236038D02*
X150797351Y-114188419D01*
X150083065Y-114283657D02*
X150035446Y-114236038D01*
X150035446Y-114236038D02*
X149940208Y-114188419D01*
X149940208Y-114188419D02*
X149702113Y-114188419D01*
X149702113Y-114188419D02*
X149606875Y-114236038D01*
X149606875Y-114236038D02*
X149559256Y-114283657D01*
X149559256Y-114283657D02*
X149511637Y-114378895D01*
X149511637Y-114378895D02*
X149511637Y-114474133D01*
X149511637Y-114474133D02*
X149559256Y-114616990D01*
X149559256Y-114616990D02*
X150130684Y-115188419D01*
X150130684Y-115188419D02*
X149511637Y-115188419D01*
X148654494Y-114521752D02*
X148654494Y-115188419D01*
X148892589Y-114140800D02*
X149130684Y-114855085D01*
X149130684Y-114855085D02*
X148511637Y-114855085D01*
X148130684Y-115093180D02*
X148083065Y-115140800D01*
X148083065Y-115140800D02*
X148130684Y-115188419D01*
X148130684Y-115188419D02*
X148178303Y-115140800D01*
X148178303Y-115140800D02*
X148130684Y-115093180D01*
X148130684Y-115093180D02*
X148130684Y-115188419D01*
X148130684Y-114569371D02*
X148083065Y-114616990D01*
X148083065Y-114616990D02*
X148130684Y-114664609D01*
X148130684Y-114664609D02*
X148178303Y-114616990D01*
X148178303Y-114616990D02*
X148130684Y-114569371D01*
X148130684Y-114569371D02*
X148130684Y-114664609D01*
X146940208Y-115140800D02*
X146797351Y-115188419D01*
X146797351Y-115188419D02*
X146559256Y-115188419D01*
X146559256Y-115188419D02*
X146464018Y-115140800D01*
X146464018Y-115140800D02*
X146416399Y-115093180D01*
X146416399Y-115093180D02*
X146368780Y-114997942D01*
X146368780Y-114997942D02*
X146368780Y-114902704D01*
X146368780Y-114902704D02*
X146416399Y-114807466D01*
X146416399Y-114807466D02*
X146464018Y-114759847D01*
X146464018Y-114759847D02*
X146559256Y-114712228D01*
X146559256Y-114712228D02*
X146749732Y-114664609D01*
X146749732Y-114664609D02*
X146844970Y-114616990D01*
X146844970Y-114616990D02*
X146892589Y-114569371D01*
X146892589Y-114569371D02*
X146940208Y-114474133D01*
X146940208Y-114474133D02*
X146940208Y-114378895D01*
X146940208Y-114378895D02*
X146892589Y-114283657D01*
X146892589Y-114283657D02*
X146844970Y-114236038D01*
X146844970Y-114236038D02*
X146749732Y-114188419D01*
X146749732Y-114188419D02*
X146511637Y-114188419D01*
X146511637Y-114188419D02*
X146368780Y-114236038D01*
X145987827Y-115140800D02*
X145844970Y-115188419D01*
X145844970Y-115188419D02*
X145606875Y-115188419D01*
X145606875Y-115188419D02*
X145511637Y-115140800D01*
X145511637Y-115140800D02*
X145464018Y-115093180D01*
X145464018Y-115093180D02*
X145416399Y-114997942D01*
X145416399Y-114997942D02*
X145416399Y-114902704D01*
X145416399Y-114902704D02*
X145464018Y-114807466D01*
X145464018Y-114807466D02*
X145511637Y-114759847D01*
X145511637Y-114759847D02*
X145606875Y-114712228D01*
X145606875Y-114712228D02*
X145797351Y-114664609D01*
X145797351Y-114664609D02*
X145892589Y-114616990D01*
X145892589Y-114616990D02*
X145940208Y-114569371D01*
X145940208Y-114569371D02*
X145987827Y-114474133D01*
X145987827Y-114474133D02*
X145987827Y-114378895D01*
X145987827Y-114378895D02*
X145940208Y-114283657D01*
X145940208Y-114283657D02*
X145892589Y-114236038D01*
X145892589Y-114236038D02*
X145797351Y-114188419D01*
X145797351Y-114188419D02*
X145559256Y-114188419D01*
X145559256Y-114188419D02*
X145416399Y-114236038D01*
X144987827Y-115188419D02*
X144987827Y-114188419D01*
X144987827Y-114188419D02*
X144654494Y-114902704D01*
X144654494Y-114902704D02*
X144321161Y-114188419D01*
X144321161Y-114188419D02*
X144321161Y-115188419D01*
X143940208Y-114188419D02*
X143321161Y-114188419D01*
X143321161Y-114188419D02*
X143654494Y-114569371D01*
X143654494Y-114569371D02*
X143511637Y-114569371D01*
X143511637Y-114569371D02*
X143416399Y-114616990D01*
X143416399Y-114616990D02*
X143368780Y-114664609D01*
X143368780Y-114664609D02*
X143321161Y-114759847D01*
X143321161Y-114759847D02*
X143321161Y-114997942D01*
X143321161Y-114997942D02*
X143368780Y-115093180D01*
X143368780Y-115093180D02*
X143416399Y-115140800D01*
X143416399Y-115140800D02*
X143511637Y-115188419D01*
X143511637Y-115188419D02*
X143797351Y-115188419D01*
X143797351Y-115188419D02*
X143892589Y-115140800D01*
X143892589Y-115140800D02*
X143940208Y-115093180D01*
X142416399Y-114188419D02*
X142892589Y-114188419D01*
X142892589Y-114188419D02*
X142940208Y-114664609D01*
X142940208Y-114664609D02*
X142892589Y-114616990D01*
X142892589Y-114616990D02*
X142797351Y-114569371D01*
X142797351Y-114569371D02*
X142559256Y-114569371D01*
X142559256Y-114569371D02*
X142464018Y-114616990D01*
X142464018Y-114616990D02*
X142416399Y-114664609D01*
X142416399Y-114664609D02*
X142368780Y-114759847D01*
X142368780Y-114759847D02*
X142368780Y-114997942D01*
X142368780Y-114997942D02*
X142416399Y-115093180D01*
X142416399Y-115093180D02*
X142464018Y-115140800D01*
X142464018Y-115140800D02*
X142559256Y-115188419D01*
X142559256Y-115188419D02*
X142797351Y-115188419D01*
X142797351Y-115188419D02*
X142892589Y-115140800D01*
X142892589Y-115140800D02*
X142940208Y-115093180D01*
X141797351Y-114616990D02*
X141892589Y-114569371D01*
X141892589Y-114569371D02*
X141940208Y-114521752D01*
X141940208Y-114521752D02*
X141987827Y-114426514D01*
X141987827Y-114426514D02*
X141987827Y-114378895D01*
X141987827Y-114378895D02*
X141940208Y-114283657D01*
X141940208Y-114283657D02*
X141892589Y-114236038D01*
X141892589Y-114236038D02*
X141797351Y-114188419D01*
X141797351Y-114188419D02*
X141606875Y-114188419D01*
X141606875Y-114188419D02*
X141511637Y-114236038D01*
X141511637Y-114236038D02*
X141464018Y-114283657D01*
X141464018Y-114283657D02*
X141416399Y-114378895D01*
X141416399Y-114378895D02*
X141416399Y-114426514D01*
X141416399Y-114426514D02*
X141464018Y-114521752D01*
X141464018Y-114521752D02*
X141511637Y-114569371D01*
X141511637Y-114569371D02*
X141606875Y-114616990D01*
X141606875Y-114616990D02*
X141797351Y-114616990D01*
X141797351Y-114616990D02*
X141892589Y-114664609D01*
X141892589Y-114664609D02*
X141940208Y-114712228D01*
X141940208Y-114712228D02*
X141987827Y-114807466D01*
X141987827Y-114807466D02*
X141987827Y-114997942D01*
X141987827Y-114997942D02*
X141940208Y-115093180D01*
X141940208Y-115093180D02*
X141892589Y-115140800D01*
X141892589Y-115140800D02*
X141797351Y-115188419D01*
X141797351Y-115188419D02*
X141606875Y-115188419D01*
X141606875Y-115188419D02*
X141511637Y-115140800D01*
X141511637Y-115140800D02*
X141464018Y-115093180D01*
X141464018Y-115093180D02*
X141416399Y-114997942D01*
X141416399Y-114997942D02*
X141416399Y-114807466D01*
X141416399Y-114807466D02*
X141464018Y-114712228D01*
X141464018Y-114712228D02*
X141511637Y-114664609D01*
X141511637Y-114664609D02*
X141606875Y-114616990D01*
X141035446Y-114283657D02*
X140987827Y-114236038D01*
X140987827Y-114236038D02*
X140892589Y-114188419D01*
X140892589Y-114188419D02*
X140654494Y-114188419D01*
X140654494Y-114188419D02*
X140559256Y-114236038D01*
X140559256Y-114236038D02*
X140511637Y-114283657D01*
X140511637Y-114283657D02*
X140464018Y-114378895D01*
X140464018Y-114378895D02*
X140464018Y-114474133D01*
X140464018Y-114474133D02*
X140511637Y-114616990D01*
X140511637Y-114616990D02*
X141083065Y-115188419D01*
X141083065Y-115188419D02*
X140464018Y-115188419D01*
X139321160Y-114902704D02*
X138844970Y-114902704D01*
X139416398Y-115188419D02*
X139083065Y-114188419D01*
X139083065Y-114188419D02*
X138749732Y-115188419D01*
X137987827Y-114521752D02*
X137987827Y-115188419D01*
X138416398Y-114521752D02*
X138416398Y-115045561D01*
X138416398Y-115045561D02*
X138368779Y-115140800D01*
X138368779Y-115140800D02*
X138273541Y-115188419D01*
X138273541Y-115188419D02*
X138130684Y-115188419D01*
X138130684Y-115188419D02*
X138035446Y-115140800D01*
X138035446Y-115140800D02*
X137987827Y-115093180D01*
X137083065Y-115188419D02*
X137083065Y-114188419D01*
X137083065Y-115140800D02*
X137178303Y-115188419D01*
X137178303Y-115188419D02*
X137368779Y-115188419D01*
X137368779Y-115188419D02*
X137464017Y-115140800D01*
X137464017Y-115140800D02*
X137511636Y-115093180D01*
X137511636Y-115093180D02*
X137559255Y-114997942D01*
X137559255Y-114997942D02*
X137559255Y-114712228D01*
X137559255Y-114712228D02*
X137511636Y-114616990D01*
X137511636Y-114616990D02*
X137464017Y-114569371D01*
X137464017Y-114569371D02*
X137368779Y-114521752D01*
X137368779Y-114521752D02*
X137178303Y-114521752D01*
X137178303Y-114521752D02*
X137083065Y-114569371D01*
X136606874Y-115188419D02*
X136606874Y-114521752D01*
X136606874Y-114188419D02*
X136654493Y-114236038D01*
X136654493Y-114236038D02*
X136606874Y-114283657D01*
X136606874Y-114283657D02*
X136559255Y-114236038D01*
X136559255Y-114236038D02*
X136606874Y-114188419D01*
X136606874Y-114188419D02*
X136606874Y-114283657D01*
X135987827Y-115188419D02*
X136083065Y-115140800D01*
X136083065Y-115140800D02*
X136130684Y-115093180D01*
X136130684Y-115093180D02*
X136178303Y-114997942D01*
X136178303Y-114997942D02*
X136178303Y-114712228D01*
X136178303Y-114712228D02*
X136130684Y-114616990D01*
X136130684Y-114616990D02*
X136083065Y-114569371D01*
X136083065Y-114569371D02*
X135987827Y-114521752D01*
X135987827Y-114521752D02*
X135844970Y-114521752D01*
X135844970Y-114521752D02*
X135749732Y-114569371D01*
X135749732Y-114569371D02*
X135702113Y-114616990D01*
X135702113Y-114616990D02*
X135654494Y-114712228D01*
X135654494Y-114712228D02*
X135654494Y-114997942D01*
X135654494Y-114997942D02*
X135702113Y-115093180D01*
X135702113Y-115093180D02*
X135749732Y-115140800D01*
X135749732Y-115140800D02*
X135844970Y-115188419D01*
X135844970Y-115188419D02*
X135987827Y-115188419D01*
X134511636Y-114902704D02*
X134035446Y-114902704D01*
X134606874Y-115188419D02*
X134273541Y-114188419D01*
X134273541Y-114188419D02*
X133940208Y-115188419D01*
X133606874Y-115188419D02*
X133606874Y-114521752D01*
X133606874Y-114616990D02*
X133559255Y-114569371D01*
X133559255Y-114569371D02*
X133464017Y-114521752D01*
X133464017Y-114521752D02*
X133321160Y-114521752D01*
X133321160Y-114521752D02*
X133225922Y-114569371D01*
X133225922Y-114569371D02*
X133178303Y-114664609D01*
X133178303Y-114664609D02*
X133178303Y-115188419D01*
X133178303Y-114664609D02*
X133130684Y-114569371D01*
X133130684Y-114569371D02*
X133035446Y-114521752D01*
X133035446Y-114521752D02*
X132892589Y-114521752D01*
X132892589Y-114521752D02*
X132797350Y-114569371D01*
X132797350Y-114569371D02*
X132749731Y-114664609D01*
X132749731Y-114664609D02*
X132749731Y-115188419D01*
X132273541Y-114521752D02*
X132273541Y-115521752D01*
X132273541Y-114569371D02*
X132178303Y-114521752D01*
X132178303Y-114521752D02*
X131987827Y-114521752D01*
X131987827Y-114521752D02*
X131892589Y-114569371D01*
X131892589Y-114569371D02*
X131844970Y-114616990D01*
X131844970Y-114616990D02*
X131797351Y-114712228D01*
X131797351Y-114712228D02*
X131797351Y-114997942D01*
X131797351Y-114997942D02*
X131844970Y-115093180D01*
X131844970Y-115093180D02*
X131892589Y-115140800D01*
X131892589Y-115140800D02*
X131987827Y-115188419D01*
X131987827Y-115188419D02*
X132178303Y-115188419D01*
X132178303Y-115188419D02*
X132273541Y-115140800D01*
X131225922Y-115188419D02*
X131321160Y-115140800D01*
X131321160Y-115140800D02*
X131368779Y-115045561D01*
X131368779Y-115045561D02*
X131368779Y-114188419D01*
X130844969Y-115188419D02*
X130844969Y-114521752D01*
X130844969Y-114188419D02*
X130892588Y-114236038D01*
X130892588Y-114236038D02*
X130844969Y-114283657D01*
X130844969Y-114283657D02*
X130797350Y-114236038D01*
X130797350Y-114236038D02*
X130844969Y-114188419D01*
X130844969Y-114188419D02*
X130844969Y-114283657D01*
X130511636Y-114521752D02*
X130130684Y-114521752D01*
X130368779Y-115188419D02*
X130368779Y-114331276D01*
X130368779Y-114331276D02*
X130321160Y-114236038D01*
X130321160Y-114236038D02*
X130225922Y-114188419D01*
X130225922Y-114188419D02*
X130130684Y-114188419D01*
X129797350Y-115188419D02*
X129797350Y-114521752D01*
X129797350Y-114188419D02*
X129844969Y-114236038D01*
X129844969Y-114236038D02*
X129797350Y-114283657D01*
X129797350Y-114283657D02*
X129749731Y-114236038D01*
X129749731Y-114236038D02*
X129797350Y-114188419D01*
X129797350Y-114188419D02*
X129797350Y-114283657D01*
X128940208Y-115140800D02*
X129035446Y-115188419D01*
X129035446Y-115188419D02*
X129225922Y-115188419D01*
X129225922Y-115188419D02*
X129321160Y-115140800D01*
X129321160Y-115140800D02*
X129368779Y-115045561D01*
X129368779Y-115045561D02*
X129368779Y-114664609D01*
X129368779Y-114664609D02*
X129321160Y-114569371D01*
X129321160Y-114569371D02*
X129225922Y-114521752D01*
X129225922Y-114521752D02*
X129035446Y-114521752D01*
X129035446Y-114521752D02*
X128940208Y-114569371D01*
X128940208Y-114569371D02*
X128892589Y-114664609D01*
X128892589Y-114664609D02*
X128892589Y-114759847D01*
X128892589Y-114759847D02*
X129368779Y-114855085D01*
X128464017Y-115188419D02*
X128464017Y-114521752D01*
X128464017Y-114712228D02*
X128416398Y-114616990D01*
X128416398Y-114616990D02*
X128368779Y-114569371D01*
X128368779Y-114569371D02*
X128273541Y-114521752D01*
X128273541Y-114521752D02*
X128178303Y-114521752D01*
X127178302Y-114521752D02*
X126940207Y-115188419D01*
X126940207Y-115188419D02*
X126702112Y-114521752D01*
X126130683Y-114188419D02*
X126035445Y-114188419D01*
X126035445Y-114188419D02*
X125940207Y-114236038D01*
X125940207Y-114236038D02*
X125892588Y-114283657D01*
X125892588Y-114283657D02*
X125844969Y-114378895D01*
X125844969Y-114378895D02*
X125797350Y-114569371D01*
X125797350Y-114569371D02*
X125797350Y-114807466D01*
X125797350Y-114807466D02*
X125844969Y-114997942D01*
X125844969Y-114997942D02*
X125892588Y-115093180D01*
X125892588Y-115093180D02*
X125940207Y-115140800D01*
X125940207Y-115140800D02*
X126035445Y-115188419D01*
X126035445Y-115188419D02*
X126130683Y-115188419D01*
X126130683Y-115188419D02*
X126225921Y-115140800D01*
X126225921Y-115140800D02*
X126273540Y-115093180D01*
X126273540Y-115093180D02*
X126321159Y-114997942D01*
X126321159Y-114997942D02*
X126368778Y-114807466D01*
X126368778Y-114807466D02*
X126368778Y-114569371D01*
X126368778Y-114569371D02*
X126321159Y-114378895D01*
X126321159Y-114378895D02*
X126273540Y-114283657D01*
X126273540Y-114283657D02*
X126225921Y-114236038D01*
X126225921Y-114236038D02*
X126130683Y-114188419D01*
X125178302Y-114188419D02*
X125083064Y-114188419D01*
X125083064Y-114188419D02*
X124987826Y-114236038D01*
X124987826Y-114236038D02*
X124940207Y-114283657D01*
X124940207Y-114283657D02*
X124892588Y-114378895D01*
X124892588Y-114378895D02*
X124844969Y-114569371D01*
X124844969Y-114569371D02*
X124844969Y-114807466D01*
X124844969Y-114807466D02*
X124892588Y-114997942D01*
X124892588Y-114997942D02*
X124940207Y-115093180D01*
X124940207Y-115093180D02*
X124987826Y-115140800D01*
X124987826Y-115140800D02*
X125083064Y-115188419D01*
X125083064Y-115188419D02*
X125178302Y-115188419D01*
X125178302Y-115188419D02*
X125273540Y-115140800D01*
X125273540Y-115140800D02*
X125321159Y-115093180D01*
X125321159Y-115093180D02*
X125368778Y-114997942D01*
X125368778Y-114997942D02*
X125416397Y-114807466D01*
X125416397Y-114807466D02*
X125416397Y-114569371D01*
X125416397Y-114569371D02*
X125368778Y-114378895D01*
X125368778Y-114378895D02*
X125321159Y-114283657D01*
X125321159Y-114283657D02*
X125273540Y-114236038D01*
X125273540Y-114236038D02*
X125178302Y-114188419D01*
D11*
X181988240Y-70901119D02*
X182321573Y-70424928D01*
X182559668Y-70901119D02*
X182559668Y-69901119D01*
X182559668Y-69901119D02*
X182178716Y-69901119D01*
X182178716Y-69901119D02*
X182083478Y-69948738D01*
X182083478Y-69948738D02*
X182035859Y-69996357D01*
X182035859Y-69996357D02*
X181988240Y-70091595D01*
X181988240Y-70091595D02*
X181988240Y-70234452D01*
X181988240Y-70234452D02*
X182035859Y-70329690D01*
X182035859Y-70329690D02*
X182083478Y-70377309D01*
X182083478Y-70377309D02*
X182178716Y-70424928D01*
X182178716Y-70424928D02*
X182559668Y-70424928D01*
X181178716Y-70853500D02*
X181273954Y-70901119D01*
X181273954Y-70901119D02*
X181464430Y-70901119D01*
X181464430Y-70901119D02*
X181559668Y-70853500D01*
X181559668Y-70853500D02*
X181607287Y-70758261D01*
X181607287Y-70758261D02*
X181607287Y-70377309D01*
X181607287Y-70377309D02*
X181559668Y-70282071D01*
X181559668Y-70282071D02*
X181464430Y-70234452D01*
X181464430Y-70234452D02*
X181273954Y-70234452D01*
X181273954Y-70234452D02*
X181178716Y-70282071D01*
X181178716Y-70282071D02*
X181131097Y-70377309D01*
X181131097Y-70377309D02*
X181131097Y-70472547D01*
X181131097Y-70472547D02*
X181607287Y-70567785D01*
X180750144Y-70853500D02*
X180654906Y-70901119D01*
X180654906Y-70901119D02*
X180464430Y-70901119D01*
X180464430Y-70901119D02*
X180369192Y-70853500D01*
X180369192Y-70853500D02*
X180321573Y-70758261D01*
X180321573Y-70758261D02*
X180321573Y-70710642D01*
X180321573Y-70710642D02*
X180369192Y-70615404D01*
X180369192Y-70615404D02*
X180464430Y-70567785D01*
X180464430Y-70567785D02*
X180607287Y-70567785D01*
X180607287Y-70567785D02*
X180702525Y-70520166D01*
X180702525Y-70520166D02*
X180750144Y-70424928D01*
X180750144Y-70424928D02*
X180750144Y-70377309D01*
X180750144Y-70377309D02*
X180702525Y-70282071D01*
X180702525Y-70282071D02*
X180607287Y-70234452D01*
X180607287Y-70234452D02*
X180464430Y-70234452D01*
X180464430Y-70234452D02*
X180369192Y-70282071D01*
X179893001Y-70901119D02*
X179893001Y-70234452D01*
X179893001Y-69901119D02*
X179940620Y-69948738D01*
X179940620Y-69948738D02*
X179893001Y-69996357D01*
X179893001Y-69996357D02*
X179845382Y-69948738D01*
X179845382Y-69948738D02*
X179893001Y-69901119D01*
X179893001Y-69901119D02*
X179893001Y-69996357D01*
X179464430Y-70853500D02*
X179369192Y-70901119D01*
X179369192Y-70901119D02*
X179178716Y-70901119D01*
X179178716Y-70901119D02*
X179083478Y-70853500D01*
X179083478Y-70853500D02*
X179035859Y-70758261D01*
X179035859Y-70758261D02*
X179035859Y-70710642D01*
X179035859Y-70710642D02*
X179083478Y-70615404D01*
X179083478Y-70615404D02*
X179178716Y-70567785D01*
X179178716Y-70567785D02*
X179321573Y-70567785D01*
X179321573Y-70567785D02*
X179416811Y-70520166D01*
X179416811Y-70520166D02*
X179464430Y-70424928D01*
X179464430Y-70424928D02*
X179464430Y-70377309D01*
X179464430Y-70377309D02*
X179416811Y-70282071D01*
X179416811Y-70282071D02*
X179321573Y-70234452D01*
X179321573Y-70234452D02*
X179178716Y-70234452D01*
X179178716Y-70234452D02*
X179083478Y-70282071D01*
X178750144Y-70234452D02*
X178369192Y-70234452D01*
X178607287Y-69901119D02*
X178607287Y-70758261D01*
X178607287Y-70758261D02*
X178559668Y-70853500D01*
X178559668Y-70853500D02*
X178464430Y-70901119D01*
X178464430Y-70901119D02*
X178369192Y-70901119D01*
X177893001Y-70901119D02*
X177988239Y-70853500D01*
X177988239Y-70853500D02*
X178035858Y-70805880D01*
X178035858Y-70805880D02*
X178083477Y-70710642D01*
X178083477Y-70710642D02*
X178083477Y-70424928D01*
X178083477Y-70424928D02*
X178035858Y-70329690D01*
X178035858Y-70329690D02*
X177988239Y-70282071D01*
X177988239Y-70282071D02*
X177893001Y-70234452D01*
X177893001Y-70234452D02*
X177750144Y-70234452D01*
X177750144Y-70234452D02*
X177654906Y-70282071D01*
X177654906Y-70282071D02*
X177607287Y-70329690D01*
X177607287Y-70329690D02*
X177559668Y-70424928D01*
X177559668Y-70424928D02*
X177559668Y-70710642D01*
X177559668Y-70710642D02*
X177607287Y-70805880D01*
X177607287Y-70805880D02*
X177654906Y-70853500D01*
X177654906Y-70853500D02*
X177750144Y-70901119D01*
X177750144Y-70901119D02*
X177893001Y-70901119D01*
X177131096Y-70901119D02*
X177131096Y-70234452D01*
X177131096Y-70424928D02*
X177083477Y-70329690D01*
X177083477Y-70329690D02*
X177035858Y-70282071D01*
X177035858Y-70282071D02*
X176940620Y-70234452D01*
X176940620Y-70234452D02*
X176845382Y-70234452D01*
X175750143Y-70901119D02*
X175750143Y-69901119D01*
X175750143Y-69901119D02*
X175178715Y-70901119D01*
X175178715Y-70901119D02*
X175178715Y-69901119D01*
X174321572Y-70853500D02*
X174416810Y-70901119D01*
X174416810Y-70901119D02*
X174607286Y-70901119D01*
X174607286Y-70901119D02*
X174702524Y-70853500D01*
X174702524Y-70853500D02*
X174750143Y-70758261D01*
X174750143Y-70758261D02*
X174750143Y-70377309D01*
X174750143Y-70377309D02*
X174702524Y-70282071D01*
X174702524Y-70282071D02*
X174607286Y-70234452D01*
X174607286Y-70234452D02*
X174416810Y-70234452D01*
X174416810Y-70234452D02*
X174321572Y-70282071D01*
X174321572Y-70282071D02*
X174273953Y-70377309D01*
X174273953Y-70377309D02*
X174273953Y-70472547D01*
X174273953Y-70472547D02*
X174750143Y-70567785D01*
X173988238Y-70234452D02*
X173607286Y-70234452D01*
X173845381Y-69901119D02*
X173845381Y-70758261D01*
X173845381Y-70758261D02*
X173797762Y-70853500D01*
X173797762Y-70853500D02*
X173702524Y-70901119D01*
X173702524Y-70901119D02*
X173607286Y-70901119D01*
X173369190Y-70234452D02*
X173178714Y-70901119D01*
X173178714Y-70901119D02*
X172988238Y-70424928D01*
X172988238Y-70424928D02*
X172797762Y-70901119D01*
X172797762Y-70901119D02*
X172607286Y-70234452D01*
X172083476Y-70901119D02*
X172178714Y-70853500D01*
X172178714Y-70853500D02*
X172226333Y-70805880D01*
X172226333Y-70805880D02*
X172273952Y-70710642D01*
X172273952Y-70710642D02*
X172273952Y-70424928D01*
X172273952Y-70424928D02*
X172226333Y-70329690D01*
X172226333Y-70329690D02*
X172178714Y-70282071D01*
X172178714Y-70282071D02*
X172083476Y-70234452D01*
X172083476Y-70234452D02*
X171940619Y-70234452D01*
X171940619Y-70234452D02*
X171845381Y-70282071D01*
X171845381Y-70282071D02*
X171797762Y-70329690D01*
X171797762Y-70329690D02*
X171750143Y-70424928D01*
X171750143Y-70424928D02*
X171750143Y-70710642D01*
X171750143Y-70710642D02*
X171797762Y-70805880D01*
X171797762Y-70805880D02*
X171845381Y-70853500D01*
X171845381Y-70853500D02*
X171940619Y-70901119D01*
X171940619Y-70901119D02*
X172083476Y-70901119D01*
X171321571Y-70901119D02*
X171321571Y-70234452D01*
X171321571Y-70424928D02*
X171273952Y-70329690D01*
X171273952Y-70329690D02*
X171226333Y-70282071D01*
X171226333Y-70282071D02*
X171131095Y-70234452D01*
X171131095Y-70234452D02*
X171035857Y-70234452D01*
X170702523Y-70901119D02*
X170702523Y-69901119D01*
X170607285Y-70520166D02*
X170321571Y-70901119D01*
X170321571Y-70234452D02*
X170702523Y-70615404D01*
X168559666Y-70805880D02*
X168607285Y-70853500D01*
X168607285Y-70853500D02*
X168750142Y-70901119D01*
X168750142Y-70901119D02*
X168845380Y-70901119D01*
X168845380Y-70901119D02*
X168988237Y-70853500D01*
X168988237Y-70853500D02*
X169083475Y-70758261D01*
X169083475Y-70758261D02*
X169131094Y-70663023D01*
X169131094Y-70663023D02*
X169178713Y-70472547D01*
X169178713Y-70472547D02*
X169178713Y-70329690D01*
X169178713Y-70329690D02*
X169131094Y-70139214D01*
X169131094Y-70139214D02*
X169083475Y-70043976D01*
X169083475Y-70043976D02*
X168988237Y-69948738D01*
X168988237Y-69948738D02*
X168845380Y-69901119D01*
X168845380Y-69901119D02*
X168750142Y-69901119D01*
X168750142Y-69901119D02*
X168607285Y-69948738D01*
X168607285Y-69948738D02*
X168559666Y-69996357D01*
X167988237Y-70901119D02*
X168083475Y-70853500D01*
X168083475Y-70853500D02*
X168131094Y-70805880D01*
X168131094Y-70805880D02*
X168178713Y-70710642D01*
X168178713Y-70710642D02*
X168178713Y-70424928D01*
X168178713Y-70424928D02*
X168131094Y-70329690D01*
X168131094Y-70329690D02*
X168083475Y-70282071D01*
X168083475Y-70282071D02*
X167988237Y-70234452D01*
X167988237Y-70234452D02*
X167845380Y-70234452D01*
X167845380Y-70234452D02*
X167750142Y-70282071D01*
X167750142Y-70282071D02*
X167702523Y-70329690D01*
X167702523Y-70329690D02*
X167654904Y-70424928D01*
X167654904Y-70424928D02*
X167654904Y-70710642D01*
X167654904Y-70710642D02*
X167702523Y-70805880D01*
X167702523Y-70805880D02*
X167750142Y-70853500D01*
X167750142Y-70853500D02*
X167845380Y-70901119D01*
X167845380Y-70901119D02*
X167988237Y-70901119D01*
X167226332Y-70234452D02*
X167226332Y-70901119D01*
X167226332Y-70329690D02*
X167178713Y-70282071D01*
X167178713Y-70282071D02*
X167083475Y-70234452D01*
X167083475Y-70234452D02*
X166940618Y-70234452D01*
X166940618Y-70234452D02*
X166845380Y-70282071D01*
X166845380Y-70282071D02*
X166797761Y-70377309D01*
X166797761Y-70377309D02*
X166797761Y-70901119D01*
X166464427Y-70234452D02*
X166083475Y-70234452D01*
X166321570Y-70901119D02*
X166321570Y-70043976D01*
X166321570Y-70043976D02*
X166273951Y-69948738D01*
X166273951Y-69948738D02*
X166178713Y-69901119D01*
X166178713Y-69901119D02*
X166083475Y-69901119D01*
X165750141Y-70901119D02*
X165750141Y-70234452D01*
X165750141Y-69901119D02*
X165797760Y-69948738D01*
X165797760Y-69948738D02*
X165750141Y-69996357D01*
X165750141Y-69996357D02*
X165702522Y-69948738D01*
X165702522Y-69948738D02*
X165750141Y-69901119D01*
X165750141Y-69901119D02*
X165750141Y-69996357D01*
X164845380Y-70234452D02*
X164845380Y-71043976D01*
X164845380Y-71043976D02*
X164892999Y-71139214D01*
X164892999Y-71139214D02*
X164940618Y-71186833D01*
X164940618Y-71186833D02*
X165035856Y-71234452D01*
X165035856Y-71234452D02*
X165178713Y-71234452D01*
X165178713Y-71234452D02*
X165273951Y-71186833D01*
X164845380Y-70853500D02*
X164940618Y-70901119D01*
X164940618Y-70901119D02*
X165131094Y-70901119D01*
X165131094Y-70901119D02*
X165226332Y-70853500D01*
X165226332Y-70853500D02*
X165273951Y-70805880D01*
X165273951Y-70805880D02*
X165321570Y-70710642D01*
X165321570Y-70710642D02*
X165321570Y-70424928D01*
X165321570Y-70424928D02*
X165273951Y-70329690D01*
X165273951Y-70329690D02*
X165226332Y-70282071D01*
X165226332Y-70282071D02*
X165131094Y-70234452D01*
X165131094Y-70234452D02*
X164940618Y-70234452D01*
X164940618Y-70234452D02*
X164845380Y-70282071D01*
X163940618Y-70234452D02*
X163940618Y-70901119D01*
X164369189Y-70234452D02*
X164369189Y-70758261D01*
X164369189Y-70758261D02*
X164321570Y-70853500D01*
X164321570Y-70853500D02*
X164226332Y-70901119D01*
X164226332Y-70901119D02*
X164083475Y-70901119D01*
X164083475Y-70901119D02*
X163988237Y-70853500D01*
X163988237Y-70853500D02*
X163940618Y-70805880D01*
X163464427Y-70901119D02*
X163464427Y-70234452D01*
X163464427Y-70424928D02*
X163416808Y-70329690D01*
X163416808Y-70329690D02*
X163369189Y-70282071D01*
X163369189Y-70282071D02*
X163273951Y-70234452D01*
X163273951Y-70234452D02*
X163178713Y-70234452D01*
X162416808Y-70901119D02*
X162416808Y-70377309D01*
X162416808Y-70377309D02*
X162464427Y-70282071D01*
X162464427Y-70282071D02*
X162559665Y-70234452D01*
X162559665Y-70234452D02*
X162750141Y-70234452D01*
X162750141Y-70234452D02*
X162845379Y-70282071D01*
X162416808Y-70853500D02*
X162512046Y-70901119D01*
X162512046Y-70901119D02*
X162750141Y-70901119D01*
X162750141Y-70901119D02*
X162845379Y-70853500D01*
X162845379Y-70853500D02*
X162892998Y-70758261D01*
X162892998Y-70758261D02*
X162892998Y-70663023D01*
X162892998Y-70663023D02*
X162845379Y-70567785D01*
X162845379Y-70567785D02*
X162750141Y-70520166D01*
X162750141Y-70520166D02*
X162512046Y-70520166D01*
X162512046Y-70520166D02*
X162416808Y-70472547D01*
X162083474Y-70234452D02*
X161702522Y-70234452D01*
X161940617Y-69901119D02*
X161940617Y-70758261D01*
X161940617Y-70758261D02*
X161892998Y-70853500D01*
X161892998Y-70853500D02*
X161797760Y-70901119D01*
X161797760Y-70901119D02*
X161702522Y-70901119D01*
X161369188Y-70901119D02*
X161369188Y-70234452D01*
X161369188Y-69901119D02*
X161416807Y-69948738D01*
X161416807Y-69948738D02*
X161369188Y-69996357D01*
X161369188Y-69996357D02*
X161321569Y-69948738D01*
X161321569Y-69948738D02*
X161369188Y-69901119D01*
X161369188Y-69901119D02*
X161369188Y-69996357D01*
X160750141Y-70901119D02*
X160845379Y-70853500D01*
X160845379Y-70853500D02*
X160892998Y-70805880D01*
X160892998Y-70805880D02*
X160940617Y-70710642D01*
X160940617Y-70710642D02*
X160940617Y-70424928D01*
X160940617Y-70424928D02*
X160892998Y-70329690D01*
X160892998Y-70329690D02*
X160845379Y-70282071D01*
X160845379Y-70282071D02*
X160750141Y-70234452D01*
X160750141Y-70234452D02*
X160607284Y-70234452D01*
X160607284Y-70234452D02*
X160512046Y-70282071D01*
X160512046Y-70282071D02*
X160464427Y-70329690D01*
X160464427Y-70329690D02*
X160416808Y-70424928D01*
X160416808Y-70424928D02*
X160416808Y-70710642D01*
X160416808Y-70710642D02*
X160464427Y-70805880D01*
X160464427Y-70805880D02*
X160512046Y-70853500D01*
X160512046Y-70853500D02*
X160607284Y-70901119D01*
X160607284Y-70901119D02*
X160750141Y-70901119D01*
X159988236Y-70234452D02*
X159988236Y-70901119D01*
X159988236Y-70329690D02*
X159940617Y-70282071D01*
X159940617Y-70282071D02*
X159845379Y-70234452D01*
X159845379Y-70234452D02*
X159702522Y-70234452D01*
X159702522Y-70234452D02*
X159607284Y-70282071D01*
X159607284Y-70282071D02*
X159559665Y-70377309D01*
X159559665Y-70377309D02*
X159559665Y-70901119D01*
X159083474Y-70805880D02*
X159035855Y-70853500D01*
X159035855Y-70853500D02*
X159083474Y-70901119D01*
X159083474Y-70901119D02*
X159131093Y-70853500D01*
X159131093Y-70853500D02*
X159083474Y-70805880D01*
X159083474Y-70805880D02*
X159083474Y-70901119D01*
X159083474Y-70282071D02*
X159035855Y-70329690D01*
X159035855Y-70329690D02*
X159083474Y-70377309D01*
X159083474Y-70377309D02*
X159131093Y-70329690D01*
X159131093Y-70329690D02*
X159083474Y-70282071D01*
X159083474Y-70282071D02*
X159083474Y-70377309D01*
X182654906Y-71511119D02*
X182035859Y-71511119D01*
X182035859Y-71511119D02*
X182369192Y-71892071D01*
X182369192Y-71892071D02*
X182226335Y-71892071D01*
X182226335Y-71892071D02*
X182131097Y-71939690D01*
X182131097Y-71939690D02*
X182083478Y-71987309D01*
X182083478Y-71987309D02*
X182035859Y-72082547D01*
X182035859Y-72082547D02*
X182035859Y-72320642D01*
X182035859Y-72320642D02*
X182083478Y-72415880D01*
X182083478Y-72415880D02*
X182131097Y-72463500D01*
X182131097Y-72463500D02*
X182226335Y-72511119D01*
X182226335Y-72511119D02*
X182512049Y-72511119D01*
X182512049Y-72511119D02*
X182607287Y-72463500D01*
X182607287Y-72463500D02*
X182654906Y-72415880D01*
X181654906Y-71606357D02*
X181607287Y-71558738D01*
X181607287Y-71558738D02*
X181512049Y-71511119D01*
X181512049Y-71511119D02*
X181273954Y-71511119D01*
X181273954Y-71511119D02*
X181178716Y-71558738D01*
X181178716Y-71558738D02*
X181131097Y-71606357D01*
X181131097Y-71606357D02*
X181083478Y-71701595D01*
X181083478Y-71701595D02*
X181083478Y-71796833D01*
X181083478Y-71796833D02*
X181131097Y-71939690D01*
X181131097Y-71939690D02*
X181702525Y-72511119D01*
X181702525Y-72511119D02*
X181083478Y-72511119D01*
X180035858Y-71844452D02*
X179654906Y-71844452D01*
X179893001Y-71511119D02*
X179893001Y-72368261D01*
X179893001Y-72368261D02*
X179845382Y-72463500D01*
X179845382Y-72463500D02*
X179750144Y-72511119D01*
X179750144Y-72511119D02*
X179654906Y-72511119D01*
X179178715Y-72511119D02*
X179273953Y-72463500D01*
X179273953Y-72463500D02*
X179321572Y-72415880D01*
X179321572Y-72415880D02*
X179369191Y-72320642D01*
X179369191Y-72320642D02*
X179369191Y-72034928D01*
X179369191Y-72034928D02*
X179321572Y-71939690D01*
X179321572Y-71939690D02*
X179273953Y-71892071D01*
X179273953Y-71892071D02*
X179178715Y-71844452D01*
X179178715Y-71844452D02*
X179035858Y-71844452D01*
X179035858Y-71844452D02*
X178940620Y-71892071D01*
X178940620Y-71892071D02*
X178893001Y-71939690D01*
X178893001Y-71939690D02*
X178845382Y-72034928D01*
X178845382Y-72034928D02*
X178845382Y-72320642D01*
X178845382Y-72320642D02*
X178893001Y-72415880D01*
X178893001Y-72415880D02*
X178940620Y-72463500D01*
X178940620Y-72463500D02*
X179035858Y-72511119D01*
X179035858Y-72511119D02*
X179178715Y-72511119D01*
X177226334Y-71844452D02*
X177226334Y-72511119D01*
X177464429Y-71463500D02*
X177702524Y-72177785D01*
X177702524Y-72177785D02*
X177083477Y-72177785D01*
X176559667Y-71939690D02*
X176654905Y-71892071D01*
X176654905Y-71892071D02*
X176702524Y-71844452D01*
X176702524Y-71844452D02*
X176750143Y-71749214D01*
X176750143Y-71749214D02*
X176750143Y-71701595D01*
X176750143Y-71701595D02*
X176702524Y-71606357D01*
X176702524Y-71606357D02*
X176654905Y-71558738D01*
X176654905Y-71558738D02*
X176559667Y-71511119D01*
X176559667Y-71511119D02*
X176369191Y-71511119D01*
X176369191Y-71511119D02*
X176273953Y-71558738D01*
X176273953Y-71558738D02*
X176226334Y-71606357D01*
X176226334Y-71606357D02*
X176178715Y-71701595D01*
X176178715Y-71701595D02*
X176178715Y-71749214D01*
X176178715Y-71749214D02*
X176226334Y-71844452D01*
X176226334Y-71844452D02*
X176273953Y-71892071D01*
X176273953Y-71892071D02*
X176369191Y-71939690D01*
X176369191Y-71939690D02*
X176559667Y-71939690D01*
X176559667Y-71939690D02*
X176654905Y-71987309D01*
X176654905Y-71987309D02*
X176702524Y-72034928D01*
X176702524Y-72034928D02*
X176750143Y-72130166D01*
X176750143Y-72130166D02*
X176750143Y-72320642D01*
X176750143Y-72320642D02*
X176702524Y-72415880D01*
X176702524Y-72415880D02*
X176654905Y-72463500D01*
X176654905Y-72463500D02*
X176559667Y-72511119D01*
X176559667Y-72511119D02*
X176369191Y-72511119D01*
X176369191Y-72511119D02*
X176273953Y-72463500D01*
X176273953Y-72463500D02*
X176226334Y-72415880D01*
X176226334Y-72415880D02*
X176178715Y-72320642D01*
X176178715Y-72320642D02*
X176178715Y-72130166D01*
X176178715Y-72130166D02*
X176226334Y-72034928D01*
X176226334Y-72034928D02*
X176273953Y-71987309D01*
X176273953Y-71987309D02*
X176369191Y-71939690D01*
X174988238Y-72511119D02*
X174988238Y-71511119D01*
X174893000Y-72130166D02*
X174607286Y-72511119D01*
X174607286Y-71844452D02*
X174988238Y-72225404D01*
X174178714Y-72511119D02*
X174178714Y-71511119D01*
X174178714Y-71987309D02*
X173607286Y-71987309D01*
X173607286Y-72511119D02*
X173607286Y-71511119D01*
X173226333Y-71844452D02*
X172702524Y-71844452D01*
X172702524Y-71844452D02*
X173226333Y-72511119D01*
X173226333Y-72511119D02*
X172702524Y-72511119D01*
X171607285Y-72463500D02*
X171464428Y-72511119D01*
X171464428Y-72511119D02*
X171226333Y-72511119D01*
X171226333Y-72511119D02*
X171131095Y-72463500D01*
X171131095Y-72463500D02*
X171083476Y-72415880D01*
X171083476Y-72415880D02*
X171035857Y-72320642D01*
X171035857Y-72320642D02*
X171035857Y-72225404D01*
X171035857Y-72225404D02*
X171083476Y-72130166D01*
X171083476Y-72130166D02*
X171131095Y-72082547D01*
X171131095Y-72082547D02*
X171226333Y-72034928D01*
X171226333Y-72034928D02*
X171416809Y-71987309D01*
X171416809Y-71987309D02*
X171512047Y-71939690D01*
X171512047Y-71939690D02*
X171559666Y-71892071D01*
X171559666Y-71892071D02*
X171607285Y-71796833D01*
X171607285Y-71796833D02*
X171607285Y-71701595D01*
X171607285Y-71701595D02*
X171559666Y-71606357D01*
X171559666Y-71606357D02*
X171512047Y-71558738D01*
X171512047Y-71558738D02*
X171416809Y-71511119D01*
X171416809Y-71511119D02*
X171178714Y-71511119D01*
X171178714Y-71511119D02*
X171035857Y-71558738D01*
X170750142Y-71844452D02*
X170369190Y-71844452D01*
X170607285Y-71511119D02*
X170607285Y-72368261D01*
X170607285Y-72368261D02*
X170559666Y-72463500D01*
X170559666Y-72463500D02*
X170464428Y-72511119D01*
X170464428Y-72511119D02*
X170369190Y-72511119D01*
X169654904Y-72463500D02*
X169750142Y-72511119D01*
X169750142Y-72511119D02*
X169940618Y-72511119D01*
X169940618Y-72511119D02*
X170035856Y-72463500D01*
X170035856Y-72463500D02*
X170083475Y-72368261D01*
X170083475Y-72368261D02*
X170083475Y-71987309D01*
X170083475Y-71987309D02*
X170035856Y-71892071D01*
X170035856Y-71892071D02*
X169940618Y-71844452D01*
X169940618Y-71844452D02*
X169750142Y-71844452D01*
X169750142Y-71844452D02*
X169654904Y-71892071D01*
X169654904Y-71892071D02*
X169607285Y-71987309D01*
X169607285Y-71987309D02*
X169607285Y-72082547D01*
X169607285Y-72082547D02*
X170083475Y-72177785D01*
X169178713Y-72511119D02*
X169178713Y-71844452D01*
X169178713Y-72034928D02*
X169131094Y-71939690D01*
X169131094Y-71939690D02*
X169083475Y-71892071D01*
X169083475Y-71892071D02*
X168988237Y-71844452D01*
X168988237Y-71844452D02*
X168892999Y-71844452D01*
X168178713Y-72463500D02*
X168273951Y-72511119D01*
X168273951Y-72511119D02*
X168464427Y-72511119D01*
X168464427Y-72511119D02*
X168559665Y-72463500D01*
X168559665Y-72463500D02*
X168607284Y-72368261D01*
X168607284Y-72368261D02*
X168607284Y-71987309D01*
X168607284Y-71987309D02*
X168559665Y-71892071D01*
X168559665Y-71892071D02*
X168464427Y-71844452D01*
X168464427Y-71844452D02*
X168273951Y-71844452D01*
X168273951Y-71844452D02*
X168178713Y-71892071D01*
X168178713Y-71892071D02*
X168131094Y-71987309D01*
X168131094Y-71987309D02*
X168131094Y-72082547D01*
X168131094Y-72082547D02*
X168607284Y-72177785D01*
X167559665Y-72511119D02*
X167654903Y-72463500D01*
X167654903Y-72463500D02*
X167702522Y-72415880D01*
X167702522Y-72415880D02*
X167750141Y-72320642D01*
X167750141Y-72320642D02*
X167750141Y-72034928D01*
X167750141Y-72034928D02*
X167702522Y-71939690D01*
X167702522Y-71939690D02*
X167654903Y-71892071D01*
X167654903Y-71892071D02*
X167559665Y-71844452D01*
X167559665Y-71844452D02*
X167416808Y-71844452D01*
X167416808Y-71844452D02*
X167321570Y-71892071D01*
X167321570Y-71892071D02*
X167273951Y-71939690D01*
X167273951Y-71939690D02*
X167226332Y-72034928D01*
X167226332Y-72034928D02*
X167226332Y-72320642D01*
X167226332Y-72320642D02*
X167273951Y-72415880D01*
X167273951Y-72415880D02*
X167321570Y-72463500D01*
X167321570Y-72463500D02*
X167416808Y-72511119D01*
X167416808Y-72511119D02*
X167559665Y-72511119D01*
X165750141Y-72892071D02*
X165797760Y-72844452D01*
X165797760Y-72844452D02*
X165892998Y-72701595D01*
X165892998Y-72701595D02*
X165940617Y-72606357D01*
X165940617Y-72606357D02*
X165988236Y-72463500D01*
X165988236Y-72463500D02*
X166035855Y-72225404D01*
X166035855Y-72225404D02*
X166035855Y-72034928D01*
X166035855Y-72034928D02*
X165988236Y-71796833D01*
X165988236Y-71796833D02*
X165940617Y-71653976D01*
X165940617Y-71653976D02*
X165892998Y-71558738D01*
X165892998Y-71558738D02*
X165797760Y-71415880D01*
X165797760Y-71415880D02*
X165750141Y-71368261D01*
X165369188Y-72511119D02*
X165369188Y-71511119D01*
X165369188Y-71987309D02*
X164797760Y-71987309D01*
X164797760Y-72511119D02*
X164797760Y-71511119D01*
X163892998Y-72511119D02*
X163892998Y-71987309D01*
X163892998Y-71987309D02*
X163940617Y-71892071D01*
X163940617Y-71892071D02*
X164035855Y-71844452D01*
X164035855Y-71844452D02*
X164226331Y-71844452D01*
X164226331Y-71844452D02*
X164321569Y-71892071D01*
X163892998Y-72463500D02*
X163988236Y-72511119D01*
X163988236Y-72511119D02*
X164226331Y-72511119D01*
X164226331Y-72511119D02*
X164321569Y-72463500D01*
X164321569Y-72463500D02*
X164369188Y-72368261D01*
X164369188Y-72368261D02*
X164369188Y-72273023D01*
X164369188Y-72273023D02*
X164321569Y-72177785D01*
X164321569Y-72177785D02*
X164226331Y-72130166D01*
X164226331Y-72130166D02*
X163988236Y-72130166D01*
X163988236Y-72130166D02*
X163892998Y-72082547D01*
X163416807Y-72511119D02*
X163416807Y-71844452D01*
X163416807Y-72034928D02*
X163369188Y-71939690D01*
X163369188Y-71939690D02*
X163321569Y-71892071D01*
X163321569Y-71892071D02*
X163226331Y-71844452D01*
X163226331Y-71844452D02*
X163131093Y-71844452D01*
X162369188Y-72511119D02*
X162369188Y-71511119D01*
X162369188Y-72463500D02*
X162464426Y-72511119D01*
X162464426Y-72511119D02*
X162654902Y-72511119D01*
X162654902Y-72511119D02*
X162750140Y-72463500D01*
X162750140Y-72463500D02*
X162797759Y-72415880D01*
X162797759Y-72415880D02*
X162845378Y-72320642D01*
X162845378Y-72320642D02*
X162845378Y-72034928D01*
X162845378Y-72034928D02*
X162797759Y-71939690D01*
X162797759Y-71939690D02*
X162750140Y-71892071D01*
X162750140Y-71892071D02*
X162654902Y-71844452D01*
X162654902Y-71844452D02*
X162464426Y-71844452D01*
X162464426Y-71844452D02*
X162369188Y-71892071D01*
X161988235Y-71844452D02*
X161797759Y-72511119D01*
X161797759Y-72511119D02*
X161607283Y-72034928D01*
X161607283Y-72034928D02*
X161416807Y-72511119D01*
X161416807Y-72511119D02*
X161226331Y-71844452D01*
X160416807Y-72511119D02*
X160416807Y-71987309D01*
X160416807Y-71987309D02*
X160464426Y-71892071D01*
X160464426Y-71892071D02*
X160559664Y-71844452D01*
X160559664Y-71844452D02*
X160750140Y-71844452D01*
X160750140Y-71844452D02*
X160845378Y-71892071D01*
X160416807Y-72463500D02*
X160512045Y-72511119D01*
X160512045Y-72511119D02*
X160750140Y-72511119D01*
X160750140Y-72511119D02*
X160845378Y-72463500D01*
X160845378Y-72463500D02*
X160892997Y-72368261D01*
X160892997Y-72368261D02*
X160892997Y-72273023D01*
X160892997Y-72273023D02*
X160845378Y-72177785D01*
X160845378Y-72177785D02*
X160750140Y-72130166D01*
X160750140Y-72130166D02*
X160512045Y-72130166D01*
X160512045Y-72130166D02*
X160416807Y-72082547D01*
X159940616Y-72511119D02*
X159940616Y-71844452D01*
X159940616Y-72034928D02*
X159892997Y-71939690D01*
X159892997Y-71939690D02*
X159845378Y-71892071D01*
X159845378Y-71892071D02*
X159750140Y-71844452D01*
X159750140Y-71844452D02*
X159654902Y-71844452D01*
X158940616Y-72463500D02*
X159035854Y-72511119D01*
X159035854Y-72511119D02*
X159226330Y-72511119D01*
X159226330Y-72511119D02*
X159321568Y-72463500D01*
X159321568Y-72463500D02*
X159369187Y-72368261D01*
X159369187Y-72368261D02*
X159369187Y-71987309D01*
X159369187Y-71987309D02*
X159321568Y-71892071D01*
X159321568Y-71892071D02*
X159226330Y-71844452D01*
X159226330Y-71844452D02*
X159035854Y-71844452D01*
X159035854Y-71844452D02*
X158940616Y-71892071D01*
X158940616Y-71892071D02*
X158892997Y-71987309D01*
X158892997Y-71987309D02*
X158892997Y-72082547D01*
X158892997Y-72082547D02*
X159369187Y-72177785D01*
X157702520Y-72511119D02*
X157702520Y-71511119D01*
X157702520Y-71511119D02*
X157369187Y-72225404D01*
X157369187Y-72225404D02*
X157035854Y-71511119D01*
X157035854Y-71511119D02*
X157035854Y-72511119D01*
X156416806Y-72511119D02*
X156512044Y-72463500D01*
X156512044Y-72463500D02*
X156559663Y-72415880D01*
X156559663Y-72415880D02*
X156607282Y-72320642D01*
X156607282Y-72320642D02*
X156607282Y-72034928D01*
X156607282Y-72034928D02*
X156559663Y-71939690D01*
X156559663Y-71939690D02*
X156512044Y-71892071D01*
X156512044Y-71892071D02*
X156416806Y-71844452D01*
X156416806Y-71844452D02*
X156273949Y-71844452D01*
X156273949Y-71844452D02*
X156178711Y-71892071D01*
X156178711Y-71892071D02*
X156131092Y-71939690D01*
X156131092Y-71939690D02*
X156083473Y-72034928D01*
X156083473Y-72034928D02*
X156083473Y-72320642D01*
X156083473Y-72320642D02*
X156131092Y-72415880D01*
X156131092Y-72415880D02*
X156178711Y-72463500D01*
X156178711Y-72463500D02*
X156273949Y-72511119D01*
X156273949Y-72511119D02*
X156416806Y-72511119D01*
X155226330Y-72511119D02*
X155226330Y-71511119D01*
X155226330Y-72463500D02*
X155321568Y-72511119D01*
X155321568Y-72511119D02*
X155512044Y-72511119D01*
X155512044Y-72511119D02*
X155607282Y-72463500D01*
X155607282Y-72463500D02*
X155654901Y-72415880D01*
X155654901Y-72415880D02*
X155702520Y-72320642D01*
X155702520Y-72320642D02*
X155702520Y-72034928D01*
X155702520Y-72034928D02*
X155654901Y-71939690D01*
X155654901Y-71939690D02*
X155607282Y-71892071D01*
X155607282Y-71892071D02*
X155512044Y-71844452D01*
X155512044Y-71844452D02*
X155321568Y-71844452D01*
X155321568Y-71844452D02*
X155226330Y-71892071D01*
X154369187Y-72463500D02*
X154464425Y-72511119D01*
X154464425Y-72511119D02*
X154654901Y-72511119D01*
X154654901Y-72511119D02*
X154750139Y-72463500D01*
X154750139Y-72463500D02*
X154797758Y-72368261D01*
X154797758Y-72368261D02*
X154797758Y-71987309D01*
X154797758Y-71987309D02*
X154750139Y-71892071D01*
X154750139Y-71892071D02*
X154654901Y-71844452D01*
X154654901Y-71844452D02*
X154464425Y-71844452D01*
X154464425Y-71844452D02*
X154369187Y-71892071D01*
X154369187Y-71892071D02*
X154321568Y-71987309D01*
X154321568Y-71987309D02*
X154321568Y-72082547D01*
X154321568Y-72082547D02*
X154797758Y-72177785D01*
X153988234Y-72892071D02*
X153940615Y-72844452D01*
X153940615Y-72844452D02*
X153845377Y-72701595D01*
X153845377Y-72701595D02*
X153797758Y-72606357D01*
X153797758Y-72606357D02*
X153750139Y-72463500D01*
X153750139Y-72463500D02*
X153702520Y-72225404D01*
X153702520Y-72225404D02*
X153702520Y-72034928D01*
X153702520Y-72034928D02*
X153750139Y-71796833D01*
X153750139Y-71796833D02*
X153797758Y-71653976D01*
X153797758Y-71653976D02*
X153845377Y-71558738D01*
X153845377Y-71558738D02*
X153940615Y-71415880D01*
X153940615Y-71415880D02*
X153988234Y-71368261D01*
X152464424Y-72415880D02*
X152416805Y-72463500D01*
X152416805Y-72463500D02*
X152464424Y-72511119D01*
X152464424Y-72511119D02*
X152512043Y-72463500D01*
X152512043Y-72463500D02*
X152464424Y-72415880D01*
X152464424Y-72415880D02*
X152464424Y-72511119D01*
X152464424Y-71892071D02*
X152416805Y-71939690D01*
X152416805Y-71939690D02*
X152464424Y-71987309D01*
X152464424Y-71987309D02*
X152512043Y-71939690D01*
X152512043Y-71939690D02*
X152464424Y-71892071D01*
X152464424Y-71892071D02*
X152464424Y-71987309D01*
X151035853Y-71511119D02*
X150845377Y-71511119D01*
X150845377Y-71511119D02*
X150750139Y-71558738D01*
X150750139Y-71558738D02*
X150654901Y-71653976D01*
X150654901Y-71653976D02*
X150607282Y-71844452D01*
X150607282Y-71844452D02*
X150607282Y-72177785D01*
X150607282Y-72177785D02*
X150654901Y-72368261D01*
X150654901Y-72368261D02*
X150750139Y-72463500D01*
X150750139Y-72463500D02*
X150845377Y-72511119D01*
X150845377Y-72511119D02*
X151035853Y-72511119D01*
X151035853Y-72511119D02*
X151131091Y-72463500D01*
X151131091Y-72463500D02*
X151226329Y-72368261D01*
X151226329Y-72368261D02*
X151273948Y-72177785D01*
X151273948Y-72177785D02*
X151273948Y-71844452D01*
X151273948Y-71844452D02*
X151226329Y-71653976D01*
X151226329Y-71653976D02*
X151131091Y-71558738D01*
X151131091Y-71558738D02*
X151035853Y-71511119D01*
X150178710Y-72511119D02*
X150178710Y-71511119D01*
X150178710Y-71511119D02*
X149607282Y-72511119D01*
X149607282Y-72511119D02*
X149607282Y-71511119D01*
X148654901Y-72511119D02*
X149131091Y-72511119D01*
X149131091Y-72511119D02*
X149131091Y-71511119D01*
X148131091Y-72034928D02*
X148131091Y-72511119D01*
X148464424Y-71511119D02*
X148131091Y-72034928D01*
X148131091Y-72034928D02*
X147797758Y-71511119D01*
X146702519Y-71844452D02*
X146702519Y-72844452D01*
X146702519Y-71892071D02*
X146607281Y-71844452D01*
X146607281Y-71844452D02*
X146416805Y-71844452D01*
X146416805Y-71844452D02*
X146321567Y-71892071D01*
X146321567Y-71892071D02*
X146273948Y-71939690D01*
X146273948Y-71939690D02*
X146226329Y-72034928D01*
X146226329Y-72034928D02*
X146226329Y-72320642D01*
X146226329Y-72320642D02*
X146273948Y-72415880D01*
X146273948Y-72415880D02*
X146321567Y-72463500D01*
X146321567Y-72463500D02*
X146416805Y-72511119D01*
X146416805Y-72511119D02*
X146607281Y-72511119D01*
X146607281Y-72511119D02*
X146702519Y-72463500D01*
X145654900Y-72511119D02*
X145750138Y-72463500D01*
X145750138Y-72463500D02*
X145797757Y-72415880D01*
X145797757Y-72415880D02*
X145845376Y-72320642D01*
X145845376Y-72320642D02*
X145845376Y-72034928D01*
X145845376Y-72034928D02*
X145797757Y-71939690D01*
X145797757Y-71939690D02*
X145750138Y-71892071D01*
X145750138Y-71892071D02*
X145654900Y-71844452D01*
X145654900Y-71844452D02*
X145512043Y-71844452D01*
X145512043Y-71844452D02*
X145416805Y-71892071D01*
X145416805Y-71892071D02*
X145369186Y-71939690D01*
X145369186Y-71939690D02*
X145321567Y-72034928D01*
X145321567Y-72034928D02*
X145321567Y-72320642D01*
X145321567Y-72320642D02*
X145369186Y-72415880D01*
X145369186Y-72415880D02*
X145416805Y-72463500D01*
X145416805Y-72463500D02*
X145512043Y-72511119D01*
X145512043Y-72511119D02*
X145654900Y-72511119D01*
X144892995Y-71844452D02*
X144892995Y-72844452D01*
X144892995Y-71892071D02*
X144797757Y-71844452D01*
X144797757Y-71844452D02*
X144607281Y-71844452D01*
X144607281Y-71844452D02*
X144512043Y-71892071D01*
X144512043Y-71892071D02*
X144464424Y-71939690D01*
X144464424Y-71939690D02*
X144416805Y-72034928D01*
X144416805Y-72034928D02*
X144416805Y-72320642D01*
X144416805Y-72320642D02*
X144464424Y-72415880D01*
X144464424Y-72415880D02*
X144512043Y-72463500D01*
X144512043Y-72463500D02*
X144607281Y-72511119D01*
X144607281Y-72511119D02*
X144797757Y-72511119D01*
X144797757Y-72511119D02*
X144892995Y-72463500D01*
X143559662Y-71844452D02*
X143559662Y-72511119D01*
X143988233Y-71844452D02*
X143988233Y-72368261D01*
X143988233Y-72368261D02*
X143940614Y-72463500D01*
X143940614Y-72463500D02*
X143845376Y-72511119D01*
X143845376Y-72511119D02*
X143702519Y-72511119D01*
X143702519Y-72511119D02*
X143607281Y-72463500D01*
X143607281Y-72463500D02*
X143559662Y-72415880D01*
X142940614Y-72511119D02*
X143035852Y-72463500D01*
X143035852Y-72463500D02*
X143083471Y-72368261D01*
X143083471Y-72368261D02*
X143083471Y-71511119D01*
X142131090Y-72511119D02*
X142131090Y-71987309D01*
X142131090Y-71987309D02*
X142178709Y-71892071D01*
X142178709Y-71892071D02*
X142273947Y-71844452D01*
X142273947Y-71844452D02*
X142464423Y-71844452D01*
X142464423Y-71844452D02*
X142559661Y-71892071D01*
X142131090Y-72463500D02*
X142226328Y-72511119D01*
X142226328Y-72511119D02*
X142464423Y-72511119D01*
X142464423Y-72511119D02*
X142559661Y-72463500D01*
X142559661Y-72463500D02*
X142607280Y-72368261D01*
X142607280Y-72368261D02*
X142607280Y-72273023D01*
X142607280Y-72273023D02*
X142559661Y-72177785D01*
X142559661Y-72177785D02*
X142464423Y-72130166D01*
X142464423Y-72130166D02*
X142226328Y-72130166D01*
X142226328Y-72130166D02*
X142131090Y-72082547D01*
X141797756Y-71844452D02*
X141416804Y-71844452D01*
X141654899Y-71511119D02*
X141654899Y-72368261D01*
X141654899Y-72368261D02*
X141607280Y-72463500D01*
X141607280Y-72463500D02*
X141512042Y-72511119D01*
X141512042Y-72511119D02*
X141416804Y-72511119D01*
X140702518Y-72463500D02*
X140797756Y-72511119D01*
X140797756Y-72511119D02*
X140988232Y-72511119D01*
X140988232Y-72511119D02*
X141083470Y-72463500D01*
X141083470Y-72463500D02*
X141131089Y-72368261D01*
X141131089Y-72368261D02*
X141131089Y-71987309D01*
X141131089Y-71987309D02*
X141083470Y-71892071D01*
X141083470Y-71892071D02*
X140988232Y-71844452D01*
X140988232Y-71844452D02*
X140797756Y-71844452D01*
X140797756Y-71844452D02*
X140702518Y-71892071D01*
X140702518Y-71892071D02*
X140654899Y-71987309D01*
X140654899Y-71987309D02*
X140654899Y-72082547D01*
X140654899Y-72082547D02*
X141131089Y-72177785D01*
X138892994Y-72511119D02*
X139226327Y-72034928D01*
X139464422Y-72511119D02*
X139464422Y-71511119D01*
X139464422Y-71511119D02*
X139083470Y-71511119D01*
X139083470Y-71511119D02*
X138988232Y-71558738D01*
X138988232Y-71558738D02*
X138940613Y-71606357D01*
X138940613Y-71606357D02*
X138892994Y-71701595D01*
X138892994Y-71701595D02*
X138892994Y-71844452D01*
X138892994Y-71844452D02*
X138940613Y-71939690D01*
X138940613Y-71939690D02*
X138988232Y-71987309D01*
X138988232Y-71987309D02*
X139083470Y-72034928D01*
X139083470Y-72034928D02*
X139464422Y-72034928D01*
X138559660Y-71511119D02*
X137940613Y-71511119D01*
X137940613Y-71511119D02*
X138273946Y-71892071D01*
X138273946Y-71892071D02*
X138131089Y-71892071D01*
X138131089Y-71892071D02*
X138035851Y-71939690D01*
X138035851Y-71939690D02*
X137988232Y-71987309D01*
X137988232Y-71987309D02*
X137940613Y-72082547D01*
X137940613Y-72082547D02*
X137940613Y-72320642D01*
X137940613Y-72320642D02*
X137988232Y-72415880D01*
X137988232Y-72415880D02*
X138035851Y-72463500D01*
X138035851Y-72463500D02*
X138131089Y-72511119D01*
X138131089Y-72511119D02*
X138416803Y-72511119D01*
X138416803Y-72511119D02*
X138512041Y-72463500D01*
X138512041Y-72463500D02*
X138559660Y-72415880D01*
X137464422Y-72463500D02*
X137464422Y-72511119D01*
X137464422Y-72511119D02*
X137512041Y-72606357D01*
X137512041Y-72606357D02*
X137559660Y-72653976D01*
X136464423Y-72511119D02*
X136797756Y-72034928D01*
X137035851Y-72511119D02*
X137035851Y-71511119D01*
X137035851Y-71511119D02*
X136654899Y-71511119D01*
X136654899Y-71511119D02*
X136559661Y-71558738D01*
X136559661Y-71558738D02*
X136512042Y-71606357D01*
X136512042Y-71606357D02*
X136464423Y-71701595D01*
X136464423Y-71701595D02*
X136464423Y-71844452D01*
X136464423Y-71844452D02*
X136512042Y-71939690D01*
X136512042Y-71939690D02*
X136559661Y-71987309D01*
X136559661Y-71987309D02*
X136654899Y-72034928D01*
X136654899Y-72034928D02*
X137035851Y-72034928D01*
X135607280Y-71844452D02*
X135607280Y-72511119D01*
X135845375Y-71463500D02*
X136083470Y-72177785D01*
X136083470Y-72177785D02*
X135464423Y-72177785D01*
X135035851Y-72463500D02*
X135035851Y-72511119D01*
X135035851Y-72511119D02*
X135083470Y-72606357D01*
X135083470Y-72606357D02*
X135131089Y-72653976D01*
X134035852Y-72511119D02*
X134369185Y-72034928D01*
X134607280Y-72511119D02*
X134607280Y-71511119D01*
X134607280Y-71511119D02*
X134226328Y-71511119D01*
X134226328Y-71511119D02*
X134131090Y-71558738D01*
X134131090Y-71558738D02*
X134083471Y-71606357D01*
X134083471Y-71606357D02*
X134035852Y-71701595D01*
X134035852Y-71701595D02*
X134035852Y-71844452D01*
X134035852Y-71844452D02*
X134083471Y-71939690D01*
X134083471Y-71939690D02*
X134131090Y-71987309D01*
X134131090Y-71987309D02*
X134226328Y-72034928D01*
X134226328Y-72034928D02*
X134607280Y-72034928D01*
X133464423Y-71939690D02*
X133559661Y-71892071D01*
X133559661Y-71892071D02*
X133607280Y-71844452D01*
X133607280Y-71844452D02*
X133654899Y-71749214D01*
X133654899Y-71749214D02*
X133654899Y-71701595D01*
X133654899Y-71701595D02*
X133607280Y-71606357D01*
X133607280Y-71606357D02*
X133559661Y-71558738D01*
X133559661Y-71558738D02*
X133464423Y-71511119D01*
X133464423Y-71511119D02*
X133273947Y-71511119D01*
X133273947Y-71511119D02*
X133178709Y-71558738D01*
X133178709Y-71558738D02*
X133131090Y-71606357D01*
X133131090Y-71606357D02*
X133083471Y-71701595D01*
X133083471Y-71701595D02*
X133083471Y-71749214D01*
X133083471Y-71749214D02*
X133131090Y-71844452D01*
X133131090Y-71844452D02*
X133178709Y-71892071D01*
X133178709Y-71892071D02*
X133273947Y-71939690D01*
X133273947Y-71939690D02*
X133464423Y-71939690D01*
X133464423Y-71939690D02*
X133559661Y-71987309D01*
X133559661Y-71987309D02*
X133607280Y-72034928D01*
X133607280Y-72034928D02*
X133654899Y-72130166D01*
X133654899Y-72130166D02*
X133654899Y-72320642D01*
X133654899Y-72320642D02*
X133607280Y-72415880D01*
X133607280Y-72415880D02*
X133559661Y-72463500D01*
X133559661Y-72463500D02*
X133464423Y-72511119D01*
X133464423Y-72511119D02*
X133273947Y-72511119D01*
X133273947Y-72511119D02*
X133178709Y-72463500D01*
X133178709Y-72463500D02*
X133131090Y-72415880D01*
X133131090Y-72415880D02*
X133083471Y-72320642D01*
X133083471Y-72320642D02*
X133083471Y-72130166D01*
X133083471Y-72130166D02*
X133131090Y-72034928D01*
X133131090Y-72034928D02*
X133178709Y-71987309D01*
X133178709Y-71987309D02*
X133273947Y-71939690D01*
X131892994Y-71987309D02*
X131131090Y-71987309D01*
X131131090Y-72273023D02*
X131892994Y-72273023D01*
X129702518Y-71511119D02*
X129607280Y-71511119D01*
X129607280Y-71511119D02*
X129512042Y-71558738D01*
X129512042Y-71558738D02*
X129464423Y-71606357D01*
X129464423Y-71606357D02*
X129416804Y-71701595D01*
X129416804Y-71701595D02*
X129369185Y-71892071D01*
X129369185Y-71892071D02*
X129369185Y-72130166D01*
X129369185Y-72130166D02*
X129416804Y-72320642D01*
X129416804Y-72320642D02*
X129464423Y-72415880D01*
X129464423Y-72415880D02*
X129512042Y-72463500D01*
X129512042Y-72463500D02*
X129607280Y-72511119D01*
X129607280Y-72511119D02*
X129702518Y-72511119D01*
X129702518Y-72511119D02*
X129797756Y-72463500D01*
X129797756Y-72463500D02*
X129845375Y-72415880D01*
X129845375Y-72415880D02*
X129892994Y-72320642D01*
X129892994Y-72320642D02*
X129940613Y-72130166D01*
X129940613Y-72130166D02*
X129940613Y-71892071D01*
X129940613Y-71892071D02*
X129892994Y-71701595D01*
X129892994Y-71701595D02*
X129845375Y-71606357D01*
X129845375Y-71606357D02*
X129797756Y-71558738D01*
X129797756Y-71558738D02*
X129702518Y-71511119D01*
X128035851Y-72511119D02*
X128131089Y-72463500D01*
X128131089Y-72463500D02*
X128178708Y-72415880D01*
X128178708Y-72415880D02*
X128226327Y-72320642D01*
X128226327Y-72320642D02*
X128226327Y-72034928D01*
X128226327Y-72034928D02*
X128178708Y-71939690D01*
X128178708Y-71939690D02*
X128131089Y-71892071D01*
X128131089Y-71892071D02*
X128035851Y-71844452D01*
X128035851Y-71844452D02*
X127892994Y-71844452D01*
X127892994Y-71844452D02*
X127797756Y-71892071D01*
X127797756Y-71892071D02*
X127750137Y-71939690D01*
X127750137Y-71939690D02*
X127702518Y-72034928D01*
X127702518Y-72034928D02*
X127702518Y-72320642D01*
X127702518Y-72320642D02*
X127750137Y-72415880D01*
X127750137Y-72415880D02*
X127797756Y-72463500D01*
X127797756Y-72463500D02*
X127892994Y-72511119D01*
X127892994Y-72511119D02*
X128035851Y-72511119D01*
X127273946Y-72511119D02*
X127273946Y-71511119D01*
X126845375Y-72511119D02*
X126845375Y-71987309D01*
X126845375Y-71987309D02*
X126892994Y-71892071D01*
X126892994Y-71892071D02*
X126988232Y-71844452D01*
X126988232Y-71844452D02*
X127131089Y-71844452D01*
X127131089Y-71844452D02*
X127226327Y-71892071D01*
X127226327Y-71892071D02*
X127273946Y-71939690D01*
X126369184Y-72511119D02*
X126369184Y-71844452D01*
X126369184Y-71939690D02*
X126321565Y-71892071D01*
X126321565Y-71892071D02*
X126226327Y-71844452D01*
X126226327Y-71844452D02*
X126083470Y-71844452D01*
X126083470Y-71844452D02*
X125988232Y-71892071D01*
X125988232Y-71892071D02*
X125940613Y-71987309D01*
X125940613Y-71987309D02*
X125940613Y-72511119D01*
X125940613Y-71987309D02*
X125892994Y-71892071D01*
X125892994Y-71892071D02*
X125797756Y-71844452D01*
X125797756Y-71844452D02*
X125654899Y-71844452D01*
X125654899Y-71844452D02*
X125559660Y-71892071D01*
X125559660Y-71892071D02*
X125512041Y-71987309D01*
X125512041Y-71987309D02*
X125512041Y-72511119D01*
X125083470Y-72463500D02*
X124988232Y-72511119D01*
X124988232Y-72511119D02*
X124797756Y-72511119D01*
X124797756Y-72511119D02*
X124702518Y-72463500D01*
X124702518Y-72463500D02*
X124654899Y-72368261D01*
X124654899Y-72368261D02*
X124654899Y-72320642D01*
X124654899Y-72320642D02*
X124702518Y-72225404D01*
X124702518Y-72225404D02*
X124797756Y-72177785D01*
X124797756Y-72177785D02*
X124940613Y-72177785D01*
X124940613Y-72177785D02*
X125035851Y-72130166D01*
X125035851Y-72130166D02*
X125083470Y-72034928D01*
X125083470Y-72034928D02*
X125083470Y-71987309D01*
X125083470Y-71987309D02*
X125035851Y-71892071D01*
X125035851Y-71892071D02*
X124940613Y-71844452D01*
X124940613Y-71844452D02*
X124797756Y-71844452D01*
X124797756Y-71844452D02*
X124702518Y-71892071D01*
X182131097Y-73121119D02*
X182321573Y-73121119D01*
X182321573Y-73121119D02*
X182416811Y-73168738D01*
X182416811Y-73168738D02*
X182464430Y-73216357D01*
X182464430Y-73216357D02*
X182559668Y-73359214D01*
X182559668Y-73359214D02*
X182607287Y-73549690D01*
X182607287Y-73549690D02*
X182607287Y-73930642D01*
X182607287Y-73930642D02*
X182559668Y-74025880D01*
X182559668Y-74025880D02*
X182512049Y-74073500D01*
X182512049Y-74073500D02*
X182416811Y-74121119D01*
X182416811Y-74121119D02*
X182226335Y-74121119D01*
X182226335Y-74121119D02*
X182131097Y-74073500D01*
X182131097Y-74073500D02*
X182083478Y-74025880D01*
X182083478Y-74025880D02*
X182035859Y-73930642D01*
X182035859Y-73930642D02*
X182035859Y-73692547D01*
X182035859Y-73692547D02*
X182083478Y-73597309D01*
X182083478Y-73597309D02*
X182131097Y-73549690D01*
X182131097Y-73549690D02*
X182226335Y-73502071D01*
X182226335Y-73502071D02*
X182416811Y-73502071D01*
X182416811Y-73502071D02*
X182512049Y-73549690D01*
X182512049Y-73549690D02*
X182559668Y-73597309D01*
X182559668Y-73597309D02*
X182607287Y-73692547D01*
X181178716Y-73454452D02*
X181178716Y-74121119D01*
X181416811Y-73073500D02*
X181654906Y-73787785D01*
X181654906Y-73787785D02*
X181035859Y-73787785D01*
X180035858Y-73454452D02*
X179654906Y-73454452D01*
X179893001Y-73121119D02*
X179893001Y-73978261D01*
X179893001Y-73978261D02*
X179845382Y-74073500D01*
X179845382Y-74073500D02*
X179750144Y-74121119D01*
X179750144Y-74121119D02*
X179654906Y-74121119D01*
X179178715Y-74121119D02*
X179273953Y-74073500D01*
X179273953Y-74073500D02*
X179321572Y-74025880D01*
X179321572Y-74025880D02*
X179369191Y-73930642D01*
X179369191Y-73930642D02*
X179369191Y-73644928D01*
X179369191Y-73644928D02*
X179321572Y-73549690D01*
X179321572Y-73549690D02*
X179273953Y-73502071D01*
X179273953Y-73502071D02*
X179178715Y-73454452D01*
X179178715Y-73454452D02*
X179035858Y-73454452D01*
X179035858Y-73454452D02*
X178940620Y-73502071D01*
X178940620Y-73502071D02*
X178893001Y-73549690D01*
X178893001Y-73549690D02*
X178845382Y-73644928D01*
X178845382Y-73644928D02*
X178845382Y-73930642D01*
X178845382Y-73930642D02*
X178893001Y-74025880D01*
X178893001Y-74025880D02*
X178940620Y-74073500D01*
X178940620Y-74073500D02*
X179035858Y-74121119D01*
X179035858Y-74121119D02*
X179178715Y-74121119D01*
X177607286Y-74121119D02*
X177416810Y-74121119D01*
X177416810Y-74121119D02*
X177321572Y-74073500D01*
X177321572Y-74073500D02*
X177273953Y-74025880D01*
X177273953Y-74025880D02*
X177178715Y-73883023D01*
X177178715Y-73883023D02*
X177131096Y-73692547D01*
X177131096Y-73692547D02*
X177131096Y-73311595D01*
X177131096Y-73311595D02*
X177178715Y-73216357D01*
X177178715Y-73216357D02*
X177226334Y-73168738D01*
X177226334Y-73168738D02*
X177321572Y-73121119D01*
X177321572Y-73121119D02*
X177512048Y-73121119D01*
X177512048Y-73121119D02*
X177607286Y-73168738D01*
X177607286Y-73168738D02*
X177654905Y-73216357D01*
X177654905Y-73216357D02*
X177702524Y-73311595D01*
X177702524Y-73311595D02*
X177702524Y-73549690D01*
X177702524Y-73549690D02*
X177654905Y-73644928D01*
X177654905Y-73644928D02*
X177607286Y-73692547D01*
X177607286Y-73692547D02*
X177512048Y-73740166D01*
X177512048Y-73740166D02*
X177321572Y-73740166D01*
X177321572Y-73740166D02*
X177226334Y-73692547D01*
X177226334Y-73692547D02*
X177178715Y-73644928D01*
X177178715Y-73644928D02*
X177131096Y-73549690D01*
X176273953Y-73121119D02*
X176464429Y-73121119D01*
X176464429Y-73121119D02*
X176559667Y-73168738D01*
X176559667Y-73168738D02*
X176607286Y-73216357D01*
X176607286Y-73216357D02*
X176702524Y-73359214D01*
X176702524Y-73359214D02*
X176750143Y-73549690D01*
X176750143Y-73549690D02*
X176750143Y-73930642D01*
X176750143Y-73930642D02*
X176702524Y-74025880D01*
X176702524Y-74025880D02*
X176654905Y-74073500D01*
X176654905Y-74073500D02*
X176559667Y-74121119D01*
X176559667Y-74121119D02*
X176369191Y-74121119D01*
X176369191Y-74121119D02*
X176273953Y-74073500D01*
X176273953Y-74073500D02*
X176226334Y-74025880D01*
X176226334Y-74025880D02*
X176178715Y-73930642D01*
X176178715Y-73930642D02*
X176178715Y-73692547D01*
X176178715Y-73692547D02*
X176226334Y-73597309D01*
X176226334Y-73597309D02*
X176273953Y-73549690D01*
X176273953Y-73549690D02*
X176369191Y-73502071D01*
X176369191Y-73502071D02*
X176559667Y-73502071D01*
X176559667Y-73502071D02*
X176654905Y-73549690D01*
X176654905Y-73549690D02*
X176702524Y-73597309D01*
X176702524Y-73597309D02*
X176750143Y-73692547D01*
X174988238Y-74121119D02*
X174988238Y-73121119D01*
X174893000Y-73740166D02*
X174607286Y-74121119D01*
X174607286Y-73454452D02*
X174988238Y-73835404D01*
X174178714Y-74121119D02*
X174178714Y-73121119D01*
X174178714Y-73597309D02*
X173607286Y-73597309D01*
X173607286Y-74121119D02*
X173607286Y-73121119D01*
X173226333Y-73454452D02*
X172702524Y-73454452D01*
X172702524Y-73454452D02*
X173226333Y-74121119D01*
X173226333Y-74121119D02*
X172702524Y-74121119D01*
X171607285Y-74073500D02*
X171464428Y-74121119D01*
X171464428Y-74121119D02*
X171226333Y-74121119D01*
X171226333Y-74121119D02*
X171131095Y-74073500D01*
X171131095Y-74073500D02*
X171083476Y-74025880D01*
X171083476Y-74025880D02*
X171035857Y-73930642D01*
X171035857Y-73930642D02*
X171035857Y-73835404D01*
X171035857Y-73835404D02*
X171083476Y-73740166D01*
X171083476Y-73740166D02*
X171131095Y-73692547D01*
X171131095Y-73692547D02*
X171226333Y-73644928D01*
X171226333Y-73644928D02*
X171416809Y-73597309D01*
X171416809Y-73597309D02*
X171512047Y-73549690D01*
X171512047Y-73549690D02*
X171559666Y-73502071D01*
X171559666Y-73502071D02*
X171607285Y-73406833D01*
X171607285Y-73406833D02*
X171607285Y-73311595D01*
X171607285Y-73311595D02*
X171559666Y-73216357D01*
X171559666Y-73216357D02*
X171512047Y-73168738D01*
X171512047Y-73168738D02*
X171416809Y-73121119D01*
X171416809Y-73121119D02*
X171178714Y-73121119D01*
X171178714Y-73121119D02*
X171035857Y-73168738D01*
X170750142Y-73454452D02*
X170369190Y-73454452D01*
X170607285Y-73121119D02*
X170607285Y-73978261D01*
X170607285Y-73978261D02*
X170559666Y-74073500D01*
X170559666Y-74073500D02*
X170464428Y-74121119D01*
X170464428Y-74121119D02*
X170369190Y-74121119D01*
X169654904Y-74073500D02*
X169750142Y-74121119D01*
X169750142Y-74121119D02*
X169940618Y-74121119D01*
X169940618Y-74121119D02*
X170035856Y-74073500D01*
X170035856Y-74073500D02*
X170083475Y-73978261D01*
X170083475Y-73978261D02*
X170083475Y-73597309D01*
X170083475Y-73597309D02*
X170035856Y-73502071D01*
X170035856Y-73502071D02*
X169940618Y-73454452D01*
X169940618Y-73454452D02*
X169750142Y-73454452D01*
X169750142Y-73454452D02*
X169654904Y-73502071D01*
X169654904Y-73502071D02*
X169607285Y-73597309D01*
X169607285Y-73597309D02*
X169607285Y-73692547D01*
X169607285Y-73692547D02*
X170083475Y-73787785D01*
X169178713Y-74121119D02*
X169178713Y-73454452D01*
X169178713Y-73644928D02*
X169131094Y-73549690D01*
X169131094Y-73549690D02*
X169083475Y-73502071D01*
X169083475Y-73502071D02*
X168988237Y-73454452D01*
X168988237Y-73454452D02*
X168892999Y-73454452D01*
X168178713Y-74073500D02*
X168273951Y-74121119D01*
X168273951Y-74121119D02*
X168464427Y-74121119D01*
X168464427Y-74121119D02*
X168559665Y-74073500D01*
X168559665Y-74073500D02*
X168607284Y-73978261D01*
X168607284Y-73978261D02*
X168607284Y-73597309D01*
X168607284Y-73597309D02*
X168559665Y-73502071D01*
X168559665Y-73502071D02*
X168464427Y-73454452D01*
X168464427Y-73454452D02*
X168273951Y-73454452D01*
X168273951Y-73454452D02*
X168178713Y-73502071D01*
X168178713Y-73502071D02*
X168131094Y-73597309D01*
X168131094Y-73597309D02*
X168131094Y-73692547D01*
X168131094Y-73692547D02*
X168607284Y-73787785D01*
X167559665Y-74121119D02*
X167654903Y-74073500D01*
X167654903Y-74073500D02*
X167702522Y-74025880D01*
X167702522Y-74025880D02*
X167750141Y-73930642D01*
X167750141Y-73930642D02*
X167750141Y-73644928D01*
X167750141Y-73644928D02*
X167702522Y-73549690D01*
X167702522Y-73549690D02*
X167654903Y-73502071D01*
X167654903Y-73502071D02*
X167559665Y-73454452D01*
X167559665Y-73454452D02*
X167416808Y-73454452D01*
X167416808Y-73454452D02*
X167321570Y-73502071D01*
X167321570Y-73502071D02*
X167273951Y-73549690D01*
X167273951Y-73549690D02*
X167226332Y-73644928D01*
X167226332Y-73644928D02*
X167226332Y-73930642D01*
X167226332Y-73930642D02*
X167273951Y-74025880D01*
X167273951Y-74025880D02*
X167321570Y-74073500D01*
X167321570Y-74073500D02*
X167416808Y-74121119D01*
X167416808Y-74121119D02*
X167559665Y-74121119D01*
X165750141Y-74502071D02*
X165797760Y-74454452D01*
X165797760Y-74454452D02*
X165892998Y-74311595D01*
X165892998Y-74311595D02*
X165940617Y-74216357D01*
X165940617Y-74216357D02*
X165988236Y-74073500D01*
X165988236Y-74073500D02*
X166035855Y-73835404D01*
X166035855Y-73835404D02*
X166035855Y-73644928D01*
X166035855Y-73644928D02*
X165988236Y-73406833D01*
X165988236Y-73406833D02*
X165940617Y-73263976D01*
X165940617Y-73263976D02*
X165892998Y-73168738D01*
X165892998Y-73168738D02*
X165797760Y-73025880D01*
X165797760Y-73025880D02*
X165750141Y-72978261D01*
X165369188Y-74121119D02*
X165369188Y-73121119D01*
X165369188Y-73597309D02*
X164797760Y-73597309D01*
X164797760Y-74121119D02*
X164797760Y-73121119D01*
X163892998Y-74121119D02*
X163892998Y-73597309D01*
X163892998Y-73597309D02*
X163940617Y-73502071D01*
X163940617Y-73502071D02*
X164035855Y-73454452D01*
X164035855Y-73454452D02*
X164226331Y-73454452D01*
X164226331Y-73454452D02*
X164321569Y-73502071D01*
X163892998Y-74073500D02*
X163988236Y-74121119D01*
X163988236Y-74121119D02*
X164226331Y-74121119D01*
X164226331Y-74121119D02*
X164321569Y-74073500D01*
X164321569Y-74073500D02*
X164369188Y-73978261D01*
X164369188Y-73978261D02*
X164369188Y-73883023D01*
X164369188Y-73883023D02*
X164321569Y-73787785D01*
X164321569Y-73787785D02*
X164226331Y-73740166D01*
X164226331Y-73740166D02*
X163988236Y-73740166D01*
X163988236Y-73740166D02*
X163892998Y-73692547D01*
X163416807Y-74121119D02*
X163416807Y-73454452D01*
X163416807Y-73644928D02*
X163369188Y-73549690D01*
X163369188Y-73549690D02*
X163321569Y-73502071D01*
X163321569Y-73502071D02*
X163226331Y-73454452D01*
X163226331Y-73454452D02*
X163131093Y-73454452D01*
X162369188Y-74121119D02*
X162369188Y-73121119D01*
X162369188Y-74073500D02*
X162464426Y-74121119D01*
X162464426Y-74121119D02*
X162654902Y-74121119D01*
X162654902Y-74121119D02*
X162750140Y-74073500D01*
X162750140Y-74073500D02*
X162797759Y-74025880D01*
X162797759Y-74025880D02*
X162845378Y-73930642D01*
X162845378Y-73930642D02*
X162845378Y-73644928D01*
X162845378Y-73644928D02*
X162797759Y-73549690D01*
X162797759Y-73549690D02*
X162750140Y-73502071D01*
X162750140Y-73502071D02*
X162654902Y-73454452D01*
X162654902Y-73454452D02*
X162464426Y-73454452D01*
X162464426Y-73454452D02*
X162369188Y-73502071D01*
X161988235Y-73454452D02*
X161797759Y-74121119D01*
X161797759Y-74121119D02*
X161607283Y-73644928D01*
X161607283Y-73644928D02*
X161416807Y-74121119D01*
X161416807Y-74121119D02*
X161226331Y-73454452D01*
X160416807Y-74121119D02*
X160416807Y-73597309D01*
X160416807Y-73597309D02*
X160464426Y-73502071D01*
X160464426Y-73502071D02*
X160559664Y-73454452D01*
X160559664Y-73454452D02*
X160750140Y-73454452D01*
X160750140Y-73454452D02*
X160845378Y-73502071D01*
X160416807Y-74073500D02*
X160512045Y-74121119D01*
X160512045Y-74121119D02*
X160750140Y-74121119D01*
X160750140Y-74121119D02*
X160845378Y-74073500D01*
X160845378Y-74073500D02*
X160892997Y-73978261D01*
X160892997Y-73978261D02*
X160892997Y-73883023D01*
X160892997Y-73883023D02*
X160845378Y-73787785D01*
X160845378Y-73787785D02*
X160750140Y-73740166D01*
X160750140Y-73740166D02*
X160512045Y-73740166D01*
X160512045Y-73740166D02*
X160416807Y-73692547D01*
X159940616Y-74121119D02*
X159940616Y-73454452D01*
X159940616Y-73644928D02*
X159892997Y-73549690D01*
X159892997Y-73549690D02*
X159845378Y-73502071D01*
X159845378Y-73502071D02*
X159750140Y-73454452D01*
X159750140Y-73454452D02*
X159654902Y-73454452D01*
X158940616Y-74073500D02*
X159035854Y-74121119D01*
X159035854Y-74121119D02*
X159226330Y-74121119D01*
X159226330Y-74121119D02*
X159321568Y-74073500D01*
X159321568Y-74073500D02*
X159369187Y-73978261D01*
X159369187Y-73978261D02*
X159369187Y-73597309D01*
X159369187Y-73597309D02*
X159321568Y-73502071D01*
X159321568Y-73502071D02*
X159226330Y-73454452D01*
X159226330Y-73454452D02*
X159035854Y-73454452D01*
X159035854Y-73454452D02*
X158940616Y-73502071D01*
X158940616Y-73502071D02*
X158892997Y-73597309D01*
X158892997Y-73597309D02*
X158892997Y-73692547D01*
X158892997Y-73692547D02*
X159369187Y-73787785D01*
X157702520Y-74121119D02*
X157702520Y-73121119D01*
X157702520Y-73121119D02*
X157369187Y-73835404D01*
X157369187Y-73835404D02*
X157035854Y-73121119D01*
X157035854Y-73121119D02*
X157035854Y-74121119D01*
X156416806Y-74121119D02*
X156512044Y-74073500D01*
X156512044Y-74073500D02*
X156559663Y-74025880D01*
X156559663Y-74025880D02*
X156607282Y-73930642D01*
X156607282Y-73930642D02*
X156607282Y-73644928D01*
X156607282Y-73644928D02*
X156559663Y-73549690D01*
X156559663Y-73549690D02*
X156512044Y-73502071D01*
X156512044Y-73502071D02*
X156416806Y-73454452D01*
X156416806Y-73454452D02*
X156273949Y-73454452D01*
X156273949Y-73454452D02*
X156178711Y-73502071D01*
X156178711Y-73502071D02*
X156131092Y-73549690D01*
X156131092Y-73549690D02*
X156083473Y-73644928D01*
X156083473Y-73644928D02*
X156083473Y-73930642D01*
X156083473Y-73930642D02*
X156131092Y-74025880D01*
X156131092Y-74025880D02*
X156178711Y-74073500D01*
X156178711Y-74073500D02*
X156273949Y-74121119D01*
X156273949Y-74121119D02*
X156416806Y-74121119D01*
X155226330Y-74121119D02*
X155226330Y-73121119D01*
X155226330Y-74073500D02*
X155321568Y-74121119D01*
X155321568Y-74121119D02*
X155512044Y-74121119D01*
X155512044Y-74121119D02*
X155607282Y-74073500D01*
X155607282Y-74073500D02*
X155654901Y-74025880D01*
X155654901Y-74025880D02*
X155702520Y-73930642D01*
X155702520Y-73930642D02*
X155702520Y-73644928D01*
X155702520Y-73644928D02*
X155654901Y-73549690D01*
X155654901Y-73549690D02*
X155607282Y-73502071D01*
X155607282Y-73502071D02*
X155512044Y-73454452D01*
X155512044Y-73454452D02*
X155321568Y-73454452D01*
X155321568Y-73454452D02*
X155226330Y-73502071D01*
X154369187Y-74073500D02*
X154464425Y-74121119D01*
X154464425Y-74121119D02*
X154654901Y-74121119D01*
X154654901Y-74121119D02*
X154750139Y-74073500D01*
X154750139Y-74073500D02*
X154797758Y-73978261D01*
X154797758Y-73978261D02*
X154797758Y-73597309D01*
X154797758Y-73597309D02*
X154750139Y-73502071D01*
X154750139Y-73502071D02*
X154654901Y-73454452D01*
X154654901Y-73454452D02*
X154464425Y-73454452D01*
X154464425Y-73454452D02*
X154369187Y-73502071D01*
X154369187Y-73502071D02*
X154321568Y-73597309D01*
X154321568Y-73597309D02*
X154321568Y-73692547D01*
X154321568Y-73692547D02*
X154797758Y-73787785D01*
X153988234Y-74502071D02*
X153940615Y-74454452D01*
X153940615Y-74454452D02*
X153845377Y-74311595D01*
X153845377Y-74311595D02*
X153797758Y-74216357D01*
X153797758Y-74216357D02*
X153750139Y-74073500D01*
X153750139Y-74073500D02*
X153702520Y-73835404D01*
X153702520Y-73835404D02*
X153702520Y-73644928D01*
X153702520Y-73644928D02*
X153750139Y-73406833D01*
X153750139Y-73406833D02*
X153797758Y-73263976D01*
X153797758Y-73263976D02*
X153845377Y-73168738D01*
X153845377Y-73168738D02*
X153940615Y-73025880D01*
X153940615Y-73025880D02*
X153988234Y-72978261D01*
X152464424Y-74025880D02*
X152416805Y-74073500D01*
X152416805Y-74073500D02*
X152464424Y-74121119D01*
X152464424Y-74121119D02*
X152512043Y-74073500D01*
X152512043Y-74073500D02*
X152464424Y-74025880D01*
X152464424Y-74025880D02*
X152464424Y-74121119D01*
X152464424Y-73502071D02*
X152416805Y-73549690D01*
X152416805Y-73549690D02*
X152464424Y-73597309D01*
X152464424Y-73597309D02*
X152512043Y-73549690D01*
X152512043Y-73549690D02*
X152464424Y-73502071D01*
X152464424Y-73502071D02*
X152464424Y-73597309D01*
X151035853Y-73121119D02*
X150845377Y-73121119D01*
X150845377Y-73121119D02*
X150750139Y-73168738D01*
X150750139Y-73168738D02*
X150654901Y-73263976D01*
X150654901Y-73263976D02*
X150607282Y-73454452D01*
X150607282Y-73454452D02*
X150607282Y-73787785D01*
X150607282Y-73787785D02*
X150654901Y-73978261D01*
X150654901Y-73978261D02*
X150750139Y-74073500D01*
X150750139Y-74073500D02*
X150845377Y-74121119D01*
X150845377Y-74121119D02*
X151035853Y-74121119D01*
X151035853Y-74121119D02*
X151131091Y-74073500D01*
X151131091Y-74073500D02*
X151226329Y-73978261D01*
X151226329Y-73978261D02*
X151273948Y-73787785D01*
X151273948Y-73787785D02*
X151273948Y-73454452D01*
X151273948Y-73454452D02*
X151226329Y-73263976D01*
X151226329Y-73263976D02*
X151131091Y-73168738D01*
X151131091Y-73168738D02*
X151035853Y-73121119D01*
X150178710Y-74121119D02*
X150178710Y-73121119D01*
X150178710Y-73121119D02*
X149607282Y-74121119D01*
X149607282Y-74121119D02*
X149607282Y-73121119D01*
X148654901Y-74121119D02*
X149131091Y-74121119D01*
X149131091Y-74121119D02*
X149131091Y-73121119D01*
X148131091Y-73644928D02*
X148131091Y-74121119D01*
X148464424Y-73121119D02*
X148131091Y-73644928D01*
X148131091Y-73644928D02*
X147797758Y-73121119D01*
X146702519Y-73454452D02*
X146702519Y-74454452D01*
X146702519Y-73502071D02*
X146607281Y-73454452D01*
X146607281Y-73454452D02*
X146416805Y-73454452D01*
X146416805Y-73454452D02*
X146321567Y-73502071D01*
X146321567Y-73502071D02*
X146273948Y-73549690D01*
X146273948Y-73549690D02*
X146226329Y-73644928D01*
X146226329Y-73644928D02*
X146226329Y-73930642D01*
X146226329Y-73930642D02*
X146273948Y-74025880D01*
X146273948Y-74025880D02*
X146321567Y-74073500D01*
X146321567Y-74073500D02*
X146416805Y-74121119D01*
X146416805Y-74121119D02*
X146607281Y-74121119D01*
X146607281Y-74121119D02*
X146702519Y-74073500D01*
X145654900Y-74121119D02*
X145750138Y-74073500D01*
X145750138Y-74073500D02*
X145797757Y-74025880D01*
X145797757Y-74025880D02*
X145845376Y-73930642D01*
X145845376Y-73930642D02*
X145845376Y-73644928D01*
X145845376Y-73644928D02*
X145797757Y-73549690D01*
X145797757Y-73549690D02*
X145750138Y-73502071D01*
X145750138Y-73502071D02*
X145654900Y-73454452D01*
X145654900Y-73454452D02*
X145512043Y-73454452D01*
X145512043Y-73454452D02*
X145416805Y-73502071D01*
X145416805Y-73502071D02*
X145369186Y-73549690D01*
X145369186Y-73549690D02*
X145321567Y-73644928D01*
X145321567Y-73644928D02*
X145321567Y-73930642D01*
X145321567Y-73930642D02*
X145369186Y-74025880D01*
X145369186Y-74025880D02*
X145416805Y-74073500D01*
X145416805Y-74073500D02*
X145512043Y-74121119D01*
X145512043Y-74121119D02*
X145654900Y-74121119D01*
X144892995Y-73454452D02*
X144892995Y-74454452D01*
X144892995Y-73502071D02*
X144797757Y-73454452D01*
X144797757Y-73454452D02*
X144607281Y-73454452D01*
X144607281Y-73454452D02*
X144512043Y-73502071D01*
X144512043Y-73502071D02*
X144464424Y-73549690D01*
X144464424Y-73549690D02*
X144416805Y-73644928D01*
X144416805Y-73644928D02*
X144416805Y-73930642D01*
X144416805Y-73930642D02*
X144464424Y-74025880D01*
X144464424Y-74025880D02*
X144512043Y-74073500D01*
X144512043Y-74073500D02*
X144607281Y-74121119D01*
X144607281Y-74121119D02*
X144797757Y-74121119D01*
X144797757Y-74121119D02*
X144892995Y-74073500D01*
X143559662Y-73454452D02*
X143559662Y-74121119D01*
X143988233Y-73454452D02*
X143988233Y-73978261D01*
X143988233Y-73978261D02*
X143940614Y-74073500D01*
X143940614Y-74073500D02*
X143845376Y-74121119D01*
X143845376Y-74121119D02*
X143702519Y-74121119D01*
X143702519Y-74121119D02*
X143607281Y-74073500D01*
X143607281Y-74073500D02*
X143559662Y-74025880D01*
X142940614Y-74121119D02*
X143035852Y-74073500D01*
X143035852Y-74073500D02*
X143083471Y-73978261D01*
X143083471Y-73978261D02*
X143083471Y-73121119D01*
X142131090Y-74121119D02*
X142131090Y-73597309D01*
X142131090Y-73597309D02*
X142178709Y-73502071D01*
X142178709Y-73502071D02*
X142273947Y-73454452D01*
X142273947Y-73454452D02*
X142464423Y-73454452D01*
X142464423Y-73454452D02*
X142559661Y-73502071D01*
X142131090Y-74073500D02*
X142226328Y-74121119D01*
X142226328Y-74121119D02*
X142464423Y-74121119D01*
X142464423Y-74121119D02*
X142559661Y-74073500D01*
X142559661Y-74073500D02*
X142607280Y-73978261D01*
X142607280Y-73978261D02*
X142607280Y-73883023D01*
X142607280Y-73883023D02*
X142559661Y-73787785D01*
X142559661Y-73787785D02*
X142464423Y-73740166D01*
X142464423Y-73740166D02*
X142226328Y-73740166D01*
X142226328Y-73740166D02*
X142131090Y-73692547D01*
X141797756Y-73454452D02*
X141416804Y-73454452D01*
X141654899Y-73121119D02*
X141654899Y-73978261D01*
X141654899Y-73978261D02*
X141607280Y-74073500D01*
X141607280Y-74073500D02*
X141512042Y-74121119D01*
X141512042Y-74121119D02*
X141416804Y-74121119D01*
X140702518Y-74073500D02*
X140797756Y-74121119D01*
X140797756Y-74121119D02*
X140988232Y-74121119D01*
X140988232Y-74121119D02*
X141083470Y-74073500D01*
X141083470Y-74073500D02*
X141131089Y-73978261D01*
X141131089Y-73978261D02*
X141131089Y-73597309D01*
X141131089Y-73597309D02*
X141083470Y-73502071D01*
X141083470Y-73502071D02*
X140988232Y-73454452D01*
X140988232Y-73454452D02*
X140797756Y-73454452D01*
X140797756Y-73454452D02*
X140702518Y-73502071D01*
X140702518Y-73502071D02*
X140654899Y-73597309D01*
X140654899Y-73597309D02*
X140654899Y-73692547D01*
X140654899Y-73692547D02*
X141131089Y-73787785D01*
X138892994Y-74121119D02*
X139226327Y-73644928D01*
X139464422Y-74121119D02*
X139464422Y-73121119D01*
X139464422Y-73121119D02*
X139083470Y-73121119D01*
X139083470Y-73121119D02*
X138988232Y-73168738D01*
X138988232Y-73168738D02*
X138940613Y-73216357D01*
X138940613Y-73216357D02*
X138892994Y-73311595D01*
X138892994Y-73311595D02*
X138892994Y-73454452D01*
X138892994Y-73454452D02*
X138940613Y-73549690D01*
X138940613Y-73549690D02*
X138988232Y-73597309D01*
X138988232Y-73597309D02*
X139083470Y-73644928D01*
X139083470Y-73644928D02*
X139464422Y-73644928D01*
X138512041Y-73216357D02*
X138464422Y-73168738D01*
X138464422Y-73168738D02*
X138369184Y-73121119D01*
X138369184Y-73121119D02*
X138131089Y-73121119D01*
X138131089Y-73121119D02*
X138035851Y-73168738D01*
X138035851Y-73168738D02*
X137988232Y-73216357D01*
X137988232Y-73216357D02*
X137940613Y-73311595D01*
X137940613Y-73311595D02*
X137940613Y-73406833D01*
X137940613Y-73406833D02*
X137988232Y-73549690D01*
X137988232Y-73549690D02*
X138559660Y-74121119D01*
X138559660Y-74121119D02*
X137940613Y-74121119D01*
X137464422Y-74073500D02*
X137464422Y-74121119D01*
X137464422Y-74121119D02*
X137512041Y-74216357D01*
X137512041Y-74216357D02*
X137559660Y-74263976D01*
X136464423Y-74121119D02*
X136797756Y-73644928D01*
X137035851Y-74121119D02*
X137035851Y-73121119D01*
X137035851Y-73121119D02*
X136654899Y-73121119D01*
X136654899Y-73121119D02*
X136559661Y-73168738D01*
X136559661Y-73168738D02*
X136512042Y-73216357D01*
X136512042Y-73216357D02*
X136464423Y-73311595D01*
X136464423Y-73311595D02*
X136464423Y-73454452D01*
X136464423Y-73454452D02*
X136512042Y-73549690D01*
X136512042Y-73549690D02*
X136559661Y-73597309D01*
X136559661Y-73597309D02*
X136654899Y-73644928D01*
X136654899Y-73644928D02*
X137035851Y-73644928D01*
X136131089Y-73121119D02*
X135512042Y-73121119D01*
X135512042Y-73121119D02*
X135845375Y-73502071D01*
X135845375Y-73502071D02*
X135702518Y-73502071D01*
X135702518Y-73502071D02*
X135607280Y-73549690D01*
X135607280Y-73549690D02*
X135559661Y-73597309D01*
X135559661Y-73597309D02*
X135512042Y-73692547D01*
X135512042Y-73692547D02*
X135512042Y-73930642D01*
X135512042Y-73930642D02*
X135559661Y-74025880D01*
X135559661Y-74025880D02*
X135607280Y-74073500D01*
X135607280Y-74073500D02*
X135702518Y-74121119D01*
X135702518Y-74121119D02*
X135988232Y-74121119D01*
X135988232Y-74121119D02*
X136083470Y-74073500D01*
X136083470Y-74073500D02*
X136131089Y-74025880D01*
X135035851Y-74073500D02*
X135035851Y-74121119D01*
X135035851Y-74121119D02*
X135083470Y-74216357D01*
X135083470Y-74216357D02*
X135131089Y-74263976D01*
X134035852Y-74121119D02*
X134369185Y-73644928D01*
X134607280Y-74121119D02*
X134607280Y-73121119D01*
X134607280Y-73121119D02*
X134226328Y-73121119D01*
X134226328Y-73121119D02*
X134131090Y-73168738D01*
X134131090Y-73168738D02*
X134083471Y-73216357D01*
X134083471Y-73216357D02*
X134035852Y-73311595D01*
X134035852Y-73311595D02*
X134035852Y-73454452D01*
X134035852Y-73454452D02*
X134083471Y-73549690D01*
X134083471Y-73549690D02*
X134131090Y-73597309D01*
X134131090Y-73597309D02*
X134226328Y-73644928D01*
X134226328Y-73644928D02*
X134607280Y-73644928D01*
X133464423Y-73549690D02*
X133559661Y-73502071D01*
X133559661Y-73502071D02*
X133607280Y-73454452D01*
X133607280Y-73454452D02*
X133654899Y-73359214D01*
X133654899Y-73359214D02*
X133654899Y-73311595D01*
X133654899Y-73311595D02*
X133607280Y-73216357D01*
X133607280Y-73216357D02*
X133559661Y-73168738D01*
X133559661Y-73168738D02*
X133464423Y-73121119D01*
X133464423Y-73121119D02*
X133273947Y-73121119D01*
X133273947Y-73121119D02*
X133178709Y-73168738D01*
X133178709Y-73168738D02*
X133131090Y-73216357D01*
X133131090Y-73216357D02*
X133083471Y-73311595D01*
X133083471Y-73311595D02*
X133083471Y-73359214D01*
X133083471Y-73359214D02*
X133131090Y-73454452D01*
X133131090Y-73454452D02*
X133178709Y-73502071D01*
X133178709Y-73502071D02*
X133273947Y-73549690D01*
X133273947Y-73549690D02*
X133464423Y-73549690D01*
X133464423Y-73549690D02*
X133559661Y-73597309D01*
X133559661Y-73597309D02*
X133607280Y-73644928D01*
X133607280Y-73644928D02*
X133654899Y-73740166D01*
X133654899Y-73740166D02*
X133654899Y-73930642D01*
X133654899Y-73930642D02*
X133607280Y-74025880D01*
X133607280Y-74025880D02*
X133559661Y-74073500D01*
X133559661Y-74073500D02*
X133464423Y-74121119D01*
X133464423Y-74121119D02*
X133273947Y-74121119D01*
X133273947Y-74121119D02*
X133178709Y-74073500D01*
X133178709Y-74073500D02*
X133131090Y-74025880D01*
X133131090Y-74025880D02*
X133083471Y-73930642D01*
X133083471Y-73930642D02*
X133083471Y-73740166D01*
X133083471Y-73740166D02*
X133131090Y-73644928D01*
X133131090Y-73644928D02*
X133178709Y-73597309D01*
X133178709Y-73597309D02*
X133273947Y-73549690D01*
X131892994Y-73597309D02*
X131131090Y-73597309D01*
X131131090Y-73883023D02*
X131892994Y-73883023D01*
X129702518Y-73121119D02*
X129607280Y-73121119D01*
X129607280Y-73121119D02*
X129512042Y-73168738D01*
X129512042Y-73168738D02*
X129464423Y-73216357D01*
X129464423Y-73216357D02*
X129416804Y-73311595D01*
X129416804Y-73311595D02*
X129369185Y-73502071D01*
X129369185Y-73502071D02*
X129369185Y-73740166D01*
X129369185Y-73740166D02*
X129416804Y-73930642D01*
X129416804Y-73930642D02*
X129464423Y-74025880D01*
X129464423Y-74025880D02*
X129512042Y-74073500D01*
X129512042Y-74073500D02*
X129607280Y-74121119D01*
X129607280Y-74121119D02*
X129702518Y-74121119D01*
X129702518Y-74121119D02*
X129797756Y-74073500D01*
X129797756Y-74073500D02*
X129845375Y-74025880D01*
X129845375Y-74025880D02*
X129892994Y-73930642D01*
X129892994Y-73930642D02*
X129940613Y-73740166D01*
X129940613Y-73740166D02*
X129940613Y-73502071D01*
X129940613Y-73502071D02*
X129892994Y-73311595D01*
X129892994Y-73311595D02*
X129845375Y-73216357D01*
X129845375Y-73216357D02*
X129797756Y-73168738D01*
X129797756Y-73168738D02*
X129702518Y-73121119D01*
X128035851Y-74121119D02*
X128131089Y-74073500D01*
X128131089Y-74073500D02*
X128178708Y-74025880D01*
X128178708Y-74025880D02*
X128226327Y-73930642D01*
X128226327Y-73930642D02*
X128226327Y-73644928D01*
X128226327Y-73644928D02*
X128178708Y-73549690D01*
X128178708Y-73549690D02*
X128131089Y-73502071D01*
X128131089Y-73502071D02*
X128035851Y-73454452D01*
X128035851Y-73454452D02*
X127892994Y-73454452D01*
X127892994Y-73454452D02*
X127797756Y-73502071D01*
X127797756Y-73502071D02*
X127750137Y-73549690D01*
X127750137Y-73549690D02*
X127702518Y-73644928D01*
X127702518Y-73644928D02*
X127702518Y-73930642D01*
X127702518Y-73930642D02*
X127750137Y-74025880D01*
X127750137Y-74025880D02*
X127797756Y-74073500D01*
X127797756Y-74073500D02*
X127892994Y-74121119D01*
X127892994Y-74121119D02*
X128035851Y-74121119D01*
X127273946Y-74121119D02*
X127273946Y-73121119D01*
X126845375Y-74121119D02*
X126845375Y-73597309D01*
X126845375Y-73597309D02*
X126892994Y-73502071D01*
X126892994Y-73502071D02*
X126988232Y-73454452D01*
X126988232Y-73454452D02*
X127131089Y-73454452D01*
X127131089Y-73454452D02*
X127226327Y-73502071D01*
X127226327Y-73502071D02*
X127273946Y-73549690D01*
X126369184Y-74121119D02*
X126369184Y-73454452D01*
X126369184Y-73549690D02*
X126321565Y-73502071D01*
X126321565Y-73502071D02*
X126226327Y-73454452D01*
X126226327Y-73454452D02*
X126083470Y-73454452D01*
X126083470Y-73454452D02*
X125988232Y-73502071D01*
X125988232Y-73502071D02*
X125940613Y-73597309D01*
X125940613Y-73597309D02*
X125940613Y-74121119D01*
X125940613Y-73597309D02*
X125892994Y-73502071D01*
X125892994Y-73502071D02*
X125797756Y-73454452D01*
X125797756Y-73454452D02*
X125654899Y-73454452D01*
X125654899Y-73454452D02*
X125559660Y-73502071D01*
X125559660Y-73502071D02*
X125512041Y-73597309D01*
X125512041Y-73597309D02*
X125512041Y-74121119D01*
X125083470Y-74073500D02*
X124988232Y-74121119D01*
X124988232Y-74121119D02*
X124797756Y-74121119D01*
X124797756Y-74121119D02*
X124702518Y-74073500D01*
X124702518Y-74073500D02*
X124654899Y-73978261D01*
X124654899Y-73978261D02*
X124654899Y-73930642D01*
X124654899Y-73930642D02*
X124702518Y-73835404D01*
X124702518Y-73835404D02*
X124797756Y-73787785D01*
X124797756Y-73787785D02*
X124940613Y-73787785D01*
X124940613Y-73787785D02*
X125035851Y-73740166D01*
X125035851Y-73740166D02*
X125083470Y-73644928D01*
X125083470Y-73644928D02*
X125083470Y-73597309D01*
X125083470Y-73597309D02*
X125035851Y-73502071D01*
X125035851Y-73502071D02*
X124940613Y-73454452D01*
X124940613Y-73454452D02*
X124797756Y-73454452D01*
X124797756Y-73454452D02*
X124702518Y-73502071D01*
X182559668Y-75731119D02*
X182559668Y-74731119D01*
X182131097Y-74826357D02*
X182083478Y-74778738D01*
X182083478Y-74778738D02*
X181988240Y-74731119D01*
X181988240Y-74731119D02*
X181750145Y-74731119D01*
X181750145Y-74731119D02*
X181654907Y-74778738D01*
X181654907Y-74778738D02*
X181607288Y-74826357D01*
X181607288Y-74826357D02*
X181559669Y-74921595D01*
X181559669Y-74921595D02*
X181559669Y-75016833D01*
X181559669Y-75016833D02*
X181607288Y-75159690D01*
X181607288Y-75159690D02*
X182178716Y-75731119D01*
X182178716Y-75731119D02*
X181559669Y-75731119D01*
X180559669Y-75635880D02*
X180607288Y-75683500D01*
X180607288Y-75683500D02*
X180750145Y-75731119D01*
X180750145Y-75731119D02*
X180845383Y-75731119D01*
X180845383Y-75731119D02*
X180988240Y-75683500D01*
X180988240Y-75683500D02*
X181083478Y-75588261D01*
X181083478Y-75588261D02*
X181131097Y-75493023D01*
X181131097Y-75493023D02*
X181178716Y-75302547D01*
X181178716Y-75302547D02*
X181178716Y-75159690D01*
X181178716Y-75159690D02*
X181131097Y-74969214D01*
X181131097Y-74969214D02*
X181083478Y-74873976D01*
X181083478Y-74873976D02*
X180988240Y-74778738D01*
X180988240Y-74778738D02*
X180845383Y-74731119D01*
X180845383Y-74731119D02*
X180750145Y-74731119D01*
X180750145Y-74731119D02*
X180607288Y-74778738D01*
X180607288Y-74778738D02*
X180559669Y-74826357D01*
X179369192Y-75731119D02*
X179369192Y-74731119D01*
X179369192Y-74731119D02*
X179131097Y-74731119D01*
X179131097Y-74731119D02*
X178988240Y-74778738D01*
X178988240Y-74778738D02*
X178893002Y-74873976D01*
X178893002Y-74873976D02*
X178845383Y-74969214D01*
X178845383Y-74969214D02*
X178797764Y-75159690D01*
X178797764Y-75159690D02*
X178797764Y-75302547D01*
X178797764Y-75302547D02*
X178845383Y-75493023D01*
X178845383Y-75493023D02*
X178893002Y-75588261D01*
X178893002Y-75588261D02*
X178988240Y-75683500D01*
X178988240Y-75683500D02*
X179131097Y-75731119D01*
X179131097Y-75731119D02*
X179369192Y-75731119D01*
X177988240Y-75683500D02*
X178083478Y-75731119D01*
X178083478Y-75731119D02*
X178273954Y-75731119D01*
X178273954Y-75731119D02*
X178369192Y-75683500D01*
X178369192Y-75683500D02*
X178416811Y-75588261D01*
X178416811Y-75588261D02*
X178416811Y-75207309D01*
X178416811Y-75207309D02*
X178369192Y-75112071D01*
X178369192Y-75112071D02*
X178273954Y-75064452D01*
X178273954Y-75064452D02*
X178083478Y-75064452D01*
X178083478Y-75064452D02*
X177988240Y-75112071D01*
X177988240Y-75112071D02*
X177940621Y-75207309D01*
X177940621Y-75207309D02*
X177940621Y-75302547D01*
X177940621Y-75302547D02*
X178416811Y-75397785D01*
X177607287Y-75064452D02*
X177369192Y-75731119D01*
X177369192Y-75731119D02*
X177131097Y-75064452D01*
X176750144Y-75731119D02*
X176750144Y-75064452D01*
X176750144Y-74731119D02*
X176797763Y-74778738D01*
X176797763Y-74778738D02*
X176750144Y-74826357D01*
X176750144Y-74826357D02*
X176702525Y-74778738D01*
X176702525Y-74778738D02*
X176750144Y-74731119D01*
X176750144Y-74731119D02*
X176750144Y-74826357D01*
X175845383Y-75683500D02*
X175940621Y-75731119D01*
X175940621Y-75731119D02*
X176131097Y-75731119D01*
X176131097Y-75731119D02*
X176226335Y-75683500D01*
X176226335Y-75683500D02*
X176273954Y-75635880D01*
X176273954Y-75635880D02*
X176321573Y-75540642D01*
X176321573Y-75540642D02*
X176321573Y-75254928D01*
X176321573Y-75254928D02*
X176273954Y-75159690D01*
X176273954Y-75159690D02*
X176226335Y-75112071D01*
X176226335Y-75112071D02*
X176131097Y-75064452D01*
X176131097Y-75064452D02*
X175940621Y-75064452D01*
X175940621Y-75064452D02*
X175845383Y-75112071D01*
X175035859Y-75683500D02*
X175131097Y-75731119D01*
X175131097Y-75731119D02*
X175321573Y-75731119D01*
X175321573Y-75731119D02*
X175416811Y-75683500D01*
X175416811Y-75683500D02*
X175464430Y-75588261D01*
X175464430Y-75588261D02*
X175464430Y-75207309D01*
X175464430Y-75207309D02*
X175416811Y-75112071D01*
X175416811Y-75112071D02*
X175321573Y-75064452D01*
X175321573Y-75064452D02*
X175131097Y-75064452D01*
X175131097Y-75064452D02*
X175035859Y-75112071D01*
X175035859Y-75112071D02*
X174988240Y-75207309D01*
X174988240Y-75207309D02*
X174988240Y-75302547D01*
X174988240Y-75302547D02*
X175464430Y-75397785D01*
X173845382Y-75445404D02*
X173369192Y-75445404D01*
X173940620Y-75731119D02*
X173607287Y-74731119D01*
X173607287Y-74731119D02*
X173273954Y-75731119D01*
X172512049Y-75731119D02*
X172512049Y-74731119D01*
X172512049Y-75683500D02*
X172607287Y-75731119D01*
X172607287Y-75731119D02*
X172797763Y-75731119D01*
X172797763Y-75731119D02*
X172893001Y-75683500D01*
X172893001Y-75683500D02*
X172940620Y-75635880D01*
X172940620Y-75635880D02*
X172988239Y-75540642D01*
X172988239Y-75540642D02*
X172988239Y-75254928D01*
X172988239Y-75254928D02*
X172940620Y-75159690D01*
X172940620Y-75159690D02*
X172893001Y-75112071D01*
X172893001Y-75112071D02*
X172797763Y-75064452D01*
X172797763Y-75064452D02*
X172607287Y-75064452D01*
X172607287Y-75064452D02*
X172512049Y-75112071D01*
X171607287Y-75731119D02*
X171607287Y-74731119D01*
X171607287Y-75683500D02*
X171702525Y-75731119D01*
X171702525Y-75731119D02*
X171893001Y-75731119D01*
X171893001Y-75731119D02*
X171988239Y-75683500D01*
X171988239Y-75683500D02*
X172035858Y-75635880D01*
X172035858Y-75635880D02*
X172083477Y-75540642D01*
X172083477Y-75540642D02*
X172083477Y-75254928D01*
X172083477Y-75254928D02*
X172035858Y-75159690D01*
X172035858Y-75159690D02*
X171988239Y-75112071D01*
X171988239Y-75112071D02*
X171893001Y-75064452D01*
X171893001Y-75064452D02*
X171702525Y-75064452D01*
X171702525Y-75064452D02*
X171607287Y-75112071D01*
X171131096Y-75731119D02*
X171131096Y-75064452D01*
X171131096Y-75254928D02*
X171083477Y-75159690D01*
X171083477Y-75159690D02*
X171035858Y-75112071D01*
X171035858Y-75112071D02*
X170940620Y-75064452D01*
X170940620Y-75064452D02*
X170845382Y-75064452D01*
X170131096Y-75683500D02*
X170226334Y-75731119D01*
X170226334Y-75731119D02*
X170416810Y-75731119D01*
X170416810Y-75731119D02*
X170512048Y-75683500D01*
X170512048Y-75683500D02*
X170559667Y-75588261D01*
X170559667Y-75588261D02*
X170559667Y-75207309D01*
X170559667Y-75207309D02*
X170512048Y-75112071D01*
X170512048Y-75112071D02*
X170416810Y-75064452D01*
X170416810Y-75064452D02*
X170226334Y-75064452D01*
X170226334Y-75064452D02*
X170131096Y-75112071D01*
X170131096Y-75112071D02*
X170083477Y-75207309D01*
X170083477Y-75207309D02*
X170083477Y-75302547D01*
X170083477Y-75302547D02*
X170559667Y-75397785D01*
X169702524Y-75683500D02*
X169607286Y-75731119D01*
X169607286Y-75731119D02*
X169416810Y-75731119D01*
X169416810Y-75731119D02*
X169321572Y-75683500D01*
X169321572Y-75683500D02*
X169273953Y-75588261D01*
X169273953Y-75588261D02*
X169273953Y-75540642D01*
X169273953Y-75540642D02*
X169321572Y-75445404D01*
X169321572Y-75445404D02*
X169416810Y-75397785D01*
X169416810Y-75397785D02*
X169559667Y-75397785D01*
X169559667Y-75397785D02*
X169654905Y-75350166D01*
X169654905Y-75350166D02*
X169702524Y-75254928D01*
X169702524Y-75254928D02*
X169702524Y-75207309D01*
X169702524Y-75207309D02*
X169654905Y-75112071D01*
X169654905Y-75112071D02*
X169559667Y-75064452D01*
X169559667Y-75064452D02*
X169416810Y-75064452D01*
X169416810Y-75064452D02*
X169321572Y-75112071D01*
X168893000Y-75683500D02*
X168797762Y-75731119D01*
X168797762Y-75731119D02*
X168607286Y-75731119D01*
X168607286Y-75731119D02*
X168512048Y-75683500D01*
X168512048Y-75683500D02*
X168464429Y-75588261D01*
X168464429Y-75588261D02*
X168464429Y-75540642D01*
X168464429Y-75540642D02*
X168512048Y-75445404D01*
X168512048Y-75445404D02*
X168607286Y-75397785D01*
X168607286Y-75397785D02*
X168750143Y-75397785D01*
X168750143Y-75397785D02*
X168845381Y-75350166D01*
X168845381Y-75350166D02*
X168893000Y-75254928D01*
X168893000Y-75254928D02*
X168893000Y-75207309D01*
X168893000Y-75207309D02*
X168845381Y-75112071D01*
X168845381Y-75112071D02*
X168750143Y-75064452D01*
X168750143Y-75064452D02*
X168607286Y-75064452D01*
X168607286Y-75064452D02*
X168512048Y-75112071D01*
X167083476Y-74731119D02*
X166988238Y-74731119D01*
X166988238Y-74731119D02*
X166893000Y-74778738D01*
X166893000Y-74778738D02*
X166845381Y-74826357D01*
X166845381Y-74826357D02*
X166797762Y-74921595D01*
X166797762Y-74921595D02*
X166750143Y-75112071D01*
X166750143Y-75112071D02*
X166750143Y-75350166D01*
X166750143Y-75350166D02*
X166797762Y-75540642D01*
X166797762Y-75540642D02*
X166845381Y-75635880D01*
X166845381Y-75635880D02*
X166893000Y-75683500D01*
X166893000Y-75683500D02*
X166988238Y-75731119D01*
X166988238Y-75731119D02*
X167083476Y-75731119D01*
X167083476Y-75731119D02*
X167178714Y-75683500D01*
X167178714Y-75683500D02*
X167226333Y-75635880D01*
X167226333Y-75635880D02*
X167273952Y-75540642D01*
X167273952Y-75540642D02*
X167321571Y-75350166D01*
X167321571Y-75350166D02*
X167321571Y-75112071D01*
X167321571Y-75112071D02*
X167273952Y-74921595D01*
X167273952Y-74921595D02*
X167226333Y-74826357D01*
X167226333Y-74826357D02*
X167178714Y-74778738D01*
X167178714Y-74778738D02*
X167083476Y-74731119D01*
X166416809Y-75731119D02*
X165893000Y-75064452D01*
X166416809Y-75064452D02*
X165893000Y-75731119D01*
X164988238Y-75731119D02*
X165559666Y-75731119D01*
X165273952Y-75731119D02*
X165273952Y-74731119D01*
X165273952Y-74731119D02*
X165369190Y-74873976D01*
X165369190Y-74873976D02*
X165464428Y-74969214D01*
X165464428Y-74969214D02*
X165559666Y-75016833D01*
X164369190Y-74731119D02*
X164273952Y-74731119D01*
X164273952Y-74731119D02*
X164178714Y-74778738D01*
X164178714Y-74778738D02*
X164131095Y-74826357D01*
X164131095Y-74826357D02*
X164083476Y-74921595D01*
X164083476Y-74921595D02*
X164035857Y-75112071D01*
X164035857Y-75112071D02*
X164035857Y-75350166D01*
X164035857Y-75350166D02*
X164083476Y-75540642D01*
X164083476Y-75540642D02*
X164131095Y-75635880D01*
X164131095Y-75635880D02*
X164178714Y-75683500D01*
X164178714Y-75683500D02*
X164273952Y-75731119D01*
X164273952Y-75731119D02*
X164369190Y-75731119D01*
X164369190Y-75731119D02*
X164464428Y-75683500D01*
X164464428Y-75683500D02*
X164512047Y-75635880D01*
X164512047Y-75635880D02*
X164559666Y-75540642D01*
X164559666Y-75540642D02*
X164607285Y-75350166D01*
X164607285Y-75350166D02*
X164607285Y-75112071D01*
X164607285Y-75112071D02*
X164559666Y-74921595D01*
X164559666Y-74921595D02*
X164512047Y-74826357D01*
X164512047Y-74826357D02*
X164464428Y-74778738D01*
X164464428Y-74778738D02*
X164369190Y-74731119D01*
X162559666Y-76112071D02*
X162607285Y-76064452D01*
X162607285Y-76064452D02*
X162702523Y-75921595D01*
X162702523Y-75921595D02*
X162750142Y-75826357D01*
X162750142Y-75826357D02*
X162797761Y-75683500D01*
X162797761Y-75683500D02*
X162845380Y-75445404D01*
X162845380Y-75445404D02*
X162845380Y-75254928D01*
X162845380Y-75254928D02*
X162797761Y-75016833D01*
X162797761Y-75016833D02*
X162750142Y-74873976D01*
X162750142Y-74873976D02*
X162702523Y-74778738D01*
X162702523Y-74778738D02*
X162607285Y-74635880D01*
X162607285Y-74635880D02*
X162559666Y-74588261D01*
X162226332Y-75683500D02*
X162083475Y-75731119D01*
X162083475Y-75731119D02*
X161845380Y-75731119D01*
X161845380Y-75731119D02*
X161750142Y-75683500D01*
X161750142Y-75683500D02*
X161702523Y-75635880D01*
X161702523Y-75635880D02*
X161654904Y-75540642D01*
X161654904Y-75540642D02*
X161654904Y-75445404D01*
X161654904Y-75445404D02*
X161702523Y-75350166D01*
X161702523Y-75350166D02*
X161750142Y-75302547D01*
X161750142Y-75302547D02*
X161845380Y-75254928D01*
X161845380Y-75254928D02*
X162035856Y-75207309D01*
X162035856Y-75207309D02*
X162131094Y-75159690D01*
X162131094Y-75159690D02*
X162178713Y-75112071D01*
X162178713Y-75112071D02*
X162226332Y-75016833D01*
X162226332Y-75016833D02*
X162226332Y-74921595D01*
X162226332Y-74921595D02*
X162178713Y-74826357D01*
X162178713Y-74826357D02*
X162131094Y-74778738D01*
X162131094Y-74778738D02*
X162035856Y-74731119D01*
X162035856Y-74731119D02*
X161797761Y-74731119D01*
X161797761Y-74731119D02*
X161654904Y-74778738D01*
X161083475Y-75731119D02*
X161178713Y-75683500D01*
X161178713Y-75683500D02*
X161226332Y-75635880D01*
X161226332Y-75635880D02*
X161273951Y-75540642D01*
X161273951Y-75540642D02*
X161273951Y-75254928D01*
X161273951Y-75254928D02*
X161226332Y-75159690D01*
X161226332Y-75159690D02*
X161178713Y-75112071D01*
X161178713Y-75112071D02*
X161083475Y-75064452D01*
X161083475Y-75064452D02*
X160940618Y-75064452D01*
X160940618Y-75064452D02*
X160845380Y-75112071D01*
X160845380Y-75112071D02*
X160797761Y-75159690D01*
X160797761Y-75159690D02*
X160750142Y-75254928D01*
X160750142Y-75254928D02*
X160750142Y-75540642D01*
X160750142Y-75540642D02*
X160797761Y-75635880D01*
X160797761Y-75635880D02*
X160845380Y-75683500D01*
X160845380Y-75683500D02*
X160940618Y-75731119D01*
X160940618Y-75731119D02*
X161083475Y-75731119D01*
X160464427Y-75064452D02*
X160083475Y-75064452D01*
X160321570Y-75731119D02*
X160321570Y-74873976D01*
X160321570Y-74873976D02*
X160273951Y-74778738D01*
X160273951Y-74778738D02*
X160178713Y-74731119D01*
X160178713Y-74731119D02*
X160083475Y-74731119D01*
X159892998Y-75064452D02*
X159512046Y-75064452D01*
X159750141Y-74731119D02*
X159750141Y-75588261D01*
X159750141Y-75588261D02*
X159702522Y-75683500D01*
X159702522Y-75683500D02*
X159607284Y-75731119D01*
X159607284Y-75731119D02*
X159512046Y-75731119D01*
X159273950Y-75064452D02*
X159083474Y-75731119D01*
X159083474Y-75731119D02*
X158892998Y-75254928D01*
X158892998Y-75254928D02*
X158702522Y-75731119D01*
X158702522Y-75731119D02*
X158512046Y-75064452D01*
X157702522Y-75731119D02*
X157702522Y-75207309D01*
X157702522Y-75207309D02*
X157750141Y-75112071D01*
X157750141Y-75112071D02*
X157845379Y-75064452D01*
X157845379Y-75064452D02*
X158035855Y-75064452D01*
X158035855Y-75064452D02*
X158131093Y-75112071D01*
X157702522Y-75683500D02*
X157797760Y-75731119D01*
X157797760Y-75731119D02*
X158035855Y-75731119D01*
X158035855Y-75731119D02*
X158131093Y-75683500D01*
X158131093Y-75683500D02*
X158178712Y-75588261D01*
X158178712Y-75588261D02*
X158178712Y-75493023D01*
X158178712Y-75493023D02*
X158131093Y-75397785D01*
X158131093Y-75397785D02*
X158035855Y-75350166D01*
X158035855Y-75350166D02*
X157797760Y-75350166D01*
X157797760Y-75350166D02*
X157702522Y-75302547D01*
X157226331Y-75731119D02*
X157226331Y-75064452D01*
X157226331Y-75254928D02*
X157178712Y-75159690D01*
X157178712Y-75159690D02*
X157131093Y-75112071D01*
X157131093Y-75112071D02*
X157035855Y-75064452D01*
X157035855Y-75064452D02*
X156940617Y-75064452D01*
X156226331Y-75683500D02*
X156321569Y-75731119D01*
X156321569Y-75731119D02*
X156512045Y-75731119D01*
X156512045Y-75731119D02*
X156607283Y-75683500D01*
X156607283Y-75683500D02*
X156654902Y-75588261D01*
X156654902Y-75588261D02*
X156654902Y-75207309D01*
X156654902Y-75207309D02*
X156607283Y-75112071D01*
X156607283Y-75112071D02*
X156512045Y-75064452D01*
X156512045Y-75064452D02*
X156321569Y-75064452D01*
X156321569Y-75064452D02*
X156226331Y-75112071D01*
X156226331Y-75112071D02*
X156178712Y-75207309D01*
X156178712Y-75207309D02*
X156178712Y-75302547D01*
X156178712Y-75302547D02*
X156654902Y-75397785D01*
X154988235Y-75731119D02*
X154988235Y-74731119D01*
X154988235Y-74731119D02*
X154654902Y-75445404D01*
X154654902Y-75445404D02*
X154321569Y-74731119D01*
X154321569Y-74731119D02*
X154321569Y-75731119D01*
X153702521Y-75731119D02*
X153797759Y-75683500D01*
X153797759Y-75683500D02*
X153845378Y-75635880D01*
X153845378Y-75635880D02*
X153892997Y-75540642D01*
X153892997Y-75540642D02*
X153892997Y-75254928D01*
X153892997Y-75254928D02*
X153845378Y-75159690D01*
X153845378Y-75159690D02*
X153797759Y-75112071D01*
X153797759Y-75112071D02*
X153702521Y-75064452D01*
X153702521Y-75064452D02*
X153559664Y-75064452D01*
X153559664Y-75064452D02*
X153464426Y-75112071D01*
X153464426Y-75112071D02*
X153416807Y-75159690D01*
X153416807Y-75159690D02*
X153369188Y-75254928D01*
X153369188Y-75254928D02*
X153369188Y-75540642D01*
X153369188Y-75540642D02*
X153416807Y-75635880D01*
X153416807Y-75635880D02*
X153464426Y-75683500D01*
X153464426Y-75683500D02*
X153559664Y-75731119D01*
X153559664Y-75731119D02*
X153702521Y-75731119D01*
X152512045Y-75731119D02*
X152512045Y-74731119D01*
X152512045Y-75683500D02*
X152607283Y-75731119D01*
X152607283Y-75731119D02*
X152797759Y-75731119D01*
X152797759Y-75731119D02*
X152892997Y-75683500D01*
X152892997Y-75683500D02*
X152940616Y-75635880D01*
X152940616Y-75635880D02*
X152988235Y-75540642D01*
X152988235Y-75540642D02*
X152988235Y-75254928D01*
X152988235Y-75254928D02*
X152940616Y-75159690D01*
X152940616Y-75159690D02*
X152892997Y-75112071D01*
X152892997Y-75112071D02*
X152797759Y-75064452D01*
X152797759Y-75064452D02*
X152607283Y-75064452D01*
X152607283Y-75064452D02*
X152512045Y-75112071D01*
X151654902Y-75683500D02*
X151750140Y-75731119D01*
X151750140Y-75731119D02*
X151940616Y-75731119D01*
X151940616Y-75731119D02*
X152035854Y-75683500D01*
X152035854Y-75683500D02*
X152083473Y-75588261D01*
X152083473Y-75588261D02*
X152083473Y-75207309D01*
X152083473Y-75207309D02*
X152035854Y-75112071D01*
X152035854Y-75112071D02*
X151940616Y-75064452D01*
X151940616Y-75064452D02*
X151750140Y-75064452D01*
X151750140Y-75064452D02*
X151654902Y-75112071D01*
X151654902Y-75112071D02*
X151607283Y-75207309D01*
X151607283Y-75207309D02*
X151607283Y-75302547D01*
X151607283Y-75302547D02*
X152083473Y-75397785D01*
X151273949Y-76112071D02*
X151226330Y-76064452D01*
X151226330Y-76064452D02*
X151131092Y-75921595D01*
X151131092Y-75921595D02*
X151083473Y-75826357D01*
X151083473Y-75826357D02*
X151035854Y-75683500D01*
X151035854Y-75683500D02*
X150988235Y-75445404D01*
X150988235Y-75445404D02*
X150988235Y-75254928D01*
X150988235Y-75254928D02*
X151035854Y-75016833D01*
X151035854Y-75016833D02*
X151083473Y-74873976D01*
X151083473Y-74873976D02*
X151131092Y-74778738D01*
X151131092Y-74778738D02*
X151226330Y-74635880D01*
X151226330Y-74635880D02*
X151273949Y-74588261D01*
X149750139Y-75635880D02*
X149702520Y-75683500D01*
X149702520Y-75683500D02*
X149750139Y-75731119D01*
X149750139Y-75731119D02*
X149797758Y-75683500D01*
X149797758Y-75683500D02*
X149750139Y-75635880D01*
X149750139Y-75635880D02*
X149750139Y-75731119D01*
X149750139Y-75112071D02*
X149702520Y-75159690D01*
X149702520Y-75159690D02*
X149750139Y-75207309D01*
X149750139Y-75207309D02*
X149797758Y-75159690D01*
X149797758Y-75159690D02*
X149750139Y-75112071D01*
X149750139Y-75112071D02*
X149750139Y-75207309D01*
X147940616Y-75731119D02*
X148273949Y-75254928D01*
X148512044Y-75731119D02*
X148512044Y-74731119D01*
X148512044Y-74731119D02*
X148131092Y-74731119D01*
X148131092Y-74731119D02*
X148035854Y-74778738D01*
X148035854Y-74778738D02*
X147988235Y-74826357D01*
X147988235Y-74826357D02*
X147940616Y-74921595D01*
X147940616Y-74921595D02*
X147940616Y-75064452D01*
X147940616Y-75064452D02*
X147988235Y-75159690D01*
X147988235Y-75159690D02*
X148035854Y-75207309D01*
X148035854Y-75207309D02*
X148131092Y-75254928D01*
X148131092Y-75254928D02*
X148512044Y-75254928D01*
X147035854Y-74731119D02*
X147512044Y-74731119D01*
X147512044Y-74731119D02*
X147559663Y-75207309D01*
X147559663Y-75207309D02*
X147512044Y-75159690D01*
X147512044Y-75159690D02*
X147416806Y-75112071D01*
X147416806Y-75112071D02*
X147178711Y-75112071D01*
X147178711Y-75112071D02*
X147083473Y-75159690D01*
X147083473Y-75159690D02*
X147035854Y-75207309D01*
X147035854Y-75207309D02*
X146988235Y-75302547D01*
X146988235Y-75302547D02*
X146988235Y-75540642D01*
X146988235Y-75540642D02*
X147035854Y-75635880D01*
X147035854Y-75635880D02*
X147083473Y-75683500D01*
X147083473Y-75683500D02*
X147178711Y-75731119D01*
X147178711Y-75731119D02*
X147416806Y-75731119D01*
X147416806Y-75731119D02*
X147512044Y-75683500D01*
X147512044Y-75683500D02*
X147559663Y-75635880D01*
X146512044Y-75683500D02*
X146512044Y-75731119D01*
X146512044Y-75731119D02*
X146559663Y-75826357D01*
X146559663Y-75826357D02*
X146607282Y-75873976D01*
X145512045Y-75731119D02*
X145845378Y-75254928D01*
X146083473Y-75731119D02*
X146083473Y-74731119D01*
X146083473Y-74731119D02*
X145702521Y-74731119D01*
X145702521Y-74731119D02*
X145607283Y-74778738D01*
X145607283Y-74778738D02*
X145559664Y-74826357D01*
X145559664Y-74826357D02*
X145512045Y-74921595D01*
X145512045Y-74921595D02*
X145512045Y-75064452D01*
X145512045Y-75064452D02*
X145559664Y-75159690D01*
X145559664Y-75159690D02*
X145607283Y-75207309D01*
X145607283Y-75207309D02*
X145702521Y-75254928D01*
X145702521Y-75254928D02*
X146083473Y-75254928D01*
X144654902Y-74731119D02*
X144845378Y-74731119D01*
X144845378Y-74731119D02*
X144940616Y-74778738D01*
X144940616Y-74778738D02*
X144988235Y-74826357D01*
X144988235Y-74826357D02*
X145083473Y-74969214D01*
X145083473Y-74969214D02*
X145131092Y-75159690D01*
X145131092Y-75159690D02*
X145131092Y-75540642D01*
X145131092Y-75540642D02*
X145083473Y-75635880D01*
X145083473Y-75635880D02*
X145035854Y-75683500D01*
X145035854Y-75683500D02*
X144940616Y-75731119D01*
X144940616Y-75731119D02*
X144750140Y-75731119D01*
X144750140Y-75731119D02*
X144654902Y-75683500D01*
X144654902Y-75683500D02*
X144607283Y-75635880D01*
X144607283Y-75635880D02*
X144559664Y-75540642D01*
X144559664Y-75540642D02*
X144559664Y-75302547D01*
X144559664Y-75302547D02*
X144607283Y-75207309D01*
X144607283Y-75207309D02*
X144654902Y-75159690D01*
X144654902Y-75159690D02*
X144750140Y-75112071D01*
X144750140Y-75112071D02*
X144940616Y-75112071D01*
X144940616Y-75112071D02*
X145035854Y-75159690D01*
X145035854Y-75159690D02*
X145083473Y-75207309D01*
X145083473Y-75207309D02*
X145131092Y-75302547D01*
X144083473Y-75683500D02*
X144083473Y-75731119D01*
X144083473Y-75731119D02*
X144131092Y-75826357D01*
X144131092Y-75826357D02*
X144178711Y-75873976D01*
X143083474Y-75731119D02*
X143416807Y-75254928D01*
X143654902Y-75731119D02*
X143654902Y-74731119D01*
X143654902Y-74731119D02*
X143273950Y-74731119D01*
X143273950Y-74731119D02*
X143178712Y-74778738D01*
X143178712Y-74778738D02*
X143131093Y-74826357D01*
X143131093Y-74826357D02*
X143083474Y-74921595D01*
X143083474Y-74921595D02*
X143083474Y-75064452D01*
X143083474Y-75064452D02*
X143131093Y-75159690D01*
X143131093Y-75159690D02*
X143178712Y-75207309D01*
X143178712Y-75207309D02*
X143273950Y-75254928D01*
X143273950Y-75254928D02*
X143654902Y-75254928D01*
X142512045Y-75159690D02*
X142607283Y-75112071D01*
X142607283Y-75112071D02*
X142654902Y-75064452D01*
X142654902Y-75064452D02*
X142702521Y-74969214D01*
X142702521Y-74969214D02*
X142702521Y-74921595D01*
X142702521Y-74921595D02*
X142654902Y-74826357D01*
X142654902Y-74826357D02*
X142607283Y-74778738D01*
X142607283Y-74778738D02*
X142512045Y-74731119D01*
X142512045Y-74731119D02*
X142321569Y-74731119D01*
X142321569Y-74731119D02*
X142226331Y-74778738D01*
X142226331Y-74778738D02*
X142178712Y-74826357D01*
X142178712Y-74826357D02*
X142131093Y-74921595D01*
X142131093Y-74921595D02*
X142131093Y-74969214D01*
X142131093Y-74969214D02*
X142178712Y-75064452D01*
X142178712Y-75064452D02*
X142226331Y-75112071D01*
X142226331Y-75112071D02*
X142321569Y-75159690D01*
X142321569Y-75159690D02*
X142512045Y-75159690D01*
X142512045Y-75159690D02*
X142607283Y-75207309D01*
X142607283Y-75207309D02*
X142654902Y-75254928D01*
X142654902Y-75254928D02*
X142702521Y-75350166D01*
X142702521Y-75350166D02*
X142702521Y-75540642D01*
X142702521Y-75540642D02*
X142654902Y-75635880D01*
X142654902Y-75635880D02*
X142607283Y-75683500D01*
X142607283Y-75683500D02*
X142512045Y-75731119D01*
X142512045Y-75731119D02*
X142321569Y-75731119D01*
X142321569Y-75731119D02*
X142226331Y-75683500D01*
X142226331Y-75683500D02*
X142178712Y-75635880D01*
X142178712Y-75635880D02*
X142131093Y-75540642D01*
X142131093Y-75540642D02*
X142131093Y-75350166D01*
X142131093Y-75350166D02*
X142178712Y-75254928D01*
X142178712Y-75254928D02*
X142226331Y-75207309D01*
X142226331Y-75207309D02*
X142321569Y-75159690D01*
X141654902Y-75683500D02*
X141654902Y-75731119D01*
X141654902Y-75731119D02*
X141702521Y-75826357D01*
X141702521Y-75826357D02*
X141750140Y-75873976D01*
X140654903Y-75731119D02*
X140988236Y-75254928D01*
X141226331Y-75731119D02*
X141226331Y-74731119D01*
X141226331Y-74731119D02*
X140845379Y-74731119D01*
X140845379Y-74731119D02*
X140750141Y-74778738D01*
X140750141Y-74778738D02*
X140702522Y-74826357D01*
X140702522Y-74826357D02*
X140654903Y-74921595D01*
X140654903Y-74921595D02*
X140654903Y-75064452D01*
X140654903Y-75064452D02*
X140702522Y-75159690D01*
X140702522Y-75159690D02*
X140750141Y-75207309D01*
X140750141Y-75207309D02*
X140845379Y-75254928D01*
X140845379Y-75254928D02*
X141226331Y-75254928D01*
X139702522Y-75731119D02*
X140273950Y-75731119D01*
X139988236Y-75731119D02*
X139988236Y-74731119D01*
X139988236Y-74731119D02*
X140083474Y-74873976D01*
X140083474Y-74873976D02*
X140178712Y-74969214D01*
X140178712Y-74969214D02*
X140273950Y-75016833D01*
X139083474Y-74731119D02*
X138988236Y-74731119D01*
X138988236Y-74731119D02*
X138892998Y-74778738D01*
X138892998Y-74778738D02*
X138845379Y-74826357D01*
X138845379Y-74826357D02*
X138797760Y-74921595D01*
X138797760Y-74921595D02*
X138750141Y-75112071D01*
X138750141Y-75112071D02*
X138750141Y-75350166D01*
X138750141Y-75350166D02*
X138797760Y-75540642D01*
X138797760Y-75540642D02*
X138845379Y-75635880D01*
X138845379Y-75635880D02*
X138892998Y-75683500D01*
X138892998Y-75683500D02*
X138988236Y-75731119D01*
X138988236Y-75731119D02*
X139083474Y-75731119D01*
X139083474Y-75731119D02*
X139178712Y-75683500D01*
X139178712Y-75683500D02*
X139226331Y-75635880D01*
X139226331Y-75635880D02*
X139273950Y-75540642D01*
X139273950Y-75540642D02*
X139321569Y-75350166D01*
X139321569Y-75350166D02*
X139321569Y-75112071D01*
X139321569Y-75112071D02*
X139273950Y-74921595D01*
X139273950Y-74921595D02*
X139226331Y-74826357D01*
X139226331Y-74826357D02*
X139178712Y-74778738D01*
X139178712Y-74778738D02*
X139083474Y-74731119D01*
X137559664Y-75207309D02*
X136797760Y-75207309D01*
X136797760Y-75493023D02*
X137559664Y-75493023D01*
X135369188Y-74731119D02*
X135273950Y-74731119D01*
X135273950Y-74731119D02*
X135178712Y-74778738D01*
X135178712Y-74778738D02*
X135131093Y-74826357D01*
X135131093Y-74826357D02*
X135083474Y-74921595D01*
X135083474Y-74921595D02*
X135035855Y-75112071D01*
X135035855Y-75112071D02*
X135035855Y-75350166D01*
X135035855Y-75350166D02*
X135083474Y-75540642D01*
X135083474Y-75540642D02*
X135131093Y-75635880D01*
X135131093Y-75635880D02*
X135178712Y-75683500D01*
X135178712Y-75683500D02*
X135273950Y-75731119D01*
X135273950Y-75731119D02*
X135369188Y-75731119D01*
X135369188Y-75731119D02*
X135464426Y-75683500D01*
X135464426Y-75683500D02*
X135512045Y-75635880D01*
X135512045Y-75635880D02*
X135559664Y-75540642D01*
X135559664Y-75540642D02*
X135607283Y-75350166D01*
X135607283Y-75350166D02*
X135607283Y-75112071D01*
X135607283Y-75112071D02*
X135559664Y-74921595D01*
X135559664Y-74921595D02*
X135512045Y-74826357D01*
X135512045Y-74826357D02*
X135464426Y-74778738D01*
X135464426Y-74778738D02*
X135369188Y-74731119D01*
X133702521Y-75731119D02*
X133797759Y-75683500D01*
X133797759Y-75683500D02*
X133845378Y-75635880D01*
X133845378Y-75635880D02*
X133892997Y-75540642D01*
X133892997Y-75540642D02*
X133892997Y-75254928D01*
X133892997Y-75254928D02*
X133845378Y-75159690D01*
X133845378Y-75159690D02*
X133797759Y-75112071D01*
X133797759Y-75112071D02*
X133702521Y-75064452D01*
X133702521Y-75064452D02*
X133559664Y-75064452D01*
X133559664Y-75064452D02*
X133464426Y-75112071D01*
X133464426Y-75112071D02*
X133416807Y-75159690D01*
X133416807Y-75159690D02*
X133369188Y-75254928D01*
X133369188Y-75254928D02*
X133369188Y-75540642D01*
X133369188Y-75540642D02*
X133416807Y-75635880D01*
X133416807Y-75635880D02*
X133464426Y-75683500D01*
X133464426Y-75683500D02*
X133559664Y-75731119D01*
X133559664Y-75731119D02*
X133702521Y-75731119D01*
X132940616Y-75731119D02*
X132940616Y-74731119D01*
X132512045Y-75731119D02*
X132512045Y-75207309D01*
X132512045Y-75207309D02*
X132559664Y-75112071D01*
X132559664Y-75112071D02*
X132654902Y-75064452D01*
X132654902Y-75064452D02*
X132797759Y-75064452D01*
X132797759Y-75064452D02*
X132892997Y-75112071D01*
X132892997Y-75112071D02*
X132940616Y-75159690D01*
X132035854Y-75731119D02*
X132035854Y-75064452D01*
X132035854Y-75159690D02*
X131988235Y-75112071D01*
X131988235Y-75112071D02*
X131892997Y-75064452D01*
X131892997Y-75064452D02*
X131750140Y-75064452D01*
X131750140Y-75064452D02*
X131654902Y-75112071D01*
X131654902Y-75112071D02*
X131607283Y-75207309D01*
X131607283Y-75207309D02*
X131607283Y-75731119D01*
X131607283Y-75207309D02*
X131559664Y-75112071D01*
X131559664Y-75112071D02*
X131464426Y-75064452D01*
X131464426Y-75064452D02*
X131321569Y-75064452D01*
X131321569Y-75064452D02*
X131226330Y-75112071D01*
X131226330Y-75112071D02*
X131178711Y-75207309D01*
X131178711Y-75207309D02*
X131178711Y-75731119D01*
X130750140Y-75683500D02*
X130654902Y-75731119D01*
X130654902Y-75731119D02*
X130464426Y-75731119D01*
X130464426Y-75731119D02*
X130369188Y-75683500D01*
X130369188Y-75683500D02*
X130321569Y-75588261D01*
X130321569Y-75588261D02*
X130321569Y-75540642D01*
X130321569Y-75540642D02*
X130369188Y-75445404D01*
X130369188Y-75445404D02*
X130464426Y-75397785D01*
X130464426Y-75397785D02*
X130607283Y-75397785D01*
X130607283Y-75397785D02*
X130702521Y-75350166D01*
X130702521Y-75350166D02*
X130750140Y-75254928D01*
X130750140Y-75254928D02*
X130750140Y-75207309D01*
X130750140Y-75207309D02*
X130702521Y-75112071D01*
X130702521Y-75112071D02*
X130607283Y-75064452D01*
X130607283Y-75064452D02*
X130464426Y-75064452D01*
X130464426Y-75064452D02*
X130369188Y-75112071D01*
X128702521Y-75731119D02*
X128702521Y-75207309D01*
X128702521Y-75207309D02*
X128750140Y-75112071D01*
X128750140Y-75112071D02*
X128845378Y-75064452D01*
X128845378Y-75064452D02*
X129035854Y-75064452D01*
X129035854Y-75064452D02*
X129131092Y-75112071D01*
X128702521Y-75683500D02*
X128797759Y-75731119D01*
X128797759Y-75731119D02*
X129035854Y-75731119D01*
X129035854Y-75731119D02*
X129131092Y-75683500D01*
X129131092Y-75683500D02*
X129178711Y-75588261D01*
X129178711Y-75588261D02*
X129178711Y-75493023D01*
X129178711Y-75493023D02*
X129131092Y-75397785D01*
X129131092Y-75397785D02*
X129035854Y-75350166D01*
X129035854Y-75350166D02*
X128797759Y-75350166D01*
X128797759Y-75350166D02*
X128702521Y-75302547D01*
X128226330Y-75064452D02*
X128226330Y-75731119D01*
X128226330Y-75159690D02*
X128178711Y-75112071D01*
X128178711Y-75112071D02*
X128083473Y-75064452D01*
X128083473Y-75064452D02*
X127940616Y-75064452D01*
X127940616Y-75064452D02*
X127845378Y-75112071D01*
X127845378Y-75112071D02*
X127797759Y-75207309D01*
X127797759Y-75207309D02*
X127797759Y-75731119D01*
X126892997Y-75731119D02*
X126892997Y-74731119D01*
X126892997Y-75683500D02*
X126988235Y-75731119D01*
X126988235Y-75731119D02*
X127178711Y-75731119D01*
X127178711Y-75731119D02*
X127273949Y-75683500D01*
X127273949Y-75683500D02*
X127321568Y-75635880D01*
X127321568Y-75635880D02*
X127369187Y-75540642D01*
X127369187Y-75540642D02*
X127369187Y-75254928D01*
X127369187Y-75254928D02*
X127321568Y-75159690D01*
X127321568Y-75159690D02*
X127273949Y-75112071D01*
X127273949Y-75112071D02*
X127178711Y-75064452D01*
X127178711Y-75064452D02*
X126988235Y-75064452D01*
X126988235Y-75064452D02*
X126892997Y-75112071D01*
X125083473Y-75731119D02*
X125416806Y-75254928D01*
X125654901Y-75731119D02*
X125654901Y-74731119D01*
X125654901Y-74731119D02*
X125273949Y-74731119D01*
X125273949Y-74731119D02*
X125178711Y-74778738D01*
X125178711Y-74778738D02*
X125131092Y-74826357D01*
X125131092Y-74826357D02*
X125083473Y-74921595D01*
X125083473Y-74921595D02*
X125083473Y-75064452D01*
X125083473Y-75064452D02*
X125131092Y-75159690D01*
X125131092Y-75159690D02*
X125178711Y-75207309D01*
X125178711Y-75207309D02*
X125273949Y-75254928D01*
X125273949Y-75254928D02*
X125654901Y-75254928D01*
X124131092Y-75731119D02*
X124702520Y-75731119D01*
X124416806Y-75731119D02*
X124416806Y-74731119D01*
X124416806Y-74731119D02*
X124512044Y-74873976D01*
X124512044Y-74873976D02*
X124607282Y-74969214D01*
X124607282Y-74969214D02*
X124702520Y-75016833D01*
X123654901Y-75683500D02*
X123654901Y-75731119D01*
X123654901Y-75731119D02*
X123702520Y-75826357D01*
X123702520Y-75826357D02*
X123750139Y-75873976D01*
X122654902Y-75731119D02*
X122988235Y-75254928D01*
X123226330Y-75731119D02*
X123226330Y-74731119D01*
X123226330Y-74731119D02*
X122845378Y-74731119D01*
X122845378Y-74731119D02*
X122750140Y-74778738D01*
X122750140Y-74778738D02*
X122702521Y-74826357D01*
X122702521Y-74826357D02*
X122654902Y-74921595D01*
X122654902Y-74921595D02*
X122654902Y-75064452D01*
X122654902Y-75064452D02*
X122702521Y-75159690D01*
X122702521Y-75159690D02*
X122750140Y-75207309D01*
X122750140Y-75207309D02*
X122845378Y-75254928D01*
X122845378Y-75254928D02*
X123226330Y-75254928D01*
X122273949Y-74826357D02*
X122226330Y-74778738D01*
X122226330Y-74778738D02*
X122131092Y-74731119D01*
X122131092Y-74731119D02*
X121892997Y-74731119D01*
X121892997Y-74731119D02*
X121797759Y-74778738D01*
X121797759Y-74778738D02*
X121750140Y-74826357D01*
X121750140Y-74826357D02*
X121702521Y-74921595D01*
X121702521Y-74921595D02*
X121702521Y-75016833D01*
X121702521Y-75016833D02*
X121750140Y-75159690D01*
X121750140Y-75159690D02*
X122321568Y-75731119D01*
X122321568Y-75731119D02*
X121702521Y-75731119D01*
X120512044Y-75207309D02*
X119750140Y-75207309D01*
X119750140Y-75493023D02*
X120512044Y-75493023D01*
X118559663Y-74826357D02*
X118512044Y-74778738D01*
X118512044Y-74778738D02*
X118416806Y-74731119D01*
X118416806Y-74731119D02*
X118178711Y-74731119D01*
X118178711Y-74731119D02*
X118083473Y-74778738D01*
X118083473Y-74778738D02*
X118035854Y-74826357D01*
X118035854Y-74826357D02*
X117988235Y-74921595D01*
X117988235Y-74921595D02*
X117988235Y-75016833D01*
X117988235Y-75016833D02*
X118035854Y-75159690D01*
X118035854Y-75159690D02*
X118607282Y-75731119D01*
X118607282Y-75731119D02*
X117988235Y-75731119D01*
X117559663Y-75635880D02*
X117512044Y-75683500D01*
X117512044Y-75683500D02*
X117559663Y-75731119D01*
X117559663Y-75731119D02*
X117607282Y-75683500D01*
X117607282Y-75683500D02*
X117559663Y-75635880D01*
X117559663Y-75635880D02*
X117559663Y-75731119D01*
X117131092Y-74826357D02*
X117083473Y-74778738D01*
X117083473Y-74778738D02*
X116988235Y-74731119D01*
X116988235Y-74731119D02*
X116750140Y-74731119D01*
X116750140Y-74731119D02*
X116654902Y-74778738D01*
X116654902Y-74778738D02*
X116607283Y-74826357D01*
X116607283Y-74826357D02*
X116559664Y-74921595D01*
X116559664Y-74921595D02*
X116559664Y-75016833D01*
X116559664Y-75016833D02*
X116607283Y-75159690D01*
X116607283Y-75159690D02*
X117178711Y-75731119D01*
X117178711Y-75731119D02*
X116559664Y-75731119D01*
X116131092Y-75731119D02*
X116131092Y-74731119D01*
X116035854Y-75350166D02*
X115750140Y-75731119D01*
X115750140Y-75064452D02*
X116131092Y-75445404D01*
X114416806Y-75731119D02*
X114512044Y-75683500D01*
X114512044Y-75683500D02*
X114559663Y-75635880D01*
X114559663Y-75635880D02*
X114607282Y-75540642D01*
X114607282Y-75540642D02*
X114607282Y-75254928D01*
X114607282Y-75254928D02*
X114559663Y-75159690D01*
X114559663Y-75159690D02*
X114512044Y-75112071D01*
X114512044Y-75112071D02*
X114416806Y-75064452D01*
X114416806Y-75064452D02*
X114273949Y-75064452D01*
X114273949Y-75064452D02*
X114178711Y-75112071D01*
X114178711Y-75112071D02*
X114131092Y-75159690D01*
X114131092Y-75159690D02*
X114083473Y-75254928D01*
X114083473Y-75254928D02*
X114083473Y-75540642D01*
X114083473Y-75540642D02*
X114131092Y-75635880D01*
X114131092Y-75635880D02*
X114178711Y-75683500D01*
X114178711Y-75683500D02*
X114273949Y-75731119D01*
X114273949Y-75731119D02*
X114416806Y-75731119D01*
X113654901Y-75731119D02*
X113654901Y-74731119D01*
X113226330Y-75731119D02*
X113226330Y-75207309D01*
X113226330Y-75207309D02*
X113273949Y-75112071D01*
X113273949Y-75112071D02*
X113369187Y-75064452D01*
X113369187Y-75064452D02*
X113512044Y-75064452D01*
X113512044Y-75064452D02*
X113607282Y-75112071D01*
X113607282Y-75112071D02*
X113654901Y-75159690D01*
X112750139Y-75731119D02*
X112750139Y-75064452D01*
X112750139Y-75159690D02*
X112702520Y-75112071D01*
X112702520Y-75112071D02*
X112607282Y-75064452D01*
X112607282Y-75064452D02*
X112464425Y-75064452D01*
X112464425Y-75064452D02*
X112369187Y-75112071D01*
X112369187Y-75112071D02*
X112321568Y-75207309D01*
X112321568Y-75207309D02*
X112321568Y-75731119D01*
X112321568Y-75207309D02*
X112273949Y-75112071D01*
X112273949Y-75112071D02*
X112178711Y-75064452D01*
X112178711Y-75064452D02*
X112035854Y-75064452D01*
X112035854Y-75064452D02*
X111940615Y-75112071D01*
X111940615Y-75112071D02*
X111892996Y-75207309D01*
X111892996Y-75207309D02*
X111892996Y-75731119D01*
X111464425Y-75683500D02*
X111369187Y-75731119D01*
X111369187Y-75731119D02*
X111178711Y-75731119D01*
X111178711Y-75731119D02*
X111083473Y-75683500D01*
X111083473Y-75683500D02*
X111035854Y-75588261D01*
X111035854Y-75588261D02*
X111035854Y-75540642D01*
X111035854Y-75540642D02*
X111083473Y-75445404D01*
X111083473Y-75445404D02*
X111178711Y-75397785D01*
X111178711Y-75397785D02*
X111321568Y-75397785D01*
X111321568Y-75397785D02*
X111416806Y-75350166D01*
X111416806Y-75350166D02*
X111464425Y-75254928D01*
X111464425Y-75254928D02*
X111464425Y-75207309D01*
X111464425Y-75207309D02*
X111416806Y-75112071D01*
X111416806Y-75112071D02*
X111321568Y-75064452D01*
X111321568Y-75064452D02*
X111178711Y-75064452D01*
X111178711Y-75064452D02*
X111083473Y-75112071D01*
X182416811Y-76341119D02*
X182416811Y-76579214D01*
X182654906Y-76483976D02*
X182416811Y-76579214D01*
X182416811Y-76579214D02*
X182178716Y-76483976D01*
X182559668Y-76769690D02*
X182416811Y-76579214D01*
X182416811Y-76579214D02*
X182273954Y-76769690D01*
X181654906Y-76341119D02*
X181654906Y-76579214D01*
X181893001Y-76483976D02*
X181654906Y-76579214D01*
X181654906Y-76579214D02*
X181416811Y-76483976D01*
X181797763Y-76769690D02*
X181654906Y-76579214D01*
X181654906Y-76579214D02*
X181512049Y-76769690D01*
X180893001Y-76341119D02*
X180893001Y-76579214D01*
X181131096Y-76483976D02*
X180893001Y-76579214D01*
X180893001Y-76579214D02*
X180654906Y-76483976D01*
X181035858Y-76769690D02*
X180893001Y-76579214D01*
X180893001Y-76579214D02*
X180750144Y-76769690D01*
X179512048Y-77341119D02*
X179512048Y-76341119D01*
X178702525Y-76817309D02*
X179035858Y-76817309D01*
X179035858Y-77341119D02*
X179035858Y-76341119D01*
X179035858Y-76341119D02*
X178559668Y-76341119D01*
X177464429Y-77055404D02*
X176988239Y-77055404D01*
X177559667Y-77341119D02*
X177226334Y-76341119D01*
X177226334Y-76341119D02*
X176893001Y-77341119D01*
X175226334Y-77341119D02*
X175559667Y-76864928D01*
X175797762Y-77341119D02*
X175797762Y-76341119D01*
X175797762Y-76341119D02*
X175416810Y-76341119D01*
X175416810Y-76341119D02*
X175321572Y-76388738D01*
X175321572Y-76388738D02*
X175273953Y-76436357D01*
X175273953Y-76436357D02*
X175226334Y-76531595D01*
X175226334Y-76531595D02*
X175226334Y-76674452D01*
X175226334Y-76674452D02*
X175273953Y-76769690D01*
X175273953Y-76769690D02*
X175321572Y-76817309D01*
X175321572Y-76817309D02*
X175416810Y-76864928D01*
X175416810Y-76864928D02*
X175797762Y-76864928D01*
X174797762Y-76817309D02*
X174464429Y-76817309D01*
X174321572Y-77341119D02*
X174797762Y-77341119D01*
X174797762Y-77341119D02*
X174797762Y-76341119D01*
X174797762Y-76341119D02*
X174321572Y-76341119D01*
X173940619Y-77293500D02*
X173797762Y-77341119D01*
X173797762Y-77341119D02*
X173559667Y-77341119D01*
X173559667Y-77341119D02*
X173464429Y-77293500D01*
X173464429Y-77293500D02*
X173416810Y-77245880D01*
X173416810Y-77245880D02*
X173369191Y-77150642D01*
X173369191Y-77150642D02*
X173369191Y-77055404D01*
X173369191Y-77055404D02*
X173416810Y-76960166D01*
X173416810Y-76960166D02*
X173464429Y-76912547D01*
X173464429Y-76912547D02*
X173559667Y-76864928D01*
X173559667Y-76864928D02*
X173750143Y-76817309D01*
X173750143Y-76817309D02*
X173845381Y-76769690D01*
X173845381Y-76769690D02*
X173893000Y-76722071D01*
X173893000Y-76722071D02*
X173940619Y-76626833D01*
X173940619Y-76626833D02*
X173940619Y-76531595D01*
X173940619Y-76531595D02*
X173893000Y-76436357D01*
X173893000Y-76436357D02*
X173845381Y-76388738D01*
X173845381Y-76388738D02*
X173750143Y-76341119D01*
X173750143Y-76341119D02*
X173512048Y-76341119D01*
X173512048Y-76341119D02*
X173369191Y-76388738D01*
X172940619Y-77341119D02*
X172940619Y-76341119D01*
X172512048Y-77293500D02*
X172369191Y-77341119D01*
X172369191Y-77341119D02*
X172131096Y-77341119D01*
X172131096Y-77341119D02*
X172035858Y-77293500D01*
X172035858Y-77293500D02*
X171988239Y-77245880D01*
X171988239Y-77245880D02*
X171940620Y-77150642D01*
X171940620Y-77150642D02*
X171940620Y-77055404D01*
X171940620Y-77055404D02*
X171988239Y-76960166D01*
X171988239Y-76960166D02*
X172035858Y-76912547D01*
X172035858Y-76912547D02*
X172131096Y-76864928D01*
X172131096Y-76864928D02*
X172321572Y-76817309D01*
X172321572Y-76817309D02*
X172416810Y-76769690D01*
X172416810Y-76769690D02*
X172464429Y-76722071D01*
X172464429Y-76722071D02*
X172512048Y-76626833D01*
X172512048Y-76626833D02*
X172512048Y-76531595D01*
X172512048Y-76531595D02*
X172464429Y-76436357D01*
X172464429Y-76436357D02*
X172416810Y-76388738D01*
X172416810Y-76388738D02*
X172321572Y-76341119D01*
X172321572Y-76341119D02*
X172083477Y-76341119D01*
X172083477Y-76341119D02*
X171940620Y-76388738D01*
X171654905Y-76341119D02*
X171083477Y-76341119D01*
X171369191Y-77341119D02*
X171369191Y-76341119D01*
X170559667Y-76341119D02*
X170369191Y-76341119D01*
X170369191Y-76341119D02*
X170273953Y-76388738D01*
X170273953Y-76388738D02*
X170178715Y-76483976D01*
X170178715Y-76483976D02*
X170131096Y-76674452D01*
X170131096Y-76674452D02*
X170131096Y-77007785D01*
X170131096Y-77007785D02*
X170178715Y-77198261D01*
X170178715Y-77198261D02*
X170273953Y-77293500D01*
X170273953Y-77293500D02*
X170369191Y-77341119D01*
X170369191Y-77341119D02*
X170559667Y-77341119D01*
X170559667Y-77341119D02*
X170654905Y-77293500D01*
X170654905Y-77293500D02*
X170750143Y-77198261D01*
X170750143Y-77198261D02*
X170797762Y-77007785D01*
X170797762Y-77007785D02*
X170797762Y-76674452D01*
X170797762Y-76674452D02*
X170750143Y-76483976D01*
X170750143Y-76483976D02*
X170654905Y-76388738D01*
X170654905Y-76388738D02*
X170559667Y-76341119D01*
X169131096Y-77341119D02*
X169464429Y-76864928D01*
X169702524Y-77341119D02*
X169702524Y-76341119D01*
X169702524Y-76341119D02*
X169321572Y-76341119D01*
X169321572Y-76341119D02*
X169226334Y-76388738D01*
X169226334Y-76388738D02*
X169178715Y-76436357D01*
X169178715Y-76436357D02*
X169131096Y-76531595D01*
X169131096Y-76531595D02*
X169131096Y-76674452D01*
X169131096Y-76674452D02*
X169178715Y-76769690D01*
X169178715Y-76769690D02*
X169226334Y-76817309D01*
X169226334Y-76817309D02*
X169321572Y-76864928D01*
X169321572Y-76864928D02*
X169702524Y-76864928D01*
X167940619Y-77341119D02*
X167940619Y-76341119D01*
X167512048Y-77293500D02*
X167369191Y-77341119D01*
X167369191Y-77341119D02*
X167131096Y-77341119D01*
X167131096Y-77341119D02*
X167035858Y-77293500D01*
X167035858Y-77293500D02*
X166988239Y-77245880D01*
X166988239Y-77245880D02*
X166940620Y-77150642D01*
X166940620Y-77150642D02*
X166940620Y-77055404D01*
X166940620Y-77055404D02*
X166988239Y-76960166D01*
X166988239Y-76960166D02*
X167035858Y-76912547D01*
X167035858Y-76912547D02*
X167131096Y-76864928D01*
X167131096Y-76864928D02*
X167321572Y-76817309D01*
X167321572Y-76817309D02*
X167416810Y-76769690D01*
X167416810Y-76769690D02*
X167464429Y-76722071D01*
X167464429Y-76722071D02*
X167512048Y-76626833D01*
X167512048Y-76626833D02*
X167512048Y-76531595D01*
X167512048Y-76531595D02*
X167464429Y-76436357D01*
X167464429Y-76436357D02*
X167416810Y-76388738D01*
X167416810Y-76388738D02*
X167321572Y-76341119D01*
X167321572Y-76341119D02*
X167083477Y-76341119D01*
X167083477Y-76341119D02*
X166940620Y-76388738D01*
X165750143Y-77341119D02*
X165750143Y-76341119D01*
X165750143Y-76341119D02*
X165178715Y-77341119D01*
X165178715Y-77341119D02*
X165178715Y-76341119D01*
X164512048Y-76341119D02*
X164321572Y-76341119D01*
X164321572Y-76341119D02*
X164226334Y-76388738D01*
X164226334Y-76388738D02*
X164131096Y-76483976D01*
X164131096Y-76483976D02*
X164083477Y-76674452D01*
X164083477Y-76674452D02*
X164083477Y-77007785D01*
X164083477Y-77007785D02*
X164131096Y-77198261D01*
X164131096Y-77198261D02*
X164226334Y-77293500D01*
X164226334Y-77293500D02*
X164321572Y-77341119D01*
X164321572Y-77341119D02*
X164512048Y-77341119D01*
X164512048Y-77341119D02*
X164607286Y-77293500D01*
X164607286Y-77293500D02*
X164702524Y-77198261D01*
X164702524Y-77198261D02*
X164750143Y-77007785D01*
X164750143Y-77007785D02*
X164750143Y-76674452D01*
X164750143Y-76674452D02*
X164702524Y-76483976D01*
X164702524Y-76483976D02*
X164607286Y-76388738D01*
X164607286Y-76388738D02*
X164512048Y-76341119D01*
X163797762Y-76341119D02*
X163226334Y-76341119D01*
X163512048Y-77341119D02*
X163512048Y-76341119D01*
X162178714Y-77293500D02*
X162035857Y-77341119D01*
X162035857Y-77341119D02*
X161797762Y-77341119D01*
X161797762Y-77341119D02*
X161702524Y-77293500D01*
X161702524Y-77293500D02*
X161654905Y-77245880D01*
X161654905Y-77245880D02*
X161607286Y-77150642D01*
X161607286Y-77150642D02*
X161607286Y-77055404D01*
X161607286Y-77055404D02*
X161654905Y-76960166D01*
X161654905Y-76960166D02*
X161702524Y-76912547D01*
X161702524Y-76912547D02*
X161797762Y-76864928D01*
X161797762Y-76864928D02*
X161988238Y-76817309D01*
X161988238Y-76817309D02*
X162083476Y-76769690D01*
X162083476Y-76769690D02*
X162131095Y-76722071D01*
X162131095Y-76722071D02*
X162178714Y-76626833D01*
X162178714Y-76626833D02*
X162178714Y-76531595D01*
X162178714Y-76531595D02*
X162131095Y-76436357D01*
X162131095Y-76436357D02*
X162083476Y-76388738D01*
X162083476Y-76388738D02*
X161988238Y-76341119D01*
X161988238Y-76341119D02*
X161750143Y-76341119D01*
X161750143Y-76341119D02*
X161607286Y-76388738D01*
X161178714Y-77341119D02*
X161178714Y-76341119D01*
X161178714Y-76341119D02*
X160797762Y-76341119D01*
X160797762Y-76341119D02*
X160702524Y-76388738D01*
X160702524Y-76388738D02*
X160654905Y-76436357D01*
X160654905Y-76436357D02*
X160607286Y-76531595D01*
X160607286Y-76531595D02*
X160607286Y-76674452D01*
X160607286Y-76674452D02*
X160654905Y-76769690D01*
X160654905Y-76769690D02*
X160702524Y-76817309D01*
X160702524Y-76817309D02*
X160797762Y-76864928D01*
X160797762Y-76864928D02*
X161178714Y-76864928D01*
X160178714Y-76817309D02*
X159845381Y-76817309D01*
X159702524Y-77341119D02*
X160178714Y-77341119D01*
X160178714Y-77341119D02*
X160178714Y-76341119D01*
X160178714Y-76341119D02*
X159702524Y-76341119D01*
X158702524Y-77245880D02*
X158750143Y-77293500D01*
X158750143Y-77293500D02*
X158893000Y-77341119D01*
X158893000Y-77341119D02*
X158988238Y-77341119D01*
X158988238Y-77341119D02*
X159131095Y-77293500D01*
X159131095Y-77293500D02*
X159226333Y-77198261D01*
X159226333Y-77198261D02*
X159273952Y-77103023D01*
X159273952Y-77103023D02*
X159321571Y-76912547D01*
X159321571Y-76912547D02*
X159321571Y-76769690D01*
X159321571Y-76769690D02*
X159273952Y-76579214D01*
X159273952Y-76579214D02*
X159226333Y-76483976D01*
X159226333Y-76483976D02*
X159131095Y-76388738D01*
X159131095Y-76388738D02*
X158988238Y-76341119D01*
X158988238Y-76341119D02*
X158893000Y-76341119D01*
X158893000Y-76341119D02*
X158750143Y-76388738D01*
X158750143Y-76388738D02*
X158702524Y-76436357D01*
X158273952Y-77341119D02*
X158273952Y-76341119D01*
X157464429Y-76817309D02*
X157797762Y-76817309D01*
X157797762Y-77341119D02*
X157797762Y-76341119D01*
X157797762Y-76341119D02*
X157321572Y-76341119D01*
X156940619Y-77341119D02*
X156940619Y-76341119D01*
X156464429Y-76817309D02*
X156131096Y-76817309D01*
X155988239Y-77341119D02*
X156464429Y-77341119D01*
X156464429Y-77341119D02*
X156464429Y-76341119D01*
X156464429Y-76341119D02*
X155988239Y-76341119D01*
X155559667Y-77341119D02*
X155559667Y-76341119D01*
X155559667Y-76341119D02*
X155321572Y-76341119D01*
X155321572Y-76341119D02*
X155178715Y-76388738D01*
X155178715Y-76388738D02*
X155083477Y-76483976D01*
X155083477Y-76483976D02*
X155035858Y-76579214D01*
X155035858Y-76579214D02*
X154988239Y-76769690D01*
X154988239Y-76769690D02*
X154988239Y-76912547D01*
X154988239Y-76912547D02*
X155035858Y-77103023D01*
X155035858Y-77103023D02*
X155083477Y-77198261D01*
X155083477Y-77198261D02*
X155178715Y-77293500D01*
X155178715Y-77293500D02*
X155321572Y-77341119D01*
X155321572Y-77341119D02*
X155559667Y-77341119D01*
X153845381Y-77055404D02*
X153369191Y-77055404D01*
X153940619Y-77341119D02*
X153607286Y-76341119D01*
X153607286Y-76341119D02*
X153273953Y-77341119D01*
X152607286Y-76817309D02*
X152464429Y-76864928D01*
X152464429Y-76864928D02*
X152416810Y-76912547D01*
X152416810Y-76912547D02*
X152369191Y-77007785D01*
X152369191Y-77007785D02*
X152369191Y-77150642D01*
X152369191Y-77150642D02*
X152416810Y-77245880D01*
X152416810Y-77245880D02*
X152464429Y-77293500D01*
X152464429Y-77293500D02*
X152559667Y-77341119D01*
X152559667Y-77341119D02*
X152940619Y-77341119D01*
X152940619Y-77341119D02*
X152940619Y-76341119D01*
X152940619Y-76341119D02*
X152607286Y-76341119D01*
X152607286Y-76341119D02*
X152512048Y-76388738D01*
X152512048Y-76388738D02*
X152464429Y-76436357D01*
X152464429Y-76436357D02*
X152416810Y-76531595D01*
X152416810Y-76531595D02*
X152416810Y-76626833D01*
X152416810Y-76626833D02*
X152464429Y-76722071D01*
X152464429Y-76722071D02*
X152512048Y-76769690D01*
X152512048Y-76769690D02*
X152607286Y-76817309D01*
X152607286Y-76817309D02*
X152940619Y-76817309D01*
X151750143Y-76341119D02*
X151559667Y-76341119D01*
X151559667Y-76341119D02*
X151464429Y-76388738D01*
X151464429Y-76388738D02*
X151369191Y-76483976D01*
X151369191Y-76483976D02*
X151321572Y-76674452D01*
X151321572Y-76674452D02*
X151321572Y-77007785D01*
X151321572Y-77007785D02*
X151369191Y-77198261D01*
X151369191Y-77198261D02*
X151464429Y-77293500D01*
X151464429Y-77293500D02*
X151559667Y-77341119D01*
X151559667Y-77341119D02*
X151750143Y-77341119D01*
X151750143Y-77341119D02*
X151845381Y-77293500D01*
X151845381Y-77293500D02*
X151940619Y-77198261D01*
X151940619Y-77198261D02*
X151988238Y-77007785D01*
X151988238Y-77007785D02*
X151988238Y-76674452D01*
X151988238Y-76674452D02*
X151940619Y-76483976D01*
X151940619Y-76483976D02*
X151845381Y-76388738D01*
X151845381Y-76388738D02*
X151750143Y-76341119D01*
X151035857Y-76341119D02*
X150702524Y-77341119D01*
X150702524Y-77341119D02*
X150369191Y-76341119D01*
X150035857Y-76817309D02*
X149702524Y-76817309D01*
X149559667Y-77341119D02*
X150035857Y-77341119D01*
X150035857Y-77341119D02*
X150035857Y-76341119D01*
X150035857Y-76341119D02*
X149559667Y-76341119D01*
X148369190Y-76817309D02*
X147607286Y-76817309D01*
X147607286Y-77103023D02*
X148369190Y-77103023D01*
X146369190Y-77341119D02*
X146369190Y-76341119D01*
X146369190Y-76341119D02*
X146131095Y-76341119D01*
X146131095Y-76341119D02*
X145988238Y-76388738D01*
X145988238Y-76388738D02*
X145893000Y-76483976D01*
X145893000Y-76483976D02*
X145845381Y-76579214D01*
X145845381Y-76579214D02*
X145797762Y-76769690D01*
X145797762Y-76769690D02*
X145797762Y-76912547D01*
X145797762Y-76912547D02*
X145845381Y-77103023D01*
X145845381Y-77103023D02*
X145893000Y-77198261D01*
X145893000Y-77198261D02*
X145988238Y-77293500D01*
X145988238Y-77293500D02*
X146131095Y-77341119D01*
X146131095Y-77341119D02*
X146369190Y-77341119D01*
X145369190Y-77341119D02*
X145369190Y-76341119D01*
X145369190Y-76341119D02*
X144797762Y-77341119D01*
X144797762Y-77341119D02*
X144797762Y-76341119D01*
X144321571Y-77341119D02*
X144321571Y-76341119D01*
X144321571Y-76341119D02*
X143940619Y-76341119D01*
X143940619Y-76341119D02*
X143845381Y-76388738D01*
X143845381Y-76388738D02*
X143797762Y-76436357D01*
X143797762Y-76436357D02*
X143750143Y-76531595D01*
X143750143Y-76531595D02*
X143750143Y-76674452D01*
X143750143Y-76674452D02*
X143797762Y-76769690D01*
X143797762Y-76769690D02*
X143845381Y-76817309D01*
X143845381Y-76817309D02*
X143940619Y-76864928D01*
X143940619Y-76864928D02*
X144321571Y-76864928D01*
X142416809Y-76341119D02*
X142416809Y-76579214D01*
X142654904Y-76483976D02*
X142416809Y-76579214D01*
X142416809Y-76579214D02*
X142178714Y-76483976D01*
X142559666Y-76769690D02*
X142416809Y-76579214D01*
X142416809Y-76579214D02*
X142273952Y-76769690D01*
X141654904Y-76341119D02*
X141654904Y-76579214D01*
X141892999Y-76483976D02*
X141654904Y-76579214D01*
X141654904Y-76579214D02*
X141416809Y-76483976D01*
X141797761Y-76769690D02*
X141654904Y-76579214D01*
X141654904Y-76579214D02*
X141512047Y-76769690D01*
X140892999Y-76341119D02*
X140892999Y-76579214D01*
X141131094Y-76483976D02*
X140892999Y-76579214D01*
X140892999Y-76579214D02*
X140654904Y-76483976D01*
X141035856Y-76769690D02*
X140892999Y-76579214D01*
X140892999Y-76579214D02*
X140750142Y-76769690D01*
D12*
X165021180Y-87420133D02*
X165068800Y-87372514D01*
X165068800Y-87372514D02*
X165116419Y-87229657D01*
X165116419Y-87229657D02*
X165116419Y-87134419D01*
X165116419Y-87134419D02*
X165068800Y-86991562D01*
X165068800Y-86991562D02*
X164973561Y-86896324D01*
X164973561Y-86896324D02*
X164878323Y-86848705D01*
X164878323Y-86848705D02*
X164687847Y-86801086D01*
X164687847Y-86801086D02*
X164544990Y-86801086D01*
X164544990Y-86801086D02*
X164354514Y-86848705D01*
X164354514Y-86848705D02*
X164259276Y-86896324D01*
X164259276Y-86896324D02*
X164164038Y-86991562D01*
X164164038Y-86991562D02*
X164116419Y-87134419D01*
X164116419Y-87134419D02*
X164116419Y-87229657D01*
X164116419Y-87229657D02*
X164164038Y-87372514D01*
X164164038Y-87372514D02*
X164211657Y-87420133D01*
X165116419Y-87896324D02*
X165116419Y-88086800D01*
X165116419Y-88086800D02*
X165068800Y-88182038D01*
X165068800Y-88182038D02*
X165021180Y-88229657D01*
X165021180Y-88229657D02*
X164878323Y-88324895D01*
X164878323Y-88324895D02*
X164687847Y-88372514D01*
X164687847Y-88372514D02*
X164306895Y-88372514D01*
X164306895Y-88372514D02*
X164211657Y-88324895D01*
X164211657Y-88324895D02*
X164164038Y-88277276D01*
X164164038Y-88277276D02*
X164116419Y-88182038D01*
X164116419Y-88182038D02*
X164116419Y-87991562D01*
X164116419Y-87991562D02*
X164164038Y-87896324D01*
X164164038Y-87896324D02*
X164211657Y-87848705D01*
X164211657Y-87848705D02*
X164306895Y-87801086D01*
X164306895Y-87801086D02*
X164544990Y-87801086D01*
X164544990Y-87801086D02*
X164640228Y-87848705D01*
X164640228Y-87848705D02*
X164687847Y-87896324D01*
X164687847Y-87896324D02*
X164735466Y-87991562D01*
X164735466Y-87991562D02*
X164735466Y-88182038D01*
X164735466Y-88182038D02*
X164687847Y-88277276D01*
X164687847Y-88277276D02*
X164640228Y-88324895D01*
X164640228Y-88324895D02*
X164544990Y-88372514D01*
X110569333Y-69050819D02*
X110569333Y-69765104D01*
X110569333Y-69765104D02*
X110616952Y-69907961D01*
X110616952Y-69907961D02*
X110712190Y-70003200D01*
X110712190Y-70003200D02*
X110855047Y-70050819D01*
X110855047Y-70050819D02*
X110950285Y-70050819D01*
X109569333Y-70050819D02*
X110140761Y-70050819D01*
X109855047Y-70050819D02*
X109855047Y-69050819D01*
X109855047Y-69050819D02*
X109950285Y-69193676D01*
X109950285Y-69193676D02*
X110045523Y-69288914D01*
X110045523Y-69288914D02*
X110140761Y-69336533D01*
X173721180Y-98739742D02*
X173768800Y-98692123D01*
X173768800Y-98692123D02*
X173816419Y-98549266D01*
X173816419Y-98549266D02*
X173816419Y-98454028D01*
X173816419Y-98454028D02*
X173768800Y-98311171D01*
X173768800Y-98311171D02*
X173673561Y-98215933D01*
X173673561Y-98215933D02*
X173578323Y-98168314D01*
X173578323Y-98168314D02*
X173387847Y-98120695D01*
X173387847Y-98120695D02*
X173244990Y-98120695D01*
X173244990Y-98120695D02*
X173054514Y-98168314D01*
X173054514Y-98168314D02*
X172959276Y-98215933D01*
X172959276Y-98215933D02*
X172864038Y-98311171D01*
X172864038Y-98311171D02*
X172816419Y-98454028D01*
X172816419Y-98454028D02*
X172816419Y-98549266D01*
X172816419Y-98549266D02*
X172864038Y-98692123D01*
X172864038Y-98692123D02*
X172911657Y-98739742D01*
X173816419Y-99692123D02*
X173816419Y-99120695D01*
X173816419Y-99406409D02*
X172816419Y-99406409D01*
X172816419Y-99406409D02*
X172959276Y-99311171D01*
X172959276Y-99311171D02*
X173054514Y-99215933D01*
X173054514Y-99215933D02*
X173102133Y-99120695D01*
X172816419Y-100311171D02*
X172816419Y-100406409D01*
X172816419Y-100406409D02*
X172864038Y-100501647D01*
X172864038Y-100501647D02*
X172911657Y-100549266D01*
X172911657Y-100549266D02*
X173006895Y-100596885D01*
X173006895Y-100596885D02*
X173197371Y-100644504D01*
X173197371Y-100644504D02*
X173435466Y-100644504D01*
X173435466Y-100644504D02*
X173625942Y-100596885D01*
X173625942Y-100596885D02*
X173721180Y-100549266D01*
X173721180Y-100549266D02*
X173768800Y-100501647D01*
X173768800Y-100501647D02*
X173816419Y-100406409D01*
X173816419Y-100406409D02*
X173816419Y-100311171D01*
X173816419Y-100311171D02*
X173768800Y-100215933D01*
X173768800Y-100215933D02*
X173721180Y-100168314D01*
X173721180Y-100168314D02*
X173625942Y-100120695D01*
X173625942Y-100120695D02*
X173435466Y-100073076D01*
X173435466Y-100073076D02*
X173197371Y-100073076D01*
X173197371Y-100073076D02*
X173006895Y-100120695D01*
X173006895Y-100120695D02*
X172911657Y-100168314D01*
X172911657Y-100168314D02*
X172864038Y-100215933D01*
X172864038Y-100215933D02*
X172816419Y-100311171D01*
D13*
X167164100Y-83149300D02*
X167164100Y-83936800D01*
X166770350Y-83543050D02*
X167557850Y-83543050D01*
X171357163Y-84176800D02*
X170071600Y-84176800D01*
X171357163Y-84176800D02*
X172421600Y-85241237D01*
X166666037Y-84176800D02*
X167951600Y-84176800D01*
X166666037Y-84176800D02*
X165601600Y-85241237D01*
X172421600Y-85241237D02*
X172421600Y-90996800D01*
X165601600Y-85241237D02*
X165601600Y-90996800D01*
X172421600Y-90996800D02*
X170071600Y-90996800D01*
X165601600Y-90996800D02*
X167951600Y-90996800D01*
X108645000Y-116900000D02*
X105985000Y-116900000D01*
X108645000Y-71120000D02*
X108645000Y-116900000D01*
X108645000Y-71120000D02*
X105985000Y-71120000D01*
X108645000Y-69850000D02*
X108645000Y-68520000D01*
X108645000Y-68520000D02*
X107315000Y-68520000D01*
X105985000Y-71120000D02*
X105985000Y-116900000D01*
X170859100Y-103820100D02*
X170859100Y-103032600D01*
X171252850Y-103426350D02*
X170465350Y-103426350D01*
X166666037Y-102792600D02*
X167951600Y-102792600D01*
X166666037Y-102792600D02*
X165601600Y-101728163D01*
X171357163Y-102792600D02*
X170071600Y-102792600D01*
X171357163Y-102792600D02*
X172421600Y-101728163D01*
X165601600Y-101728163D02*
X165601600Y-95972600D01*
X172421600Y-101728163D02*
X172421600Y-95972600D01*
X165601600Y-95972600D02*
X167951600Y-95972600D01*
X172421600Y-95972600D02*
X170071600Y-95972600D01*
%LPC*%
D14*
X189865000Y-114300000D03*
D15*
X187325000Y-103505000D03*
D16*
X187325000Y-98425000D03*
D17*
X145415000Y-96520000D03*
D18*
X145415000Y-93980000D03*
X145415000Y-91440000D03*
D14*
X189865000Y-71120000D03*
D15*
X187325000Y-87630000D03*
D16*
X187325000Y-82550000D03*
D19*
X169011600Y-84886800D03*
X169011600Y-90286800D03*
D17*
X107315000Y-69850000D03*
D18*
X107315000Y-72390000D03*
X107315000Y-74930000D03*
X107315000Y-77470000D03*
X107315000Y-80010000D03*
X107315000Y-82550000D03*
X107315000Y-85090000D03*
X107315000Y-87630000D03*
X107315000Y-90170000D03*
X107315000Y-92710000D03*
X107315000Y-95250000D03*
X107315000Y-97790000D03*
X107315000Y-100330000D03*
X107315000Y-102870000D03*
X107315000Y-105410000D03*
X107315000Y-107950000D03*
X107315000Y-110490000D03*
X107315000Y-113030000D03*
X107315000Y-115570000D03*
D20*
X169011600Y-102082600D03*
X169011600Y-96682600D03*
%LPD*%
M02*
