M48
; DRILL file {KiCad (6.0.6-0)} date Wednesday, February 14, 2024 at 10:46:21 AM
; FORMAT={-:-/ absolute / metric / decimal}
; #@! TF.CreationDate,2024-02-14T10:46:21-05:00
; #@! TF.GenerationSoftware,Kicad,Pcbnew,(6.0.6-0)
; #@! TF.FileFunction,Plated,1,2,PTH
FMAT,2
METRIC
; #@! TA.AperFunction,Plated,PTH,ViaDrill
T1C0.305
; #@! TA.AperFunction,Plated,PTH,ComponentDrill
T2C0.305
; #@! TA.AperFunction,Plated,PTH,ComponentDrill
T3C0.500
; #@! TA.AperFunction,Plated,PTH,ComponentDrill
T4C1.000
; #@! TA.AperFunction,Plated,PTH,ComponentDrill
T5C3.200
%
G90
G05
T1
X103.251Y-57.785
X103.505Y-76.835
X103.632Y-60.325
X103.632Y-62.23
X103.632Y-79.375
X103.632Y-81.28
X105.664Y-69.85
X107.188Y-71.12
X107.696Y-83.185
X107.95Y-64.135
X107.95Y-133.35
X111.379Y-86.233
X111.379Y-88.392
X111.379Y-90.551
X114.3Y-114.3
X120.65Y-133.35
X121.412Y-70.866
X121.92Y-59.563
X121.92Y-106.045
X123.063Y-56.642
X123.063Y-57.531
X123.19Y-75.692
X123.19Y-76.581
X123.19Y-88.392
X123.317Y-73.152
X124.46Y-59.563
X125.349Y-40.259
X126.365Y-119.38
X127.0Y-106.045
X127.0Y-114.3
X127.0Y-139.7
X133.35Y-44.45
X133.35Y-69.85
X133.35Y-95.25
X133.35Y-106.045
X133.35Y-133.35
X139.7Y-76.2
X139.7Y-83.82
X139.7Y-114.3
X139.7Y-139.7
X141.605Y-66.04
X141.605Y-79.375
X144.145Y-63.5
X144.145Y-81.28
X146.05Y-44.45
X146.05Y-69.85
X146.05Y-82.55
X146.05Y-83.82
X146.05Y-95.25
X146.05Y-133.35
X152.4Y-63.5
X152.4Y-76.2
X152.4Y-114.3
X152.4Y-139.7
X158.75Y-44.45
X158.75Y-69.85
X158.75Y-82.55
X158.75Y-95.25
X158.75Y-133.35
X165.1Y-63.5
X165.1Y-76.2
X165.1Y-88.9
X165.1Y-114.3
X165.1Y-127.0
X165.1Y-139.7
X166.37Y-110.49
X167.005Y-104.902
X167.005Y-118.491
X168.275Y-114.935
X168.275Y-117.475
X168.402Y-106.045
X170.307Y-60.96
X171.323Y-116.332
X171.45Y-44.45
X171.45Y-69.85
X171.45Y-133.35
X171.831Y-108.966
X171.831Y-110.236
X172.593Y-109.601
X172.974Y-119.126
X173.288Y-114.24
X173.99Y-121.92
X174.752Y-115.443
X174.879Y-105.664
X175.895Y-99.822
X175.895Y-103.886
X176.53Y-116.332
X176.657Y-58.42
X177.8Y-95.377
X177.8Y-99.441
X177.8Y-121.92
X177.8Y-127.0
X177.8Y-139.7
X177.927Y-114.554
X178.435Y-53.34
X178.816Y-119.126
X179.705Y-95.377
X179.705Y-99.441
X179.705Y-121.92
X180.34Y-55.88
X181.61Y-95.377
X181.61Y-99.441
X181.991Y-114.427
X182.499Y-125.603
X183.515Y-95.377
X183.515Y-111.506
X183.515Y-114.427
X183.515Y-121.92
X183.642Y-107.95
X183.896Y-106.299
X184.023Y-124.206
X184.15Y-44.45
X184.15Y-57.15
X184.15Y-69.85
X184.15Y-82.55
X185.42Y-99.695
X185.42Y-125.095
X186.166Y-108.966
X186.309Y-125.603
X186.563Y-107.95
X186.589Y-102.462
X186.817Y-104.775
X187.706Y-116.459
X187.96Y-99.441
X187.96Y-122.428
X188.214Y-125.603
X189.23Y-103.759
X189.23Y-118.999
X189.611Y-81.28
X190.373Y-115.57
X190.373Y-117.475
X190.5Y-63.5
X190.5Y-76.2
X190.5Y-79.375
X190.5Y-108.585
X190.5Y-111.76
X190.5Y-127.0
X190.5Y-139.7
X190.627Y-106.68
X191.77Y-50.8
X192.913Y-114.173
X194.31Y-102.616
X194.31Y-108.585
X194.31Y-111.76
X195.199Y-104.394
X195.199Y-106.68
X195.199Y-109.728
X196.215Y-120.65
X196.85Y-44.45
X196.85Y-57.15
X196.85Y-69.85
X196.85Y-82.55
X196.85Y-133.35
X198.247Y-99.695
X198.247Y-101.6
X198.247Y-103.505
X198.247Y-105.41
X198.247Y-107.315
X198.755Y-118.745
X203.2Y-50.8
X203.2Y-63.5
X203.2Y-76.2
X203.2Y-88.9
X203.2Y-127.0
X205.105Y-116.205
X205.105Y-118.11
X205.486Y-108.966
X207.264Y-108.966
X209.55Y-57.15
X209.55Y-69.85
X209.55Y-95.25
X209.55Y-107.95
X209.55Y-120.65
X209.55Y-133.35
X210.439Y-102.235
X210.439Y-103.505
X210.439Y-104.775
X210.439Y-106.045
T2
X110.998Y-59.309
X110.998Y-60.325
X110.998Y-61.341
X110.998Y-78.359
X110.998Y-79.375
X110.998Y-80.391
X112.522Y-59.309
X112.522Y-60.325
X112.522Y-61.341
X112.522Y-78.359
X112.522Y-79.375
X112.522Y-80.391
X177.673Y-108.458
X177.673Y-109.474
X177.673Y-110.49
X177.673Y-111.506
X177.673Y-112.522
X178.689Y-108.458
X178.689Y-109.474
X178.689Y-110.49
X178.689Y-111.506
X178.689Y-112.522
X179.705Y-108.458
X179.705Y-109.474
X179.705Y-110.49
X179.705Y-111.506
X179.705Y-112.522
X180.721Y-108.458
X180.721Y-109.474
X180.721Y-110.49
X180.721Y-111.506
X180.721Y-112.522
X181.737Y-108.458
X181.737Y-109.474
X181.737Y-110.49
X181.737Y-111.506
X181.737Y-112.522
T3
X103.01Y-41.91
X103.01Y-138.43
X103.713Y-40.213
X103.713Y-43.607
X103.713Y-136.733
X103.713Y-140.127
X105.41Y-39.51
X105.41Y-44.31
X105.41Y-136.03
X105.41Y-140.83
X107.107Y-40.213
X107.107Y-43.607
X107.107Y-136.733
X107.107Y-140.127
X107.81Y-41.91
X107.81Y-138.43
X209.69Y-41.91
X209.69Y-85.09
X209.69Y-138.29
X210.393Y-40.213
X210.393Y-43.607
X210.393Y-83.393
X210.393Y-86.787
X210.393Y-136.593
X210.393Y-139.987
X212.09Y-39.51
X212.09Y-44.31
X212.09Y-82.69
X212.09Y-87.49
X212.09Y-135.89
X212.09Y-140.69
X213.787Y-40.213
X213.787Y-43.607
X213.787Y-83.393
X213.787Y-86.787
X213.787Y-136.593
X213.787Y-139.987
X214.49Y-41.91
X214.49Y-85.09
X214.49Y-138.29
T4
X105.41Y-48.26
X108.585Y-99.695
X108.585Y-104.028
X108.585Y-121.808
X108.585Y-126.365
X111.125Y-99.695
X111.125Y-104.028
X111.125Y-121.808
X111.125Y-126.365
X113.03Y-138.43
X113.665Y-99.695
X113.665Y-104.028
X113.665Y-121.808
X113.665Y-126.365
X114.3Y-67.945
X116.205Y-99.695
X116.205Y-104.028
X116.205Y-121.808
X116.205Y-126.365
X117.348Y-88.646
X118.745Y-99.695
X118.745Y-104.028
X118.745Y-121.808
X118.745Y-126.365
X121.285Y-99.695
X121.285Y-104.028
X121.285Y-121.808
X121.285Y-126.365
X123.825Y-99.695
X123.825Y-104.028
X123.825Y-121.808
X123.825Y-126.365
X126.365Y-99.695
X126.365Y-104.028
X126.365Y-121.808
X126.365Y-126.365
X128.905Y-99.695
X128.905Y-104.028
X128.905Y-121.808
X128.905Y-126.365
X129.54Y-40.64
X129.54Y-43.18
X129.54Y-45.72
X129.54Y-48.26
X129.54Y-50.8
X129.54Y-53.34
X129.54Y-55.88
X129.54Y-58.42
X129.54Y-60.96
X129.54Y-63.5
X129.54Y-66.04
X129.54Y-68.58
X129.54Y-71.12
X129.54Y-73.66
X129.54Y-76.2
X129.54Y-78.74
X129.54Y-81.28
X129.54Y-83.82
X129.54Y-86.36
X131.445Y-99.695
X131.445Y-104.028
X131.445Y-121.808
X131.445Y-126.365
X133.985Y-99.695
X133.985Y-104.028
X133.985Y-121.808
X133.985Y-126.365
X136.525Y-99.695
X136.525Y-104.028
X136.525Y-121.808
X136.525Y-126.365
X139.065Y-99.695
X139.065Y-104.028
X139.065Y-121.808
X139.065Y-126.365
X141.605Y-99.695
X141.605Y-104.028
X141.605Y-121.808
X141.605Y-126.365
X144.145Y-99.695
X144.145Y-104.028
X144.145Y-121.808
X144.145Y-126.365
X146.685Y-99.695
X146.685Y-104.028
X146.685Y-121.808
X146.685Y-126.365
X149.225Y-99.695
X149.225Y-104.028
X149.225Y-121.808
X149.225Y-126.365
X151.765Y-99.695
X151.765Y-104.028
X151.765Y-121.808
X151.765Y-126.365
X154.305Y-99.695
X154.305Y-104.028
X154.305Y-121.808
X154.305Y-126.365
X156.845Y-99.695
X156.845Y-104.028
X156.845Y-121.808
X156.845Y-126.365
X176.53Y-133.35
X176.53Y-135.89
X179.07Y-133.35
X179.07Y-135.89
X181.61Y-133.35
X181.61Y-135.89
X184.15Y-133.35
X184.15Y-135.89
X186.69Y-133.35
X186.69Y-135.89
X198.374Y-95.885
X200.914Y-95.885
X205.105Y-138.43
X207.645Y-114.93
X207.645Y-117.47
X212.09Y-92.71
T5
X105.41Y-41.91
X105.41Y-138.43
X212.09Y-41.91
X212.09Y-85.09
X212.09Y-138.29
T4
G00X112.04Y-50.22
M15
G01X112.04Y-48.02
M16
G05
G00X117.94Y-45.72
M15
G01X115.74Y-45.72
M16
G05
G00X118.14Y-52.02
M15
G01X115.54Y-52.02
M16
G05
T0
M30
